<svg version="1.1" id="Camada_1" xmlns="http://www.w3.org/2000/svg" xmlns:xlink="http://www.w3.org/1999/xlink" x="0px" y="0px"
	 viewBox="0 0 409.1 167.9">
<g fill="#FFFFFF">
<path d="M321.6,4.2c2.6-0.1,5.1-0.5,7.7-0.4c1.6,0,3.2-0.2,4.9,0c9,0.3,17.9,1.9,26.3,5.1c8.5,3.3,16.4,8.4,22.5,15.2
	c6,6.7,10.4,14.9,12.6,23.6c0.6,0.1,1.3,0.2,1.7,0.7c0.6,0.7,0.2,1.7,0.6,2.4c0.6,1.1,1.9,1.8,2.1,3.2c-0.4,5.3-0.8,10.6-1.3,15.8
	c-4.3-0.4-8.7-0.9-13-1.3c0.4-5.2,0.9-10.3,1.3-15.5c0.8-1.6,2.8-2.3,3.1-4.1c0.1-0.8,0.6-1.3,1.3-1.5c-2.5-8.4-7-16.3-13.2-22.5
	c-6.5-6.5-14.7-11.1-23.5-13.7c-7.8-2.4-15.9-3.3-24.1-3.4c-16,0.2-32,4.1-46.2,11.4c0,0.8,0,1.9-0.8,2.3c-0.8,0.5-1.4,1.1-1.8,1.9
	c-0.5,1-0.8,2.3-1.9,2.7c-4.4,2-8.8,3.9-13.1,5.9c-2-4.1-3.8-8.2-5.8-12.3c4.6-2,9.1-4.1,13.7-6.1c1.1-0.5,2.2,0.2,3.1,0.6
	c0.8,0.4,1.8,0.2,2.6,0c1-0.2,1.6,0.7,2.3,1.2C294.8,9.3,308.1,5.5,321.6,4.2z"/>
<path d="M251.8,24.1c2.8-1.2,5.5-2.5,8.4-3.7c1.8,4,3.7,7.9,5.5,11.8c-4,1.8-8,3.6-11.9,5.3c-0.9,0.4-1.8,0.9-2.7,1.2
	c-1.4,0.2-2.5-1.1-3.9-0.9c-0.7,0-1.3,0.4-2,0.2c-0.6-0.3-1.1-0.8-1.5-1.3c-4.9,2.5-9.7,5.2-13.9,8.7c-3.2,2.6-6.1,5.7-8.3,9.2
	c-2.1,3.5-3.5,7.4-4,11.4c-0.2,2-0.4,4,0,6c1.1,1.9,2.2,3.9,3,6c0.2,0.8,0.9,1.3,1.4,1.8c0.1-4-0.1-7.9,0.1-11.9
	c0.5-3.8,2.3-7.5,5.1-10.1c4.6-4.5,12-5.7,17.9-3.2c3.4,1.4,6.3,4,8.1,7.2c1.4,2.4,2.1,5.2,2.1,8c0,16.7,0,33.4,0,50.1
	c-0.1,2.5,0.2,4.9-0.2,7.4c-0.5,4.4-3,8.5-6.6,11.1c-4.4,3.2-10.3,4.1-15.4,2.3c-6.3-2.1-11.1-8.3-11.2-15c-0.1-3.9,0-7.7,0-11.6
	c-0.4,0.8-0.6,1.6-0.9,2.5c-2.3,6.2-6.1,11.9-11.1,16.2c-5.5,4.9-12.6,7.8-19.8,8.7c-5.7,0.7-11.5,0.6-17.1-0.6
	c-4.6-1-9.1-2.9-13-5.7c-2.4-1.6-4.5-3.7-6.5-5.8c-4.7,5.6-10.4,10.3-16.4,14.5c-14.8,9.9-32,16.3-49.8,17.8
	c-3.2,0.1-6.3,0.4-9.5,0.1c-7-0.2-14-1.5-20.7-3.9c-10.8-3.8-20.5-10.7-27.9-19.5c-0.9,0.2-2.1,0.5-2.8-0.4c-0.5-0.8-1.2-1.4-2-1.7
	c-1-0.5-2.2-0.6-2.8-1.7c-2.1-4.2-4.3-8.4-6.4-12.6c3.8-2.1,7.7-4.1,11.6-6.2c2.2,4.3,4.4,8.7,6.6,13c0.9,1.7-1.1,3.3-0.4,5.1
	c0.3,0.7,0.3,1.6-0.2,2.3c1.6,1.7,3.1,3.5,4.9,5c6.8,6.4,15.2,11.2,24.2,13.7c11.7,3.3,24.2,3,36.1,0.5c10.2-2.2,20.1-6.1,29.2-11.2
	c7.3-4.1,14.3-8.9,20.4-14.7c1.2-1.1,2.3-2.2,3.4-3.4c-2.9-4.1-5.1-8.7-6.3-13.5c-0.1-0.5-0.2-0.9-0.4-1.3c-0.8,4.7-2.5,9.1-5,13.2
	c-2.2,3.5-4.8,6.7-8,9.3c-5.7,4.7-13.1,7.2-20.4,7.6c-1.9,0.1-3.8,0.3-5.8,0.1c-8-0.3-16.1-3-22.1-8.4c-6.9-6.2-11.5-14.9-12.5-24.2
	c-0.1-2-0.4-4-0.1-6c0.3-3.8,2-7.5,4.6-10.2c2.9-3,7-4.8,11.2-4.9c2.6-0.2,5.1,0.4,7.5,1.3c-3.6-7.4-8.2-14.4-13.6-20.6
	c-3.2-3.5-6.7-6.9-10.7-9.6c-7.8-5.6-17.4-9.2-27.1-8.9c-3.7,0.1-7.5,0.7-11,1.9c-5.6,1.9-10.8,5.1-14.7,9.5
	c-5.9,6.3-8.9,15.3-8,23.9c0.3,4.3,1.6,8.4,3.4,12.3c0.9-0.1,2.2-0.4,2.8,0.5c0.5,1,1.6,1.5,2.5,1.8c0.8,0.3,1.9,0.6,2.2,1.5
	c2.3,4.5,4.5,8.9,6.8,13.4c-3.8,2.1-7.7,4.2-11.6,6.2c-2.3-4.6-4.7-9.3-7.1-13.9c-0.7-1.3,0.4-2.5,0.5-3.8c0.1-0.7-0.2-1.4-0.3-2.1
	c-0.1-0.7,0.5-1.2,0.8-1.8c-2.9-5.9-4.6-12.4-4.2-19c0.2-6.9,2.8-13.7,7-19.2c6.5-8.4,16.6-13.6,27.1-14.7
	c6.9-0.7,13.9,0.2,20.3,2.6c9.2,3.3,17.3,9.3,23.9,16.6c7.8,8.5,13.6,18.6,18.2,29.2c0.8,1.4,1.6,2.7,2,4.2c0.7,1.9,0.8,4,0.9,6
	c0.1,1.2,0.8,2.6,2.1,2.9c1.3,0.2,2.7,0.3,4-0.2c1.2-0.6,1.6-2.1,1.5-3.4c0-10.1,0-20.2,0-30.3c0-2.5-0.1-5,0.3-7.4
	c1.3-7.5,8.4-13.6,16.1-13.4c3.8-0.1,7.7,1.1,10.7,3.4c3.8,2.8,6.2,7.4,6.4,12.1c0,4.4,0,8.7,0,13.1c0.6-1.1,0.8-2.4,1.3-3.6
	c3.2-7.8,8.6-14.8,15.8-19.1c5.3-3.2,11.4-4.9,17.5-5.3c5.5-0.4,11.1,0,16.4,1.5c4.4,1.2,8.6,3.3,12.2,6.1c1.9,1.5,3.6,3.2,5.3,4.9
	c0.5-4,1.6-7.9,3.5-11.4c3.2-5.9,8.2-10.7,13.7-14.5c3.7-2.6,7.7-4.8,11.7-6.8c-0.3-0.9-0.2-2.2,0.8-2.7c1.7-0.8,1.7-3,2.9-4.2
	C247.8,25.8,249.8,25,251.8,24.1z M126.5,58.6c-5.4,0.5-10,5.5-10.1,10.9c0,11.8,0,23.6,0,35.4c-0.1,2.4-1,5-2.9,6.6
	c-2.2,1.8-5.2,2.2-7.9,1.9c-1.9-0.3-3.8-1.1-5.1-2.5c-1.6-1.8-2.3-4.3-2.4-6.6c0-4.3-2.7-8.5-6.6-10.2c-2.1-0.9-4.5-1.3-6.8-0.9
	c-3.5,0.5-6.6,2.8-8.2,5.9c-1.3,2.6-1.5,5.6-1.1,8.4c0.5,7.7,4.1,15.2,9.6,20.6c3.1,3.2,7.1,5.5,11.4,6.8c2.9,0.9,6,1.3,9.1,1.5
	c5.8,0.2,11.7-0.6,16.9-3.2c3.9-1.9,7.4-4.8,10-8.2c3-3.9,5.2-8.4,6.2-13.3c0.6-2.7,0.7-5.4,0.8-8.1c0-11.2,0-22.5,0-33.7
	c0-3.5-1.7-6.9-4.6-9C132.5,59,129.4,58.2,126.5,58.6z M170,61.1c-4.1,1.5-7.9,3.9-11.1,7C153,74,149.1,82,148.6,90.3
	c-0.4,3.3-0.1,6.6-0.2,9.9c0,3.6,0.2,7.2,1.1,10.6c1,4,2.7,7.8,5,11.3c4.8-5,10.4-9.4,17-11.5c5.6-1.8,12-1.6,17.2,1.3
	c4.1,2.2,7.3,6.1,8.2,10.8c0.6,3,0,6.2-1.6,8.8c-1.1,1.9-2.8,3.3-4.4,4.6c3-0.5,6-1.5,8.8-2.8c5.6-2.7,10.2-7.3,13.4-12.6
	c3-4.9,4.7-10.6,5.1-16.3c0.2-3.9,0-7.9,0.1-11.8c-0.1-3-0.5-6-1.3-8.8c-1.2-4.5-3.4-8.7-6.2-12.3c-2.5-3.2-5.5-6-9-8
	c-3.8-2.2-8.1-3.5-12.5-4.1C182.7,58.6,176.1,58.9,170,61.1z M242.8,87.9c-5,1.9-10.8,1.7-15.8-0.2c-0.1,1.8,0,3.7-0.1,5.5
	c0,10.5,0,20.9,0,31.4c0,3,1.1,6,3.2,8.1c2.2,2.4,5.5,3.6,8.8,3.5c2.7-0.2,5.5-1.2,7.5-3.2c2-1.9,3.2-4.5,3.4-7.2
	c0-14.2,0-28.4,0-42.7C247.8,85.3,245.4,86.9,242.8,87.9z"/>
<path d="M264,55.9c4.3-2.8,9.8-3.4,14.6-1.8c3,1,5.7,3,7.6,5.6c3.8,5,7.5,10,11.3,15c0.1-3-0.2-6,0.6-8.9
	c1-4.2,3.8-8,7.6-10.2c3.3-2,7.4-2.6,11.2-2c4.3,0.7,8.3,3,10.9,6.5c1.6,2.1,2.6,4.6,3,7.2c0.3,1.3,0.2,2.6,0.2,4
	c0,17.3,0,34.7,0,52c0,1.5,0.1,3.1-0.2,4.6c-0.9,5.2-4.4,9.9-9.1,12.2c-2.8,1.4-5.9,2-9,1.9c6.5,6.4,14,11.7,22.5,15
	c5,2,10.3,3.1,15.7,3.4c8.5,0.4,17.2-2,23.8-7.5c1.7-1.5,3.3-3.1,4.6-4.9c0-0.5-0.7-0.8-0.6-1.3c0-0.8-0.1-1.7-0.6-2.3
	c-0.6-0.9-1.6-1.6-1.6-2.8c0.6-4.9,1.2-9.8,1.8-14.6c4.3,0.5,8.6,1.3,12.9,1.8c-0.5,4.7-1.2,9.5-1.7,14.2c-0.4,1.4-2,2-2.8,3.2
	c-0.6,0.7-0.4,2-1.4,2.3c-0.7,0.4-1.7,0.1-2.1,0.9c-4.7,7.1-12.3,11.9-20.5,13.9c-9.3,2.3-19.2,1.3-28.1-2
	c-9.1-3.4-17.2-8.9-24.2-15.6c-1.7-1.5-3.1-3.2-4.7-4.8c-1.4-1.6-2.7-3.3-4.3-4.8c-1.6-1.7-3-3.5-4.3-5.4c-2.6-3.5-5-7-7.5-10.5
	c-0.1,2.8,0.2,5.6-0.4,8.3c-0.9,4.4-3.7,8.4-7.6,10.7c-4.1,2.5-9.4,3.1-14,1.6c-6.1-1.9-10.8-7.7-11.3-14.1
	c-0.2-2.5-0.1-4.9-0.1-7.4c0-16.5,0-33,0-49.5C256.4,64.2,259.3,58.9,264,55.9z M265.1,61.7c-2.2,2.1-3.4,5-3.5,8
	c0,18.4,0,36.8,0,55.2c0.1,3.3,1.5,6.5,4.1,8.6c3.6,3.2,9.2,3.6,13.3,1.1c3.3-1.9,5.4-5.5,5.5-9.3c0-6.5,0-13,0-19.5
	c7.6,7.6,13.6,16.5,20.1,25.1c0.8,0.9,1.5,1.9,2.4,2.7c2,1.8,4.7,2.7,7.3,2.6c3.9,0,7.7-2,9.7-5.3c1.3-2,1.8-4.4,1.7-6.7
	c0-17.3,0-34.7,0-52c0-1.9,0.1-3.8-0.5-5.7c-0.7-2.3-2.1-4.4-4.1-5.8c-3.2-2.4-7.8-3-11.5-1.4c-1.9,0.8-3.5,2.2-4.8,3.8
	c-1.4,1.9-2.1,4.3-2.2,6.6c0,6.4,0,12.8,0,19.1c-7.2-7.2-13.1-15.7-19.1-23.8c-1.2-1.6-2.3-3.2-3.9-4.4
	C275.5,57.4,268.9,57.9,265.1,61.7z"/>
<path d="M404,84.6c-0.5-4.7-1.7-9.4-4.1-13.5c-5.3-0.5-10.5-1-15.8-1.6c-3.4,3.3-5.7,7.5-7.5,11.8
	c-3.5,8.6-5,18.1-4.6,27.3c0.4,5.5,1.3,11.2,4.1,16.1c0.2,0.5,0.7,0.5,1.2,0.6c4.9,0.6,9.7,1.4,14.6,2c3.4-3.2,5.8-7.4,7.6-11.6
	c2-4.7,3.3-9.7,4.1-14.8C404.4,95.5,404.7,90,404,84.6z"/>
</g>
</svg> 