<?xml version="1.0" encoding="utf-8"?>
<!-- Generator: Adobe Illustrator 24.2.3, SVG Export Plug-In . SVG Version: 6.00 Build 0)  -->
<svg version="1.1" id="Layer_1" xmlns="http://www.w3.org/2000/svg" xmlns:xlink="http://www.w3.org/1999/xlink" x="0px" y="0px"
	 viewBox="0 0 135.2 37.2" style="enable-background:new 0 0 135.2 37.2;" xml:space="preserve">
<style type="text/css">
	.st0{fill:#FFFFFF;}
</style>
<g>
	<g>
		<polygon class="st0" points="78.54,4.95 86.23,7.94 78.54,10.82 78.54,14.9 91.7,9.58 91.7,6.33 78.54,1.01 		"/>
	</g>
	<g>
		<path class="st0" d="M8.14,20.11c-3.68,0-6.38,1.64-6.6,5.07h4.08v-0.07c0.07-1.13,1.13-1.97,2.3-1.86c1.57,0,2.3,0.91,2.3,2.44
			v0.73H8.36c-4.01,0-7.25,1.24-7.25,5.07v0.15c0,3.1,2.3,4.48,5.07,4.48l0,0c1.71,0.07,3.28-0.73,4.23-2.04v1.79h4.16V25.58
			C14.45,21.64,11.75,20.11,8.14,20.11z M7.27,33.09c-1.46,0-2.11-0.73-2.11-1.79v-0.15c0-1.39,1.06-1.97,3.17-1.97h1.71v1.46l0,0
			C10.11,32.25,8.72,33.09,7.27,33.09z"/>
	</g>
	<g>
		<path class="st0" d="M24.29,32.91c-2.04,0-3.1-1.39-3.1-4.48v-0.47c0-3.03,1.24-4.48,3.1-4.48c1.46,0,2.3,0.98,2.52,2.44h4.08
			c-0.33-4.01-3.28-5.8-6.71-5.8c-4.08,0-7.33,2.77-7.33,7.98v0.15c0,5.21,3.1,7.84,7.33,7.84l0,0c4.16,0,6.53-2.52,6.85-5.94h-3.9
			C26.84,31.85,25.79,32.91,24.29,32.91z"/>
	</g>
	<g>
		<path class="st0" d="M40.22,32.91c-2.04,0-3.1-1.39-3.1-4.48v-0.47c0-3.03,1.24-4.48,3.1-4.48c1.46,0,2.3,0.98,2.52,2.44h4.08
			c-0.33-4.01-3.28-5.8-6.71-5.8c-4.08,0-7.33,2.77-7.33,7.98v0.15c0,5.21,3.1,7.84,7.33,7.84l0,0c4.16,0,6.53-2.52,6.78-5.94h-3.83
			C42.81,31.85,41.68,32.91,40.22,32.91z"/>
	</g>
	<g>
		<path class="st0" d="M56.3,32.98c-1.86,0-3.03-1.06-3.17-3.83h9.95v-1.79c0-5.07-3.17-7.25-7-7.25c-4.16,0-7.33,2.84-7.33,7.98
			v0.33c0,5.14,3.03,7.76,7.44,7.76l0,0c4.01,0,6.45-2.19,6.85-5.14h-4.01C58.81,32.25,57.57,33.16,56.3,32.98z M56.04,23.03
			c1.71,0,2.77,0.98,2.84,3.28h-5.72l0,0l0,0l0,0C53.49,23.87,54.73,23.14,56.04,23.03z"/>
	</g>
	<g>
		<polygon class="st0" points="53.2,26.31 53.2,26.31 53.09,26.31 		"/>
	</g>
	<g>
		<path class="st0" d="M74.64,20.11c-1.97-0.07-3.75,0.91-4.67,2.62v-2.3h-4.23v15.35h4.23v-9.37c0-0.15,0-0.26,0-0.4
			c0.07-1.39,1.31-2.52,2.7-2.44c1.57,0,2.3,0.8,2.3,2.62v9.59h4.34V25.51C79.3,21.75,77.41,20.11,74.64,20.11z"/>
	</g>
	<g>
		<path class="st0" d="M87.29,30.87v-7.25h2.95v-3.17h-2.95v-4.67l-4.23,1.79v2.84H81.2v3.17h1.79v7.76c0,3.1,1.57,4.67,4.89,4.67
			c0.8,0,1.64-0.07,2.44-0.33v-3.35c-0.47,0.15-0.98,0.26-1.46,0.26C87.87,32.58,87.29,32.03,87.29,30.87z"/>
	</g>
	<g>
		<path class="st0" d="M102.05,29.99c0,0.15,0,0.26,0,0.4c-0.07,1.39-1.31,2.52-2.7,2.44c-1.57,0-2.19-0.8-2.19-2.62V20.4h-4.34
			v10.35c0,3.57,2.04,5.29,4.81,5.29c1.86,0.07,3.57-0.91,4.48-2.62v2.3h4.34V20.37h-4.34L102.05,29.99L102.05,29.99z"/>
	</g>
	<g>
		<path class="st0" d="M113.79,23.21v-2.84h-4.23v15.35h4.23v-7.95c0-2.52,1.71-3.43,4.67-3.43v-4.23
			C116.34,20.11,114.45,21.32,113.79,23.21z"/>
	</g>
	<g>
		<path class="st0" d="M134.09,27.29c0-5.07-3.17-7.18-7-7.18c-4.16,0-7.33,2.84-7.33,7.98v0.33c0,5.14,3.03,7.76,7.44,7.76l0,0
			c4.01,0,6.38-2.19,6.85-5.14h-4.01c-0.33,1.31-1.57,2.11-2.84,2.04c-1.86,0-3.03-1.06-3.17-3.83h9.95v-1.97L134.09,27.29
			L134.09,27.29z M124.14,26.31L124.14,26.31L124.14,26.31c0.33-2.52,1.57-3.28,2.95-3.28c1.71,0,2.77,0.98,2.84,3.28H124.14
			L124.14,26.31z"/>
	</g>
	<g>
		<path class="st0" d="M124.14,26.31L124.14,26.31L124.14,26.31L124.14,26.31z"/>
	</g>
</g>
</svg>
