<?xml version="1.0" encoding="utf-8"?>
<!-- Generator: Adobe Illustrator 25.4.1, SVG Export Plug-In . SVG Version: 6.00 Build 0)  -->
<svg version="1.1" id="Foreground" xmlns="http://www.w3.org/2000/svg" xmlns:xlink="http://www.w3.org/1999/xlink" x="0px" y="0px"
	 viewBox="0 0 558.1 245.5" style="enable-background:new 0 0 558.1 245.5;" xml:space="preserve">
<style type="text/css">
	.st0{fill:#FFFFFF;}
	.st1{fill-rule:evenodd;clip-rule:evenodd;fill:#FFFFFF;}
</style>
<g>
	<path class="st0" d="M240.1,163.7c-0.4,0.1-0.7,0.2-1.1,0.2l-8.1,0c-1.7,0-2.8-1.3-2.8-3l0.1-45.6c0-8.3-3.4-17.8-13.3-17.8
		l-47.6-0.1c-9.6,0-13.4,9.6-13.5,17.8l-0.1,45.6c0,1.8-1.3,2.9-3.1,2.9l-8.1,0c-1.8,0-2.8-1.3-2.8-3l0.1-44.2
		c0-17.7,7.3-34.5,27.5-34.5l47.6,0.1c20.4,0,27.1,17.1,27.1,34.7L242,161C242,162.2,241.4,163.3,240.1,163.7"/>
	<path class="st1" d="M376.3,114.9v16.7c0,17.7-7.3,32.5-27,32.5h-48.7c-18.3,0-27.3-11.3-27.3-32.5v-16.7c0-10.5,2.3-18.9,7.1-24.6
		c5.6-5.6,12.3-8.1,20.2-8.1h48.7c8.2,0,14.9,2.7,19.8,8.2C375,97.1,376.3,106.3,376.3,114.9 M348.6,149c9.2,0,14-5.3,14-17.5v-16.8
		c0-12.1-4.8-17.3-14-17.3h-47.1c-9.2,0-14,5.3-14,17.5v16.7c0,12.2,4.8,17.5,14,17.5H348.6z"/>
	<path class="st1" d="M84.5,148.6c6.3,0,9.5-3.4,9.5-11.2c0.2-3.4,0.3-6.1,0.3-8l0-2.6l-66,0.3c-1.5,0-4.6,0-6.1,1.3
		c-2.7,1.1-3,4.2-3,6.7l0,5.8c0,5.4,2.7,8.1,9.1,8L84.5,148.6z M102.3,89.1c4.5,4.6,6.6,11.9,6.6,21.4l-0.1,1.8
		c0.1,1,0.1,1.9,0.1,2.8v2.5v13.2c-0.3,7.2-0.7,20.1-4.5,26.5c-3.7,6.2-10.9,6.7-17.4,6.7H25.2c-13.1,0-19.6-7.7-19.6-21.9v-7.2
		c0-21.4,9.7-24.1,29.2-24.1l59.2-0.1c-0.3-4.6-1.3-7.7-2.8-9.7c-3.4-2.1-3.5-3.3-7.9-3.3h-50c-7.7,0-11-0.1-11,6.2
		c0,1.7-1,3.1-2.8,3.1h-8.4c-1.8,0-2.9-1.3-2.9-3.1V102c0-15.1,8.1-19.8,23.7-19.8h52.3C91.8,82.3,97.9,84.6,102.3,89.1"/>
	<path class="st0" d="M520.7,88.3C492.9,19.4,402.5,13.2,362,68.3c-0.4,0.6-2.9,1.9-3.6,1.9L339,70.3c-4.3,0-6.1-3.2-4-6.9
		c46.8-79.9,171.5-77.7,209.1,15.3c24.2,59.8-4.7,127.8-64.6,152c-42.1,17-88.2,7.7-120.3-20c-4-3.4-2.3-7.9,2.9-8l27.9-0.2
		c0.2,0,2.1,0.5,2.2,0.5C465.5,242.5,553.5,169.4,520.7,88.3"/>
	<path class="st1" d="M399.8,33.5C449,13.6,505,37.4,524.9,86.6c19.9,49.2-3.9,105.2-53.1,125.1c-27.6,11.1-57.3,8.6-81.7-4.5
		l-27.9,0.2c30.8,26.7,75.2,35.5,115.6,19.2c57.5-23.2,85.3-88.6,62-146.1c-23.2-57.5-88.6-85.2-146.1-62
		c-23.9,9.7-42.7,26.6-54.8,47.3l19.4-0.2C368.5,51.7,382.6,40.4,399.8,33.5"/>
	<path class="st0" d="M453,164.9c-0.8-0.4-1.5-1.3-1.9-2.1l-6.6-15.2l-20.9,37.6c-1.2,2.1-3.8,2.9-5.9,1.7l-14-7.8
		c-2.1-1.2-2.9-3.8-1.7-5.9l20.9-37.6l-16.4,2.4c-0.9,0.1-2-0.1-2.7-0.5l-11.5-6.4c-2.8-1.6-3.1-5.3-0.5-7.3
		c27.4-21,54.8-41.9,82.3-62.9c3.1-2.4,7.4,0,7,3.9c-3.3,34.3-6.6,68.7-10,103c-0.3,3.2-3.7,4.9-6.5,3.4L453,164.9z"/>
	<polygon class="st1" points="405.8,133.7 430.9,130 405.7,175.3 419.8,183.1 444.9,137.8 455.1,161.1 466.6,167.5 476.5,64.4 
		394.3,127.3 	"/>
	<path class="st1" d="M171.2,177.9h-9.6v18.6c0,0.5-0.3,0.8-0.8,0.8h-2.2c-0.5,0-0.7-0.4-0.8-0.8l0-18.6h-9.3
		c-0.5,0-0.8-0.3-0.8-0.8v-2.2c0-0.5,0.3-0.8,0.8-0.8H171c0.5,0,0.8,0.3,0.8,0.8v2.2C171.9,177.4,171.7,177.9,171.2,177.9
		 M125.5,177.6c-0.2,0.2-0.4,0.3-0.6,0.3h-15.4v5.5h14.9c0.5,0,0.8,0.4,0.8,0.8v2.2c0,0.5-0.3,0.8-0.8,0.8h-14.9v9.2
		c0,0.5-0.3,0.8-0.8,0.8h-2.2c-0.5,0-0.8-0.3-0.8-0.8v-21.7c0-0.5,0.3-0.8,0.8-0.8l18.4,0c0.5,0,0.8,0.4,0.8,0.8v2.2L125.5,177.6z"
		/>
	<path class="st1" d="M28.2,184.5c2.2,1.1,3.3,3.1,3.3,5.8c0,2.5-0.6,4.3-2,5.5c-1.5,1.2-3.8,1.4-5.6,1.4H13.2c-2.2,0-4-0.5-5.3-1.6
		c-1.5-1.2-2.3-3-2.3-5.3c0-0.5,0.3-0.8,0.8-0.8h2.2c0.5,0,0.8,0.3,0.8,0.8c0,1,0.3,2,1.2,2.5c0.9,0.5,2.3,0.6,3.3,0.6h9.9
		c2.3,0,4-0.3,4-3.1c0-1.2-0.5-2-1.6-2.5c-1.2-0.6-3.4-0.6-4.7-0.6h-0.8l-1.1,0h-0.6h-0.6l-0.5,0h-0.5l-1.3,0h-0.9
		c-3,0-5.2-0.4-6.8-1.1c-2.1-1-3.2-3-3.2-5.7c0-4.4,2.5-6.6,7.2-6.6h10.9c5.1,0,7.8,2.3,7.8,6.9c0,0.4-0.3,0.8-0.7,0.8h-2.2
		c-0.4,0-0.8-0.3-0.8-0.8c0-1-0.3-2-1.2-2.5c-0.7-0.3-1.8-0.6-3.3-0.6H12.6c-0.8,0-1.9,0.1-2.6,0.6c-0.4,0.3-0.7,0.9-0.7,2.2
		c0,1.1,0.5,1.8,1.6,2.3c1,0.4,2.5,0.6,4.7,0.6h1.1l1.7,0l0.5,0h0.5l1.1,0H21C23.3,183.4,26.1,183.5,28.2,184.5"/>
	<path class="st1" d="M80.2,182l0.1,4.6c0,2.1-0.1,4.9-0.9,6.8c-0.7,1.4-1.9,2.6-3.4,3.1c-2.2,0.7-4.6,0.8-6.9,0.8h-3.3
		c-3.5,0-6-0.3-7.5-1c-1.7-0.7-2.8-2.1-3.3-4.1c-0.5-2-0.5-5.5-0.5-7.5c0-2,0.1-4.9,0.9-6.8c0.8-1.7,2.1-2.7,3.9-3.3
		c1.2-0.4,3.4-0.7,6.5-0.7h3.3c3.4,0,5.8,0.3,7.4,1.1c1.7,0.8,2.8,2.3,3.3,4.1L80.2,182z M76,191.6c0.6-1.2,0.6-3.7,0.6-5v-1.9
		c0-1.3,0-3.8-0.6-5c-0.3-0.9-1-1.4-1.8-1.6c-0.8-0.2-2.5-0.3-5.1-0.3h-3.3c-2.6,0-4.3,0.1-5.1,0.3c-1,0.2-1.6,0.7-1.9,1.6
		c-0.4,0.9-0.6,2.6-0.6,5v1.9c0,2.4,0.2,4,0.6,5c0.3,0.8,1,1.3,1.9,1.5c0.8,0.2,2.5,0.3,5.1,0.3h3.3c2.5,0,4.2-0.1,5-0.3
		C75.1,192.9,75.7,192.4,76,191.6"/>
	<path class="st0" d="M192.5,175.3c-0.1-0.2-0.2-0.4-0.2-0.6c0-0.4,0.4-0.8,0.8-0.8h2.5c0.3,0,0.4,0.1,0.5,0.2l9.3,18.6
		c0,0,9.2-18.5,9.3-18.7c0.1-0.1,0.2-0.2,0.5-0.2h2.5c0.2,0,0.3,0,0.5,0.1c0.2,0.1,9.3,18.7,9.3,18.7l9.2-18.4
		c0.1-0.2,0.2-0.4,0.6-0.4h2.5c0.4,0,0.8,0.3,0.8,0.8c0,0.2-0.1,0.4-0.3,0.6C240,176,229.6,197,229.6,197c-0.1,0.2-0.4,0.3-0.6,0.3
		H226c-0.2,0-0.5-0.1-0.6-0.3l-8.9-18l-8.9,18c-0.1,0.2-0.4,0.3-0.6,0.3h-3.1c-0.2,0-0.5-0.1-0.6-0.3L192.5,175.3z"/>
	<path class="st1" d="M280.7,196.9l-2.4-4.9h-13.9l-2.4,4.7c-0.3,0.7-0.7,0.6-0.7,0.6H259c-0.6,0-1-0.5-0.8-0.8l0.2-0.5l10.7-21.7
		c0.2-0.2,0.4-0.3,0.6-0.3h3.3c0.3,0,0.4,0.1,0.6,0.3l10.9,21.9c0.3,0.7-0.2,1.2-0.6,1.2h-2.5C280.9,197.2,280.7,196.9,280.7,196.9
		 M276.4,188.2l-5-10.1l-5.1,10.1H276.4z"/>
	<path class="st1" d="M331.5,197.2h-2.3c-0.5,0-0.8-0.3-0.8-0.8l0.1-2.8l0.1-1.5l0-1c0-0.9-0.1-2.1-0.6-2.9c-0.8-0.9-2.3-1-3.3-1
		h-13.5v9.2c0,0.5-0.3,0.8-0.8,0.8h-2.2c-0.5,0-0.8-0.3-0.8-0.8v-21.7c0-0.5,0.3-0.8,0.8-0.8h15.3c5,0,7.8,2.1,7.8,6.5
		c0,1.4-0.2,3-1.2,4.1c0.6,0.5,1.2,1.1,1.6,2c0.5,1.1,0.6,2.4,0.6,3.6v6.4C332.3,197,332.1,197.2,331.5,197.2 M323.9,183.2
		c2.6,0,3.6-1,3.6-2.6c0-1.6-1-2.5-3.5-2.5h-12.9v5.2H323.9z"/>
	<path class="st1" d="M376,197.2h-18.4c-0.5,0-0.8-0.3-0.8-0.8v-21.7c0-0.5,0.3-0.8,0.8-0.8H376c0.5,0,0.8,0.4,0.8,0.8v2.2
		c0,0.5-0.3,0.8-0.8,0.8h-15.4v5.5h14.9c0.5,0,0.8,0.4,0.8,0.8v2.2c0,0.5-0.3,0.8-0.8,0.8h-14.9v6.1H376c0.5,0,0.8,0.4,0.8,0.8v2.3
		C376.8,196.9,376.4,197.2,376,197.2"/>
</g>
</svg>
