<?xml version="1.0" encoding="utf-8"?>
<!-- Generator: Adobe Illustrator 25.4.1, SVG Export Plug-In . SVG Version: 6.00 Build 0)  -->
<svg version="1.1" id="Layer_1" xmlns="http://www.w3.org/2000/svg" xmlns:xlink="http://www.w3.org/1999/xlink" x="0px" y="0px"
	 viewBox="0 0 574.8 79.4" style="enable-background:new 0 0 574.8 79.4;" xml:space="preserve">
<style type="text/css">
	.st0{fill:#FFFFFF;}
</style>
<g>
	<path class="st0" d="M66.2,75.7c2.1-6.9,4.1-13.7,6.1-20.4c5-16.7,10.1-33.5,15-50.2c0.3-1.1,0.8-1.5,1.9-1.5
		c8.6,0.1,17.2,0,25.8,0c0.7,0,1.2,0,1.4,0.8c7,23.6,14.1,47.1,21.2,70.7c0,0.1,0,0.2,0.1,0.5c-0.4,0-0.7,0.1-1,0.1
		c-5.5,0-11,0-16.6,0c-0.8,0-1.2-0.2-1.4-1c-1.5-5.5-3.1-10.9-4.6-16.4c-0.2-0.9-0.6-1.3-1.6-1.3c-7.2,0.1-14.5,0-21.7,0
		c-0.9,0-1.3,0.3-1.6,1.2c-1.4,5.4-3,10.9-4.4,16.3c-0.2,0.9-0.6,1.2-1.6,1.2c-5.2-0.1-10.5,0-15.7,0C67.2,75.7,66.8,75.7,66.2,75.7
		z M99.6,21.5c-1.9,6.9-3.9,13.8-5.8,20.7c5.4,0,10.6,0,15.9,0c-1.9-7-3.8-13.8-5.7-20.7C102.5,21.5,101.1,21.5,99.6,21.5z"/>
	<path class="st0" d="M192.5,51.5c0,8.1,0,16.1,0,24.2c-6.3,0-12.5,0-18.7,0c0-23.9,0-47.9,0-72c0.4,0,0.8,0,1.2,0
		c11.6,0,23.2,0,34.8,0c4.2,0,8.4,0.8,12.3,2.4c8,3.4,12.1,9.6,13,18.1c0.5,4.5,0.1,8.9-1.6,13.1c-2.9,7.3-8.5,11.4-15.9,13.1
		c-2.8,0.7-5.8,0.9-8.7,1c-5,0.2-10,0-15,0C193.5,51.5,193,51.5,192.5,51.5z M192.5,35.4c5,0,9.9,0,14.8,0c1.3,0,2.7-0.3,4-0.7
		c2.7-0.8,4.2-2.8,4.5-5.6c0.1-0.9,0.1-1.8,0-2.6c-0.2-2.7-1.7-4.6-4.3-5.5c-0.9-0.3-1.9-0.6-2.9-0.6c-5.2-0.1-10.5-0.1-15.7-0.2
		c-0.1,0-0.2,0.1-0.4,0.1C192.5,25.2,192.5,30.2,192.5,35.4z"/>
	<path class="st0" d="M471.2,57.9c1.2,0,2.4,0,3.5,0c0.7,0,1-0.2,1.1-0.9c1.5-6,3-12,4.5-18c2.8-11.3,5.7-22.7,8.4-34.1
		c0.2-1,0.6-1.3,1.6-1.3c6,0.1,11.9,0,18,0c-0.7,2.5-1.3,4.9-2,7.3c-5.9,21.1-11.8,42.3-17.7,63.4c-0.3,0.9-0.6,1.3-1.7,1.3
		c-9.3,0-18.6,0-27.8,0c-0.9,0-1.2-0.2-1.5-1.1c-6.5-23.3-13-46.5-19.5-69.8c-0.1-0.3-0.2-0.7-0.3-1.1c6.6,0,13.1,0,19.7,0
		C462.1,21.8,466.6,39.8,471.2,57.9z"/>
	<path class="st0" d="M310.2,75.7c-6.4,0-12.5,0-18.8,0c0-18.4,0-36.8,0-55.4c-7.2,0-14.3,0-21.5,0c0-5.6,0-11,0-16.6
		c20.6,0,41.1,0,61.7,0c0,5.4,0,10.9,0,16.5c-7.1,0-14.2,0-21.4,0C310.2,38.7,310.2,57.1,310.2,75.7z"/>
	<path class="st0" d="M394.2,75.7c-6.3,0-12.4,0-18.7,0c0-24,0-47.9,0-71.9c6.2,0,12.4,0,18.7,0C394.2,27.7,394.2,51.6,394.2,75.7z"
		/>
	<path class="st0" d="M30.2,39.6c0,7.5-5.9,13.5-13.3,13.5c-7.5,0-13.4-5.9-13.4-13.3c0-7.4,5.9-13.4,13.4-13.4
		C24.2,26.3,30.2,32.3,30.2,39.6z"/>
	<path class="st0" d="M570.7,39.7c0,7.5-5.9,13.4-13.4,13.4c-7.4,0-13.3-6-13.3-13.4c0-7.5,6-13.4,13.6-13.4
		C564.8,26.3,570.7,32.3,570.7,39.7z"/>
</g>
</svg>
