<svg id="_1" data-name="1" xmlns="http://www.w3.org/2000/svg" viewBox="0 0 679.6 334.79"><defs><style>.cls-1{fill:#fff;}</style></defs><title>bliss</title><path class="cls-1" d="M508.26,140.73a6.07,6.07,0,0,1,2.55-4.39c9.82-7,16.92-12,17.23-27.74A33.46,33.46,0,0,0,522,88.7c-.5-1-12.65-20.38-50.74-20.38-36.24,0-64,24.8-64.64,57.69-.3,16.32,8.91,30.08,16.66,38.77a5.24,5.24,0,0,1,1.34,3.58,5.6,5.6,0,0,1-2.74,4.7c-14,7.89-20,16.62-20.24,29.23a35.88,35.88,0,0,0,10.24,27.18c9.66,9.84,26.48,15,46.16,15h0a98.07,98.07,0,0,0,12-.24c40.49-4.9,58.81-22.65,59.47-58.1.37-19.27-11.86-34.27-19.17-41.55A5.85,5.85,0,0,1,508.26,140.73Z"/><path class="cls-1" d="M660.32,144.66a4.94,4.94,0,0,1,.53-8.32c9.82-7,16.92-12,17.23-27.74A33.33,33.33,0,0,0,672,88.7c-.6-1-12.71-20.38-50.74-20.38-36.24,0-64,24.8-64.64,57.69-.3,16.32,8.89,30.08,16.66,38.77a5.24,5.24,0,0,1,1.34,3.58,5.6,5.6,0,0,1-2.74,4.7c-14,7.89-20,16.62-20.24,29.23a35.9,35.9,0,0,0,10.3,27.14c9.68,9.84,26.5,15,46.18,15h0a100.11,100.11,0,0,0,12-.24c40.49-4.9,58.81-22.65,59.48-58.1C679.86,166.82,667.65,151.94,660.32,144.66Z"/><path class="cls-1" d="M339.49,69c-19.49,0-36.43,16.86-36.43,37.59V207.83c0,20.73,16.94,37.6,36.43,37.6s36.44-16.87,36.44-37.6V106.62C375.93,85.89,359,69,339.49,69Z"/><path class="cls-1" d="M236.26,0c-19.52,0-34.42,16.86-34.42,37.59V207.81c0,20.73,14.9,37.57,34.42,37.57s34.41-16.84,34.41-37.57V37.59C270.67,16.86,255.77,0,236.26,0Z"/><path class="cls-1" d="M94.13,81.07H80.38a3.71,3.71,0,0,1-2.73-1,4.86,4.86,0,0,1-1.31-4.17V37.59C76.34,16.86,59.41,0,39.9,0S3.46,16.86,3.46,37.59V153.34c0,89.47,69.66,91.09,77.51,91.09h.31c42.28,0,91.68-20.54,91.68-79.79C173,117.87,139.07,82.23,94.13,81.07Z"/><path class="cls-1" d="M20.77,287.79h4.74L46.3,333.5H40.79l-5.34-12H10.71l-5.45,12H0ZM33.44,317,23.12,293.77,12.71,317Z"/><path class="cls-1" d="M72.17,288.12h17c10.26,0,17,5.44,17,14.41v.14c0,9.8-8.19,14.88-17.87,14.88h-11V333.5H72.17Zm16.37,24.73c7.53,0,12.47-4,12.47-10v-.12c0-6.49-4.88-9.88-12.14-9.88H77.29v20Z"/><path class="cls-1" d="M132.45,288.12h17c10.27,0,17,5.44,17,14.41v.14c0,9.8-8.1,14.88-17.86,14.88h-11V333.5h-5.14Zm16.38,24.73c7.55,0,12.47-4,12.47-10v-.12c0-6.49-4.86-9.88-12.15-9.88H137.59v20Z"/><path class="cls-1" d="M192.75,288.12h5.14v40.73h25.59v4.65H192.75Z"/><path class="cls-1" d="M250.3,288.12h5.15V333.5H250.3Z"/><path class="cls-1" d="M283.64,311v-.12a22.91,22.91,0,0,1,22.3-23.51h.7a23.67,23.67,0,0,1,17.73,7.2l-3.5,3.79a19.69,19.69,0,0,0-14.29-6.23c-10.12,0-17.61,8.09-17.61,18.64v.12c0,10.53,7.61,18.77,17.61,18.77,6.23,0,10.32-2.39,14.68-6.56l3.38,3.32a23.61,23.61,0,0,1-18.22,8.09,22.68,22.68,0,0,1-22.79-22.59C283.63,311.58,283.63,311.27,283.64,311Z"/><path class="cls-1" d="M367.33,287.79h4.8l20.72,45.71h-5.52l-5.33-12H357.25l-5.39,12H346.6ZM380,317l-10.36-23.19L359.25,317Z"/><path class="cls-1" d="M424.88,292.85H409.62v-4.73h35.72v4.73H430.08V333.5h-5.2Z"/><path class="cls-1" d="M472.31,288.12h5.14V333.5h-5.14Z"/><path class="cls-1" d="M505.65,311v-.12A23.2,23.2,0,1,1,552,309.36c0,.46,0,.91,0,1.37v.12a23.2,23.2,0,0,1-46.37,1.49C505.64,311.88,505.64,311.43,505.65,311Zm41.05,0v-.12c0-10.32-7.53-18.76-17.93-18.76S511,300.38,511,310.73v.12c0,10.32,7.53,18.77,17.94,18.77S546.7,321.36,546.7,311Z"/><path class="cls-1" d="M579.78,288.12h4.8l28.66,36.43V288.12h5V333.5h-4l-29.37-37.29V333.5h-5Z"/><path class="cls-1" d="M644.94,327l3.18-3.76a21.7,21.7,0,0,0,15.61,6.42c6.07,0,10.12-3.24,10.12-7.72v-.14c0-4.21-2.27-6.62-11.83-8.64-10.44-2.27-15.26-5.65-15.26-13.12v-.12c0-7.15,6.3-12.41,14.94-12.41a23.69,23.69,0,0,1,16,5.59l-2.93,4a19.93,19.93,0,0,0-13.12-4.92c-5.91,0-9.68,3.23-9.68,7.32v.15c0,4.27,2.33,6.68,12.33,8.82s14.82,5.91,14.82,12.88v0c0,7.79-6.5,12.85-15.53,12.85A26.59,26.59,0,0,1,644.94,327Z"/></svg>