<svg id="_1" data-name="1" xmlns="http://www.w3.org/2000/svg" viewBox="0 0 505.66 216.04"><defs><style>.cls-1{fill:#fff;}</style></defs><title>cleva</title><path class="cls-1" d="M0,34.1c.57-1.53,1.24-2.82,1.64-4.19a25.51,25.51,0,0,1,15.4-17.07A57.22,57.22,0,0,1,34.9,8.91c10.76-.85,21.36-.44,31.58,3.27C76.09,15.67,82,22.54,84.19,32.57c.49,2.31.72,4.69,1.09,7.22H59.16S59,39.7,59,39.6c-1.29-6.39-6.08-8.61-11.7-9a48.5,48.5,0,0,0-12.89.81C26.45,33,24.78,39,25.51,45.69a11.25,11.25,0,0,0,3.1,7.2A13.36,13.36,0,0,0,37,56.52a53.42,53.42,0,0,0,13-.46c5.36-.92,7-3,9.13-8.76h26a36.21,36.21,0,0,1-2.74,13.12c-3.77,8.47-10.56,13.14-19.28,15.69S45.28,78.93,36.3,78.49c-7.22-.35-14.4-1.6-21-4.95a26,26,0,0,1-14-17.77,6.63,6.63,0,0,0-.72-1.66A13.67,13.67,0,0,1,0,50.94C0,45.39,0,39.85,0,34.1Z"/><path class="cls-1" d="M116.67,0c.2,25.86.2,51.68.2,77.61H93.23V.23C101,0,108.72,0,116.67,0Z"/><path class="cls-1" d="M82.67,216a14.33,14.33,0,0,0-1.64-.9c-5.49-1.61-9.65-4.59-10.72-10.58-1.64-9.13,2-16.2,11.83-18.16a34.47,34.47,0,0,1,17.89.65,13.41,13.41,0,0,1,9.53,13.22v2.55H82.37c1.34,2.21,2.92,3.45,5.15,3.34,2.9-.15,5.78-.68,8.67-.78,4.21-.14,8.43,0,12.87,0-.81,3.65-2.62,6.34-5.84,7.82-2.31,1.06-4.78,1.75-7.28,2.72-4.42.14-8.74.16-13.27.15m13-20.61c-3.36-2.52-9.25-2.34-11.8.3C87.7,195.73,91.61,195.73,95.65,195.43Z"/><path class="cls-1" d="M505.65,142.42c-2,.2-4,.2-6.4.2v-4.33c0-1.57-.08-3.15,0-4.71.35-5.92-3.19-7.34-8-6.82a13.42,13.42,0,0,0-2.67.74c-5.06,1.63-5.69,2.47-5.69,7.64v7.26h-6.44V121.72h6.22c.12.7.26,1.45.42,2.33a4,4,0,0,0,1.18-.28c4.64-2.78,9.61-3.16,14.82-2.25,2.93.51,4.67,2.44,6.36,4.73C505.64,131.58,505.66,136.9,505.65,142.42Z"/><path class="cls-1" d="M294.42,35.88c-1.39-3.1-2.7-6.05-4-9-.39-.87-.81-1.73-1.49-3.2,7.57-1.5,14.79-3.36,22.13-4.27a127.66,127.66,0,0,1,20.87-.85c7.8.31,15.38,2.26,21.58,7.4a22.19,22.19,0,0,1,7.78,14.14,87.06,87.06,0,0,1,.88,11.64c.13,8.57,0,17.15,0,25.86H338.62V71.2c-2.55,1.29-4.76,2.46-7,3.53a37.14,37.14,0,0,1-14.05,3.41,102.65,102.65,0,0,1-11.08.38C301,78.25,295.74,77.2,291.12,74a14.52,14.52,0,0,1-6.32-10.29,15.49,15.49,0,0,1,3.69-13.3A21.22,21.22,0,0,1,299,44.31,72.35,72.35,0,0,1,315.24,42c7.67-.28,15.18.12,22.53,2.46.15,0,.36-.11.67-.21a5.64,5.64,0,0,0-4.22-5.1,19.93,19.93,0,0,0-5.38-.89,83.51,83.51,0,0,0-10.73,0c-6.24.58-12.44,1.51-18.66,2.31-.76.1-1.51.26-2.42.42-.82-1.6-1.67-3.28-2.61-5.11M329.67,55c-4.15,0-8.31-.17-12.44.06a36.85,36.85,0,0,0-7,1.42,2.75,2.75,0,0,0-2.05,3.06A2.79,2.79,0,0,0,311,62.23c3.8.1,7.67.47,11.39-.07a152.19,152.19,0,0,0,15.11-3.48,1.82,1.82,0,0,0,1-1.49,1.92,1.92,0,0,0-1.27-1.3C334.84,55.48,332.46,55.25,329.67,55Z"/><path class="cls-1" d="M141.32,74.74c-9.12-3.91-14.6-10.48-15.88-20.32-.89-6.83-.82-13.55,2.27-19.91,3-6.15,8-10.17,14.23-12.62a53.67,53.67,0,0,1,19.85-3.49c7.31,0,14.6,0,21.67,2.21,7.82,2.49,14.08,7,17.36,14.69,1.45,3.43,2,7.26,2.79,10.94a55.18,55.18,0,0,1,.63,6h-55c1.11,4.28,4.39,6.16,7.92,6.81,5.92,1.09,12,1.27,17.85-.71a6.7,6.7,0,0,0,2.44-1.19c1.75-1.63,3.75-1.89,6-1.85,6.5.12,13,0,19.57,0A23.87,23.87,0,0,1,196.64,69a29.3,29.3,0,0,1-13.5,7.46C174.91,78.7,166.46,79,158,78.5c-5.65-.3-11.33-1.14-16.71-3.76M150.6,40a7.49,7.49,0,0,0,1.52.32q12.23,0,24.45,0c.53,0,1.07-.05,1.88-.09a9.29,9.29,0,0,0-7-4.56,69.07,69.07,0,0,0-9.76-.48C157.46,35.22,153.54,36.14,150.6,40Z"/><path class="cls-1" d="M242.75,55c.5,1.28,1,2.4,1.66,4.09,2.61-6.84,5-13,7.34-19.21s4.76-12.59,7.16-18.88c.35-.89.66-1.71,2-1.69,7.8.08,15.6,0,23.41,0a9.08,9.08,0,0,1,.92.13c-2.33,5.67-4.61,11.24-6.91,16.79-2.69,6.48-5.42,12.94-8.12,19.42-2.93,7.06-5.83,14.13-8.83,21.16a2.06,2.06,0,0,1-1.61.89q-15.36.07-30.71,0a2.73,2.73,0,0,1-2-1.34C221.89,64,216.82,51.58,211.68,39.21c-2.75-6.6-5.57-13.17-8.43-19.91,8.35,0,16.43,0,24.51.06a2.38,2.38,0,0,1,1.67,1.33C233.9,32,238.3,43.42,242.75,55Z"/><path class="cls-1" d="M242.75,201.21c-.21-5.48-6.28-6.11-10.42-3.26a4.44,4.44,0,0,0-2.1,4.26c.19,4.21.06,8.43.06,12.82h-12c0-1.19,0-2.44,0-3.69-.06-3.57.19-7.18-.3-10.7-.52-3.79-3.37-5.26-7.07-4a14.42,14.42,0,0,0-4.3,2.27,4,4,0,0,0-1.17,2.74c-.12,4.42,0,8.84,0,13.43H193.52V186.63h11.74c.07,1.15.13,2.26.22,3.8,3.69-2.78,7.46-4.51,12-4.51s8.42,1.17,11.41,5a15.28,15.28,0,0,1,9.08-4.63c4.11-.48,8.24-.87,12.1,1.29,3.59,2,4.84,5.47,5,9.13.31,6.05.08,12.13.08,18.36H242.75Z"/><path class="cls-1" d="M24.92,209.2V186.57H37.21l.35,3.33A25.21,25.21,0,0,1,52.77,186c6.37.43,10.8,2.45,12.33,9a1.66,1.66,0,0,1,.14.41c0,6.49,0,13,0,19.61h-12c0-3.4,0-6.74,0-10.07a20,20,0,0,0,0-2.79c-.66-4.38-2.66-5.75-7.83-5.36-2,.15-3.84,1.33-5.78,2s-2.35,1.91-2.29,3.81c.13,4.07,0,8.14,0,12.39H24.92Z"/><path class="cls-1" d="M187.49,215c-4.06.13-8,.13-12,.13-.12-1.09-.23-2.11-.37-3.42a22.38,22.38,0,0,1-11.77,3.85c-4.86.29-12.32-.72-14.58-6.58a9.87,9.87,0,0,1-.9-3.26c-.09-6.29,0-12.58,0-19.06h12c0,4-.12,7.9,0,11.81.1,2.38.3,4.9,3,6.08,3.14,1.36,9.73.06,11.92-2.5a3.4,3.4,0,0,0,.45-2c0-4.43,0-8.85,0-13.43h12.34C187.63,196,187.63,205.41,187.49,215Z"/><path class="cls-1" d="M119.08,214.61c0-6.12,0-12.05,0-18.22h-6.3v-9.9H119v-8.94h12v8.77h11.49v10H131.19v9h11.27V215a6.83,6.83,0,0,1-1.33.23q-10.22,0-20.41,0A3.6,3.6,0,0,1,119.08,214.61Z"/><path class="cls-1" d="M385.39,63.12V53.8h23.95V77.56H385.39Z"/><path class="cls-1" d="M297.64,141a6.87,6.87,0,0,1-4-7.45c1.87,0,3.78,0,5.69,0,.29,0,.78.24.84.46.94,3.33,3.93,3.09,6.3,3.27a49.49,49.49,0,0,0,9.57-.41c.95-.11,1.78-1.27,2.67-2-.84-.63-1.61-1.67-2.52-1.81-3.07-.46-6.22-.48-9.3-.91a62.27,62.27,0,0,1-8.91-1.82c-3.2-.95-3.85-3.64-3.72-6.65.11-2.85,1.85-4.47,4.27-5.23a25.59,25.59,0,0,1,6.86-1.24c4.75-.1,9.56-.59,14.17,1.24a6.7,6.7,0,0,1,4.5,7.28c-1.79,0-3.63.06-5.47,0-.41,0-.78-.59-1.19-.87-1-.7-2-1.89-3.09-2a97.45,97.45,0,0,0-10.81,0c-1,0-2.4.17-2.37,1.87s1.44,1.72,2.43,1.84c3.59.41,7.23.5,10.81,1a52.57,52.57,0,0,1,7.83,1.71c4.45,1.31,4.17,8.8.95,10.82a14.73,14.73,0,0,1-5.24,2.17C311.16,143.41,304.37,143.68,297.64,141Z"/><path class="cls-1" d="M156.38,128.86c3,.27,5.81.55,8.59.83-.21-1.75-1.47-3-4-2.92a76.69,76.69,0,0,0-11.23.87c-2,.32-2.91,0-3.51-1.82a27,27,0,0,0-1.29-2.75c3.24-.69,6.15-1.64,9.12-1.86a51.57,51.57,0,0,1,10,.4c4.75.61,7.75,4.35,7.76,9.15v11.69h-6.24l-.4-1.89c-.32.08-.59.13-.84.22-4.87,1.72-9.78,2.88-15,1.85-3.63-.72-5.74-2.66-5.87-5.71-.16-3.86,1.48-6.26,5.31-7.13a69.31,69.31,0,0,1,7.57-.93m-5.09,5.34c-.44.74-1.22,1.5-1.19,2.21,0,.51,1.13,1.32,1.81,1.38a26.17,26.17,0,0,0,12.53-1.68c.38-.16.88-.69.85-1a1.43,1.43,0,0,0-1-.94C160.1,133.22,155.86,132.54,151.29,134.2Z"/><path class="cls-1" d="M255.29,143c-3.69-.33-7.15-.92-9.94-3.24-3.72-3.08-3.59-7.34-2.69-11.42s4.41-6.18,8.27-6.7a46.74,46.74,0,0,1,11.64,0c5.6.67,9.23,6.09,8.27,11.87H249.07a5.34,5.34,0,0,0,5.39,3.92c3.48.07,6.81.1,10-2.2,1.35-1,4-.16,6.14-.16a6.42,6.42,0,0,1-2.89,4.94c-3.67,2.62-7.88,3-12.4,3M251,129.29h13.26c-3.25-4-7.08-3.2-10.68-2.95-1.7.12-3.44.73-4.13,2.86C249.91,129.24,250.25,129.26,251,129.29Z"/><path class="cls-1" d="M72.3,137.78c.78-.62,1.39-1.18,2-1.75-.63-.42-1.23-1.13-1.91-1.22-2.81-.37-5.66-.47-8.47-.82a66.28,66.28,0,0,1-8-1.34,4.49,4.49,0,0,1-3.53-4.55c-.06-2.27.66-4.31,2.94-5.2,1.9-.75,3.92-1.65,5.89-1.66a102.58,102.58,0,0,1,14.45.86c2.82.4,4.56,2.27,4.45,5.87-2.5-.32-4.88.5-7.52-1-2-1.14-4.79-.91-7.26-1a19.83,19.83,0,0,0-4.65.46c-.51.09-.93.69-1.39,1.06.39.35.74.92,1.18,1,1.95.37,3.91.64,5.88.85,3,.33,6.09.5,9.11.9s5.06,2.24,5.25,4.5c.36,4.27-.66,6.17-4.28,7.25a32.68,32.68,0,0,1-13.95.81,34.56,34.56,0,0,1-5.84-1.08c-3.44-1.09-4.94-3.41-4.49-6.77,1.72,0,3.48,0,5.24,0,.3,0,.78.2.86.43,1,2.62,3.45,2.3,5.44,2.48A76.35,76.35,0,0,0,72.3,137.78Z"/><path class="cls-1" d="M296.45,179.55h5.46V203.5H290.09V191.61H278.52V179.55Z"/><path class="cls-1" d="M355.63,139.49c-4.46,3.49-9.5,3.87-14.7,3.38a23.68,23.68,0,0,1-5-1.1c-4.59-1.5-6.88-4.85-6.86-9.85s2.3-8.12,6.8-9.7a25.87,25.87,0,0,1,14.53-.46c9.26,2.11,9.83,12.82,5.19,17.73m-9.72-2c.63-.14,1.25-.26,1.87-.41,2.94-.7,4.34-2.69,4.1-5.79a5.08,5.08,0,0,0-4.86-4.51,51.47,51.47,0,0,0-6.21,0,5.45,5.45,0,0,0-5.25,4.73c-.26,2.75,1.38,4.93,4.46,5.53A48.11,48.11,0,0,0,345.91,137.45Z"/><path class="cls-1" d="M458.8,143c-4.06,0-7.86-.26-11.26-2.42a8.42,8.42,0,0,1-4.15-7.68c0-2.47-.2-4.92,1.5-7.13a12.16,12.16,0,0,1,9-4.56c4-.35,8.06-.41,12,1,5,1.79,6.28,5.31,6.61,9.67a9.63,9.63,0,0,1-6.29,9.69A55,55,0,0,1,458.8,143m6.49-8.13c1.37-5.15-.08-7.45-3.43-7.87a30.27,30.27,0,0,0-9.06.33c-1.15.2-2.47,2-2.84,3.27a4.86,4.86,0,0,0,1.49,5.45C454.17,138.1,462.89,138.2,465.29,134.9Z"/><path class="cls-1" d="M42.25,121.66a8.69,8.69,0,0,1,5.82,8.11c.19,4.14,0,8.28,0,12.63H41.25c0-3.07-.19-6.13,0-9.17.45-6.15-4.11-7.13-8.22-6.28A31.37,31.37,0,0,0,29.39,128c-3.35,1.17-4.47,2.77-4.47,6.28v8.12h-6.3V121.72h6.11l.37,2.94C30.4,121.05,36.1,120.39,42.25,121.66Z"/><path class="cls-1" d="M105.11,140.75a20,20,0,0,1-13.4,1.83c-4.13-.86-6.62-3.57-7-8.51-.31-4-.06-8.13-.06-12.35h6.85a89.26,89.26,0,0,1-.06,9.54c-.49,4.39,3.53,6.81,7.48,5.86a47,47,0,0,0,7.11-2.67,3,3,0,0,0,1.83-3.28c-.1-3.07,0-6.15,0-9.42h6.31v20.69H108l-.38-2.89Z"/><path class="cls-1" d="M224.67,137.45c2.88-.09,5.46-.37,7.15-2.9a1.79,1.79,0,0,1,1.31-.51c1.78-.06,3.57,0,5.48,0-.35,3.19-1.77,5.58-4.53,6.87a23.22,23.22,0,0,1-18.61.55c-5.3-2-6.51-7.35-5.6-12,1-5.06,4.63-7.25,9.39-7.92,5.05-.7,10.11-.92,14.81,1.57a8,8,0,0,1,4.5,7.1c-1.81,0-3.52.07-5.22,0a2.48,2.48,0,0,1-1.55-.81,6.84,6.84,0,0,0-6-2.59,37.78,37.78,0,0,0-6.14.52,4.68,4.68,0,0,0-3.52,4.78,4.5,4.5,0,0,0,3.35,4.67A31.19,31.19,0,0,0,224.67,137.45Z"/><path class="cls-1" d="M194.22,121.12a39.4,39.4,0,0,1,4.86.43c3.91.85,6.35,3.21,6.62,7.1.31,4.54.07,9.12.07,13.82h-6.42c0-2.84,0-5.61,0-8.38,0-6.11-3-8.46-9.1-7a18.63,18.63,0,0,0-2.46.68c-4.5,1.84-4.76,2.24-4.76,7.06v7.61h-6.28V121.73h6.12l.24,1.76C186.77,122.7,190.39,121.91,194.22,121.12Z"/><path class="cls-1" d="M402.58,129.29v13.17h-6.26l-.41-2.57c-1,.45-1.93.83-2.8,1.22a19,19,0,0,1-13.7,1.13,7.77,7.77,0,0,1-6-7.28c-.3-4.33-.07-8.7-.07-13.23h6.43v3.06c0,1.51,0,3,0,4.51-.17,6.94,3,8.92,9.57,7.62a5.89,5.89,0,0,0,.8-.29c5.3-1.75,6-2.64,6-8.08v-6.82h6.45Z"/><path class="cls-1" d="M19.33,198.46v16.61H7.46V186.61H19.33Z"/><path class="cls-1" d="M418.92,120.56a4,4,0,0,0,1.94,1c2.55.08,5.11,0,7.79,0v5.1h-9.71c0,3-.13,5.77,0,8.52.11,1.77,1.67,2.19,3.14,2.25,2.12.09,4.25,0,6.52,0v4.93c-3.93.66-7.85,1.13-11.78.06-3-.81-4.76-3.33-4.82-7-.05-2.78,0-5.57,0-8.6l-5-.28v-5h4.6c.39-1.71.25-3.86,1.15-4.48,1.58-1.09,3.8-1.24,6.15-1.9C418.91,117.26,418.91,118.81,418.92,120.56Z"/><path class="cls-1" d="M139.75,121.39c.65.46,1.47.81,1.53,1.25a31.05,31.05,0,0,1,.06,4.07c-2.25,0-4.29.11-6.31,0-3.32-.22-6.13,1.19-8.83,2.75a3.36,3.36,0,0,0-1.12,2.5c-.13,3.42,0,6.85,0,10.48h-6.31v-20.7h6.1l.44,2.59C129.65,121,134.53,120.7,139.75,121.39Z"/><path class="cls-1" d="M369.06,132.72v9.74h-6.71V114h6.71Z"/><path class="cls-1" d="M7.3,133.58V117.4h6.29v25H7.3Z"/><path class="cls-1" d="M7.3,174.86v-3.32H19.16v12.12H7.3Z"/><path class="cls-1" d="M266.94,203.22c4,0,7.77,0,11.73,0v11.87H266.74C266.74,211.11,266.74,207.18,266.94,203.22Z"/><path class="cls-1" d="M439.09,123c0,6.57,0,12.93,0,19.47h-6.25V121.56c1.73,0,3.43-.07,5.12,0C438.37,121.64,438.72,122.35,439.09,123Z"/><path class="cls-1" d="M435.67,113.82H439v5.43h-6.13v-5.43Z"/></svg>