<svg id="Layer_1" data-name="Layer 1" xmlns="http://www.w3.org/2000/svg" viewBox="0 0 526.71 214.19"><defs><style>.cls-1{fill:#75787b;}.cls-2{fill:#fff;}</style></defs><title>deloitte</title><rect width="526.71" height="214.19"/><path class="cls-1" d="M435.66,133.34a10.21,10.21,0,1,1,10.21,10.21,10.22,10.22,0,0,1-10.21-10.21"/><path class="cls-2" d="M129.19,105.61q0,17.67-9.5,27.25T93,142.42H70.64V71.78H94.51q16.62,0,25.65,8.7t9,25.13m-19.34.67q0-9.7-3.75-14.4T94.7,87.2H89.28v39.57h4.15q8.49,0,12.45-5t4-15.44"/><rect class="cls-2" x="191.01" y="71.49" width="17.76" height="70.94"/><path class="cls-2" d="M267,116q0,12.93-6.79,20.16t-19,7.23q-11.73,0-18.65-7.39t-6.92-20q0-12.88,6.79-20t19.05-7.14a26.54,26.54,0,0,1,13.39,3.31,22.23,22.23,0,0,1,9,9.46A31.08,31.08,0,0,1,267,116m-33.33,0q0,6.8,1.77,10.35a6.14,6.14,0,0,0,6,3.56,6,6,0,0,0,5.83-3.56Q249,122.76,249,116c0-4.49-.57-7.89-1.72-10.18a6.75,6.75,0,0,0-11.76,0c-1.18,2.27-1.77,5.68-1.77,10.2"/><rect class="cls-2" x="274.09" y="89.73" width="17.76" height="52.69"/><rect class="cls-2" x="274.09" y="71.49" width="17.76" height="11.87"/><path class="cls-2" d="M327.83,129a25.82,25.82,0,0,0,8.58-1.81v13.26a35.32,35.32,0,0,1-6.83,2.25,37.76,37.76,0,0,1-7.61.67q-8.94,0-12.9-4.49t-3.95-13.78V103.36H298.9V89.74h6.22V76.28L323,73.17V89.74h11.33v13.62H323v20.51q0,5.12,4.81,5.11"/><path class="cls-2" d="M368.93,129a25.87,25.87,0,0,0,8.59-1.81v13.26a35.63,35.63,0,0,1-6.84,2.25,37.83,37.83,0,0,1-7.61.67q-8.94,0-12.89-4.49t-3.95-13.78V103.36H340V89.74h6.23V76.08l17.89-2.91V89.74h11.33v13.62H364.12v20.51q0,5.12,4.81,5.11"/><path class="cls-2" d="M425,95q-6.33-6.21-18-6.21-12.21,0-18.81,7.14t-6.58,20.49q0,12.91,7.11,19.92t20,7a58,58,0,0,0,10.62-.84,30.75,30.75,0,0,0,8.58-3l-2.73-11.87a35.11,35.11,0,0,1-14.34,2.78q-5.13,0-8.1-2.51a9.14,9.14,0,0,1-3.16-6.94H431.3V112.9q0-11.69-6.33-17.89m-25.05,14.54c.25-2.89,1.07-5,2.48-6.35a7.28,7.28,0,0,1,5.24-2,6.87,6.87,0,0,1,5.43,2.28,9.18,9.18,0,0,1,2.11,6.1Z"/><path class="cls-2" d="M177.81,95q-6.34-6.21-18-6.21-12.21,0-18.79,7.14t-6.59,20.49q0,12.91,7.11,19.92t20,7a58.07,58.07,0,0,0,10.62-.84,30.75,30.75,0,0,0,8.58-3L178,127.65a35,35,0,0,1-14.34,2.78,12.22,12.22,0,0,1-8.11-2.51A9.13,9.13,0,0,1,152.4,121h31.74V112.9q0-11.69-6.33-17.89m-25.05,14.54c.24-2.89,1.07-5,2.48-6.35a7.28,7.28,0,0,1,5.24-2,6.9,6.9,0,0,1,5.43,2.28,9.18,9.18,0,0,1,2.11,6.1Z"/></svg>