<svg id="Layer_1" data-name="Layer 1" xmlns="http://www.w3.org/2000/svg" viewBox="0 0 2000 544"><defs><style>.cls-1{fill:#fff;}</style></defs><title>dtx-colab</title><path class="cls-1" d="M0,334c1.83-10.27,2.4-20.75,5-30.9C23.48,231.42,66.16,182,137.82,159.84A149.18,149.18,0,0,1,199,154c2.83,1.64,4.08,3.78,2.42,7-1.53,3-.82,5.15,2.59,6.08,4.35,1.18,5.67,4,5,8.34-1,6.41-1.4,12.67,5.56,16.55,1.72,1,1.6,3.16,1.83,5,.54,4.33,1,8.68,5.85,10.72a3.75,3.75,0,0,1,1.87,2.84c.65,3.17,2.58,4.61,5.71,5.4,4.23,1.06,4.77,3.22,2.48,7.42-2.3,1.26-4.57.38-6.8-.16-54.88-13.19-108.65,12.19-136,57.89a127.83,127.83,0,0,0-18.35,61c-1.48,33.61,7.89,63.62,29.29,89.42,21.89,26.38,50,42,84.46,45.2,39.55,3.71,73-9.48,100.93-37.14a119.48,119.48,0,0,0,26.56-40.18c.86-2.13,1.43-4.48,3.43-6,3.63-1.86,5.67-.44,6.64,3.21,1,3.85,2.2,7.49-.1,11.55-2.14,3.77-.9,5.76,3.23,7,7,2.13,7,2.13,4.39,9.23-1.34,3.66-.37,5.57,3.43,6.75,7.24,2.23,7.32,2.39,4.77,9.13-1.54,4.05-.69,5.7,3.6,6.94,1.75.5,3.72.53,5,2,1.9,2.21.68,4.28-.3,6.47-2,4.56-1.16,6.25,3.65,7.59,6.19,1.73,6.62,2.59,4.15,8.71-1.2,3-1.39,5.62,2.24,6.94s5,4.21,4.75,7.88c-.25,4.08.26,7.44,4.92,9.12,3.14,1.12,3.23,4.45,3.06,7.32-.25,4,.53,7.07,4.89,8.64,2.79,1,3.69,4.16,5.17,6.54,1.7,2.73,1.67,5.25-.89,7.61-.65.6,1.1,1,1,2-3.8,6.82-10.72,8.35-17.35,9-23.48,2.36-41-13.69-41.4-37.38-.09-5-.05-10,0-15.23C293.54,513.62,261,533,222.17,541.6c-7.32,1.62-14.81,1.35-22.17,2.4H171c-10.57-.81-21-1.85-31.38-4.64a181.89,181.89,0,0,1-80.61-46C28.94,464.12,10.63,428.59,2.28,387.68.68,379.85,1.05,371.86,0,364Z"/><path class="cls-1" d="M322.91,31.91A34.06,34.06,0,0,1,350.8,1.12C351.92.91,353.15,1,354,0h7c1.49,1.72,3.72,1.16,5.58,1.7,12.38,3.56,19.68,12.07,23.32,24,.41,1.35,1.35,2.61,1.26,4.13,3.67,24.16-12,36.77-26.63,39.92-17.42,3.76-35.07-5.86-40.76-22.6A30.55,30.55,0,0,1,322.91,31.91Z"/><path class="cls-1" d="M2000,388c-2.49,1.41-4.67,3.89-8,1.95-3.2-1.85-3-4.86-3-7.88,0-7.5,0-15,0-22.49-.07-10.38-7.26-18.39-17.16-19.25-9.29-.8-18.07,6.33-19,16.62-.82,8.58-.33,17.29-.44,25.94,0,2,.25,4-1.23,5.71a5.15,5.15,0,0,1-5.81,1.75c-2.73-.9-3.87-3.08-3.91-5.79-.07-6.16,0-12.32,0-18.48,0-8.66,0-17.32,0-26,0-4,0-8.26,5.14-8.77,4.7-.46,6,3.15,6,8,4-3.51,7.45-6.21,11.73-7.71a26.69,26.69,0,0,1,34.06,15.43c.53,1.32.27,3.05,1.75,3.95Z"/><path class="cls-1" d="M597,544c0-.63-.07-1.25-.11-1.88,7.81-.88,15.63-2.07,23.25,1,0,.28-.09.55-.14.83Z"/><path class="cls-1" d="M620.14,543.17c-7.73-.67-15.57.79-23.25-1a7.29,7.29,0,0,1-7.18,0c3.08-4.85,1.85-9.13-1.73-13.11a5.06,5.06,0,0,1-1.2-1.58c-3-8.65-7.88-16.38-11.9-24.52-3.78-7.64-6.82-15.7-11.67-22.81a12.22,12.22,0,0,1-1.55-3.11c-2.5-7.38-6.53-14-10.39-20.68a66.47,66.47,0,0,1-4.41-9.34c-3.16-8.25-7.72-15.76-11.67-23.54-4.09-8-6.74-16.84-12.39-24.06a1.4,1.4,0,0,1-.27-.42c-2.43-9.21-9.09-16.48-11.73-25.61-1.25-4.32-4.72-7.38-6.55-11.54C499.15,350.25,493.8,338.74,487,328q-.09-38.38-.18-76.76c0-7,.07-14,.11-20.93-1.3-1.62-3.09-.78-4.63-.78q-24.48-.1-49,0c-3.83-3.59-8.52-6.34-10-12.1-.92-3.62-2.21-7.33-5.33-9.93-1.79-1.5-2.16-3.66-2.37-5.85-.37-3.94-1.49-7.46-5.09-9.78-2.34-1.5-2.69-4-2.95-6.56-.32-3.2-1.19-6.13-3.74-8.43-5.58-5-5.29-7.5,1.07-11.15a18.46,18.46,0,0,1,2.24-1.08c24.8-.22,49.6,0,74.4-.1,2.12,0,3-.14,3.19,3.05.39,5.58,3.77,10.7,6.88,15.25,7.35,10.79,11.56,23.07,17.2,34.62,2.65,5.43,6.2,10.81,7.77,16.28,2.27,7.91,8.66,13.37,10.32,21.31.51,2.4,3.56,3.77,4.12,6.16,2.22,9.59,9.19,17.05,11.6,26.53a3,3,0,0,0,.52,1.39c5,5.31,6.4,12.58,10.07,18.59,2.28,3.72,1.37,8.21,3.69,11.79.72,2.61.52,5.29.52,7.95,0,33.78-.1,67.57.06,101.35.08,16.93,6.56,30.59,22.33,38.3,11.13,5.44,23.09,7.06,35.49,6.08,8.14-.64,16-3.1,24.13-3.55a2,2,0,0,1,1.26,2c-.22,2.47-2.2,3.65-3.86,4.95-11.49,9-12.33,21.33-9.82,34s12,19,23.67,22.6c1.93.61,3.95.44,5.94.55s4.06-.4,5.53,1.49C648.6,540.08,634.5,542.29,620.14,543.17Z"/><path class="cls-1" d="M555.89,319c-1.77-.92-2-2.53-1.89-4.27a9.42,9.42,0,0,0-3.39-7.93c-.79-.67-1.66-1.4-1.5-2.44.75-4.93-2.29-8.09-5.11-11.36-2-2.32-3.47-4.72-3.1-8,.21-1.85-1-3.42-2.27-4.85-1.39-1.63-3.6-3.21-3.88-5.05-1.28-8.39-7-14.73-9.65-22.38-1.29-3.69-4.73-5.65-5.94-9.06-2.41-6.76-7.76-12.62-9.38-18.87-2.35-9-7.42-16.48-10.81-24.77-4.47-10.93-11-21-16.89-31.36-1.41-2.49,1.42-2.24,2.26-3.51H406.92c-3.91,2.11-8.1,1.51-12.22,1.12-1.25-.11-2.76-.4-2.69-2.29,30.33.08,60.66.09,91,.3,3.77,0,3.85-1.85,3.85-4.64-.05-26.5-.12-53,0-79.5.1-16.89,10.77-29.86,27.19-33.66C535,41.61,555.88,58,556,79.38c.11,26.34.2,52.67-.05,79,0,5,1.49,6,6.16,6,29.32-.22,58.65-.13,88-.14-.33,2.18-2.36,2.08-3.78,2.66-24,9.77-25.42,39.57-10.91,53.21a32.41,32.41,0,0,1,4.4,4.74c.21,2.09,4.52,3.63.84,6.24-2.61.78-5.29.56-7.94.56q-33.7,0-67.42,0c-7.44,0-7.61.16-7.62,7.46,0,24,0,47.93,0,71.9C557.57,313.73,558.2,316.71,555.89,319Z"/><path class="cls-1" d="M392,164c4.81,2.44,10,.41,14.91,1.17a6.7,6.7,0,0,1-3.24,2.9c-3.3,1.65-3.73,5.19-.53,6.68,4.6,2.15,5.27,6.14,5.75,10.19.35,2.93.59,5.14,3.78,6.74s3.95,5.58,4.25,9.06a9.18,9.18,0,0,0,3.42,7c2.63,2.35,4.16,6.52,4.58,10.45.24,2.22.89,4,3,4.65,3.16.95,3.93,3.22,4,6.07-2.49,1.34-5.18.49-7.77.6-10.71.45-21.46-.71-32.17.6q0,90,0,179.93c0,2-.11,4-.18,6-3.12-1.08-2.12-3.84-2.15-5.91-.14-12-.19-24,0-36a162.17,162.17,0,0,0-1.57-22.9,16.81,16.81,0,0,1,0-6c1.91-8.38-.37-16.13-3.44-23.78-2.85-7.09-5.16-14.48-8.46-21.3-3.22-6.67-6.57-13.34-10.1-19.89a46,46,0,0,1-2.88-5.2,206.35,206.35,0,0,0-11.64-24.68c-4.49-8.19-8-16.9-12.8-25-5.3-8.81-11.05-17.87-11.43-28.83,0-.84-.54-1.56-2.05-2.31a17.34,17.34,0,0,0-.11,11.84c1.28,3.73-.09,7-.95,10.22-.6,2.25-2.33,2.92-3.2-.22,2.16-1.45,1.19-3.66,1.2-5.51q.1-86.16.13-172.32c0-2.13-.52-4.34.58-6.37.09,7.53,1.32,14.66,5.15,21.44,11.45,20.28,44.88,20.94,57.31,1.2,4.88-7.75,5.78-16,5.79-24.72,1.38,2.67.74,5.55.75,8.32Q392,101.06,392,164Z"/><path class="cls-1" d="M746.7,244.1q16.32,18,32.61,36c1.06,1.18,2.67,2.05,2.8,3.92a5.35,5.35,0,0,0-2.32,6.08c.86,3.42.74,6.93.74,10.42q0,48.18,0,96.34c0,4,.12,8-1.48,11.8-1.42,3.33,1.16,6.54.05,9.81Q765,435.13,750,451c-4.6.42-4.56-2.75-4.54-5.89.07-15.61,0-31.23,0-46.85,0-9.8,0-19.61,0-29.41,0-3.31-.54-6.28-3.32-8.42-1.49-2.21.09-3.64,1.34-5.11,4.55-5.36,4.56-5.35,1.2-11.63a6.73,6.73,0,0,1-.35-.92c-3-6.47-2.1-13.24-2-20.05.26-19.28.16-38.57,0-57.85,0-5.51.76-10.93,1.21-16.39C743.77,246.51,744,244.35,746.7,244.1Z"/><path class="cls-1" d="M857.68,327.91c-4.72,6.45-10.34,12.12-15.89,17.81-2.47,2.52-2.8,4.18-.19,6.89,6.93,7.18,13.57,14.64,20.31,22,1.21,1.33,2.75,2.45,3.08,4.4-.43,29.4-.82,58.8-.15,88.2.07,3.19-.19,6.43-3.88,7.87C851.52,465.45,842.77,455.2,834,445c-1-1.85-.65-3.88-.64-5.84.1-26.7,0-53.4,0-80.11a38.41,38.41,0,0,0-.45-6.43c-.69-2.42-1.57-4.82-1.16-7.42-1.94-4.46-.58-9-.55-13.53.12-20.47,1-41-.48-61.42-.35-4.74-1.31-9.65,1.24-14.19,6.58-8,13.38-15.79,20.66-23.17,1.67-.35,2.08.88,2.16,2,.37,5.12,1.87,10.06,1.82,15.3-.22,20,0,39.91-.12,59.87A107.94,107.94,0,0,0,857.68,327.91Z"/><path class="cls-1" d="M640,472.42c0-.69,0-1.38,0-2.07,0-1.9,1.44-2.91,2.55-4.11,15.82-17.11,31.42-34.42,47-51.74,8.24-9.15,16.43-18.37,25-27.17,1.21-1.24,3.2-5,5.29-.4-1.68,5.86-1.35,11.86-1.35,17.83,0,21.29-.06,42.57,0,63.86a91.89,91.89,0,0,1-1.83,19.3c-7.74,10.4-17,19.43-25.57,29.16-3.44,3.94-6,8.88-11.25,11-.51-2.84,1.87-4.08,3.31-5.77,15.13-17.88,6.94-45.85-15.48-52a35.46,35.46,0,0,0-21.17.7C644.49,471.73,642.47,473.33,640,472.42Z"/><path class="cls-1" d="M832,346c1,1.56,2.67,2.94,1.14,5.06.26,2.48-1.62,3.92-2.89,5.55q-16,20.6-31.92,41.29c-1.22,1.58-2.37,3.21-4.31,4-4.61,5.84-10.69,10.35-14.91,16.54-2.49-4.41-3.06-8.79-.39-13.45.66-1.15.27-2.94.27-4.43q0-51.9,0-103.79a21.08,21.08,0,0,0-1.16-7.82c-1.66-4.3.57-5.24,4.24-5l12.79,13.12c5.05,4,7.94,9.72,11.91,14.59,8,9.77,15.46,19.91,23.14,29.91C830.94,342.92,832.16,344.15,832,346Z"/><path class="cls-1" d="M641.88,229.65a6.32,6.32,0,0,1-3-4.59c2.05-.82,3.45.7,5,1.44,13.11,6.14,28.19,3,38.87-7.59,7.61-7.57,11.25-25.63,4.22-37.13-1.2-2-3.39-3.89-2.09-6.75,8.14,7.62,15.11,16.3,22.51,24.59,3.29,3.68,7.27,6.82,9.49,11.4a27.38,27.38,0,0,0-1.46,10.26c.15,18.62,0,37.24.07,55.86,0,6.48-.1,12.95.76,19.41.45,3.37,1,7-1.55,10-2.94,2-4.68-.28-6.32-2-8.34-8.77-16.18-18-24.5-26.8-8.65-9.15-17-18.57-25.4-28-4.51-5.08-8.93-10.25-13.81-15A8.07,8.07,0,0,1,641.88,229.65Z"/><path class="cls-1" d="M861,475.08c3-3.49,2.24-7.55,2.13-11.69-.27-10.78-.09-21.57-.09-32.36,0-11-.74-22,.28-32.84.61-6.37-2.56-13.17,1.71-19.18q16.89,18.11,33.76,36.23c1.1,1.19,2.58,2.11,3,3.84,1.26,6.42.73,12.93.77,19.4.07,11.16,0,22.33,0,33.49,0,4.84,0,9.66-1.25,14.38s-3,9.5-3,14.61a33.5,33.5,0,0,0,3,14c.87,1.88,2.37,3.81.65,6-9.66-10.68-19.36-21.34-29-32.06C868.92,484.39,865,479.71,861,475.08Z"/><path class="cls-1" d="M640,472.42c9.87-5.25,20.21-6.36,30.73-2.61,22.21,7.91,28.89,37.51,12.46,54.5-1.13,1.18-2.14,2.5-3.2,3.75-5.19,4.19-11.32,6.06-17.76,7.13-10.71.57-20.32-2.28-28.15-9.75-6-5.72-8.5-12.87-9.25-21.25C623.57,490.3,628.91,480.14,640,472.42Z"/><path class="cls-1" d="M684.93,175c3.53,7.07,7,13.8,7.23,22.31.77,25.3-28.44,42.12-50.7,29.25-.86-.49-1.7-1-2.55-1.53-11.72-8.69-16-20.66-13.66-34.56s11.65-22.14,24.8-26.31C663.3,162.56,675.63,163.94,684.93,175Z"/><path class="cls-1" d="M712.85,307.34c3.69-3.59,2.23-8.15,1.82-12.23a84,84,0,0,1-.66-8.38q0-33.19,0-66.39c0-3.42-1.88-7.42,2.93-9.32q13.25,14.41,26.47,28.82c1.21,1.32,2.21,2.83,3.3,4.26-3.15,5-2.43,10.82-2.53,16.18-.41,21.58.21,43.18-.4,64.75A54.26,54.26,0,0,0,746,343.86a1.21,1.21,0,0,1-1.76-.11c-9.84-11.1-20.36-21.56-30-32.82A4.69,4.69,0,0,1,712.85,307.34Z"/><path class="cls-1" d="M716.78,487.92c-1.2-1.26-.85-2.84-.75-4.27,2.19-29.66.51-59.36.8-89,0-3.64,2.86-6.33,2-9.91-.38-1.87.64-3.24,1.8-4.42,6.5-6.62,12.47-13.75,18.89-20.45.64-.66,1.38-1.55,2.49-.63,3.37.71,5,2.69,5,6.22-.08,27.16,0,54.32-.29,81.48,0,3,1.76,3.08,3.26,4.09Q734,470,716.78,487.92Z"/><path class="cls-1" d="M912.92,267c-2.69,5-7.15,8.6-10.88,12.75-7.62,8.51-15.47,16.81-23.22,25.2-2.85,1.1-3.44-1-4-2.93a21.64,21.64,0,0,1-.38-6c0-26-.2-51.89.2-77.83,0-3-2.06-5.27-1.62-8.16,9.7-11.32,19.27-22.76,29.85-33.3,1.2,1.22.65,2.51,0,3.66-7.54,13.66-5.47,26.47,3.33,38.72,3.41,4.61,4.53,9.77,4.31,15.47-.28,6.79.07,13.61-.12,20.41A22.32,22.32,0,0,0,912.92,267Z"/><path class="cls-1" d="M1600.16,338.72c17.15-12.63,29.14-11.75,43.35,3.29,4.86-5.55,10.58-9.71,18-11.32,17.78-3.86,33.36,8.41,33.47,26.62,0,8.83,0,17.66,0,26.5,0,3.95-1.49,6.77-5.57,6.73s-5.53-3-5.5-6.86c.07-7.83,0-15.66,0-23.5,0-11.25-7.84-19.8-18.08-19.89s-18.13,8-18.52,19c-.27,7.66-.05,15.33-.07,23,0,5.68-1.88,8.65-5.54,8.26-5.14-.54-5.49-4.44-5.47-8.53.06-7.5.1-15,0-22.5-.19-11.07-8-19.23-18.16-19.22s-18.06,8.33-18.2,19.21c-.11,8-.08,16,0,24,0,3.83-1.3,6.92-5.37,7-4.39.12-5.71-3-5.68-7.1q.17-21.75,0-43.5c0-4-.07-8.25,5.11-8.66C1598.64,331,1599.87,334.68,1600.16,338.72Z"/><path class="cls-1" d="M1077.9,499.24c-.17-21.82,10.17-37.18,26.45-43.88,15.28-6.29,34.09-2.69,45.4,8.63,2.87,2.86,4.28,5.95,2,9.79-1.88,3.16-4.81,3.85-8.21,3.21-1.92-.36-3.12-1.81-4.48-3-9.45-8.27-22.23-9.76-32.37-3.78a28.37,28.37,0,0,0-13.42,30.35,28,28,0,0,0,25.18,22.14c8.22.64,15.33-2.3,21.25-8.05,3.16-3.06,6.65-3.86,10.3-1.16,4.11,3,3.83,7.81-.45,12-12.33,12.09-33.07,15.1-48.66,6.74C1086,524.25,1078.37,511.61,1077.9,499.24Z"/><path class="cls-1" d="M873,210.05c4.38,2.56,3,6.73,3,10.54q0,39.22,0,78.45c0,2.28-1.08,5.33,2.78,5.89a310.49,310.49,0,0,1-21.14,23c-2.58-2.38-2.68-5.52-2.68-8.71,0-24.32.12-48.64-.11-72.95,0-4.48-1.44-8.94-2.22-13.41C859.19,225,865.79,217.25,873,210.05Z"/><path class="cls-1" d="M794,401.91l39.11-50.84c2.09,1,1.87,2.92,1.87,4.75q0,41.64,0,83.28A37.1,37.1,0,0,1,834,445Q816.1,425,798.18,405.13C797,403.79,796.14,402,794,401.91Z"/><path class="cls-1" d="M928,163.94c16.88-2.32,29.75,8.87,34.47,19.92,6.06,14.18,2.44,28.68-10.26,40.32-5,6.18-12.07,7.24-19.25,8-1.8.2-3.72,0-4.8-1.93a15.45,15.45,0,0,1-.75-5.88c-.28-18.91.54-37.82-.47-56.72A5.29,5.29,0,0,1,928,163.94Z"/><path class="cls-1" d="M1254.11,489.84c0,9.16.16,18.31-.08,27.46-.09,3.59,1.18,4.49,4.57,4.44,12-.16,24-.08,35.94,0,6.13,0,9.47,2.61,9.33,7.16-.14,4.3-3.55,7-9.2,7q-23,.06-45.92,0c-6.69,0-9.57-2.76-9.59-9.29q-.09-31.95,0-63.89c0-6.4,3.8-10,9.17-8.84,4.32.91,5.79,4,5.77,8.09C1254.08,471.21,1254.1,480.53,1254.11,489.84Z"/><path class="cls-1" d="M832,346q-17.89-23.14-35.76-46.3a15.46,15.46,0,0,1-1.34-2.59q16.62-18.67,33.26-37.33c1.2-1.34,2.56-2.52,3.85-3.78,1.34,24.34.92,48.71,1,73.07a23.43,23.43,0,0,1-.89,7.34c-.74,2.34-1.25,4.6,1.29,6.63C835.76,344.94,833.93,345.7,832,346Z"/><path class="cls-1" d="M928,163.94c2.18,22.3.42,44.66,1,67-1.67,1.77-3.69,1.16-5.62.73A28.32,28.32,0,0,1,905,219c-10-13-10.79-25.6-2.7-40a9.06,9.06,0,0,0,.6-2.33C909.35,168.75,917.29,163.63,928,163.94Z"/><path class="cls-1" d="M1107.4,353c0-10-.09-20,.06-30,0-3.07-1-4.06-4-4-6.66.19-13.32,0-20,.07-3.69,0-6.31-1.31-6.41-5.28s2.87-5.49,6.3-5.51q30-.13,60,0c3.66,0,6.1,1.93,5.85,5.9-.23,3.81-2.88,4.88-6.27,4.87-6.49,0-13,.25-19.48-.09-3.91-.21-4.65,1.2-4.62,4.81.18,19.15.09,38.3.08,57.45a29.05,29.05,0,0,1-.15,4.48,5.31,5.31,0,0,1-5.44,4.88c-3,.05-5.24-1.6-5.48-4.71-.35-4.47-.34-9-.37-13.46C1107.36,366,1107.4,359.48,1107.4,353Z"/><path class="cls-1" d="M1292.17,339.1c8.17-7.7,17-10.87,27.46-8.11a25.72,25.72,0,0,1,19.54,24.26c.29,9.65,0,19.31.11,29,0,3.8-1.64,6.26-5.42,6.35-3.95.09-5.49-2.74-5.54-6.3-.13-9,.18-18-.25-27a18.05,18.05,0,0,0-36.06.5c-.27,8-.09,16-.12,24a21.06,21.06,0,0,1-.13,4c-.6,2.91-2.37,5-5.45,4.86s-5.38-1.91-5.39-5.34c-.06-16.16,0-32.31,0-48.46,0-3.45,2.09-5.46,5.24-5.5C1290.59,331.25,1291.79,334.65,1292.17,339.1Z"/><path class="cls-1" d="M1379.4,329.9c7.19-.06,13.69,2.33,19.94,5.62,3,1.57,4.19,3.92,2.58,7-1.49,2.85-4.12,3.28-6.85,1.94a45.59,45.59,0,0,0-11.77-4,20.13,20.13,0,0,0-12.17,1.48,5.91,5.91,0,0,0-3.88,5.35,6.23,6.23,0,0,0,3.55,5.62c3.26,1.84,6.92,2.3,10.48,3a61.13,61.13,0,0,1,13.32,4c5.41,2.5,8.81,6.64,9.09,12.69a15,15,0,0,1-7.72,14.17,33.53,33.53,0,0,1-26,3.82,95.32,95.32,0,0,1-11.33-3.79c-3.42-1.3-6.14-3.5-4.25-7.52,1.71-3.64,4.87-3.27,8.12-1.77a36.93,36.93,0,0,0,17.42,3.54,21.65,21.65,0,0,0,6.8-1.42c2.54-1,5-2.47,5-5.59s-2.22-4.82-4.86-5.65c-3.31-1-6.75-1.71-10.16-2.43-5.06-1.06-10-2.35-14.41-5.27A15.51,15.51,0,0,1,1362,335,28.34,28.34,0,0,1,1379.4,329.9Z"/><path class="cls-1" d="M1426.27,364.82c0-6.15-.12-12.31,0-18.46.08-2.79-.78-4.08-3.64-3.69a5.57,5.57,0,0,1-1,0c-3.4-.26-5.83-1.64-5.73-5.45.09-3.57,2.58-5.18,5.64-4.93,4.31.36,4.79-1.62,4.73-5.2-.33-20.92,19-24.5,33.55-18.39a4.49,4.49,0,0,1,2.77,5.74c-.91,3.08-3.24,4.18-6.2,3.63-3.27-.61-6.47-1.47-9.84-1.31a10.49,10.49,0,0,0-9.25,14c.58,1.55,1.68,1.38,2.79,1.4,3.33.05,6.66-.05,10,.06s5.84,1.52,5.86,5.31c0,3.6-2.41,4.81-5.53,5.13-.66.07-1.33,0-2,0-11.19.21-11.19.21-11.19,11.65,0,9.65-.07,19.3,0,28.95,0,4-.9,7.29-5.42,7.32s-5.58-3.46-5.6-7.3C1426.25,377.13,1426.27,371,1426.27,364.82Z"/><path class="cls-1" d="M951,473c7.45,6.76,13.13,14.46,14.06,24.94,1.66,18.81-11.54,33.67-25.93,36.1-2.68-.19-2.51-2.45-2.53-4.07-.26-18.9-.31-37.81,0-56.71a6.54,6.54,0,0,1,1.2-3.73c2.79-2.71,5.58-1,8.27.14C947.85,470.45,949.3,471.92,951,473Z"/><path class="cls-1" d="M1794.32,359.13c0-4.33-.13-8.66,0-13,.11-2.83-.43-4.31-3.77-4.11-3.88.22-8.88,1-8.82-5.06s5-5.16,8.9-5c2.85.13,3.88-.81,3.69-3.66a63.17,63.17,0,0,1,.06-8.48c.24-3.46,2.17-5.77,5.73-5.58,3.2.17,5.09,2.23,5.15,5.63a8.35,8.35,0,0,0,0,1c.41,3.58-1.68,8.35,1,10.43,2.21,1.73,6.72.52,10.2.6.83,0,1.67.06,2.5,0,3.47-.13,5.54,1.76,5.64,5s-2,5.13-5.44,5.15-7,.16-10.48,0c-2.68-.14-3.47.95-3.44,3.48.09,8.49-.17,17,.09,25.47.23,7.78,3.59,10.58,11.51,10.18,2-.1,3.94-.68,5.92-.79,2.58-.15,4.6,1,5.3,3.56s.07,5.12-2.75,6.18c-12.5,4.71-30.24.84-30.79-16.53-.15-4.82,0-9.65,0-14.48Z"/><path class="cls-1" d="M1307.14,214.34c0-4.49-.2-9,.07-13.48.19-3.2-1.06-4.23-4-3.8a2.78,2.78,0,0,1-.5,0c-3.82.17-7.69.16-8.34-4.84-.47-3.58,2.3-5.43,8.34-5.25,3.4.11,4.88-.75,4.5-4.38a41.73,41.73,0,0,1,0-8c.3-3.48,2.38-5.64,5.89-5.36,3.19.24,4.84,2.34,5,5.73.25,3.89-1.92,9.08,1.1,11.33,2.5,1.85,7.37.61,11.19.56s6.89.69,6.78,5.24-3.38,5-7,5c-12.07,0-12.07.08-12.07,12.14,0,5.33-.05,10.65,0,16,.1,8.28,3.44,11.36,11.79,10.9,1.65-.09,3.27-.56,4.92-.7,2.94-.25,5.37.64,6.13,3.78s-.48,5.2-3.52,6.19c-12.91,4.21-30.83.59-30.35-20.06C1307.21,221.66,1307.14,218,1307.14,214.34Z"/><path class="cls-1" d="M951,473c-4.12-1-7.52-4-12-4.08-5.26,1.15-10.69-.23-15.93,1.06a31.19,31.19,0,0,0-19.4,13.59c-.9,1.38-1.24,3.62-3.69,3.42,1.9-22,1-44,.55-65.95a2.14,2.14,0,0,1,1.2-2q23.58,25.59,47.14,51.21C949.66,471.13,950.28,472.1,951,473Z"/><path class="cls-1" d="M900,487c5.1-8.73,11.63-15.71,22-17.95,2.74,1.94,2.47,4.91,2.48,7.68.06,16.24.14,32.48-.06,48.71,0,3.16.35,6.25.54,9.38-9.73-1.17-17.09-6.27-23-13.81.57-2.25-1.25-3.65-2-5.38C895.77,506.05,896,496.53,900,487Z"/><path class="cls-1" d="M925,534.82c-4-2.18-2-5.76-2-8.81,0-13.74.05-27.48-.06-41.21,0-5.26.77-10.59-.94-15.75a30.25,30.25,0,0,1,17-.12,9.63,9.63,0,0,0-1,4.79q0,28.11,0,56.22c0,1.44-.37,3,1.09,4.11C934.48,536,929.7,534.75,925,534.82Z"/><path class="cls-1" d="M1171.34,339c4.76-4.61,9.11-7.57,14.51-8.66,3.77-.75,7.35-.48,8.38,3.93s-1.51,6.15-5.6,7.07c-11.17,2.5-17,9.76-17.23,21.3-.17,7-.14,14-.05,21,.05,3.84-1.16,6.83-5.32,7s-5.71-2.92-5.72-6.65q-.09-23,0-46c0-3.55,1.42-6.52,5.23-6.71C1169.83,331.07,1171.51,334.06,1171.34,339Z"/><path class="cls-1" d="M1551.27,338.44c4.13-3.81,8.44-6.83,13.78-8.05,4.54-1,8.34.56,8.84,4,.64,4.38-1.87,6.05-5.89,7-11.42,2.66-17,10-17,21.88,0,6.66-.08,13.32,0,20,.06,4-1.15,7.32-5.52,7.39s-5.61-3.19-5.59-7.23q.15-22,0-44c0-4,.37-7.77,5.15-8.16C1549.47,330.92,1550.84,334.35,1551.27,338.44Z"/><path class="cls-1" d="M1427.89,203.4c0-11.65.06-23.3,0-35,0-3.9.7-7.28,5.33-7.37s5.71,3.18,5.71,7.12q0,35.19,0,70.4c0,3.85-1.41,6.84-5.48,6.9-4.45.07-5.63-3.09-5.59-7.15C1428,226.7,1427.89,215.05,1427.89,203.4Z"/><path class="cls-1" d="M905,219c5.51,5,11,10,18.69,11.4a22.11,22.11,0,0,0,5.37.49,36.75,36.75,0,0,0,23.17-6.75c-8.51,10.19-17.42,20-26.9,29.3-4.35,4.28-8.27,9-12.39,13.5-3.35-1.49-4.12-4.09-4-7.63.26-7.79-.26-15.61.19-23.38A28.3,28.3,0,0,0,905,219Z"/><path class="cls-1" d="M1851.32,361.32c0,7.48-.07,15,0,22.45.05,3.9-1.35,6.76-5.47,6.8s-5.58-3.05-5.59-6.79q0-22.95,0-45.9c0-3.81,1.73-6.71,5.83-6.58,3.82.12,5.25,2.9,5.22,6.57C1851.28,345.68,1851.32,353.5,1851.32,361.32Z"/><path class="cls-1" d="M1168.68,215.55c0-7.48.06-15,0-22.44,0-3.85,1.25-6.83,5.4-6.87s5.59,3.07,5.6,6.79q.06,22.93,0,45.88c0,3.81-1.67,6.76-5.78,6.61s-5.29-3.2-5.23-7C1168.76,230.84,1168.68,223.19,1168.68,215.55Z"/><path class="cls-1" d="M1282.33,216.07c0,7.48,0,15,0,22.44,0,3.78-1,6.92-5.27,7-4.41.07-5.83-3.12-5.83-7.09q0-22.46,0-44.89c0-3.88,1.23-7.32,5.66-7.27s5.48,3.44,5.43,7.39C1282.27,201.11,1282.34,208.59,1282.33,216.07Z"/><path class="cls-1" d="M1283.32,171.43a6.19,6.19,0,0,1-6.4,6.67c-4-.07-6.12-2.32-6.56-6.09-.41-3.52,2.69-6.84,6.24-7A6.4,6.4,0,0,1,1283.32,171.43Z"/><path class="cls-1" d="M1173.86,178.1a6.15,6.15,0,0,1-6.19-6.86c.29-3.9,2.49-6.07,6.39-6.21a6.72,6.72,0,0,1,6.67,6.66A6.63,6.63,0,0,1,1173.86,178.1Z"/><path class="cls-1" d="M1846.13,310a6.64,6.64,0,0,1,6.3,7,6.34,6.34,0,0,1-7,6.12c-4-.33-5.89-2.87-6.12-6.58C1839.1,313.12,1842.66,309.91,1846.13,310Z"/><path class="cls-1" d="M321,216.11c.53.81,2.17,1.4,2,1-1.43-3.66,3-6.48.7-10.76-1.74-3.27-.69-8.12-.59-12.26.06-2.51,2-2.4,3.61-1.56,1.81.93,2.19,2.66,2.29,4.64.33,7,2.22,13.35,7,18.78,2,2.22,1.46,5.66,3.29,8.5,3.92,6.11,8.23,12.24,9.65,19.66.09.48.14,1.27.42,1.38,5.67,2.24,4.21,8.46,6.92,12.36,4.83,7,6.33,15.74,11.95,22.41,1.79,2.12,1.73,5.52,3.26,8.19,5.34,9.27,9,19.28,12.78,29.29,2.84,7.53,5.58,14.64,5.82,22.94.72,24.17.85,48.33.83,72.5a3.49,3.49,0,0,0,.83,2.77c0,29.06.14,58.11.07,87.17a29.55,29.55,0,0,1-5.77,17.08c-1.66.24-2,1.4-2,2.84a14.79,14.79,0,0,1-5,5.09c-1-1.31-6.11-2.26-.33-4.14a1.3,1.3,0,0,0,.7-2c-2.2-3.66-2.75-8.83-8-9.83-2.78-.54-3.59-1.92-3.49-4.44.07-2-.15-4,.05-6,.29-3-1.09-5.15-3.88-5.41-4.08-.39-4.35-2.8-4.18-5.91.1-1.66-.11-3.34,0-5,.27-2.85-1.22-4.27-3.68-5.15-4.67-1.67-5.8-5.07-3.16-9.41s2.45-4.9-2.54-5.89c-7.41-1.48-8.71-4.44-4.71-10.9,1.86-3,1-4.41-2.38-5.09-9-1.79-9.49-3-5.25-11.35,1.73-3.39-.32-4.2-3.34-4.71-6.77-1.13-7.69-2.29-6.94-7.59a6.12,6.12,0,0,1,.44-1.92c2.76-5.33,2.78-5.32-3.35-6.85-5.48-1.36-6.86-4.93-3.82-9.84,1.38-2.21.78-10.8-.87-12.51-1.36-1.42-2.84.27-4.23-.18-1.34-2.93.35-5.53,1.08-8.14,3.52-12.59,5.67-25.36,5.38-38.44-.7-31.22-10.59-59.06-30.75-83.11-14.93-17.81-33.59-30.12-55.35-37.95-1.76-.63-4.1-.65-4.6-3.19,1.66-3.77,1.07-6.17-3.66-6.21-1,0-2.64-.18-2.76-.61-2-7.37-11.52-10.69-10.54-19.6.29-2.67-.64-4.21-3.43-5.16-3.21-1.1-5.85-8.84-4.33-14.16,1.68-5.84.44-8.72-5.8-9.65-3.53-.52-3.28-4.58-2-6,3-3.21.65-5.29-.46-7.79,23.48,1.12,45.45,7.83,66.36,18.25A183.8,183.8,0,0,1,317.08,211,61,61,0,0,1,321,216.11Z"/><path class="cls-1" d="M487,328a39.39,39.39,0,0,1,9.08,12.92c1.86,4.23,2.42,8.88,6.32,12.49,2.59,2.4,3.08,7.08,4.46,10.75.29.76.14,2.12.59,2.33,4.87,2.22,4.51,7.38,6.34,11.23,3.25,6.8,6.47,13.79,10,20.22,3,5.43,4.24,11.74,7.82,16.4,3.88,5.05,4.66,11.34,8,16,3.59,5,4.82,10.73,7.77,15.65,3.14,5.23,4.33,12,8.15,15.88,5.89,6.05,4.57,15.35,11.39,20.56,2,1.56,1.58,5.12,2.87,7.71,3.27,6.62,6,14,9.93,19.75,4.47,6.5,4.89,14.75,11,20.39,4.29,3.94,3.13,8.87-1.09,11.84-43-5.41-75.1-26.27-93.55-66.18-6.8-14.68-9.49-30.34-9.4-46.55C487,395.62,486.93,361.81,487,328Z"/><path class="cls-1" d="M392,230.05c1.38-1.83,3.37-1.05,5.09-1.06,11.61-.11,23.23-.11,34.85-.14,16.54,0,33.07,0,49.6.16,1.82,0,4.05-1,5.38,1.3a8.51,8.51,0,0,0-1.94-.45Q438.51,229.94,392,230.05Z"/><path class="cls-1" d="M384.12,523.06c-1.38-1-1.32-2.09-.28-3.2.86-.93,1.67-.63,2.29.36Z"/><path class="cls-1" d="M1444,486.07a26.48,26.48,0,0,0-15.75-10.74c-9.64-2.16-18.31.37-26.22,7.49,0-8.8.1-16.61,0-24.42-.08-4.23-2.53-6.95-6.72-7.26s-6.89,2-7.65,6.25a22,22,0,0,0-.33,4c0,21.48,0,43,0,64.44,0,4.5.86,8.49,5.91,9.68s7.59-2.07,9.22-6.29c14.38,10.51,27.94,10.31,38.79-.51C1452.18,517.71,1453.42,499,1444,486.07Zm-25.57,37c-9.48-.14-16.66-7.75-16.56-17.55.11-9.62,7.7-17.39,17-17.36s17.21,8.41,17,18A17.25,17.25,0,0,1,1418.4,523.08Z"/><path class="cls-1" d="M1255.93,194c0-5.78-1.72-8.32-5.65-8.17-5.16.2-5.41,4-5.42,7.82,0,.23-.3.46-.46.69-16.91-12.62-31.51-12.42-42.79.56a32.42,32.42,0,0,0,1.46,43.6c8.86,8.86,25.44,13.76,41.45-1.49,1.7,16.3-6,24.68-21.47,24.21a43.5,43.5,0,0,1-16.83-4.15c-3.63-1.65-7.11-1.86-8.8,2.32s1,6.31,4.69,7.86a67.41,67.41,0,0,0,14.76,4.43c23.75,4.13,39-8.69,39.06-32.73Q1256,216.5,1255.93,194Zm-31,42.28c-11.35-.13-20-9-19.92-20.51,0-11.3,9.08-20.55,20.09-20.55s20,9.41,19.92,20.72C1245,227.47,1236.12,236.42,1224.92,236.3Z"/><path class="cls-1" d="M1124.06,165c-11.79-3.14-23.83-1.36-35.76-1.7-5.82-.17-7.59,1.86-7.61,7.84,0,11.15,0,22.3,0,33.45,0,11.49,0,23,0,34.45,0,4.35,2.09,6.7,6.28,6.66,10.47-.12,21,.72,31.41-.55,18.72-2.27,34.25-18,35.65-36.21C1155.6,188.19,1143.29,170.08,1124.06,165ZM1143,206.73c-.93,14.85-13.52,27.28-28.8,28.09-6.31.34-12.65,0-19,.16-2.75.08-3.34-1.06-3.31-3.52.1-9.16,0-18.32,0-27.47,0-8.66.1-17.32-.06-26,0-2.92.61-4.24,3.84-4,7.45.53,15-.72,22.4.73A30.3,30.3,0,0,1,1143,206.73Z"/><path class="cls-1" d="M1373.41,491.87c0-3.49.49-7-.26-10.45a6.47,6.47,0,0,0-5.25-5.35,7,7,0,0,0-7.58,2.57,26.4,26.4,0,0,0-1.94,3.7c-14-12.17-30.44-8.44-39.19.91-11.15,11.93-11.54,31.8-.68,44.29,10.24,11.78,24.9,12.47,40,1.69,1.64,4.5,4.32,7.28,9.08,6.28s5.82-4.77,5.79-9.17C1373.35,514.85,1373.4,503.36,1373.41,491.87Zm-31.52,31.21a17.19,17.19,0,0,1-16.77-17.48c.11-9.47,7.86-17.39,17-17.42,9.36,0,17,8.09,16.88,17.93A16.84,16.84,0,0,1,1341.89,523.08Z"/><path class="cls-1" d="M1194.65,474.68c-17.43.12-31.48,13.85-31.52,30.78a31.63,31.63,0,0,0,32,31.52c17.39-.09,31.65-14.31,31.55-31.46S1212.26,474.55,1194.65,474.68Zm-.22,48.42c-9.35-.18-16.57-8-16.45-17.72.12-9.52,7.92-17.36,17.12-17.23s16.87,8.29,16.81,17.67A17.13,17.13,0,0,1,1194.43,523.1Z"/><path class="cls-1" d="M1413.1,238.57c-.14-4,0-8,0-12,0-11.49,0-23,0-34.46,0-3.37-1.66-5.5-4.86-5.88s-5.26,1.66-6,4.76a21,21,0,0,0-.32,3.47q-25.47-18.66-42.3-.42a32.47,32.47,0,0,0-.37,43.24c11.21,12.5,25.29,12.56,42.57.15a6.68,6.68,0,0,1,.28,1.4c-.06,3.93,1.69,6.71,5.73,6.63S1413.24,242.47,1413.1,238.57Zm-30.86-2.24a20.25,20.25,0,0,1-20.14-20.44c0-11.11,9.38-20.73,20.13-20.63,11.15.09,20,9.16,20,20.62A20,20,0,0,1,1382.24,236.33Z"/><path class="cls-1" d="M1266.1,383.15c-.14-5.49,0-11,0-16.49,0-9.82,0-19.65,0-29.47,0-3.4-1.78-5.41-4.94-5.88-2.79-.42-4.81,1.2-5.73,3.81a25.6,25.6,0,0,0-.7,4.78c-15.47-15-32.07-10.67-41.07-1.87a32.28,32.28,0,0,0-2.14,43.57c10.75,13,25.58,13.36,43.17,1a2.41,2.41,0,0,1,.3.85c-.13,4.06,1.46,7.25,5.75,7.18S1266.2,387.14,1266.1,383.15Zm-30.61-1.55c-11.13.12-20.5-9.45-20.4-20.85.11-11.2,9.38-20.54,20.33-20.47s19.85,9.57,19.76,20.88C1255.1,372.28,1246.23,381.48,1235.49,381.6Z"/><path class="cls-1" d="M1770.41,337.92c0-3.64-1.39-6.41-5.21-6.64-3.53-.21-5.37,2.16-5.8,5.59-.11.8-.2,1.6-.36,2.92-14.3-12.34-29.57-12.85-40.87-1.9a32.45,32.45,0,0,0-2.75,43.16A27.87,27.87,0,0,0,1734,391.7c9.7,1.26,17.8-2.48,24.76-9.5a12,12,0,0,1,.53,1.91c.3,3.75,1.79,6.71,6,6.44s5.14-3.45,5.12-7.18Q1770.34,360.65,1770.41,337.92Zm-31,43.65c-11-.19-20.15-9.81-19.91-20.86.25-11.3,9.63-20.7,20.37-20.42a20.77,20.77,0,0,1,19.94,20.91C1759.73,372.25,1750.21,381.76,1739.38,381.57Z"/><path class="cls-1" d="M1495.94,330c-17.27-.26-31.57,13.42-31.79,30.44a31.24,31.24,0,0,0,30.79,31.48,31,31,0,0,0,1-61.92Zm-.74,51.37a20.32,20.32,0,0,1-20.06-20.54c0-11,9.57-20.72,20.27-20.54A20.31,20.31,0,0,1,1515.27,361C1515.22,372.61,1506.49,381.46,1495.2,381.38Z"/><path class="cls-1" d="M1897,330a31,31,0,0,0-.66,61.9A31,31,0,1,0,1897,330Zm-.53,51.37c-11.21-.15-19.76-9.21-19.64-20.8.12-11.23,9.51-20.6,20.33-20.28a20.69,20.69,0,0,1,19.78,21A20.24,20.24,0,0,1,1896.51,381.38Z"/></svg>