<svg xmlns="http://www.w3.org/2000/svg" viewBox="0 0 781.28 226.48"><defs><style>.cls-1{fill:#fff;}</style></defs><title>ebankit</title><g id="_1" data-name="1"><path class="cls-1" d="M378.36,154.07c-6.45-2.76-7.87-3.83-15.74-11.67-.84,2-.31,4-.4,6s0,4.06,0,6.2H348.9V42.31h13.3c0,7.53,0,15,0,22.51s-.05,14.9,0,22.34l.61.18c.91-1,1.83-1.9,2.71-2.88a34,34,0,0,1,17.77-10.71c15.22-3.62,31.72,3.47,40.12,17.12,5.22,8.48,6.82,17.74,6.18,27.52a43.07,43.07,0,0,1-6.23,19.91c-9.36,15.36-28.53,22-45,15.77m37.51-36.21c0-2.25.14-4.5-.05-6.73-.74-8.45-4.07-15.66-10.93-20.86-11.54-8.73-27.91-6.17-37,5.64-4.8,6.26-6.57,13.38-6,21.17.63,9.08,4.41,16.48,11.81,21.88,10.81,7.9,25.84,6.68,34.69-2.83C413,131.16,415.24,125.1,415.87,117.86Z"/><path class="cls-1" d="M506.15,92.46a39.23,39.23,0,0,1,2.11,12.88c.06,15.81,0,31.62,0,47.43,0,.48,0,1-.1,1.69-2.12.49-4.25.17-6.34.23s-4.29,0-6.7,0v-9.6a17.42,17.42,0,0,0-1.91,1.28c-11.56,10.86-25,12.48-39.44,7.47-8.41-2.93-14.36-8.9-15.89-18-2.06-12.32,2.28-22.32,14.26-27.82a45.73,45.73,0,0,1,17.91-3.78,82.77,82.77,0,0,1,22.34,2.37c.75.18,1.5.32,2.26.48C496,97,490.14,88.69,480.06,86.65a42.86,42.86,0,0,0-20.56.95c-3.74,1.08-7.36,2.52-11.31,3.9l-4-10.94a66.1,66.1,0,0,1,16-5.85,55.72,55.72,0,0,1,25.81,0c9.65,2.42,16.52,8.07,20.12,17.74M472.66,145c2.85-.63,5.82-.91,8.51-1.95,11.45-4.43,15.42-12.87,13.51-24.65a71.78,71.78,0,0,0-26-2.9A23.41,23.41,0,0,0,457.39,119a12.68,12.68,0,0,0-5.8,7.76,13.38,13.38,0,0,0,7,15.52A24.8,24.8,0,0,0,472.66,145Z"/><path class="cls-1" d="M287.14,154.46c-16.24-6.2-24.75-18.11-26.59-34.88-1.41-12.7,1.69-24.29,10.14-34,8.07-9.31,18.5-13.25,30.78-12.62,14.8.76,29.12,10.61,33.45,30.19a57.7,57.7,0,0,1,1.24,14.83c0,.67-.15,1.33-.27,2.28h-61.6a8.31,8.31,0,0,0-.12,1.65c2.37,14.9,15.56,24.52,30.5,22.57,7.21-.94,13.08-4.23,18.31-9,.71-.65,1.4-1.33,2.3-2.2l8.24,7.36c-9.86,13.8-28.09,19.45-46.38,13.88M317,93.87c-8.22-12-26.34-12.68-35.91-1.2a30.94,30.94,0,0,0-6.48,12.93c-.24,1-.39,2-.61,3.18h48.33A30,30,0,0,0,317,93.87Z"/><path class="cls-1" d="M592.57,106.64V154.5H579v-3.2c0-14,.06-27.91,0-41.86a40,40,0,0,0-.94-9.28c-2-8-7-13.09-15.42-14.4-13.11-2.05-23.72,5.06-26.28,17.07a43,43,0,0,0-.78,8.72c-.08,13.17,0,26.34,0,39.52v3.41H522.22V74.69h13.1V85.25c1.44-.15,1.8-1.16,2.4-1.8,3.86-4.1,8.07-7.68,13.64-9.23a35.74,35.74,0,0,1,21.61.4c10.47,3.57,16.33,11.3,18.59,21.86C592.25,99.7,592.25,103.06,592.57,106.64Z"/><path class="cls-1" d="M619.81,142.9v11.59H606.49V74.68h13.15c.35,3.41.11,6.89.16,10.35s0,7,0,10.55v21.36c1-.88,1.69-1.36,2.24-1.93Q640.5,95.78,658.91,76.5a5.86,5.86,0,0,1,4.82-2.06c4.47.13,8.94,0,14.13,0-11.31,12-22.6,23-33.73,34.71l34.55,45.51H674.2c-3.12,0-6.25-.1-9.37,0a4.21,4.21,0,0,1-3.89-1.93c-8.09-10.65-16.26-21.24-24.41-31.85-.53-.68-1.09-1.35-1.8-2.22-1.6,1.6-3.1,3.09-4.59,4.6-3,3-5.89,6-8.89,8.92a4.39,4.39,0,0,0-1.48,3.61C619.9,138.11,619.81,140.36,619.81,142.9Z"/><path class="cls-1" d="M82.5,171.56A58.84,58.84,0,0,1,66.15,158.7c.12-3.72.49-7,.49-10.3q.08-35.67,0-71.35c0-3-.45-6-.69-9,2-2.08,3.69-4.47,5.94-6.16a119.69,119.69,0,0,1,11.77-7.4c2,.41,1.75,1.69,1.75,2.83,0,6.29,0,12.59,0,18.88,0,1.12-.3,2.39.93,3.23-1.93,2.5-3.74,4.84-5.73,7.26-.71,1-1.23,1.93-1.92,3C78.09,90.91,77.64,92,77,93.27c-2.51,4.35-2.51,4.35-2.26,6l2.63-1.1c3.21-1.3,6.43-2.59,9.87-3.9a3,3,0,0,1,1.65.22c-.2,3.25-.58,6.24-.55,9.22.05,5.81.33,11.62.33,17.53-2.8,1.22-5.41,2.33-8.22,3.47-1,.72-1.88,1.42-2.91,2.19-.3.56-.64,1.13-.49,1.51,1.4,3.45,2.88,6.86,4.37,10.48.93,1.65,1.83,3.11,2.5,4.62a6.82,6.82,0,0,0-.86,2.72c0,6.9,0,13.8,0,20.71A39.72,39.72,0,0,1,82.5,171.56Z"/><path class="cls-1" d="M755.2,91.45v63.07H741.75V88H715.69V75c2.08-.57,61.67-.74,65.59-.16v13H755.35C755.29,89.11,755.24,90.14,755.2,91.45Z"/><path class="cls-1" d="M15.11,70.81c4.71,1,7.05,4.89,5.73,9.66-.72,2.62-1.72,5.18-2.35,7.83q-12.33,52.1,23.45,92c2.27,2.54,4.91,4.73,7.34,7.12,4,3.92,3.29,9.48-1.86,12a22.21,22.21,0,0,1-2.82-2.1C40.86,193.63,37,190,33.5,186.16A99.57,99.57,0,0,1,18.42,164a115.77,115.77,0,0,1-8.22-20.87,124.58,124.58,0,0,1-4.4-27.23,102.66,102.66,0,0,1,1-18,121.07,121.07,0,0,1,5-22.12A9.93,9.93,0,0,1,15.11,70.81Z"/><path class="cls-1" d="M70.85,213.16c-.25-5.5,4.25-9,9.67-7.52,4.5,1.23,9,2.83,13.53,3.63q52.7,9.25,90.46-28.78c.89-.9,1.7-1.88,2.56-2.81,3.4-3.7,7-4,11.27-.68a4.49,4.49,0,0,1-1.16,4.41c-4.17,4.22-8.15,8.66-12.64,12.51a109.88,109.88,0,0,1-25.26,16.15,119.06,119.06,0,0,1-43,10.72,105.54,105.54,0,0,1-21.82-1.25A93.84,93.84,0,0,1,70.85,213.16Z"/><path class="cls-1" d="M213.08,155.62a7.15,7.15,0,0,1-7.74-8.22,19,19,0,0,1,.91-3.38,92.73,92.73,0,0,0,5-30.73A98.47,98.47,0,0,0,178,39.63c-4-3.52-4.41-7-1.06-11.44a5.1,5.1,0,0,1,4.87,1.56c3.71,3.71,7.56,7.29,11.1,11.16a100.34,100.34,0,0,1,16.06,23.93,103.5,103.5,0,0,1,9.36,27.24,176.43,176.43,0,0,1,2.37,18.46,96.49,96.49,0,0,1-1,19.49A104.09,104.09,0,0,1,213.08,155.62Z"/><path class="cls-1" d="M155.61,13.47c.24,5.61-4.31,8.92-10.08,7.3-3.19-.89-6.33-1.95-9.54-2.76a88.26,88.26,0,0,0-25.47-2.73c-22.93,1-43.44,8.57-60.94,23.62A116.33,116.33,0,0,0,39.43,49c-2.88,3.16-8.5,4.41-11.8-.35a16.62,16.62,0,0,1,2.15-3.81c4-4.13,7.85-8.4,12.19-12.12A111.31,111.31,0,0,1,66.2,17.09a118.19,118.19,0,0,1,44-11.24,100.81,100.81,0,0,1,21.81,1.23A99.06,99.06,0,0,1,155.61,13.47Z"/><path class="cls-1" d="M151,57.37c2.44,1.66,5.1,3.08,7.28,5a65.58,65.58,0,0,1,8.66,9c4.66,6.11,9.07,12.43,10.76,20.17,1.53,7,.81,13.7-3.81,19.4-3.69,4.54-8,8.57-14,9.78a35,35,0,0,1-8.61.29C151,99.57,151,78.47,151,57.37Z"/><path class="cls-1" d="M150.85,57.27c.18,21.2.19,42.3.21,63.67a75.29,75.29,0,0,1-9.52-1.62c-2.09-.62-3.82-1-5.8-1.51-3.08-.48-5.91-.91-8.74-1.62,0-8.63,0-17,.2-25.39a36.61,36.61,0,0,1,6.37,1.49c2.46,1,5.28,1,8,1.39a6,6,0,0,0,5.26-1.93c3.27-3.32,3.09-7.75-.49-11.18a32.18,32.18,0,0,0-2.55-2.7,4.79,4.79,0,0,1-.45-.44l-.23-.15C138,73.2,132.36,70.8,126.35,69c0-7.34,0-14.4,0-21.46,2.67.34,5.18,1.39,7.73,2A52.48,52.48,0,0,1,146.5,54.3,41.13,41.13,0,0,1,150.85,57.27Z"/><path class="cls-1" d="M65.74,68.12a60.72,60.72,0,0,1,.9,8.93q.09,35.67,0,71.35c0,3.29-.37,6.58-.57,10.13a52.61,52.61,0,0,1-11.82-16.24,62.59,62.59,0,0,1-5.93-33.83A70.9,70.9,0,0,1,55.6,82.15C58.24,77.05,61.26,72.15,65.74,68.12Z"/><path class="cls-1" d="M689.57,89V74.72h13.3v79.75h-13.3Z"/><path class="cls-1" d="M155.66,13.24a112,112,0,0,0-23.61-6.16,100.81,100.81,0,0,0-21.81-1.23,118.19,118.19,0,0,0-44,11.24A111.31,111.31,0,0,0,42,32.7c-4.34,3.72-8.21,8-12.19,12.12a22.66,22.66,0,0,0-2.19,3.62c-2.46-2.52-2.51-5.93-.21-8.87A93.08,93.08,0,0,1,41.31,25.86,111,111,0,0,1,66.59,10.24a109.29,109.29,0,0,1,28.69-8.6A104.29,104.29,0,0,1,114.42,0a113.38,113.38,0,0,1,30.17,4.54c2.32.71,4.64,1.46,6.89,2.35C154.19,8,155.57,10.09,155.66,13.24Z"/><path class="cls-1" d="M213.3,155.68A115.81,115.81,0,0,0,219.69,130a96.49,96.49,0,0,0,1-19.49,176.43,176.43,0,0,0-2.37-18.46,103.5,103.5,0,0,0-9.36-27.24,100.34,100.34,0,0,0-16.06-23.93c-3.54-3.87-7.39-7.45-11.1-11.16a5.32,5.32,0,0,0-4.71-1.69c3.19-3,6.85-3.22,10.23-.35A108.53,108.53,0,0,1,211.07,56.4a112.45,112.45,0,0,1,14.2,41.21,111.16,111.16,0,0,1-5.07,52.45C219.09,153.26,217.1,155.43,213.3,155.68Z"/><path class="cls-1" d="M70.79,213.38a105,105,0,0,0,23.63,6.16,105.54,105.54,0,0,0,21.82,1.25,119.06,119.06,0,0,0,43-10.72,109.88,109.88,0,0,0,25.26-16.15c4.49-3.85,8.47-8.29,12.64-12.51a4.68,4.68,0,0,0,1.29-4.26c3.1,3.15,3.13,6.9.11,10.46a105.48,105.48,0,0,1-18.27,16.8A113.24,113.24,0,0,1,76.37,220.27C73.14,219.15,71,217.21,70.79,213.38Z"/><path class="cls-1" d="M14.94,70.68a12,12,0,0,0-3.17,5.12,121.07,121.07,0,0,0-5,22.12,102.66,102.66,0,0,0-1,18,124.58,124.58,0,0,0,4.4,27.23A115.77,115.77,0,0,0,18.42,164,99.57,99.57,0,0,0,33.5,186.16c3.54,3.86,7.36,7.47,11.1,11.15.75.74,1.68,1.3,2.62,2.11-2.72,1.83-5.25,1.61-8.1-.78a77,77,0,0,1-6-5.53,119,119,0,0,1-17.85-23.42,114.8,114.8,0,0,1-13-34.6A106.84,106.84,0,0,1,0,111.3,113,113,0,0,1,6.29,76.1C7.73,72.07,10.52,70.26,14.94,70.68Z"/><path class="cls-1" d="M86.47,79.29c-1.35-.68-1-2-1-3.07,0-6.29,0-12.59,0-18.88,0-1.14.23-2.42-1.56-2.89,6-3.71,12.85-5.7,19.91-7a9.48,9.48,0,0,1,2.63-.18,9.37,9.37,0,0,1,.68,3.32c0,6.08,0,12.16-.14,18.32-1.7.47-3.22.8-4.71,1.23C96.2,71.83,91.12,75.18,86.47,79.29Z"/><path class="cls-1" d="M82.67,171.67c0-1.64.37-3.16.38-4.69.06-6.91,0-13.81,0-20.71a4.58,4.58,0,0,1,1-2.6c3.28,4.09,7.21,7.12,10.73,10.54.37.36,1.08.38,1.75.71,2.61,1.56,5.09,3,7.4,4.53a7.32,7.32,0,0,0-.41,2.17c0,5.82,0,11.64,0,17.47A60.54,60.54,0,0,1,82.67,171.67Z"/><path class="cls-1" d="M153.47,145.72c2.17-1.82,4.32-3.64,6.49-5.44a22.81,22.81,0,0,1,2.76-2.16,6.69,6.69,0,0,1,8.56,1,6.3,6.3,0,0,1,1.25,8,37.44,37.44,0,0,1-4.64,6.35c-2.12,2.38-4.49,4.52-6.8,6.72s-4.6,4.43-7.06,6.46a28,28,0,0,1-5.73,3.45,15,15,0,0,1-.75-3.87c-.08-5.11-.08-10.22,0-15.47,1.83-1.58,3.54-3,5.25-4.44,0,0,0,.05.14,0A2.87,2.87,0,0,0,153.47,145.72Z"/><path class="cls-1" d="M103.84,179.15c-.25-5.89-.27-11.71-.25-17.53a4,4,0,0,1,.64-2.15c5,1.37,9.76,2.52,14.68,2.08,2.89-.26,5.76-.76,8.65-.88,0,5.16,0,10,0,14.91,0,1-.37,2.28,1.26,2.49a78.25,78.25,0,0,1-8.52,1.58C114.92,180.07,109.47,180.28,103.84,179.15Z"/><path class="cls-1" d="M107.12,68.78c0-6.07,0-12.15-.05-18.23a18.38,18.38,0,0,0-.45-3.31c6.38-1.39,12.86-1,19.54.17.22,7.15.22,14.21,0,21.52A58.51,58.51,0,0,0,107.12,68.78Z"/><path class="cls-1" d="M129.09,178.08c-1.86-.22-1.48-1.5-1.49-2.5,0-4.87,0-9.75.16-15a77.17,77.17,0,0,0,15.47-7.13c1.38-.86,2.81-1.66,4.21-2.49,0,5.1,0,10.21.11,15.32a31.67,31.67,0,0,0,.56,3.91c-4.84,3.63-10.34,5.63-16,7.25A28.82,28.82,0,0,1,129.09,178.08Z"/><path class="cls-1" d="M147.56,150.82c-1.52,1-2.95,1.78-4.33,2.64a63.33,63.33,0,0,1-15.49,6.85c-3.07.48-5.94,1-8.83,1.24-4.92.44-9.64-.71-14.51-2.25a72.8,72.8,0,0,1-7.76-4.59,29.14,29.14,0,0,1,2.84-3c1.34-1.43,3.6-1.93,4.16-4.12,5.56,5.24,12,8.38,19.78,8.53A38,38,0,0,0,139.68,153c4.36-1.92,8.49-4.35,12.92-6.6C151.1,147.81,149.39,149.24,147.56,150.82Z"/><path class="cls-1" d="M103.54,147.37c-.46,2.37-2.72,2.87-4.06,4.3-.9,1-1.94,1.79-3,2.88a2.3,2.3,0,0,1-1.67-.34c-3.52-3.42-7.45-6.45-10.51-10.6a31,31,0,0,1-2.68-4.67c4.56-2.08,7.87-5.44,11.43-8.45.78,1.66,1.54,3.32,2.33,5A45.91,45.91,0,0,0,103.54,147.37Z"/><path class="cls-1" d="M93.07,130.3c-3.54,3.2-6.85,6.56-11.44,8.44-1.66-3.43-3.14-6.84-4.54-10.29-.15-.38.19-.95.75-1.44,5.18.43,9.92.87,14.66,1.31C92.68,128.92,92.87,129.51,93.07,130.3Z"/><path class="cls-1" d="M127,116.46c2.83.44,5.66.87,8.51,1.48-2.2.21-4.43.18-6.66.3-1.62.09-3.23.36-4.84.55-4.34.64-8.67,1.28-13.45,1.87-6.41,0-12.38,0-18.15-.16,2.51-.75,4.82-1.38,7.38-2,6.57-1.06,12.9-2.07,19.34-2C121.76,116.51,124.38,116.47,127,116.46Z"/><path class="cls-1" d="M92.21,120.62c6,0,11.94,0,18.13.06-3.91,1.55-8,3-12.65,4.53-5.29.07-10.09.12-14.89.1a8.2,8.2,0,0,1-2.11-.58c2.61-1.12,5.22-2.23,8.24-3.46C90.29,121,91.25,120.8,92.21,120.62Z"/><path class="cls-1" d="M80.49,124.75a14.42,14.42,0,0,0,2.31.56c4.8,0,9.6,0,14.69,0-1.36.95-3,1.9-4.82,3-4.91-.34-9.65-.78-14.64-1.29A11,11,0,0,1,80.49,124.75Z"/><path class="cls-1" d="M124.28,118.85a36.19,36.19,0,0,1,4.57-.61c2.23-.12,4.46-.09,6.91-.26a39.23,39.23,0,0,1,5.55,1.27C135.81,119.23,130.18,119.07,124.28,118.85Z"/><path class="cls-1" d="M153.32,145.81c0,.11-.1.3-.39.56C152.9,146.25,153,146.07,153.32,145.81Z"/><path class="cls-1" d="M106.93,68.87a50.38,50.38,0,0,1,19.15.35,42.37,42.37,0,0,1,17,8.09c.15.15.27.12.27.12a1.61,1.61,0,0,1,.32.61c0,.4-.09.52-.36.53a41,41,0,0,0-23.66-4.67c-10.3.94-18.89,5-24.55,14.38-4.92-.54-9.59-1.1-14.25-1.66l5.54-7.17c4.77-4.27,9.85-7.62,15.87-9.35C103.71,69.67,105.23,69.34,106.93,68.87Z"/><path class="cls-1" d="M92.41,120.5c-1.16.3-2.12.48-3.29.67-.41-5.8-.69-11.61-.74-17.42a67.29,67.29,0,0,1,.77-9.23A34.43,34.43,0,0,1,93.94,93c1.71-.21,3.2-.42,4.9-.48a11.76,11.76,0,0,1,.63,3.26c0,7.57.06,15.13.08,22.7C97.23,119.12,94.92,119.75,92.41,120.5Z"/><path class="cls-1" d="M80.62,86.71c4.85.47,9.52,1,14.42,1.78a8.63,8.63,0,0,1-1.5,3.41c-4.24-.58-8.24-1.13-12.24-1.73a24.1,24.1,0,0,1-2.44-.6C79.39,88.64,79.91,87.72,80.62,86.71Z"/><path class="cls-1" d="M78.7,89.68c1,.1,1.78.37,2.6.49,4,.6,8,1.15,12.24,1.91a1.41,1.41,0,0,1,.17.93c-1.44.41-2.88.83-4.55,1.25l-2.11,0c-3.6-.38-6.73-.77-9.86-1.15C77.64,92,78.09,90.91,78.7,89.68Z"/><path class="cls-1" d="M77,93.27c3.28.26,6.41.65,9.78,1-3,1.3-6.2,2.59-9.41,3.89l-2.63,1.1C74.53,97.62,74.53,97.62,77,93.27Z"/><path class="cls-1" d="M98.84,92.52A63.5,63.5,0,0,1,106.28,91a67.64,67.64,0,0,1,20.45-.22c.25,8.42.26,16.79.27,25.42a64.63,64.63,0,0,1-7.87.28c-6.44-.08-12.77.93-19.34,2-.26-7.55-.27-15.11-.32-22.68A11.76,11.76,0,0,0,98.84,92.52Z"/><path class="cls-1" d="M146.3,80.57a14.61,14.61,0,0,1-2.76-1.74,1,1,0,0,1,.26-.67A12.82,12.82,0,0,1,146.3,80.57Z"/><path class="cls-1" d="M143.3,77.43s-.11,0-.08,0A.06.06,0,0,1,143.3,77.43Z"/></g></svg>