<?xml version="1.0" encoding="utf-8"?>
<!-- Generator: Adobe Illustrator 25.4.1, SVG Export Plug-In . SVG Version: 6.00 Build 0)  -->
<svg version="1.1" id="Layer_1" xmlns="http://www.w3.org/2000/svg" xmlns:xlink="http://www.w3.org/1999/xlink" x="0px" y="0px"
	 viewBox="0 0 455 56" style="enable-background:new 0 0 455 56;" xml:space="preserve">
<style type="text/css">
	.st0{fill:#FFFFFF;}
</style>
<g id="TyDFeY_00000112614403612335296370000003290229413462770607_">
	<g>
		<path class="st0" d="M299.7,27.8c0.1-5.3,0.3-13,0.1-22.7c0-0.2-0.2-1.1,0.4-2.1c0.6-0.9,1.5-1.2,1.7-1.2
			c21-0.2,37.2,0.2,45.8,0.6c2.3,0.1,6.2,0.5,9,3.2c2.3,2.2,3.3,5.6,3.4,10.3c0.1,2.3,0.1,4.6-0.1,6.9c-0.4,7.8-4.8,12.3-12.7,13.2
			c-1.1,0.1-2.1,0.4-3.2,0.6c0.7,0.9,1.2,1.9,2,2.7c4.1,4.3,8.3,8.5,12.5,12.7c0.4,0.4,0.6,1,0.9,1.5c-0.6,0.2-1.1,0.5-1.7,0.5
			c-4.3,0-8.7,0.2-13-0.1c-1.4-0.1-3-1.2-4.1-2.3c-6.3-6.1-6.9-9.1-12.8-13.1c-3.4-2.3-9-4.5-11.5-2.4c-0.8,0.7-1.2,1.8-1.3,2.6
			c-0.3,5.4-0.3,8.9,0,11.3c0.1,0.8,0.3,2.4-0.7,3.3c-0.6,0.5-1.5,0.8-3,0.6c-3.8-0.4-8.9,1.1-11-0.8c-2-1.8-0.8-7-0.9-10.7
			C299.7,37.7,299.6,32.7,299.7,27.8z M339,24.5c2.2,0.2,4.3-0.8,5.3-2.6c1.2-2.1,0.3-4.2,0.1-4.7c-1.4-3.1-5.1-3.5-5.2-3.5
			c-6.5-0.1-13.1-0.1-19.6-0.2c-0.4,0-2.7,0.1-3.9,1.8c-0.7,1.1-0.7,2.3-0.6,3.8c0.1,1.4,0.1,2.5,0.9,3.4c1.4,2,4.2,1.9,4.6,1.9
			C326.7,24.4,332.9,24.4,339,24.5z"/>
		<path class="st0" d="M159.5,15.5c0,8.2,0,16.4,0,24.6c0,0.3,0,0.7,0,1c-0.3,7.1-3,10.8-9.8,12.1c-4.2,0.8-8.6,0.7-12.9,0.8
			c-7.5,0.1-15,0.2-22.4-0.1c-9.9-0.3-14.9-5.8-14.9-15.6c0-6.4,0-12.8,0-19.2c0-12.2,2.4-16,14.5-17c11.7-0.9,23.6-0.3,35.3,0.5
			c6.7,0.5,9.7,4.8,10.2,11.8C159.5,14.8,159.5,15.2,159.5,15.5z M115.1,27.8c0,14,0.7,14.7,14.3,14.7c14.3,0,14.8-0.5,14.8-14.6
			c0-13.9-0.4-14.3-14.4-14.3C115.9,13.5,115.1,14.3,115.1,27.8z"/>
		<path class="st0" d="M72.7,53c0-10-0.1-20-0.1-30c0-7.3-2-9.2-9.5-9.4c-3.5-0.1-7-0.1-10.5,0c-6.7,0.2-9,2.4-9,9
			c-0.1,9.4-0.1,18.7,0,28.1c0.1,2.8-0.8,3.5-3.6,3.6c-12.3,0.2-12.3,0.3-12.3-11.6c0-8.5-0.1-17.1,0-25.6c0.1-9.4,3.6-14,13.2-14.5
			c12-0.7,24.2-0.3,36.2,0.2C83,3,86.8,6.6,87.7,12.7c0.2,1.3,0.3,2.7,0.5,4c0,12.1,0.1,24.3,0.1,36.4c-0.5,0.4-1.1,0.7-1.6,1.1
			c-4.3,0-8.6,0-13,0C73.4,53.6,73,53.3,72.7,53z"/>
		<path class="st0" d="M280,54.1c-7.2,0-7.2,0-9.1-7.1c-2.6-9.9-2.6-9.9-13.1-9.9c-9.5,0-9.5,0-12,9.3c-1,3.9-1.5,5.8-2.8,6.8
			s-3.4,1-7.4,1c-1.6,0-2.9-0.1-3.9-0.1c-0.1,0-1.6-0.2-2.2-1.5c-0.5-0.9-0.3-1.9-0.2-2.1c3.1-11.5,6.3-23,9.4-34.5
			c0.8-2.8,2.4-6.9,6.2-10c7.8-6.5,20-4.8,26.1,0.4c1.5,1.3,2.7,2.8,3.2,3.5c2.6,3.4,4.2,7.2,5.3,11.5c2.2,8.2,4.5,16.4,6.8,24.6
			C288.4,53.7,288,54.1,280,54.1z M258.1,25.5c2.9,0,5.3-0.4,7.1-0.9c-0.9-2.6-1.5-5.3-2.9-7.6c-2.4-3.9-5.5-3.9-8,0
			c-1.4,2.3-1.9,5.1-2.9,7.6C253.1,25.1,255.4,25.5,258.1,25.5z"/>
		<path class="st0" d="M175.4,1.7c7.6,0,7.6,0,9.5,7.3c2.1,8.3,4.2,16.5,6.3,24.8c0.9,3.6,2.3,7.8,6.4,7.8c4.1,0,5.4-4.4,6.3-7.9
			c2.5-9.3,4.9-18.7,7.1-28.1c0.7-2.9,1.5-4.3,4.8-4c3.8,0.4,7.6,0.3,11.4,0.4c-0.8,3.7-1.5,7.3-2.5,10.9
			c-2.1,7.9-4.3,15.8-6.5,23.7c-0.6,2.2-1.6,4.3-2.5,6.4c-4.4,9.8-12.5,12.3-22.5,11c-8.2-1.1-12.5-7-14.9-13.6
			c-3.7-10.1-6.1-20.7-9-31.1c0-0.2,0-0.3-0.1-0.5C167.7,1.7,167.7,1.7,175.4,1.7z"/>
		<path class="st0" d="M369.6,27.8c0-7.5,0.1-15.1-0.1-22.6c-0.1-2.8,0.8-3.5,3.6-3.6c12.1-0.2,12.2-0.3,12.1,11.8
			c0,12.3-0.2,24.6-0.1,36.9c0,2.9-0.6,4.1-3.8,3.8c-3.7-0.4-8.9,1.1-10.9-0.9c-2-1.9-0.8-7-0.8-10.7
			C369.6,37.6,369.6,32.7,369.6,27.8z"/>
		<path class="st0" d="M88.1,16.5c-0.2-1.3-0.3-2.7-0.5-4C87.8,13.8,88,15.2,88.1,16.5z"/>
		<path class="st0" d="M86.6,54c0.5-0.4,1.1-0.7,1.6-1.1C87.7,53.3,87.2,53.6,86.6,54z"/>
		<path class="st0" d="M159.5,41.1c0-0.3,0-0.7,0-1C159.5,40.5,159.5,40.8,159.5,41.1z"/>
		<path class="st0" d="M159.5,15.5c0-0.3,0-0.7-0.1-1C159.5,14.8,159.5,15.2,159.5,15.5z"/>
		<path class="st0" d="M72.7,53c0.3,0.3,0.7,0.7,1,1C73.4,53.6,73,53.3,72.7,53z"/>
		<path class="st0" d="M1.3,52.3c0.2,0.5,0.4,1.1,0.6,1.6C1.7,53.3,1.5,52.8,1.3,52.3z"/>
		<path class="st0" d="M446.5,54.2c-7.2,0-7.2,0-9.1-7.1c-2.6-9.9-2.6-9.9-13.1-9.9c-9.5,0-9.5,0-12,9.3c-1,3.9-1.5,5.8-2.8,6.8
			s-3.4,1-7.4,1c-1.6,0-2.9-0.1-3.9-0.1c-0.1,0-1.6-0.2-2.2-1.5c-0.5-0.9-0.3-1.9-0.2-2.1c3.1-11.5,6.3-23,9.4-34.5
			c0.8-2.8,2.4-6.9,6.2-10c7.8-6.5,20-4.8,26.1,0.4c1.5,1.3,2.7,2.8,3.2,3.5c2.6,3.4,4.2,7.2,5.3,11.5c2.2,8.2,4.5,16.4,6.8,24.6
			C454.9,53.9,454.5,54.2,446.5,54.2z M424.6,25.7c2.9,0,5.3-0.4,7.1-0.9c-0.9-2.6-1.5-5.3-2.9-7.6c-2.4-3.9-5.5-3.9-8,0
			c-1.4,2.3-1.9,5.1-2.9,7.6C419.6,25.3,421.9,25.7,424.6,25.7z"/>
		<rect x="1.1" y="16.5" class="st0" width="15.8" height="37.7"/>
		<rect x="1.1" y="2" class="st0" width="15.8" height="11.5"/>
	</g>
</g>
</svg>
