<?xml version="1.0" encoding="utf-8"?>
<!-- Generator: Adobe Illustrator 25.4.1, SVG Export Plug-In . SVG Version: 6.00 Build 0)  -->
<svg version="1.1" id="Layer_1" xmlns="http://www.w3.org/2000/svg" xmlns:xlink="http://www.w3.org/1999/xlink" x="0px" y="0px"
	 viewBox="0 0 324.4 222.6" style="enable-background:new 0 0 324.4 222.6;" xml:space="preserve">
<style type="text/css">
	.st0{fill:#FFFFFF;}
</style>
<g>
	<path class="st0" d="M159,50.7c2.2-1.4,3.6-2.3,5.9,0.1c1.3,1.3,4,1.6,6.1,1.9c0.9,0.1,2.9-0.9,2.9-1.4c-0.1-2.3-0.1-5.9-1.3-6.5
		c-3.1-1.5-4.2-3.5-4.3-6.5c-0.1-3.1,0-6.2,0-9.3c-0.1,0-0.1,0-0.2,0c0-2.2,0.1-4.4,0-6.6c-0.1-1.2-0.6-3.5-1-3.5
		c-2.4-0.1-4.7,0.4-7.1,0.7c-0.8,0.1-1.9,0.7-2.5,0.4c-7.2-3.4-15.7-1.3-20.6,5.1c-4.8,6.3-4.4,16.6,0.9,22.5
		C142.6,53.2,152.6,54.8,159,50.7z M150.9,26.5c5,0,8.6,3.7,8.6,9c0,5.4-3.4,9.2-8.4,9.4c-4.8,0.2-8.9-4.2-9-9.3
		C142.1,30.5,146,26.5,150.9,26.5z"/>
	<path class="st0" d="M287.3,19.2c-7.2-2.9-16.2-0.6-20.3,5.1c-5.5,7.6-5,18,1.2,24.1c5.6,5.5,19.1,6.6,25.4,1.9
		c0.6-0.5,1.4-1.4,1.4-2.1c-0.2-2.8-4.9-5.2-7.5-4c-4.8,2.3-11.5,1-13.9-2.6c-0.4-0.6-0.8-1.6-0.6-2.1c0.2-0.4,1.3-0.7,2-0.7
		c3.3-0.1,6.6,0,9.9,0c3.3,0,6.6,0.2,9.9-0.1c0.9-0.1,2.4-1.4,2.6-2.3C298.4,29.3,294.1,21.9,287.3,19.2z M286,32
		c-1.9,0-3.8,0-5.7,0c-1.8,0-3.6,0.1-5.4,0c-0.8,0-1.6-0.5-2.4-0.7c0.3-0.7,0.4-1.5,0.8-2.1c3.3-4.8,10.8-4.8,14,0
		C288.5,30.9,288.7,32.1,286,32z"/>
	<path class="st0" d="M121.2,95.8c0.5,0.2,0.9,0.4,1.4,0.6c2.5,0.8,5.1,1.6,7.6,2.3c0.4,0.1,0.8,0.2,1.2,0.2c0,0,0,0,0,0
		c1.8,0.3,3.6,0.8,5.4,0.8c0.8,0,1.6-0.9,2.4-1.3c0-5.7,0-11.5,0-17.2c-0.5-0.5-0.8-1.4-1.4-1.6c-2.8-0.7-5.6-1.2-8.4-1.8
		c-0.3-0.2-0.5-0.3-0.8-0.5c-0.5-0.3-1-0.5-1.6-0.8c-0.1-0.2-0.2-0.3-0.4-0.3c-3.2-3.2-6.4-6.5-9.6-9.7c0-0.2-0.1-0.3-0.3-0.4
		c-0.3,0-0.7-0.1-1-0.1c0.3,0,0.7,0.1,1,0.1c-0.3-0.5-0.6-0.9-0.9-1.4c0-0.2-0.1-0.4-0.3-0.4c-0.3-0.4-0.6-0.9-0.9-1.3
		c0.1-0.2,0-0.4-0.3-0.5c-0.3-0.5-0.6-0.9-0.9-1.4c0.1-0.2,0-0.4-0.2-0.4c-0.5-0.8-1-1.7-1.6-2.5c0.1-0.2,0-0.4-0.3-0.4
		c-0.2-0.4-0.5-0.7-0.7-1.1c0.2,0.4,0.5,0.7,0.7,1.1c-0.5-1-0.8-2-1.4-2.9c-3.7-6.6-7.3-13.2-11-19.8c-0.4-0.2-0.8-0.4-1.2-0.6
		c0,0,0,0,0,0c0.4,0.2,0.8,0.4,1.2,0.6c0.1-0.2,0.2-0.3,0.4-0.5c0.2-0.5,0.5-1,0.7-1.4c0-2.7,0-5.5,0-8.2c0-5.3,0.3-10.5,0-15.8
		c0-1-1.9-2.7-3-2.7c-4.6-0.3-9.3-0.3-14,0c-1,0.1-2.1,1.8-2.6,2.9c-0.6,1.4-0.7,3.1-1,4.7c0,0.2,0,0.3-0.1,0.4
		c0.7,0.3,1.3,0.5,2,0.8c-0.7-0.3-1.3-0.5-2-0.8c0.1-0.1,0.1-0.3,0.1-0.4c-0.5-0.3-1-0.6-1.5-0.8c0,0.2,0,0.4-0.1,0.5c0,0,0,0,0,0
		c-1.6-0.8-3.1-1.5-4.7-2.3c-2.2,5.9-4.5,11.8-6.7,17.8c2.4,1.9,4.9,3.9,7.3,5.8c0.5,0.6,0.9,1.1,1.4,1.7c0.5,0.6,1.1,1.3,1.6,1.9
		c0.7,1.3,1.5,2.5,2.2,3.8c0.3,4.5,1.3,9,0.9,13.4c-1.3,15.8-17.7,28-35.2,21.9c-0.5-0.2-1-0.2-1.5-0.2c0,0,0,0,0,0
		c-4.1-3.5-8.3-6.9-12.4-10.4c0-0.2-0.1-0.3-0.2-0.4c-1.1-6-2.2-12-3.3-18c0-0.3,0-0.6,0.1-0.9c1.1-2.7,2.2-5.4,3.3-8.1
		c0.2-0.4,0.3-0.8,0.5-1.3c-0.4,0.4-0.7,0.8-1.1,1.2c-0.6,1-1.2,2-1.8,3c-2.9-0.3-5.8-0.5-8.6-1.2c2.7,0.7,5.7,0.9,8.6,1.2
		c0.6-1,1.2-2,1.8-3c0.4-0.4,0.7-0.8,1.1-1.2c0.4-0.6,0.9-1.2,1.3-1.7c0.3-0.4,0.7-0.9,1-1.3c0.1-0.2,0.1-0.4,0.2-0.5
		c-0.3-0.3-0.6-0.6-0.8-0.9c-0.5-0.6-1.1-1.2-1.7-1.8c0.6,0.6,1.1,1.2,1.7,1.8c0.3,0.3,0.6,0.6,0.8,0.9c0.8-0.7,1.7-1.5,2.5-2.2
		c0,0,0,0,0,0c4.6-2.2,9.3-4.4,13.9-6.5c0.5,0,1.1,0,1.6-0.1c1.6,0,3.2,0,4.8,0c0.3,0,0.6,0,1,0.1c2.7,0.9,5.4,1.8,8.1,2.6
		c0.3,0.1,0.7,0.2,1,0.4c2.2-5.9,4.5-11.8,6.7-17.8c-3.7-1.2-7.5-2.3-11.2-3.5c3.7,1.2,7.5,2.3,11.2,3.5c1.6,0.8,3.1,1.5,4.7,2.3
		c0.1-0.2,0.1-0.4,0.1-0.5C72.3,9,65.9,6.9,58.8,6.8c-1.1,0-2.2,0-3.4-0.1c-1.3,0-2.7,0-4,0c-0.9,0-1.9,0-2.8,0.1
		C39.3,7.2,31.3,10.7,24.5,17c-1.6,1.6-3.1,3.1-4.7,4.7c-2.4,3.3-4.7,6.5-7.1,9.8v0c-0.6,0.9-1.4,1.6-1.8,2.6
		C6.2,45.4,5.2,57.1,9.7,68.7c2,5,5.4,9.3,8.2,13.9c3.2,2.9,6.4,5.9,9.6,8.8c1.4,0.9,2.9,1.8,4.3,2.7c0.3,0.1,0.6,0.3,0.9,0.4
		c2.3,0.9,4.5,1.8,6.8,2.8c0.1,0.1,0.3,0.1,0.5,0.1c1.5,0.4,2.9,0.8,4.4,1.1c0.3,0.1,0.7,0.1,1,0.2c1.1,0.2,2.2,0.4,3.3,0.6
		c-0.8-0.3-1.7-0.6-2.5-0.9c0,0,0,0,0,0c0.8,0.3,1.7,0.6,2.5,0.9c0.4,0.1,0.8,0.1,1.2,0.2c3.6-0.2,7.1-0.3,10.7-0.5
		c0.8-0.1,1.6-0.2,2.3-0.3c3.4-1.3,6.9-2.5,10.3-3.8c0,0,0,0,0,0c0,0,0,0,0,0c0,0,0,0,0,0c0,0,0,0,0,0c1.8-1,3.6-2,5.5-3
		c0.2,0,0.3-0.1,0.5-0.2c2.4-2,4.8-3.9,7.1-5.9c0.4-0.5,0.9-1.1,1.3-1.6c2.3-3,4.6-6,7-8.9c0.7-0.9,1.8-1.5,2.7-2.2
		c1.4,1.9,2.7,3.7,4.1,5.6c0.3,0.4,0.7,0.9,1,1.3c0,0,0.1-0.1,0.1-0.1c0.4,0.6,0.9,1.1,1.3,1.7c0.4,0.4,0.7,0.8,1.1,1.3
		c2,2,4,4,5.9,6c0.6,0.5,1.3,1.1,1.9,1.6c2.3,1.5,4.6,3,7,4.4C120.2,95.3,120.7,95.6,121.2,95.8z M46.4,26.2c-0.2-0.5-0.6-1-0.7-1.5
		C45.8,25.2,46.1,25.7,46.4,26.2C46.4,26.2,46.4,26.2,46.4,26.2z M86.9,54.7c-0.1-0.1-0.1-0.2-0.1-0.3c-0.3-0.5-0.6-1-0.8-1.5
		c0.3,0.5,0.6,1,0.8,1.5C86.8,54.5,86.9,54.6,86.9,54.7z M85.6,19.1c0.1,0.3,0.3,0.6,0.4,0.9c0.8,0.8,1.5,1.5,2.3,2.3
		c0.9,1.1,1.9,2.2,2.8,3.3c0.3,0.3,0.5,0.6,0.8,0.9c0.6,0.7,1.1,1.4,1.7,2c-0.6-0.7-1.1-1.4-1.7-2c-0.3-0.3-0.5-0.6-0.8-0.9
		c-0.9-1.1-1.9-2.2-2.8-3.3c-0.8-0.8-1.5-1.5-2.3-2.3C85.8,19.7,85.7,19.4,85.6,19.1z M96.7,33.1c0-0.2,0-0.3-0.2-0.3
		C96.7,32.8,96.7,32.9,96.7,33.1c0.3,0.5,0.7,1,1,1.5C97.3,34,97,33.5,96.7,33.1z M91.3,15.7c-0.6,0.2-1.1,0.3-1.6,0.5
		C90.2,16,90.8,15.9,91.3,15.7z M88.9,16.6c-0.5,0.2-1,0.5-1.5,0.7C87.8,17.1,88.3,16.8,88.9,16.6z M86.2,18.1
		c0.2-0.1,0.4-0.3,0.6-0.4C86.6,17.9,86.4,18,86.2,18.1z M27,75.3c1.8-1.5,3.7-2.8,5.5-4.3c0,0,0,0,0,0C30.7,72.4,28.8,73.8,27,75.3
		z M28.9,91.4c0.9-0.3,2.3-0.4,2.9-0.9C31.1,91.1,29.8,91.1,28.9,91.4C28.9,91.4,28.9,91.4,28.9,91.4z M43.2,78.3
		c-1.2-0.4-2.4-0.8-3.5-1.3c-0.5,0.8-1,1.7-1.4,2.5c0.5-0.8,0.9-1.7,1.4-2.5l0,0C40.8,77.4,42,77.8,43.2,78.3
		c2.4,0.8,4.8,1.6,7.2,2.4C48,79.9,45.6,79.1,43.2,78.3z M34,87c1.1-1.8,2.1-3.7,3.1-5.5C36.1,83.4,35,85.2,34,87z M100.9,53.6
		c1.5-1.4,3.1-2.8,4.6-4.2c0,0,0,0,0,0C104,50.9,102.5,52.3,100.9,53.6z"/>
	<path class="st0" d="M250.8,54c3.5-1.1,7.1-2.2,10.6-3.5c0.7-0.3,1.4-1.8,1.2-2.5c-1.1-3.3-4.8-4.8-7.9-3.5
		c-3.7,1.5-8.9,0.4-11.3-2.5c-2.5-3.1-2.7-8.6-0.5-11.8c2.2-3.3,6.9-5.4,10.5-3.4c3.7,2,5.4,0.5,7.8-1.7c2.4-2.2,1.5-3.1-0.6-4.4
		c-6.1-3.9-15.9-3.5-21.5,0.8c-6.1,4.7-8.4,13.1-5.7,20.8C236,49.4,241.9,53.2,250.8,54z"/>
	<path class="st0" d="M266.3,200.4c1.4,0.9,2.5,2.3,3.5,3.7c2.9,4,6.9,2.8,11.4,2.6c-2.2-2.3-4-4.1-5.5-6c-0.3-0.4,0-2.1,0.4-2.3
		c4.4-2.2,5.7-5.1,4.6-11c-0.8-4.3-4-5.1-7.6-5.1c-5.9-0.1-11.8,0-17.7-0.1c-2.2,0-3,0.6-2.9,2.9c0.1,6.2,0.2,12.4,0,18.5
		c-0.1,2.7,0.9,3.2,3.4,3.4c3.6,0.3,4.8-0.9,4.5-4.5c-0.1-1.2,0.8-2.6,1.2-3.9C263.2,199.2,265,199.5,266.3,200.4z M260.3,190.3
		c0-0.8,0.9-2.2,1.5-2.3c3-0.2,6-0.2,8.9,0.1c0.9,0.1,1.6,1.4,2.5,2.1c-0.8,0.8-1.5,1.9-2.5,2.2c-1.5,0.4-3.2,0.1-4.8,0.1
		c0,0,0,0.1,0,0.1c-1.4,0-2.9,0.3-4.2-0.1C261.1,192.4,260.3,191.1,260.3,190.3z"/>
	<path class="st0" d="M193.9,26.8c0.6,0.1,1.5,1.2,1.6,1.9c0.2,1.9,0.1,3.8,0.1,5.7c0,0-0.1,0-0.1,0c0.1,2.1,0.1,4.2,0.4,6.3
		c0.9,7.9,5.6,12.3,13.2,12c1,0,2.9-1.6,2.8-2.2c-0.4-2.1,2.1-5.4-2-6c-2.9-0.4-4.6-2-4.9-4.8c-0.3-3.3-0.2-6.6-0.4-9.8
		c-0.2-2.5,0.7-3.5,3.2-3.1c3.2,0.6,3.8-1.1,3.7-3.9c-0.1-2.6,0.1-4.9-3.7-4.2c-2.7,0.5-3.5-0.8-3.3-3.3c0.1-1.4-0.1-4-0.5-4.1
		c-2.4-0.5-4.9-0.6-7.3-0.2c-0.5,0.1-0.6,2.5-1.1,3.8c-0.5,1.3-1.1,2.6-1.8,3.9c-0.6,1-2,2-1.9,2.7
		C192.1,23.2,189.9,26.3,193.9,26.8z"/>
	<path class="st0" d="M182.7,182.5c-5.4-0.2-10.8-0.2-16.1,0c-3.9,0.2-5.9,2.6-6,6.5c-0.1,3.7-0.1,7.4,0,11.1c0.1,3.9,2,6.2,5.9,6.6
		c2.7,0.2,5.4,0,8.1,0c0,0,0,0.1,0,0.1c2.5,0,5,0.2,7.5,0c4.9-0.4,6.7-2.4,6.8-7.3c0.1-3.4,0-6.8,0-10.2
		C188.7,185.2,186.7,182.6,182.7,182.5z M174.4,201.1c-5.9,0-6.4-0.6-6.4-6.6c0-6.3,0.4-6.6,6.9-6.6c6,0,6.3,0.3,6.3,6.2
		C181.2,200.9,181,201.1,174.4,201.1z"/>
	<path class="st0" d="M176.3,23.8c0.5,6.8,0.6,13.7,1.6,20.5c0.9,5.6,5.4,8.6,11,8.4c1,0,2.8-1,2.8-1.5c-0.1-2.2-0.2-5.9-1.2-6.3
		c-4.1-1.4-4.7-4.3-4.7-7.7c-0.1-8.2,0-16.3,0-24.5c0-6.1,0-6-6.2-6.1c-2.2,0-3,0.6-2.9,2.9c0.2,4.8,0.1,9.6,0.1,14.3
		C176.6,23.7,176.5,23.8,176.3,23.8z"/>
	<path class="st0" d="M155.8,196.6c0-2.4,0-4.8,0-7.2c-0.1-4.5-2-6.8-6.4-7c-5.1-0.2-10.2-0.2-15.2,0c-4.5,0.2-6.4,2.3-6.6,6.9
		c-0.1,5.1-0.1,10.2,0,15.3c0,0.7,0.4,1.9,1,2.1c3.8,1.7,6.6-0.2,6.6-4.2c0-2,0-4,0-6c0-8.7,0-8.7,8.8-8.5c3.1,0.1,4.3,1.4,4.2,4.4
		c-0.1,3.7,0.2,7.4-0.1,11.1c-0.2,2.9,0.9,3.3,3.6,3.5c3.6,0.2,4.6-1,4.2-4.3C155.6,200.6,155.8,198.6,155.8,196.6z"/>
	<path class="st0" d="M319.7,189.2c-1.6-5.1-4.4-7-9.6-7c-3.5-0.6-6.4,1.2-7.8,4.6c-2,4.8-3.4,9.9-4.8,15c-1.5,5.5-1.3,5.9,4.4,4.9
		c1.3-0.2,2.8-2.9,3.2-4.7c0.6-2.8,2.1-3.3,4.5-3c2.3,0.3,5.6-1.2,5.9,3c0.3,4.2,2.6,5.8,6.5,4.9c0.8-0.2,2-1.7,1.9-2.3
		C322.7,199.3,321.4,194.2,319.7,189.2z M310.3,194.1c-1.2-1-2-1.6-2.8-2.3c1-1.1,1.9-2.2,2.9-3.3c0.9,1.1,1.9,2.3,2.8,3.4
		C312.4,192.5,311.6,193.1,310.3,194.1z"/>
	<path class="st0" d="M234.3,182.3c-5.2,0-8.3,2.2-9.9,7.3c-1.6,4.9-2.8,10-4.1,15c-0.2,0.6,0.2,1.9,0.6,2.1
		c3.3,1.5,6.4-0.3,7.4-3.8c0.4-1.4,1-3.5,2-3.9c4.9-1.8,7.9,0,9.2,4.9c0.6,2.4,5.7,4.2,7.6,2.7c0.3-0.3,0.4-1.1,0.3-1.6
		c-1.5-5.6-2.9-11.2-4.8-16.6C241.3,184.6,238.7,181.6,234.3,182.3z M233.8,193.8c-1.2-0.7-2-1.2-2.9-1.7c1-1.3,1.9-2.5,2.9-3.8
		c1,1.2,2,2.5,2.9,3.7C235.8,192.6,234.9,193.1,233.8,193.8z"/>
	<path class="st0" d="M205.9,206.8c4.9,0,7.8-2.1,9.4-7.5c1.4-4.4,2.5-8.8,3.6-13.3c0.3-1.2-0.1-2.5-0.2-3.8
		c-2.3,0.8-5.8-2.1-6.9,2.3c-1,4.3-2,8.5-3.3,12.7c-0.4,1.2-1.7,2.2-2.6,3.2c-0.9-1.1-2.2-2.1-2.6-3.3c-1.1-3.3-2.2-6.7-2.5-10.1
		c-0.5-4.5-3-5.5-6.9-4.8c-0.6,0.1-1.6,1.4-1.5,1.9c1.3,5.3,2.6,10.7,4.4,15.8C198.2,204,200.9,207.2,205.9,206.8z"/>
	<path class="st0" d="M225.3,29.6C225.2,29.6,225.2,29.6,225.3,29.6c-0.1-1.6-0.1-3.2-0.1-4.8c0-6.4,0-6.5-6.4-6.1
		c-0.9,0.1-2.5,1.5-2.5,2.4c-0.1,6.5-0.1,13,0.2,19.4c0.3,7.4,5,12.2,11.7,12.1c1,0,2.9-1,2.8-1.4c-0.1-2.3-0.1-5.9-1.4-6.5
		c-3.1-1.4-4.2-3.4-4.3-6.4C225.2,35.4,225.3,32.5,225.3,29.6z"/>
	<path class="st0" d="M188.6,89.7c0.4-0.2,1.1,0.5,1.6,0.6c3.7,0.7,7.1,0.2,9.2-3.3c2.1-3.5,2.1-7.1-0.2-10.4c-2.2-3.2-5.4-4-9-2.8
		c-1.9,0.7-2.3,0.2-2.2-1.6c0.1-0.9,0.3-1.9-0.1-2.7c-0.5-0.9-1.5-2.1-2.2-2.1c-0.8,0-2.2,1.2-2.2,2c-0.3,3.1-0.1,6.2-0.1,9.3
		c0,1.8,0,3.6,0,5.4C183.5,87.4,182.1,92.2,188.6,89.7z M188.1,81.8c0.4-1.7,2.5-3.9,4-4c1.4-0.1,3.1,2.1,5.8,4.2
		c-2.7,2-4.2,3.8-5.9,4.1C189.3,86.5,187.5,84.3,188.1,81.8z"/>
	<path class="st0" d="M171.6,73.5c-3.8-0.8-7,0.4-9,3.7c-2.1,3.5-1.9,7.2,0.5,10.4c2.5,3.3,6,3.3,9.8,2.6c1.6-0.3,3.4,0,5.1,0
		c1.1,0,2.8,0.2,3.2-0.4c0.5-0.8,0.3-2.3-0.1-3.4c-0.9-2.3-2.1-4.5-3.1-6.7c1.3-4.2,1.5-7.8-4.3-5.8
		C173.1,74.1,172.3,73.6,171.6,73.5z M174.8,82.7c-1.5,1.2-2.9,3-4.6,3.3c-2.7,0.5-4.6-1.5-4-4.1c0.4-1.7,2.3-4.1,3.7-4.2
		c1.5-0.1,3.3,2,4.9,3.1C174.8,81.5,174.8,82.1,174.8,82.7z"/>
	<path class="st0" d="M292.6,204.3c-0.1-6.5-0.2-12.9,0-19.4c0.1-2.7-1.3-3-3.3-2.8c-1.9,0.3-4.7-1.2-4.6,2.7c0.1,3.3,0,6.6,0,9.8
		c0,3.2,0.1,6.4,0,9.5c-0.1,3.7,2.6,2.4,4.4,2.6C290.9,207,292.7,207.2,292.6,204.3z"/>
	<path class="st0" d="M48,185.5L48,185.5c0-0.4-0.1-0.9-0.1-1.3c0-0.6,0.1-1.2,0.1-1.7c0,0,0,0,0,0c-0.4-1.8-0.7-3.6-1.1-5.4
		c-0.2-0.2-0.5-0.4-0.7-0.7c-1,0.4-2,0.9-3,1.3c1-0.4,2-0.9,3-1.3c-3.7-0.3-7.3-0.8-11-0.9c-3.3-0.1-6.6,0.3-10,0.3
		c-4.7,0-9.3-0.4-14-0.4c-0.6,0-1.2,1.1-1.7,1.7c0,1.2,0.1,2.4,0.1,3.6c0,0,0,0,0,0c0,0.4,0,0.8,0,1.2c0.2,0.9,0.3,1.7,0.5,2.6
		c1.2-0.1,2.5-0.2,3.7-0.2c-1.1-0.3-2.2-0.7-3.9-1.2c1.7,0.5,2.8,0.9,3.9,1.2c0.6,0,1.2,0.1,1.7,0.1c0.4,0,0.8-0.1,1.2-0.1
		c1,0.1,2,0.1,3,0.2c0-0.3,0-0.5,0-0.8c0-0.4,0-0.8,0-1.2c-1.4-0.2-2.9-0.3-4.3-0.5c-0.6,0-1.2,0-1.8,0l0,0c0.6,0,1.2,0,1.8,0
		c1.4,0.2,2.9,0.3,4.3,0.5c0.2-0.4,0.4-0.8,0.6-1.2c0,0,0,0,0,0c-0.2,0.4-0.4,0.8-0.6,1.2c0,0.4,0,0.8,0,1.2c0,0.3,0,0.5,0,0.8
		c0.3,1.2,0.7,2.3,1,3.5c0.4,1,1.2,2,1.2,3c0.1,5.1,0,10.1,0.1,15.2c0,0.8,0.4,2.3,0.6,2.4c2.9,0.2,5.9,0.4,8.8,0
		c0.5-0.1,0.6-2.9,1-4.5c0-0.3,0-0.6,0.1-1c-0.3,0.1-0.5,0.1-0.8,0.2c-0.9,0.4-1.7,1-2.6,1.3c-0.9,0.4-1.9,0.8-2.9,0.7
		c-0.4,0-0.9-1.3-1-2.1c-0.1-1.1,0.1-2.2,0.1-3.3c0.3-0.4,0.6-0.7,0.9-1.1c1.7-0.5,5.1,1.1,4.1-3.1c-1.6-0.4-3.3-0.8-4.9-1.2
		c0.9-2-3.1-5.9,2.5-5.9c0.4,0.7,0.8,1.5,1.3,2.2c4.7,0.7,2.3-3,3-4.8c0.2-0.5,0.4-1.1,0.7-1.6c0-0.1,0-0.2-0.1-0.3
		c0.4,0.1,0.8,0.2,1.2,0.2c0.2,0.5,0.3,1.1,0.5,1.6c0,0,0,0,0,0c0,0,0,0,0,0c0.6,3.2,1.4,6.4,1.7,9.6c0.3,3.5-0.1,7.1,0.2,10.7
		c0.1,0.9,1.3,1.7,1.9,2.6c0.4-0.2,0.8-0.5,1.2-0.7c0.1-3.4,0.1-6.8,0.2-10.1c-0.1-1.5-0.3-3-0.4-4.5c0.2,0,0.5-0.1,0.7-0.1
		c0.4,1.5,0.8,3.1,1.3,4.6c0.9,2.9,1.7,5.9,2.9,8.8c0.4,0.9,1.8,1.3,2.8,1.9c0.4-0.9,1.1-1.7,1.1-2.6c0.2-5.9,0.2-11.8,0.2-17.6
		c0-0.9-0.1-1.7-0.1-2.6C48.2,185.8,48.1,185.6,48,185.5z M41.6,177.6c-1.8,0.8-3.5,1.8-5.4,2.4C38.1,179.3,39.9,178.4,41.6,177.6
		C41.6,177.6,41.6,177.6,41.6,177.6z M38,182.3c0.9,0.6,1.8,1.3,2.8,1.9c0,0,0,0,0,0c0,0,0,0,0,0C39.9,183.6,38.9,182.9,38,182.3z
		 M33.6,177.7c-0.3,0.4-0.6,0.8-1,1.3C33,178.6,33.3,178.2,33.6,177.7c-0.3-0.2-0.6-0.5-1-0.6C33,177.2,33.3,177.5,33.6,177.7z
		 M28.1,179.7c-0.2,0.3-0.3,0.6-0.5,0.9c0,0,0,0,0,0c0,0,0,0,0,0C27.8,180.3,28,180,28.1,179.7z M30.5,180.6
		c0.4-0.2,0.8-0.3,1.2-0.5C31.3,180.3,30.9,180.4,30.5,180.6c-0.4,0.1-0.8,0.1-1.2,0.2C29.7,180.7,30.1,180.6,30.5,180.6z
		 M13.7,180.6c-1.2,0-2.3,0.1-3.5,0.1C11.4,180.6,12.6,180.6,13.7,180.6c0.4-0.7,0.8-1.5,1.2-2.2C14.5,179.1,14.1,179.8,13.7,180.6z
		 M20.6,181.3c0.3,0,0.7,0,1,0c0.4-0.2,0.9-0.4,1.3-0.5c0.6,0,1.3-0.1,1.9-0.1c0.9,0,1.9,0.1,2.8,0.1l0,0c-0.9,0-1.9-0.1-2.8-0.1
		c-0.6,0-1.3,0.1-1.9,0.1c-0.4,0.2-0.9,0.4-1.3,0.5C21.3,181.2,21,181.2,20.6,181.3z M33,184.2C33,184.2,33,184.2,33,184.2
		c0.4-0.6,0.8-1.1,1.2-1.7C33.8,183,33.4,183.6,33,184.2z M39.7,184.2C39.7,184.2,39.7,184.2,39.7,184.2c-1.4,0-2.9,0-4.3-0.1
		C36.8,184.1,38.2,184.2,39.7,184.2z M45.1,199.2c-0.5-1.7-1-3.5-1.5-5.2c-0.8-2.7-1.6-5.4-2.5-8.1c0,0,0,0,0,0
		c0.1-0.5,0.2-0.9,0.4-1.4c0,0,0,0,0,0c1,0,2-0.1,3-0.1c0.2,0.5,0.3,1.1,0.5,1.6c0,2.6,0,5.2,0,7.8c0.2,1.7,0.5,3.5,0.7,5.2
		C45.5,199.1,45.3,199.2,45.1,199.2z"/>
	<path class="st0" d="M82.4,194c-0.8-1-1.4-2.5-1.5-3.8c-0.1-0.5,1.7-1.9,1.9-1.7c1,0.7,1.7,1.8,2.6,2.6c0.6,0.5,1.3,0.9,1.9,1.4
		c0.4-0.7,1.2-1.3,1.3-2c0.3-2.8-2.4-5.5-5.2-5.8c-3.4-0.3-5.3,1.8-6,4.3c-0.7,2.5-1.2,5.6,2.2,7.3c1.7,0.9,3.4,1.9,4.6,3.3
		c0.8,0.9,1.3,2.6,1.1,3.9c-0.1,0.8-2.2,2-2.5,1.8c-1-0.7-1.6-2-2.4-3c-0.5-0.7-1.2-1.2-1.8-1.8c-0.5,0.7-1.4,1.3-1.5,2
		c-0.4,3.4,2.2,6.3,5.5,6.4c4,0.2,6.4-2.4,7.3-7.5c-1.3-1.6-2.4-3.4-3.9-4.8C85,195.6,83.4,195.1,82.4,194z"/>
	<path class="st0" d="M13.5,195.6c-0.7,0.1-1.6,0.8-1.8,1.4c-0.1,0.5,0.9,1.2,1.2,1.9c0.6,1.4,1.5,2.9,1.4,4.3
		c0,0.8-1.7,1.5-2.6,2.2c-0.8-1.2-2.2-2.3-2.3-3.6c-0.3-3-0.3-6.2,0-9.2c0.2-1.5,1.5-2.8,2.3-4.2c1,1.1,1.9,2.3,3,3.4
		c0.5,0.5,1.3,1.3,1.8,1.3c0.6-0.1,1.6-1.2,1.5-1.5c-0.6-1.9-1.6-3.6-2.4-5.4c-1-0.3-2-0.5-3-0.8c-0.9,0-1.7-0.1-2.6-0.1
		c-2.9,1.5-4.5,3.6-4.2,7.1c0.2,2.8,0.1,5.6,0,8.3c0,6.4,1.5,8,7.9,8.3c0.4-0.2,0.8-0.4,1.2-0.6c2.8-2.3,3-5.3,3.2-8.7
		C18.6,195.4,16.5,195.1,13.5,195.6z"/>
	<path class="st0" d="M70.4,185.5c0,5.4,0,10.8-0.2,16.1c-0.1,1.2-1.1,2.4-1.8,3.7c-0.6-0.2-1.3-0.4-1.9-0.6
		c-0.3-1.1-0.9-2.2-0.9-3.3c-0.1-4.7,0-9.4-0.1-14c0-0.9-0.7-2.2-1.4-2.4c-1-0.3-2.2,0.3-3.3,0.5c0.3,0.9,0.6,1.8,0.8,2.8
		c0.2,0.8,0.4,1.7,0.4,2.6c0,3.9,0.1,7.8,0,11.7c-0.1,3.4,1.5,5.6,4.7,6.3c3.6,0.8,6-1.3,6.9-5.2c-0.1-5.3-0.2-10.7-0.3-16
		C73.3,185.2,72.4,184.5,70.4,185.5z"/>
	<path class="st0" d="M208.6,72.8c-0.4,0.1-0.8,0.1-1.2,0.2c-0.3,0.1-0.6,0.2-0.9,0.3c-0.5,0.2-1,0.4-1.6,0.6
		c-0.1,0.1-0.2,0.2-0.4,0.2c-3.2,1.5-3.5,5.4-0.6,7.5c0.3,0.3,0.6,0.5,1,0.8c0.2,0.6,0.4,1.1,0.6,1.7c0,0,0,0,0,0c0,0,0,0,0,0
		c-1.3,1.2-2.6,2.3-3.9,3.5c1.3,0.9,2.6,1.7,3.9,2.6c-0.9-1.1-1.8-2.1-2.8-3.2c0.9,1.1,1.8,2.1,2.8,3.2c0.3,0.1,0.7,0.2,1,0.2
		c1.9,0,3.8,0,5.7-0.1c0.5-0.2,0.9-0.4,1.4-0.6c0.6-0.6,1.2-1.2,1.8-1.7c0-0.2,0.1-0.3,0.2-0.4c2.3-2.1,2.1-4.2-0.7-6c0,0,0,0,0,0
		c-0.5-0.3-1-0.6-1.5-0.9c-0.3-0.2-0.5-0.3-0.8-0.5c-1.3-0.4-2.7-0.8-4-1.2c-0.2,0-0.3-0.1-0.5-0.2c0.1-0.6,0.2-1.2,0.3-1.9
		c2.2,0,4.3-0.1,6.5-0.1c0.4-0.5,0.9-0.9,1-1.4c0.1-0.2-0.7-0.6-1.1-1c0,0,0,0,0,0c-0.9-0.5-1.8-0.9-2.7-1.4
		C211.1,73.2,209.8,73,208.6,72.8z"/>
	<path class="st0" d="M157.5,69.5c-0.1-0.8-1.5-2-2.3-2.1c-0.8,0-2.2,1.3-2.2,2c-0.2,4.8-0.2,9.6,0,14.3c0.1,3,1.3,5.7,4.6,6.5
		c0.9,0.2,2-0.4,3-0.6c-0.3-1.2-0.5-2.5-1-3.7c-0.5-1.3-1.7-2.4-1.9-3.7c-0.3-2-0.1-4.2-0.1-6.3c0,0,0,0,0,0
		C157.6,73.9,157.8,71.6,157.5,69.5z"/>
	<path class="st0" d="M122.9,198.7c0-2.1,0.1-4.2-0.1-6.3c-0.1-0.8-0.6-2-1.2-2.2c-4.7-1.4-6.3-0.1-6.3,4.8c0,2.8,0.2,5.6-0.1,8.3
		c-0.3,2.8,0.9,3.3,3.5,3.5c3.6,0.2,4.6-1,4.1-4.3C122.7,201.3,122.9,200,122.9,198.7z"/>
	<path class="st0" d="M220.8,15.8c3-0.1,4.7-1.8,4.9-4.8c0.2-3.3-1.8-5.2-4.8-5.3c-3-0.1-5.2,1.9-5.2,5
		C215.6,13.8,217.4,15.7,220.8,15.8z"/>
	<path class="st0" d="M276.3,211.9c-0.9,0.9-1.8,1.9-2.7,2.8c-0.2,0.2-0.4,0.4-0.7,0.6c-0.2-0.2-0.5-0.4-0.6-0.6
		c-0.8-0.9-1.5-1.9-2.3-2.8c-0.5,1.2-1.3,2.3-1.6,3.5c-0.7,2.4-1.8,2.7-4.9,0.9c0.8-0.4,1.6-0.7,1.7-0.8c-0.5-1.2-0.8-2.3-1.3-3.2
		c-0.2-0.3-1.5-0.4-1.5-0.4c-0.3,1.2-0.8,2.4-0.8,3.6c0,1,0.7,2.8,0.9,2.7c2.7-0.2,5.5-0.6,8.7-1.1c1.2,2.8,2.6,0.6,3.7-1.6
		c0.8,1.1,1.4,1.9,2,2.8c0.1-1,0.5-2,0.3-3C277.2,214.2,276.7,213.1,276.3,211.9z"/>
	<path class="st0" d="M204.2,212.5c-0.4-0.3-1-0.3-1.6-0.4c-0.2,1.7-0.6,3.5-0.5,5.1c0.2,1.8,1.2,1.2,2.1-1.9
		c0.9,0.8,1.8,1.6,2.7,2.3c0.5,0.3,1.2,0.3,1.8,0.4c0.1-1.7,0.2-3.3,0.3-5c-0.8,0.3-1.6,0.6-3,1.1
		C205.9,214,205.1,213.2,204.2,212.5z"/>
	<path class="st0" d="M293,215.3c-0.1,0.1-0.2,0.1-0.4,0.2c-0.1-0.2-0.3-0.4-0.5-0.6c-0.9-0.9-1.7-1.8-2.6-2.7
		c0.4,1.2,0.6,2.6,1.2,3.6c0.6,0.9,1.6,1.6,2.4,2.4c1-1.8,2.1-3.5,3.1-5.3c0.1-0.1-0.4-0.6-0.6-0.8
		C294.8,213.1,293.9,214.2,293,215.3z"/>
	<path class="st0" d="M148.6,212.5c0.2,1.8,0.5,3.6,0.7,5.4c0.3-0.6,0.6-1.3,0.9-1.9c0.4,0,0.9,0,1.3,0.1c1.1,0.6,2.1,1.3,3.2,1.9
		c-0.5-2-0.7-4.2-1.8-5.8C152.6,211.6,150.1,212.4,148.6,212.5z"/>
	<path class="st0" d="M167.1,212c-3.4-1.2-4.1-0.3-4.2,5.1c-0.4,0.1-0.8,0.1-1.3,0.2v0c-0.3,0-0.7,0-1,0c0,0.3,0,0.7,0,1
		c0.3-0.1,0.5-0.2,0.8-0.2c0,0,0,0,0,0c0,0,0.1,0.1,0.1,0.1c0,0,0,0,0,0c0.6,0,1.1,0.1,1.7,0.1c0.5,0.1,1.1,0.1,1.6,0.2
		c0.6-0.1,1.2-0.2,1.8-0.3c0-0.3,0-0.6,0-0.9c-0.6,0-1.2-0.1-1.7-0.1c0.1-1.3,0.1-2.6,0.2-3.9c0.8,0.2,2.2,0.2,2.4,0.6
		c0.4,0.9,0.1,2,0.1,3.1c-0.3,0.1-0.6,0.2-0.9,0.3c0,0.3,0,0.6,0,0.9c0.5-0.2,1-0.3,1.4-0.5c0.6-1,2-2.2,1.8-3
		C169.5,213.6,168.2,212.4,167.1,212z"/>
	<path class="st0" d="M310.5,211.9c-1,0-2.7,0.6-2.8,1.1c-0.3,1.6,0,3.3,0.1,4.9c0.7-0.7,1.3-1.4,2-2c0.2-0.2,0.8-0.1,1.2-0.1l0,0
		c0.1,0.1,0.2,0.2,0.4,0.2c0.7,0.7,1.3,1.3,2,2c-0.2-0.7-0.4-1.4-0.6-2.1c-0.1-0.4-0.1-0.8-0.2-1.2c0.3-0.6,0.6-1.2,0.8-1.8
		C312.4,212.6,311.4,211.9,310.5,211.9z"/>
	<path class="st0" d="M287.2,213.9c-0.5-0.7-1.3-1.3-2-2c-0.6,0.8-1.2,1.6-1.9,2.3c-0.7,1.2-1.4,2.4-2.2,3.6
		c0.3,0.2,0.6,0.4,0.9,0.5c0.4-0.6,0.9-1.1,1.3-1.7c1.3,0.3,2.6,0.7,4,1c0.5,0.1,1,0.2,1.5,0.3c0-0.5,0.1-1-0.1-1.3
		C288.4,215.7,287.9,214.7,287.2,213.9z M284.4,214.3C284.4,214.3,284.4,214.3,284.4,214.3c0.4,0.1,0.9,0.3,1.3,0.4
		C285.3,214.6,284.9,214.5,284.4,214.3z"/>
	<path class="st0" d="M118.6,182.3c-0.8,0-1.5,0.1-2.3,0.1c-0.2,1.8-0.4,3.6-0.6,5.5c0,0,0,0,0,0c1.6,0.4,3.2,1,4.8,1
		c0.9,0,2.7-0.8,2.7-1.4c0.1-1.8-0.1-3.7-0.8-5.3C122.2,181.7,119.9,182.2,118.6,182.3z"/>
	<path class="st0" d="M159.7,215.5c-0.5-0.8-0.9-1.6-1.4-2.4c0.9-0.1,1.9-0.2,2.8-0.3c0-0.3,0-0.7,0-1c-1,0-1.9,0-2.9,0
		c-3.9,0.4-0.9,3.5-2,5c1.4,0.5,2.9,0.9,4.3,1.4c0-0.3,0-0.7,0-1c-0.8-0.2-1.6-0.3-3.1-0.6C159,215.9,159.8,215.5,159.7,215.5z"/>
	<path class="st0" d="M198.6,214.2c0.1,1.4,0.5,2.7,0.7,4c0.5-0.9,0.9-1.8,1.5-2.9c-0.5-1.2-0.9-2.2-1.4-3.3
		C199.1,212.7,198.6,213.5,198.6,214.2z"/>
	<path class="st0" d="M231.4,213.1c-0.4-0.4-1.8,0.1-2.7,0.1c-0.3,0.3-0.6,0.5-0.7,0.9c-0.6,1.3-1.1,2.6-1.7,3.8
		c1.1-0.5,2.1-1,3.2-1.5c0-0.3,0-0.6,0-0.9c-0.1-0.4-0.1-0.9-0.2-1.3c0.5,0.4,0.9,0.8,1.4,1.2c-0.4,0-0.8,0.1-1.2,0.1
		c0,0.3,0,0.6,0,0.9c0.4,0,0.9,0,1.3,0c1.2,0.3,2.3,0.5,3.5,0.8l0,0c0,0,0,0,0,0c0,0,0,0,0,0l0,0c0,0,0,0,0,0c0,0,0,0,0,0
		C233.4,215.8,232.5,214.3,231.4,213.1z"/>
	<path class="st0" d="M219.5,212c-0.3,0.6-0.5,1.1-0.8,1.7c0,0,0,0,0,0c0,0,0,0,0,0c0,0,0,0,0,0c0.5,0.7,1,1.4,1.5,2.1
		c0.7,0.8,1.4,1.6,2,2.4c0.6-0.8,1.3-1.6,1.9-2.4c-0.3-0.3-0.6-0.6-0.9-0.9c-0.8-0.4-1.6-0.8-2.3-1.3C220.5,213,220,212.5,219.5,212
		z"/>
	<path class="st0" d="M303.9,215.8c-0.1,0.8,0.6,1.6,0.9,2.4c0.4-1,0.8-1.9,1.2-2.9c-0.5-1.3-0.8-2.3-1.2-3.3
		C304.6,213.3,304,214.5,303.9,215.8z"/>
	<path class="st0" d="M318.2,211.9C318.2,211.9,318.2,211.9,318.2,211.9c-0.4,0.2-0.9,0.4-1.3,0.6c-0.4,0.2-0.8,0.4-1.1,0.6
		c-0.1,1.4-0.3,2.8-0.4,4.1c0.5,0.3,1,0.6,1.5,0.9c1.7-0.2,3.4-0.4,5.2-0.6c0.3-1.2,1.1-3.1,0.7-3.5
		C321.4,212.8,319.7,212.5,318.2,211.9z M321,216.4c-1.1,0.2-2.3,0.5-3.4,0.7c-0.2-1.2-0.4-2.3-0.5-3.5c0.4-0.2,0.8-0.5,1.2-0.7
		c0,0,0,0,0,0C320.5,213,321.7,214,321,216.4L321,216.4z"/>
	<path class="st0" d="M109.2,148.9c0-0.4,0.1-0.8,0.1-1.1c0-0.4-0.1-0.9-0.1-1.3c-0.2,0-0.4-0.1-0.6-0.1c-0.5-0.3-0.9-0.7-1.4-1
		c-1.2,0-2.4,0-3.5,0c-0.4,1.4-0.7,2.7-1.1,4.1c0.4,0.4,0.8,0.8,1.2,1.2c0,0,0,0,0,0c-0.5,1.4-1,2.8-1.5,4.3c-0.1,0-0.3-0.1-0.4-0.2
		c0,0,0,0,0,0c-0.2-0.4-0.3-0.7-0.5-1.1c-0.2-0.6-0.4-1.2-0.7-1.8c-1.8,1-3.7,1.9-5.5,2.9c0,0,0.1,0,0.1-0.1
		c1.8-1.1,3.6-2.2,5.4-3.3c-0.3-0.6-0.5-1.1-0.8-1.7c0.6-0.6,1.2-1.2,1.8-1.9c0-0.5,0.1-0.9,0.1-1.4c0,0,0,0,0,0
		c0,0.5-0.1,0.9-0.1,1.4c0.3,0.5,0.6,1,0.8,1.6c0.4-1.4,0.7-2.7,1.1-4.1c1.2,0,2.4,0,3.5,0c-0.1-1-0.3-2.1-0.4-3.1
		c-1.6-4.1-4.3-7.2-8.5-8.7c-0.4,0-0.8,0.1-1.2,0.1c-0.9-1.1-1.9-2.2-2.9-3.4c-2.2-0.7-4.3-1.7-6.5-2.1c-1.6-0.3-3.4,0.2-5.1,0.3
		c0.1,0.1,0.1,0.1,0.2,0.2c-0.1-0.1-0.1-0.1-0.2-0.2c-0.6,0.2-1.2,0.3-1.8,0.5c-3.8-2.1-12.5,1.5-14.4,6c0.2,0.2,0.4,0.4,0.6,0.7
		c-0.2-0.2-0.4-0.4-0.6-0.7c-1.1,0.7-2.3,1.4-3.4,2c-0.8,1-1.7,2-2.5,2.9c0,0.2,0.1,0.4,0.1,0.7c0.8,0,1.5,0,2.3,0
		c1.2,0.8,2.4,1.6,3.6,2.4c0,0,0,0,0,0c-1.2-0.8-2.4-1.6-3.6-2.4c-0.8,0-1.5,0-2.3,0c-0.1,0.1-0.2,0.3-0.2,0.5c0,0,0,0,0,0
		c-0.8,1.4-1.6,2.8-2.4,4.2c-0.2,0.6-0.5,1.2-0.7,1.8c-0.1,0.9-0.2,1.7-0.3,2.6c-0.2,1.2-0.5,2.4-0.7,3.6c0,1.4,0,2.8,0.1,4.1
		c1-0.6,2.1-1.2,3.1-1.8c0,0,0,0,0,0c-1,0.6-2.1,1.2-3.1,1.8c0.2,0.8,0.3,1.6,0.5,2.5c0.3,1,0.5,2.1,0.8,3.1
		c0.2,0.1,0.3,0.3,0.5,0.4c-0.1,3.2,2.9,7-1.8,9.3c-0.3,0.2-0.2,1.1-0.4,1.7c0,0,0,0,0,0.1c0,0,0,0,0-0.1c-1.4,0.6-2.9,1.1-4.1,1.9
		c-0.6,0.4-0.6,1.5-0.9,2.2c-0.5,1-1.7,2.2-1.4,3c0.3,0.8,1.8,1.3,2.8,1.9c0.2,0.5,0.4,1,0.6,1.6c-0.2,1.1-0.7,2.2-0.6,3.3
		c0.1,5.8,0.4,11.5,0.6,17.3c0,0.1-0.2,0.1-0.2,0.2c-0.5,0.8-1,1.6-1.5,2.5c1,0.3,1.9,0.8,2.9,1c1.2,0.2,2.4,0.2,3.6,0
		c0.6-0.1,1.5-0.7,1.6-1.2c0.1-0.6-0.5-1.3-0.8-1.9c-0.5-1-1.5-2-1.5-3c-0.2-4-0.1-8-0.1-11.9c0-0.7-0.1-1.6,0.3-2
		c4.9-4.6-0.2-3.5-2.3-4.1l0,0c0-0.5,0-1.1-0.1-1.6c0.4-0.6,0.7-1.3,1.1-1.9c0.1-0.2,0.1-0.4,0.2-0.6c0,0,0,0,0,0
		c0,0,0.1,0.1,0.1,0.1c0,0-0.1,0-0.1-0.1c-0.1,0.2-0.1,0.4-0.2,0.6c0.2,0,0.4,0.1,0.6,0.1c0-0.2,0-0.4,0-0.6c0,0,0,0,0,0
		c0.1-0.5,0.2-1,0.2-1.5c0.7-0.4,1.5-0.8,2.2-1.2c-0.7,0.4-1.5,0.8-2.2,1.2c-0.1,0.5-0.2,1-0.2,1.5c0,0.2,0,0.4,0,0.6
		c1.1,0.5,2.1,1,3.2,1.4c0.3,0.1,0.7,0.2,1,0.3c0.1-3.7,2.9-3.9,5.6-4.3c0.3,0.2,0.7,0.5,1,0.7c0,0.9,0,1.8,0,2.7
		c0,0.3,0,0.6,0.1,0.9c0.1,0.1,0.2,0.2,0.2,0.3c0,0.2,0.1,0.3,0.3,0.3c0.1,0.1,0.2,0.2,0.3,0.3c1.9-0.1,3.8-0.1,5.7-0.2
		c0.1-0.2,0.2-0.4,0.3-0.5c0.4-1.6,0.7-3.2,1.1-4.7c0.3,0,0.7-0.1,1-0.2c0-0.5,0-1,0.1-1.5c-0.5-0.5-0.9-0.9-1.4-1.4
		c-0.3,0-0.7,0-1,0c-0.8-0.8-1.5-1.6-2.3-2.4c-1.2-1.9-2.4-3.9-3.7-5.8c-0.4-0.3-0.8-0.5-1.1-0.8c-1-0.4-2.1-0.8-3.1-1.2
		c0-0.6,0-1.2,0.1-1.8c-1-2.4-2-4.8-3-7.2c1,2.4,2,4.8,3,7.2c0.1-1,0.2-1.9,0.4-2.9c0.3-0.1,0.6-0.1,0.9-0.2c0,0,0.2,0,0.2,0
		s0.2,0,0.2,0c0.3-0.1,0.6-0.2,0.9-0.3c-0.3,0.1-0.6,0.2-0.9,0.3c0.4,0.8,0.8,1.6,1.2,2.4c-0.2,0.7-0.4,1.3-0.6,2
		c0.1,0.2,0.3,0.3,0.4,0.5c0.1,0.4,0.2,0.7,0.3,1.1c0,0-0.1,0-0.1,0c0.4,0.3,0.8,0.5,1.1,0.8c1.2,1.9,2.4,3.9,3.7,5.8
		c0.8-0.2,1.6-0.4,2.4-0.6c-0.5-1.4-0.9-2.7-1.4-4.1c-0.8-1-1.6-2.1-2.3-3.1c0,0,0,0,0,0c0-0.6,0-1.1,0.1-1.7
		c-0.2-0.2-0.4-0.4-0.6-0.6c0,0,0,0,0,0c-0.2-0.7-0.3-1.4-0.5-2.2l0,0c0.2,0.7,0.3,1.4,0.5,2.2c0.2,0.2,0.4,0.4,0.6,0.6
		c0.4-0.6,0.8-1.2,1.2-1.8c0-0.4,0-0.9-0.1-1.3c0-1,0.1-2,0.1-3c0,0,0,0,0,0c0.1-0.1,0.2-0.1,0.2-0.2c0-0.2-0.1-0.3-0.2-0.4
		c0-0.2,0-0.4-0.1-0.6c0.8,0,1.6,0,2.4,0c0.6,0.2,1.1,0.4,1.7,0.6c0,0.4,0,0.8,0.1,1.2c-0.1,0.2-0.1,0.3-0.1,0.5
		c0.5,0.4,0.9,0.8,1.4,1.3c0.8,0.2,1.6,0.3,2.4,0.5c0.6,0,1.2,0.1,1.7,0.1c-0.2-1.2-0.6-2.5-0.5-3.7c0-0.4,1.2-0.7,1.9-1.1
		c-0.1,3,1.3,1.5,2.4,0.7c0.2-0.2,0.4-0.4,0.6-0.6c0.4-0.4,0.8-0.8,1.1-1.3c0,0,0,0,0,0c0.4-0.4,0.7-0.9,1.1-1.3
		c0,0.1,0.1,0.2,0.1,0.2c0.4,0,0.8,0,1.2,0c0.2,0,0.4,0.1,0.7,0.1c0.8-0.1,1.6-0.2,2.3-0.2c0.2,0.4,0.5,0.8,0.7,1.2
		c0.4-0.4,0.7-0.9,1.1-1.3c0,0,0,0,0,0c0,0,0.1,0,0.1,0c-0.3,0.5-0.7,0.9-1,1.4c-0.1,0.7-0.2,1.5-0.3,2.2c0.4,0.5,0.8,1.1,1.1,1.6
		c0.1,0.1,0.2,0.1,0.4,0.2c-0.1,0-0.2,0-0.3,0.1c0.4,0.1,0.8,0.3,1.1,0.4c0.5,0,1-0.1,1.4-0.1c0.7,0.1,1.5,0.1,2.2,0.2
		c0.3,0.4,0.6,0.7,0.9,1.1c-0.1-0.4-0.2-0.9-0.2-1.3c0,0,0,0,0,0c0.1,0.4,0.2,0.9,0.2,1.3c0.1,0.1,0.1,0.3,0.1,0.4
		c0,0.1,0,0.1,0,0.2c-0.3,0.2-0.7,0.5-1,0.7c0.4,1.4,0.3,1.9-0.1,2c0.4-0.1,0.6-0.6,0.1-2c-0.9,0.6-1.8,1.2-2.7,1.8
		c-0.1,0.4-0.2,0.8-0.3,1.2c-0.5-0.1-1.1-0.1-1.6-0.2c-0.1,0.1-0.2,0.2-0.3,0.3c0,0,0,0,0,0c-1.2-0.2-2.4-0.4-3.6-0.6
		c-0.4,0.2-0.7,0.5-1.1,0.7c0,0,0,0,0,0c-0.4-0.1-0.8-0.3-1.2-0.4c-0.4-0.3-0.9-0.6-1.3-1c0,0,0,0,0,0c0.4,0.3,0.9,0.6,1.3,1
		c0.4,0.1,0.8,0.3,1.2,0.4c0.4-0.2,0.7-0.5,1.1-0.7c0.1-0.6,0.2-1.3,0.2-1.9c-0.1-0.6-0.2-1.1-0.2-1.7c-1-0.2-2-0.4-3-0.7l0,0
		c1,0.2,2,0.4,3,0.7c0.1,0.6,0.2,1.1,0.2,1.7c0,0,0,0,0,0c-0.1,0.6-0.2,1.3-0.2,1.9c1.2,0.2,2.4,0.4,3.6,0.6
		c0.1-0.1,0.2-0.2,0.3-0.3c-0.5-0.7-0.9-1.5-1.4-2.2c0,0,0,0,0,0c-0.3-0.5-0.5-1-0.8-1.6c-0.2,0-0.4-0.1-0.5-0.2c0,0,0,0,0,0
		c0.2,0.1,0.3,0.2,0.5,0.2c0.5-0.7,1-1.5,1.5-2.2c-0.4-0.5-0.7-1.1-1.1-1.6c-0.4,0.1-0.8,0.1-1.2,0.2c0,0,0,0,0,0
		c-0.9-0.5-1.9-1.1-2.8-1.6c-0.2,1.1-0.3,2.2-0.5,3.2c-0.2,0.4-0.4,0.8-0.6,1.2c-1.7-0.3-3.9-1.5-3.9,1.8c0.5,0.4,0.9,0.9,1.4,1.3
		c0,0,0,0,0,0c0,0.2,0,0.4,0.1,0.5c0,0.5,0,1.1,0,1.6c-0.2,0.2-0.3,0.5-0.5,0.7c0.4-0.2,0.8-0.4,1.2-0.5h0c0.3-0.3,0.7-0.6,1-0.9
		c0.4,0.1,0.9,0.2,1.3,0.3c0,1.1,0,2.1,0,3.2c-0.2,1.1-0.5,2.2-0.7,3.3l0,0c-0.8,0-1.5,0.1-2.3,0.1c1,0.4,2,0.7,3,1.1c0,0,0,0,0,0
		c0,0,0,0,0,0c0.1,0.5,0.2,0.9,0.2,1.4c1,0,1.9-0.1,2.9-0.1c0,0,0,0,0,0c-1,0-1.9,0.1-2.9,0.1c0,0.8,0.1,1.5,0.1,2.3
		c0,0-0.3,0-0.3,0c-0.3,0.8-0.6,1.5-0.9,2.3c-1-0.1-2-0.1-3-0.2c-1.1,0-2.2,0-3.3,0.1c0,0,0,0,0,0c0.2-0.9,0.2-2.2,0.7-2.5
		c0.7-0.4,1.9,0,2.9,0c-0.1,0.8-0.2,1.6-0.3,2.4c1,0.1,2,0.1,3,0.2c0.3-0.8,0.6-1.5,0.9-2.3c-2.2-1.2-4.4-2.4-6.7-3.6
		c-1.4-0.4-2.8-0.8-4.2-1.2c-0.6,0.4-1.2,0.8-1.8,1.2c-0.4,0-0.8,0-1.1,0c-0.8,0.2-1.6,0.4-2.4,0.6c0.8,0.8,1.5,1.6,2.3,2.4v0
		c0.3,0,0.7,0,1,0c0.5,0.5,0.9,0.9,1.4,1.4c0,0.5,0,1-0.1,1.5c0.5,0,0.9,0,1.4,0.1c-0.1,3.5-0.1,3.5,1.2,3.6c0,0,0,0,0,0
		c0.6,0,1.1,0.1,1.7,0.1c3.7,2.3,6.9,1.3,9.8-1.6c0.4-0.3,0.7-0.6,1.1-0.9c0,0,0-0.1,0-0.1c0,0.1,0,0.1,0,0.1
		c0.6,0.1,1.3,0.1,1.9,0.2c0.2,0,0.3-0.1,0.5-0.2c0.3-1.5,0.6-3,0.8-4c0.6,0,1.5,0,2.3,0c0.6-0.4,1.2-0.9,1.7-1.3
		c0.2-0.2,0.4-0.4,0.5-0.6c0,0,0,0,0,0c0.6-0.4,1.1-0.8,1.7-1.3c0.1-0.2,0.1-0.3,0.2-0.5c0.4-0.8,0.8-1.6,1.1-2.5
		c1.2-0.4,2.4-0.7,3.7-1.1c0.6-1.8,1.2-3.5,1.9-5.3c0-0.1-0.1-0.1-0.1-0.2c0,0.1,0.1,0.1,0.1,0.2c0.6-0.4,1.2-0.8,1.8-1.2
		c0.2-1.7,0.5-3.4,0.7-5.1c0.1-0.9,0.3-1.9,0.4-2.8c0,0,0,0,0,0C110,152.1,109.6,150.5,109.2,148.9z M66.8,175.2L66.8,175.2
		c0.7,0,1.4,0,2.1,0l0,0C68.2,175.2,67.5,175.2,66.8,175.2z M54,175.3c-0.2,0.9-0.3,1.9-0.5,2.8c0.4,0.1,0.8,0.1,1.2,0.2
		c-0.4-0.1-0.8-0.1-1.2-0.2C53.7,177.2,53.8,176.3,54,175.3z M53.9,179.5c0.3,0,0.6,0,0.9,0c0,0,0,0,0,0
		C54.5,179.5,54.2,179.5,53.9,179.5z M55.2,179.7c-0.1-0.1-0.2-0.1-0.3-0.2C55,179.6,55.1,179.7,55.2,179.7c0.1,0.2,0.3,0.3,0.4,0.5
		C55.5,180.1,55.4,179.9,55.2,179.7z M55.8,177.6C55.8,177.6,55.8,177.6,55.8,177.6C55.8,177.6,55.8,177.6,55.8,177.6
		c0.4-0.8,0.7-1.5,1.1-2.3l0,0C56.6,176.1,56.2,176.8,55.8,177.6z M98.4,145.2C98.4,145.2,98.5,145.2,98.4,145.2
		C98.5,145.2,98.4,145.2,98.4,145.2c-0.4,0.8-0.7,1.5-1.1,2.3C97.7,146.8,98,146,98.4,145.2c-0.6,0.1-1.2,0.2-1.8,0.3
		C97.2,145.4,97.8,145.3,98.4,145.2z M98.8,144.7C98.8,144.7,98.8,144.7,98.8,144.7c0.8,0.5,1.7,1,2.5,1.5
		C100.5,145.7,99.7,145.2,98.8,144.7z M97.2,136.8c0.5,0.5,1,1,1.6,1.4c0,0,0,0,0,0c-0.2,0.3-0.3,0.5-0.5,0.8
		c0.2,0.3,0.4,0.6,0.7,0.9c0.2-0.3,0.4-0.5,0.6-0.8c0.3,0,0.7,0,1,0c0.4,0.1,0.8,0.2,1.2,0.2c0-0.2,0.1-0.4,0.1-0.6c0,0,0,0,0,0
		c0,0.2-0.1,0.4-0.1,0.6c0.1,0.1,0.1,0.3,0.2,0.5c0,0.4-0.1,0.7-0.1,1.1c0.5,0.8,1,1.6,1.5,2.5c-0.5-0.8-1-1.6-1.5-2.5
		c-0.3,0.4-0.5,0.8-0.8,1.2c0,0,0,0,0,0c-0.5,0-1,0-1.5,0c-0.2-0.8-0.4-1.6-0.6-2.3c-0.2-0.3-0.4-0.6-0.7-0.9
		c-0.6,0.8-1.3,1.7-1.9,2.5c-3.4-0.3-0.7-2.2-0.9-3.4c-1.2,0.2-2.4,0.4-3.7,0.6c-0.6,0.3-1.2,0.8-1.9,1c0.7-0.3,1.2-0.7,1.9-1
		c-0.2-0.6-0.3-1.3-0.5-1.9c0.2-0.4,0.5-0.7,0.8-1.1c-0.2,0.4-0.5,0.7-0.8,1.1c0.2,0.6,0.3,1.3,0.5,1.9c1.2-0.2,2.4-0.4,3.7-0.6
		C96,137.7,96.6,137.3,97.2,136.8c-0.8-0.8-1.6-1.5-2.3-2.3C95.6,135.3,96.4,136,97.2,136.8z M75.6,151.3c-0.6,0-1.2,0-1.8,0v0
		C74.3,151.3,75,151.3,75.6,151.3C75.6,151.3,75.6,151.3,75.6,151.3C75.6,151.3,75.6,151.3,75.6,151.3L75.6,151.3z M74.3,136.9
		L74.3,136.9c-0.2,0.3-0.4,0.7-0.7,1c-1.3,0.5-2.6,1-3.9,1.5c1.3-0.5,2.6-1,3.9-1.5C73.9,137.6,74.1,137.3,74.3,136.9z M72,141.8
		c-0.5-0.2-1.1-0.3-1.6-0.5C70.9,141.5,71.5,141.6,72,141.8C72,141.8,72,141.8,72,141.8z M71.4,147.7
		C71.4,147.7,71.4,147.7,71.4,147.7c0.4-0.4,0.8-0.8,1.2-1.2c0.6,0.6,1.2,1.2,1.8,1.8c0.4,0,0.7,0,1.1,0c-0.4,0-0.7,0-1.1,0
		c-0.2,0.2-0.4,0.4-0.7,0.6c0,0.6-0.1,1.2-0.1,1.9c-2.1,0.9-4.1,1.9-6.2,2.6c2.1-0.7,4.1-1.7,6.2-2.6c0-0.6,0.1-1.2,0.1-1.9
		C72.9,148.5,72.1,148.1,71.4,147.7z M77.7,145.8c-0.3,0.8-0.6,1.7-1,2.5l0,0C77.1,147.5,77.4,146.6,77.7,145.8z M80.9,130.9
		c0.4,1.2,0.9,2.4,1.3,3.6c0.1,0.1,0.1,0.3,0.2,0.4c-0.1-0.1-0.1-0.3-0.2-0.4C81.8,133.4,81.4,132.1,80.9,130.9z M84.8,144.2
		C84.8,144.2,84.8,144.2,84.8,144.2C84.8,144.2,84.8,144.2,84.8,144.2z M81.8,138.1c-0.5-0.4-0.9-0.8-1.4-1.2
		C80.8,137.3,81.3,137.7,81.8,138.1C81.8,138.1,81.8,138.1,81.8,138.1z M80.9,148.9C80.9,148.9,80.9,148.9,80.9,148.9
		C80.9,148.9,80.9,148.9,80.9,148.9L80.9,148.9z M82.8,136c-0.2,0.5-0.4,1-0.6,1.5c0.1,0,0.2,0,0.3,0.1c-0.1,0-0.2,0-0.3-0.1
		C82.5,137,82.6,136.5,82.8,136C82.8,136,82.8,136,82.8,136c0.6,0.1,1.2,0.1,1.8,0.2c0.4-0.2,0.7-0.3,1.1-0.5l0,0
		c-0.4,0.2-0.7,0.3-1.1,0.5c0,0.4,0,0.9,0,1.3c0.4-0.1,0.8-0.1,1.2-0.2l0,0c-0.4,0.1-0.8,0.1-1.2,0.2c0-0.4,0-0.9,0-1.3
		C84,136.1,83.4,136.1,82.8,136z M85.8,137.5c0,0.4,0.1,0.8,0.1,1.2c-0.1,0.2-0.1,0.5-0.2,0.7c0.1-0.2,0.1-0.5,0.2-0.7
		C85.9,138.2,85.9,137.8,85.8,137.5z M86.3,132.9c-1.9-0.2-2.2-0.7-2-1.3C84,132.2,84.3,132.7,86.3,132.9c0,0.6,0,1.1,0.1,1.7
		C86.3,134,86.3,133.4,86.3,132.9z M84.9,130.5C84.8,130.5,84.8,130.5,84.9,130.5C84.8,130.5,84.8,130.5,84.9,130.5z M85.1,130.2
		c0.1-0.1,0.1-0.2,0.1-0.2C85.2,130,85.1,130.1,85.1,130.2z M87,129.2c-0.6-0.2-1.2-0.5-1.8-0.7c0,0,0,0,0,0c0,0,0,0,0,0
		C85.8,128.8,86.4,129,87,129.2z M80.3,136.9C80.3,136.9,80.3,136.9,80.3,136.9c0.1-0.9,0.2-1.7,0.3-2.6
		C80.5,135.2,80.4,136.1,80.3,136.9z M80.3,137c0,0.4,0,0.7,0,1.1c0.1,0.2,0.1,0.4,0.1,0.5c0.4,0,0.8,0,1.1,0.1
		c-0.4,0-0.8,0-1.1-0.1c0.4,0.4,0.8,0.9,1.1,1.3c-0.2,0.3-0.4,0.7-0.7,1c0.2-0.3,0.4-0.7,0.7-1c-0.4-0.4-0.8-0.9-1.1-1.3
		c0-0.2,0-0.4-0.1-0.5c-1.5,1.2-3,2.4-4.5,3.6c-0.1-0.8-0.3-1.5-0.4-2.3c0.1-0.5,0.2-1,0.4-1.5c0.2-0.1,0.4-0.2,0.7-0.2
		c-0.3-0.6-0.6-1.3-0.8-1.9l0,0l0,0c0.3,0.6,0.6,1.3,0.8,1.9C77.7,137.4,79,137.2,80.3,137z M73.8,133.8c-0.6,0.4-1.2,0.8-1.9,1.2
		C72.5,134.6,73.2,134.2,73.8,133.8c-0.1-1.2-0.2-2.3-0.3-3.5C73.6,131.4,73.7,132.6,73.8,133.8z M66.6,147.7
		c0.7,0.2,1.5,0.3,2.2,0.5c-0.3,0.8-0.6,1.6-0.9,2.4C67.5,149.6,67,148.6,66.6,147.7c-0.3-0.5-0.4-1.1-0.6-1.6
		C66.2,146.6,66.3,147.2,66.6,147.7z M59.5,150.7c1.4-0.2,2.7-0.5,3.8-0.6C62.2,150.2,60.9,150.4,59.5,150.7
		c-0.4,0.2-0.8,0.4-1.2,0.6C58.7,151.1,59.1,150.9,59.5,150.7z M71.3,154.2c-1.6,1.2-3.3,2.4-4.9,3.6c0,0.6,0.1,1.3,0.1,1.9
		c0,0,0,0,0,0c0-0.6-0.1-1.3-0.1-1.9c0,0,0,0,0,0C68.1,156.6,69.7,155.4,71.3,154.2c0.8-0.2,1.6-0.4,2.5-0.6c0,0,0-0.1,0-0.1
		c0,0,0,0.1,0,0.1l0,0C73,153.8,72.1,154,71.3,154.2z M73.8,153.8c0,0.6,0.1,1.2,0.1,1.8c0,0,0,0,0,0
		C73.9,155,73.8,154.4,73.8,153.8z M75.6,154.9c0-0.6,0-1.2,0-1.8c0.2-0.4,0.5-0.7,0.7-1.1c0.6,0,1.2-0.1,1.8-0.1
		c-0.6,0-1.2,0.1-1.8,0.1c-0.2,0.4-0.5,0.7-0.7,1.1C75.6,153.7,75.6,154.3,75.6,154.9c0,0.2,0.1,0.3,0.1,0.5
		C75.6,155.3,75.6,155.1,75.6,154.9z M87.8,150.8c0.4,0.1,0.9,0.2,1.3,0.3c0,0,0-0.1,0-0.1c0,0.1,0,0.2-0.1,0.4
		c-0.4-0.1-0.9-0.1-1.3-0.2C87.8,151,87.8,150.9,87.8,150.8z M87.8,150.6c0.2-1.1,0.3-2.5,0.7-2.7C88.2,148.5,88.1,149.8,87.8,150.6
		z M90.3,148.3c-0.2,0-0.4,0-0.5,0c0-0.1,0-0.1,0.1-0.2c0.2,0,0.5,0,0.7,0c0.1,1.1,0.2,2.3,0.3,3.4c0.3,0.1,0.6,0.2,1,0.3
		c0-0.1,0.1-0.2,0.1-0.3c0,0.1-0.1,0.3-0.1,0.4c-0.3-0.1-0.6-0.2-1-0.2C90.6,150.6,90.5,149.5,90.3,148.3z M92.2,146.5
		c-0.4-0.5-1.3-0.7-2-1c-0.8,0-1.5,0.1-2.3,0.1c0.1-0.1,0.2-0.2,0.2-0.3c-0.1-0.1-0.1-0.1-0.3-0.1c-0.3,0.2-0.6,0.5-1,0.7l0,0
		c0.3-0.2,0.6-0.5,1-0.7c-0.1-0.4-0.2-0.8-0.3-1.2c0.1,0.4,0.2,0.8,0.3,1.2c0.1,0,0.2,0,0.3,0.1c0.8,0,1.6,0,2.4,0
		c-0.9-0.8-1.9-1.5-2.8-2.3c-0.1-0.8-0.1-1.7-0.2-2.5c-0.6,0-1.2-0.1-1.8-0.1l0,0c0-0.1,0-0.3,0-0.4c0,0.1,0,0.3,0,0.4
		c0.6,0,1.2,0.1,1.8,0.1l0,0c0.1,0.8,0.1,1.7,0.2,2.5c0.9,0.8,1.9,1.5,2.8,2.3c0.7,0.4,1.6,0.6,2,1.1c0.7,1.1,1.5,1.8,2.5,2.3
		C94,148.3,93,147.6,92.2,146.5z M108,149.6c0.1-0.1,0.1-0.2,0.2-0.2C108.1,149.5,108.1,149.5,108,149.6c-0.1,0-0.2,0-0.2,0.1
		C107.9,149.7,107.9,149.6,108,149.6z M106.3,154.7c-1.1-0.3-1.8,1.5-2.6,2.6c0,0,0,0,0,0C104.5,156.2,105.2,154.5,106.3,154.7z
		 M98.3,166.2c0.1-0.6,0.1-1.2,0.2-1.8C98.4,165,98.4,165.6,98.3,166.2c-0.6,0-1.2,0-1.8,0.1C97.1,166.3,97.7,166.3,98.3,166.2z
		 M97.7,163.5c-0.2,0-0.4-0.1-0.6-0.1C97.3,163.4,97.5,163.5,97.7,163.5z M89.1,172.2C89.1,172.2,89.1,172.2,89.1,172.2
		c1.1,0.4,2.2,0.8,3.3,1.2l0,0C91.3,173,90.2,172.6,89.1,172.2z M78.1,176.4c0-0.1,0-0.3,0-0.4C78.1,176.1,78.1,176.3,78.1,176.4z
		 M77.7,174.5c0.1,0.2,0.2,0.3,0.2,0.5C77.9,174.9,77.8,174.7,77.7,174.5z M78,175.3c0.1,0.2,0.1,0.4,0.1,0.7
		C78.1,175.7,78.1,175.5,78,175.3z M97.7,171.6c-0.3,0-0.7,0-1,0c-0.4,0.2-0.9,0.5-1.3,0.7l0,0c-1,0.4-1.9,0.7-2.9,1.1
		c-0.6,0.4-1.2,0.8-1.7,1.1c0.6-0.4,1.2-0.8,1.7-1.1c1-0.4,2-0.7,2.9-1.1c0,0,0,0,0,0c0.4-0.2,0.9-0.5,1.3-0.7
		c-0.6-0.8-1.3-1.6-1.9-2.4c-0.6,0-1.2,0.1-1.8,0.1c-0.2,0.2-0.4,0.4-0.6,0.6c0,0,0,0,0,0c0.2-0.2,0.4-0.4,0.6-0.6
		c0-0.4-0.1-0.7-0.1-1.1c-0.3,0-0.7,0-1,0.1c-0.5,0-0.9,0-1.4,0c0.5,0,0.9,0,1.4,0c0.3,0,0.7,0,1-0.1c0,0.4,0.1,0.7,0.1,1.1
		c0.6,0,1.2-0.1,1.8-0.1c0,0,0-0.1-0.1-0.1c0,0,0,0.1,0.1,0.1c0.6,0.8,1.3,1.6,1.9,2.4C97.1,171.6,97.4,171.6,97.7,171.6
		c0.5-0.5,0.9-1.1,1.4-1.6C98.7,170.5,98.2,171.1,97.7,171.6z M101.3,162.7C101.3,162.7,101.3,162.8,101.3,162.7
		C101.3,162.8,101.3,162.8,101.3,162.7C101.3,162.8,101.3,162.7,101.3,162.7z"/>
	<path class="st0" d="M182.4,217c0-1.3,0-2.5,0-3.8c-0.1-0.4-0.2-0.9-0.3-1.3c-0.3,2.1-0.5,4.1-0.8,6.2c1.9-0.5,3.8-0.9,5.7-1.4
		c-0.3-0.3-0.6-0.6-1-0.9C184.9,216.2,183.7,216.6,182.4,217z"/>
	<path class="st0" d="M115.7,187.8c0.2-1.8,0.4-3.6,0.6-5.5C114.2,182.9,113.9,185.8,115.7,187.8z"/>
	<path class="st0" d="M223.4,214.7c0.3,0.3,0.6,0.6,0.9,0.9c0.3-0.4,0.8-0.7,0.9-1.2c0.2-0.8,0.3-1.7,0.4-2.5
		c-0.6,0.5-1.2,1.1-1.8,1.7C223.5,213.9,223.5,214.3,223.4,214.7z"/>
	<path class="st0" d="M212.1,212.5c-0.5,1.5-0.9,3-1.4,4.4c1.7,0.4,3.4,0.8,5.1,1.2c1-1.5,2-3,2.9-4.5c-0.5-0.3-1-0.5-1.6-0.8
		C215.5,212.7,213.8,212.6,212.1,212.5z M215.8,217.2c-2.5,0.2-4.3-0.2-3.4-3.4c1.3-0.1,2.6-0.1,4-0.2
		C216.1,214.9,215.9,216,215.8,217.2z"/>
	<path class="st0" d="M173.2,217.2c0.6-0.6,1.2-1.2,1.8-1.8c0.3-0.2,0.5-0.4,0.8-0.6c-0.3-0.1-0.6-0.2-0.9-0.3
		c-0.5-0.5-1.1-1-1.6-1.4c1-0.1,1.9-0.1,2.9-0.2c0-0.3,0-0.6,0-0.9c-1,0-2,0-2.9,0c-0.6,0.8-1.8,1.8-1.7,2.5
		c0.1,1.3,1.1,2.5,1.7,3.8c1.1,0,2.3,0,3.4,0c0-0.4,0-0.7,0-1.1C175.4,217.2,174.3,217.2,173.2,217.2z"/>
	<path class="st0" d="M299.7,217.1c-0.2-0.4-0.4-0.8-0.6-1.1c0.6-0.2,1.2-0.4,1.7-0.6c0.3-0.1,0.7-0.2,1-0.2
		c-0.4-0.2-0.8-0.5-1.1-0.7c-0.4,0-0.7,0-1.1-0.1c-0.2-0.5-0.4-0.9-0.5-1.4c0.2,0.5,0.4,0.9,0.5,1.4c0.1-0.4,0.1-0.9,0.2-1.3
		c0.9-0.1,1.8-0.3,2.6-0.4c0-0.3-0.1-0.5-0.1-0.8c-1.1,0-2.2,0-3.3,0c-0.5,0.7-1.6,1.5-1.5,2.1c0.2,1.5,1,2.9,1.5,4.3
		c1.2,0,2.3,0,3.5,0c0-0.4,0-0.7,0-1.1C301.5,217.1,300.6,217.1,299.7,217.1z"/>
	<path class="st0" d="M191.2,217.2c0.7-0.8,1.3-1.6,1.8-2.2c-0.6-0.6-1.2-1.3-1.8-1.9l0,0c0.9-0.1,1.8-0.2,2.8-0.3
		c0-0.3-0.1-0.7-0.1-1c-1,0.1-2,0.3-3,0.4v0c-0.6,0.7-1.7,1.4-1.6,2c0.3,1.4-1.7,4.2,1.9,4.1c1.1,0,2.1,0,3.2,0c0-0.4,0-0.7-0.1-1.1
		C193.3,217.2,192.2,217.2,191.2,217.2z"/>
	<path class="st0" d="M252.3,212c-1.3,1.4-2.6,2.8-4,4.4c-0.5-1.3-1.2-3.4-2.2-6.1c-0.5,0.2-2.1,0.4-2.9,1.4
		c-0.9,1.1-0.5,3.1-1.4,4.1c-0.8,0.9-2.6,1.2-4,1.3c-0.5,0-1.1-1.1-1.7-1.7c1-0.7,2-1.4,3.1-2.1c0.3-0.2,0.6-0.4,1-0.7
		c-3.9-1.5-6,0.2-5.9,4.7c0.9,0.5,2.1,0.9,2.6,1.7c1,1.5,1.1,2.6,2.8,0.3c1.1-1.5,3.8-2.3,5.8-2.4c2-0.1,4.1,1.5,6.2,1.6
		c1.8,0.1,3.7-0.7,5.2-1.6c0.4-0.3-0.5-2.6-0.8-4C254.9,212.5,253.6,212.2,252.3,212z M244.9,215.3c-0.1,0-0.5-0.5-0.4-0.6
		c0.1-0.3,0.5-0.5,0.7-0.7c0.2,0.2,0.3,0.4,0.6,0.8C245.4,215,245.2,215.2,244.9,215.3z M251.8,216.7c0.2-1.2,0.4-2.4,0.6-3.6
		c0.8,0,1.6,0.1,2.3,0.1c0,0,0,0,0,0c0.1,1.2,0.3,2.4,0.4,3.6C254,216.8,252.9,216.7,251.8,216.7z"/>
	<path class="st0" d="M186.7,213.1c-0.4-0.2-0.8-0.5-1.2-0.7c0,0,0,0,0,0c-0.3-0.1-0.6-0.3-0.9-0.4c-0.8,0-1.6-0.1-2.5-0.1
		c0.1,0.4,0.2,0.9,0.3,1.3c0.7,0,1.4,0,2,0c0.1,0.1,0.3,0.2,0.5,0.2c0,0,0,0,0,0c0.3,0.3,0.6,0.5,1,0.8c0,0,0,0,0,0
		c0.1,0.6,0.1,1.2,0.2,1.7c0.3,0.3,0.6,0.6,1,0.9C187,215.5,186.8,214.3,186.7,213.1C186.7,213.1,186.7,213.1,186.7,213.1z"/>
	<path class="st0" d="M90.1,180.4c1-0.2,2-0.5,2.9-0.8c-0.6-0.1-1.3-0.1-1.9-0.2C90.8,179.8,90.5,180.1,90.1,180.4z"/>
	<path class="st0" d="M265.7,212.3c0,0.1,0.2,0.3,0.2,0.4c0.2-0.1,0.3-0.3,0.5-0.4c-0.1-0.1-0.3-0.2-0.4-0.4
		C266,212.1,265.7,212.2,265.7,212.3z"/>
	<path class="st0" d="M81.5,172.2c-0.8-1-1.5-2-2.3-2.9c-0.5,0-1.1,0.1-1.6,0.1c-0.3,0.6-0.5,1.1-0.8,1.7c1.4,0.4,2.8,0.8,4.2,1.2
		C81.2,172.3,81.3,172.2,81.5,172.2z"/>
	<path class="st0" d="M75.1,167.8C75.1,167.8,75.1,167.8,75.1,167.8c0.5,0.1,1.1,0.1,1.6,0.2c0.5-1,1.1-2,1.6-3.1c0-0.5,0-1.1,0-1.6
		c0,0.5,0,1.1,0,1.6c-0.5,1-1.1,2-1.6,3.1c0.3,0.5,0.5,0.9,0.8,1.4c0.5,0,1.1-0.1,1.6-0.1c0.8-0.8,1.5-1.6,2.3-2.4
		c-0.2-0.6-0.3-1.2-0.5-1.8c0,0,0,0,0,0c0-0.2,0-0.3,0-0.5c0-1.4,0-2.8,0-4.3c-0.6,0-1.2-0.1-1.7-0.1c-0.8-0.2-1.6-0.3-2.4-0.5
		c-0.5-0.4-0.9-0.8-1.4-1.3c-0.1,0.6-0.3,1.2-0.4,1.8c-1.2,0.4-2.5,0.9-3.7,1.3c-0.4,0.6-0.8,1.2-1.2,1.8c0,0.6,0,1.1-0.1,1.7
		c0.8,1,1.6,2.1,2.3,3.1C73.3,168.1,74.2,167.9,75.1,167.8z M76.7,160.2c0,0.4,0,0.7,0,1.1C76.8,161,76.8,160.6,76.7,160.2
		C76.7,160.2,76.7,160.2,76.7,160.2z M76.8,162C76.8,162,76.8,162,76.8,162c-0.7,0.4-1.5,0.9-2.2,1.3
		C75.3,162.9,76.1,162.5,76.8,162z"/>
	<path class="st0" d="M82.9,167c-0.5,0-1-0.1-1.5-0.1c-0.8,0.8-1.5,1.6-2.3,2.4c0.8,1,1.5,2,2.3,2.9c0.2-0.6,0.5-1.1,0.7-1.7
		c0.7,0.1,1.4,0.1,2.1,0.2c0,0.2,0.1,0.3,0.2,0.4c0.8,0,1.5-0.1,2.3-0.1c0.2-1.1,0.5-2.2,0.7-3.3c0-1.1,0-2.1,0-3.2
		c-0.4-0.1-0.9-0.2-1.3-0.3c-0.3,0.3-0.7,0.6-1,0.9c-0.4,0.2-0.8,0.4-1.2,0.5C83.6,166.1,83.3,166.6,82.9,167
		C82.9,167,82.9,167,82.9,167z M82.8,167.6c0-0.1,0-0.2,0-0.3C82.9,167.4,82.8,167.5,82.8,167.6C82.8,167.6,82.8,167.6,82.8,167.6z"
		/>
</g>
</svg>
