<?xml version="1.0" encoding="utf-8"?>
<!-- Generator: Adobe Illustrator 25.4.1, SVG Export Plug-In . SVG Version: 6.00 Build 0)  -->
<svg version="1.1" id="Layer_1" xmlns="http://www.w3.org/2000/svg" xmlns:xlink="http://www.w3.org/1999/xlink" x="0px" y="0px"
	 viewBox="0 0 694.1 245.3" style="enable-background:new 0 0 694.1 245.3;" xml:space="preserve">
<style type="text/css">
	.st0{fill:#FFFFFF;}
</style>
<g id="IpT3Rp_00000150806497294364918770000017827952488039254165_">
	<g>
		<path class="st0" d="M233.5,121.7c0.1,62.8-51.6,114.2-115.1,113.2C57.3,233.9,7,184.1,6.9,121.7C6.9,59,57.8,8.6,120.9,8.6
			C182.8,8.7,233.5,59.6,233.5,121.7z M14.8,121.7c0,58.1,47.5,105.5,105.5,105.4c58.1-0.1,105.4-47.3,105.4-105.3
			c0-57.5-47.3-105-104.3-105.4C63.6,16,15,62.4,14.8,121.7z"/>
		<path class="st0" d="M460,138.3c-22,0-43.3,0-64.7,0c0.1,9.7,5.5,22,17.1,27.4c10.1,4.7,26.6,4.2,38.5-9.5
			c0.8,0.9,1.7,1.8,2.5,2.7c0.8,0.9,1.6,1.7,2.5,2.7c-6,6.7-13,11.6-21.8,13.3c-13.1,2.6-25.1,0.3-35.1-8.9
			c-7.5-6.9-11.3-15.7-12.4-25.7c-1.2-11.7,1.1-22.6,8.4-32.2c13-17.1,37.6-19.2,53.2-4.4c6,5.7,9.3,13.1,10.6,21.2
			C459.5,129.4,459.7,133.7,460,138.3z M395.3,130.5c18.7,0,37.2,0,56.4,0c-0.9-3.7-1.5-7.1-2.6-10.4c-4.7-12.9-17-20.1-29.8-18.2
			C403.4,104.4,395.8,119.7,395.3,130.5z"/>
		<path class="st0" d="M308.8,173.2c0-35.1,0-69.9,0-104.9c2.6,0,5.2,0,7.9,0c0,16.7,0,33.4,0,50.1c0.3,0.2,0.6,0.5,0.9,0.7
			c0.3-0.6,0.4-1.4,0.9-1.9c15.9-15.9,31.8-31.7,47.7-47.6c1.1-1.1,2.1-1.5,3.6-1.5c2.9,0.1,5.8,0,8.7,0
			c-17.4,17.5-34.7,34.9-52,52.2c17.5,17.5,34.9,34.8,52.2,52.1c-0.1,0.2-0.1,0.4-0.2,0.6c-1.6,0-3.3-0.2-4.9,0
			c-3.6,0.5-6-1-8.5-3.5c-15.3-15.2-30.7-30.3-46.1-45.3c-0.6-0.6-1.2-1.1-2.2-2c0,1.1,0,1.8,0,2.5c0,15.3,0,30.7,0,46
			c0,1.8-0.5,2.5-2.3,2.3C312.7,173.1,310.8,173.2,308.8,173.2z"/>
		<path class="st0" d="M636.3,174.1c-2.8,0-5.4,0-8.1,0c0-26,0-51.9,0-78c2.6,0,5.2,0,8.1,0c0,2.9,0,5.6,0,8.3
			c3.7-2.3,7.1-4.7,10.8-6.7c6.9-3.7,14.3-4.5,22-3c9.7,1.8,15.7,8.1,17.1,18c0.3,2.4,0.5,4.9,0.5,7.3c0,17.2,0,34.3,0,51.5
			c0,0.8,0,1.6,0,2.5c-2.7,0-5.3,0-8,0c0-0.8,0-1.5,0-2.3c0-17.2,0-34.4,0-51.7c0-2-0.1-4-0.5-6c-1.4-7.8-6.3-12-14.5-12.4
			c-10.9-0.5-19.4,4.1-26.5,11.9c-0.6,0.6-0.8,1.8-0.8,2.7c0,18.4,0,36.8,0,55.2C636.3,172.4,636.3,173.1,636.3,174.1z"/>
		<path class="st0" d="M505.9,96c3,0,5.7-0.1,8.4,0.1c0.5,0,1.2,1,1.5,1.6c4.4,10.1,8.7,20.3,13,30.5c4.8,11.3,9.6,22.6,14.6,34.3
			c0.4-0.9,0.7-1.4,0.9-2c8.8-20.8,17.6-41.6,26.3-62.4c0.7-1.6,1.4-2.3,3.2-2.1c2.2,0.2,4.4,0,6.9,0c-0.3,0.8-0.5,1.4-0.8,1.9
			c-10.7,24.9-21.4,49.8-32,74.7c-0.5,1.2-1.1,1.6-2.4,1.5c-2-0.1-4,0-6.1,0C528.3,148.2,517.2,122.2,505.9,96z"/>
		<path class="st0" d="M479.2,67.5c2.6,0,5.1,0,7.8,0c0,35.5,0,70.9,0,106.5c-2.5,0-5.1,0-7.8,0C479.2,138.6,479.2,103.2,479.2,67.5
			z"/>
		<path class="st0" d="M596.9,96.1c2.6,0,5.1,0,7.7,0c0,26,0,51.9,0,77.9c-2.5,0-5,0-7.7,0C596.9,148.1,596.9,122.2,596.9,96.1z"/>
		<path class="st0" d="M600.4,86.3c-3.3,0-6-2.7-5.9-6c0-3.3,2.7-6,6-6c3.4,0,6.1,2.7,6,6.1C606.4,83.7,603.8,86.3,600.4,86.3z"/>
		<path class="st0" d="M118.9,121.8c17.8,17.8,35.4,35.3,53.2,53.2c-3.5,0-6.7,0-9.8,0c-0.5,0-1-0.5-1.4-0.9
			c-11.9-11.7-23.8-23.3-35.7-35c-5.2-5.1-10.3-10.1-15.8-15.4c0,17.2,0,34.1,0,51.2c-2.8,0-5.5,0-8.2,0c0-35.3,0-70.6,0-106.2
			c1.3,0,2.6,0,3.9,0c1.3,0,2.6,0,4.2,0c0,17.1,0,34,0,51.4c0.9-0.8,1.4-1.3,1.9-1.8c16.1-16.1,32.2-32.2,48.3-48.3
			c1-1,1.9-1.4,3.3-1.4c3,0.1,6,0,9.4,0C154.2,86.5,136.7,104,118.9,121.8z"/>
		<path class="st0" d="M72,78.4c-3.4,0-6-2.7-6-6.1c0-3.5,2.7-6.1,6.3-6c3.4,0,6,2.8,5.9,6.2C78.1,75.9,75.5,78.5,72,78.4z"/>
	</g>
</g>
</svg>
