<?xml version="1.0" encoding="utf-8"?>
<!-- Generator: Adobe Illustrator 25.4.1, SVG Export Plug-In . SVG Version: 6.00 Build 0)  -->
<svg version="1.1" id="Layer_1" xmlns="http://www.w3.org/2000/svg" xmlns:xlink="http://www.w3.org/1999/xlink" x="0px" y="0px"
	 viewBox="0 0 439.1 150.2" style="enable-background:new 0 0 439.1 150.2;" xml:space="preserve">
<style type="text/css">
	.st0{fill:#FFFFFF;}
</style>
<g>
	<path class="st0" d="M128.3,37.6c0-17.7-14-32.2-31.5-33.1c-0.2,0-0.4,0-0.6,0c-0.2,0-0.3,0-0.5,0c-0.2,0-0.3,0-0.5,0
		c-0.2,0-0.4,0-0.6,0C77.1,5.3,63.1,19.8,63.1,37.6s14,32.2,31.5,33.1c0.2,0,0.4,0,0.6,0c0.2,0,0.3,0,0.5,0c0.2,0,0.3,0,0.5,0
		c0.2,0,0.4,0,0.6,0C114.3,69.8,128.3,55.3,128.3,37.6z M95.7,61.4c-12.9-0.3-23.3-10.9-23.3-23.8S82.8,14,95.7,13.7
		c12.9,0.3,23.3,10.9,23.3,23.8S108.7,61.1,95.7,61.4z"/>
	<g>
		<path class="st0" d="M145.2,70.3c-2.6,0-4.6-2.1-4.6-4.6V8.9c0-1.9,1.1-3.6,2.9-4.3c1.7-0.7,3.7-0.3,5.1,1l47.8,48.5V9.2
			c0-2.6,2.1-4.6,4.6-4.6c2.6,0,4.6,2.1,4.6,4.6v56.2c0,1.9-1.1,3.6-2.9,4.3c-1.7,0.7-3.7,0.3-5.1-1l-47.8-48.5v45.5
			C149.8,68.2,147.7,70.3,145.2,70.3z"/>
	</g>
	<g>
		<path class="st0" d="M7.1,71.2c-2.6,0-4.6-2.1-4.6-4.6V9.8c0-2.6,2.1-4.6,4.6-4.6s4.6,2.1,4.6,4.6v56.8
			C11.8,69.1,9.7,71.2,7.1,71.2z"/>
	</g>
	<g>
		<path class="st0" d="M50.5,70.9c-1.1,0-2.2-0.4-3-1.3L22.3,44.5c-1.8-1.8-2.7-4.1-2.7-6.6c0-2.5,1-4.9,2.7-6.6L47.8,5.7
			c1.7-1.7,4.4-1.7,6,0c1.7,1.7,1.7,4.4,0,6L28.3,37.3c-0.2,0.2-0.2,0.4-0.2,0.6c0,0.2,0,0.4,0.2,0.6l25.2,25.2c1.7,1.7,1.7,4.4,0,6
			C52.7,70.5,51.6,70.9,50.5,70.9z"/>
	</g>
	<g>
		<path class="st0" d="M227,71.2c-2.6,0-4.6-2.1-4.6-4.6V9.8c0-2.6,2.1-4.6,4.6-4.6c2.6,0,4.6,2.1,4.6,4.6v56.8
			C231.6,69.1,229.5,71.2,227,71.2z"/>
	</g>
	<g>
		<path class="st0" d="M270.3,70.9c-1.1,0-2.2-0.4-3-1.3l-25.2-25.2c-1.8-1.8-2.7-4.1-2.7-6.6c0-2.5,1-4.9,2.7-6.6l25.5-25.5
			c1.7-1.7,4.4-1.7,6,0c1.7,1.7,1.7,4.4,0,6l-25.5,25.5c-0.2,0.2-0.2,0.4-0.2,0.6c0,0.2,0,0.4,0.2,0.6l25.2,25.2
			c1.7,1.7,1.7,4.4,0,6C272.5,70.5,271.4,70.9,270.3,70.9z"/>
	</g>
	<g>
		<path class="st0" d="M38.9,133.9c0.5,0,0.9,0.2,1.3,0.6l3.6,3.9c-2,2.5-4.4,4.3-7.3,5.6c-2.9,1.3-6.4,2-10.4,2
			c-3.6,0-6.9-0.6-9.8-1.9c-2.9-1.2-5.4-3-7.4-5.2c-2.1-2.2-3.6-4.8-4.7-7.9c-1.1-3.1-1.6-6.4-1.6-10c0-3.7,0.6-7,1.8-10.1
			c1.2-3.1,2.9-5.7,5.1-7.9c2.2-2.2,4.8-3.9,7.9-5.2S23.9,96,27.6,96c3.6,0,6.8,0.6,9.5,1.7c2.7,1.2,5,2.7,7,4.6l-3,4.2
			c-0.2,0.3-0.4,0.5-0.7,0.7c-0.3,0.2-0.7,0.3-1.2,0.3c-0.5,0-1-0.2-1.6-0.6c-0.5-0.4-1.2-0.8-2.1-1.3c-0.8-0.5-1.9-0.9-3.2-1.3
			c-1.3-0.4-2.9-0.6-4.8-0.6c-2.3,0-4.4,0.4-6.3,1.2c-1.9,0.8-3.6,1.9-5,3.4s-2.5,3.3-3.2,5.4c-0.8,2.1-1.2,4.5-1.2,7.2
			c0,2.7,0.4,5.2,1.2,7.3c0.8,2.1,1.8,3.9,3.2,5.4c1.3,1.5,2.9,2.6,4.7,3.4c1.8,0.8,3.7,1.2,5.8,1.2c1.2,0,2.4-0.1,3.4-0.2
			c1-0.1,1.9-0.3,2.8-0.6c0.8-0.3,1.6-0.7,2.4-1.1c0.8-0.5,1.5-1,2.2-1.7c0.2-0.2,0.5-0.4,0.7-0.5C38.4,134,38.6,133.9,38.9,133.9z"
			/>
		<path class="st0" d="M99,121c0,3.6-0.6,6.9-1.8,10c-1.2,3.1-2.9,5.7-5,7.9c-2.2,2.2-4.8,4-7.8,5.2c-3,1.3-6.4,1.9-10.1,1.9
			c-3.7,0-7.1-0.6-10.1-1.9c-3.1-1.2-5.7-3-7.8-5.2c-2.2-2.2-3.9-4.9-5.1-7.9c-1.2-3.1-1.8-6.4-1.8-10s0.6-6.9,1.8-10
			c1.2-3.1,2.9-5.7,5.1-7.9c2.2-2.2,4.8-4,7.8-5.2c3.1-1.3,6.4-1.9,10.1-1.9c3.7,0,7.1,0.6,10.1,1.9c3,1.3,5.6,3,7.8,5.2
			c2.2,2.2,3.8,4.9,5,7.9C98.4,114.1,99,117.4,99,121z M89.7,121c0-2.7-0.4-5.1-1.1-7.2c-0.7-2.1-1.7-3.9-3.1-5.4
			c-1.3-1.5-2.9-2.6-4.9-3.4c-1.9-0.8-4-1.2-6.4-1.2c-2.4,0-4.5,0.4-6.5,1.2c-1.9,0.8-3.5,1.9-4.9,3.4c-1.3,1.5-2.4,3.3-3.1,5.4
			c-0.7,2.1-1.1,4.5-1.1,7.2c0,2.7,0.4,5.1,1.1,7.2c0.7,2.1,1.8,3.9,3.1,5.4c1.3,1.5,3,2.6,4.9,3.4c1.9,0.8,4.1,1.2,6.5,1.2
			c2.4,0,4.5-0.4,6.4-1.2c1.9-0.8,3.5-1.9,4.9-3.4c1.3-1.5,2.3-3.3,3.1-5.4C89.3,126.1,89.7,123.7,89.7,121z"/>
		<path class="st0" d="M113.5,96.6c0.3,0,0.5,0.1,0.7,0.2c0.2,0.1,0.4,0.2,0.6,0.4c0.2,0.2,0.4,0.4,0.7,0.8l25.7,32.7
			c-0.1-0.8-0.2-1.6-0.2-2.3c0-0.8-0.1-1.5-0.1-2.1V96.5h8v48.9h-4.7c-0.7,0-1.3-0.1-1.8-0.3c-0.5-0.2-0.9-0.6-1.4-1.2l-25.5-32.5
			c0.1,0.7,0.1,1.4,0.2,2.1s0.1,1.4,0.1,1.9v30h-8V96.5h4.8C112.9,96.5,113.2,96.6,113.5,96.6z"/>
		<path class="st0" d="M186.5,105.4c-0.2,0.5-0.5,0.8-0.9,1c-0.3,0.2-0.7,0.3-1.2,0.3c-0.5,0-1-0.2-1.5-0.5s-1.2-0.7-2-1.2
			c-0.8-0.4-1.7-0.8-2.7-1.2c-1-0.3-2.2-0.5-3.6-0.5c-1.3,0-2.4,0.2-3.3,0.5c-0.9,0.3-1.7,0.7-2.4,1.3c-0.6,0.5-1.1,1.2-1.4,1.9
			c-0.3,0.8-0.5,1.6-0.5,2.5c0,1.1,0.3,2.1,1,2.9c0.6,0.8,1.5,1.4,2.6,2c1.1,0.5,2.3,1,3.6,1.5c1.4,0.4,2.7,0.9,4.1,1.4
			c1.4,0.5,2.8,1,4.1,1.7c1.4,0.6,2.6,1.5,3.6,2.4s1.9,2.2,2.6,3.6c0.6,1.4,1,3.1,1,5.2c0,2.2-0.4,4.3-1.1,6.2
			c-0.8,1.9-1.9,3.6-3.3,5c-1.5,1.4-3.2,2.6-5.3,3.4c-2.1,0.8-4.5,1.2-7.2,1.2c-1.6,0-3.1-0.2-4.6-0.5c-1.5-0.3-3-0.7-4.3-1.3
			c-1.4-0.6-2.7-1.2-3.9-2c-1.2-0.8-2.3-1.7-3.2-2.6l2.6-4.4c0.2-0.3,0.5-0.6,0.9-0.8c0.3-0.2,0.7-0.3,1.2-0.3
			c0.6,0,1.2,0.2,1.8,0.7c0.7,0.5,1.4,1,2.3,1.5c0.9,0.6,1.9,1.1,3.1,1.5c1.2,0.5,2.7,0.7,4.3,0.7c2.6,0,4.6-0.6,6-1.8
			c1.4-1.2,2.1-3,2.1-5.3c0-1.3-0.3-2.3-1-3.1c-0.6-0.8-1.5-1.5-2.6-2c-1.1-0.6-2.3-1-3.6-1.4c-1.4-0.4-2.7-0.8-4.1-1.2
			c-1.4-0.5-2.8-1-4.1-1.6c-1.4-0.6-2.6-1.5-3.6-2.5c-1.1-1-1.9-2.3-2.6-3.8c-0.6-1.5-1-3.4-1-5.6c0-1.8,0.4-3.5,1.1-5.2
			c0.7-1.7,1.7-3.2,3.1-4.5s3-2.4,5-3.1s4.2-1.2,6.8-1.2c2.9,0,5.5,0.5,8,1.4c2.4,0.9,4.5,2.2,6.2,3.8L186.5,105.4z"/>
		<path class="st0" d="M217.7,138.1c1.8,0,3.3-0.3,4.7-0.9c1.4-0.6,2.6-1.4,3.5-2.5c1-1.1,1.7-2.3,2.2-3.9c0.5-1.5,0.8-3.2,0.8-5.1
			V96.5h9.1v29.3c0,2.9-0.5,5.6-1.4,8.1c-0.9,2.5-2.3,4.6-4,6.4c-1.8,1.8-3.9,3.2-6.4,4.2c-2.5,1-5.3,1.5-8.4,1.5
			c-3.1,0-5.9-0.5-8.4-1.5c-2.5-1-4.6-2.4-6.4-4.2c-1.7-1.8-3.1-3.9-4-6.4c-0.9-2.5-1.4-5.2-1.4-8.1V96.5h9.1v29.2
			c0,1.9,0.3,3.6,0.8,5.1c0.5,1.5,1.2,2.8,2.2,3.9c0.9,1.1,2.1,1.9,3.5,2.5C214.4,137.8,215.9,138.1,217.7,138.1z"/>
		<path class="st0" d="M257.8,137.9h19.6v7.5h-28.7V96.5h9.1V137.9z"/>
		<path class="st0" d="M313.6,96.5v7.5h-14.7v41.4h-9.1V104h-14.8v-7.5H313.6z"/>
		<path class="st0" d="M331.1,145.4H322V96.5h9.1V145.4z"/>
		<path class="st0" d="M349.4,96.6c0.3,0,0.5,0.1,0.7,0.2c0.2,0.1,0.4,0.2,0.6,0.4c0.2,0.2,0.4,0.4,0.7,0.8l25.7,32.7
			c-0.1-0.8-0.2-1.6-0.2-2.3c0-0.8,0-1.5,0-2.1V96.5h8v48.9h-4.7c-0.7,0-1.3-0.1-1.8-0.3c-0.5-0.2-0.9-0.6-1.4-1.2l-25.5-32.5
			c0.1,0.7,0.1,1.4,0.2,2.1c0,0.7,0.1,1.4,0.1,1.9v30h-8V96.5h4.8C348.8,96.5,349.1,96.6,349.4,96.6z"/>
		<path class="st0" d="M418.6,138.7c2,0,3.8-0.2,5.4-0.6c1.5-0.4,3-0.9,4.3-1.5v-8.9h-6.1c-0.6,0-1-0.2-1.4-0.5
			c-0.3-0.3-0.5-0.7-0.5-1.2v-5.1h16.3v19.8c-1.2,0.9-2.5,1.7-3.9,2.3c-1.3,0.7-2.8,1.2-4.3,1.6c-1.5,0.4-3.1,0.7-4.9,1
			c-1.7,0.2-3.6,0.3-5.6,0.3c-3.6,0-6.8-0.6-9.8-1.9c-3-1.2-5.6-3-7.8-5.2c-2.2-2.2-3.9-4.8-5.1-7.9c-1.2-3.1-1.8-6.4-1.8-10
			c0-3.7,0.6-7,1.8-10.1c1.2-3.1,2.9-5.7,5.1-7.9c2.2-2.2,4.9-3.9,8-5.1c3.1-1.2,6.6-1.8,10.5-1.8c4,0,7.4,0.6,10.4,1.8
			c2.9,1.2,5.4,2.7,7.4,4.6l-2.6,4.1c-0.5,0.8-1.2,1.3-2.1,1.3c-0.5,0-1.1-0.2-1.7-0.5c-0.7-0.4-1.5-0.9-2.2-1.3
			c-0.8-0.4-1.6-0.8-2.5-1.1c-0.9-0.3-1.9-0.6-3.1-0.8c-1.1-0.2-2.5-0.3-3.9-0.3c-2.4,0-4.6,0.4-6.5,1.2c-1.9,0.8-3.6,2-5,3.5
			c-1.4,1.5-2.4,3.3-3.2,5.4c-0.7,2.1-1.1,4.5-1.1,7.1c0,2.8,0.4,5.3,1.2,7.5s1.9,4.1,3.3,5.6s3.1,2.7,5.1,3.5
			C414.2,138.3,416.3,138.7,418.6,138.7z"/>
	</g>
</g>
</svg>
