<?xml version="1.0" encoding="utf-8"?>
<!-- Generator: Adobe Illustrator 25.4.1, SVG Export Plug-In . SVG Version: 6.00 Build 0)  -->
<svg version="1.1" id="Ebene_2" xmlns="http://www.w3.org/2000/svg" xmlns:xlink="http://www.w3.org/1999/xlink" x="0px" y="0px"
	 viewBox="0 0 423.2 41.6" style="enable-background:new 0 0 423.2 41.6;" xml:space="preserve">
<style type="text/css">
	.st0{fill:#FFFFFF;}
</style>
<g>
	<rect x="218.1" y="22.3" class="st0" width="12.5" height="2.9"/>
	<path class="st0" d="M10.2,4.8l-1.1,29v0.5c0,2.5,0.7,3,4.6,3.2v1.3c-2.9-0.2-4-0.3-5.5-0.3c-1.6,0-2.7,0.1-5.6,0.3v-1.3
		c3.9-0.3,4.5-0.7,4.6-3.8L8.4,6.2V5.9c0-2.6-0.8-3.1-4.6-3.4V1.1c2.2,0.2,3,0.2,4.6,0.2c2.1,0,3.2-0.1,5.3-0.3l10.4,28.3L34.6,1.2
		c2.5,0.2,3.7,0.3,5.4,0.3c1.4,0,2.3-0.1,4.4-0.2v1.4c-3.8,0.2-4.6,0.8-4.6,3.3v0.4l0.6,27.4c0.1,3,0.6,3.5,4.6,3.8v1.3
		c-3.5-0.3-4.9-0.4-7-0.4s-3.5,0.1-7,0.4v-1.3c3.8-0.2,4.6-0.8,4.6-3.5v-0.3l-0.5-29l-9.2,25l-0.7,1.8l-0.8,2.1l-0.7,2.1l-0.6,1.8
		h-0.8l-0.7-1.7l-0.8-2.2L20,31.5l-0.7-2L10.2,4.8z"/>
	<path class="st0" d="M59.5,37.5c-5.1,0-7.3-3.9-7.4-12.6h16.7c-0.1-8.6-3.6-13.2-10.2-13.2c-6.7,0-10.9,5.4-10.9,14
		s4.2,13.7,11.4,13.7c5.5,0,9.1-3.4,9.8-9.2h-2.3C65.9,35,63.5,37.5,59.5,37.5 M52.2,22.9c0.6-6.4,2.7-9.7,6.3-9.7
		c3.6,0,5.5,3.1,5.8,9.7H52.2z"/>
	<path class="st0" d="M72.1,13.8v-1c3.2-0.3,5.1-0.6,7.4-1.3c0.3,2.1,0.4,3,0.5,4.6v0.6c1.2-3.2,3.6-5,6.5-5c2.8,0,4.9,1.8,4.9,4.5
		c0,1.6-1,2.7-2.4,2.7c-1.3,0-2.3-0.8-2.3-1.9c0-0.1,0.1-0.3,0.1-0.6l0.1-0.6v-0.5c0-0.8-0.7-1.3-1.7-1.3c-2.9,0-4.8,3.5-4.8,9.1
		v11.7c0,2.4,0.6,2.9,4,3v1.1c-3.1-0.3-4.3-0.3-6.2-0.3c-2,0-3.2,0.1-6.3,0.3v-1.1c3.4-0.2,4-0.6,4-3V17.4v-0.9
		c-0.1-2.4-0.3-2.7-3.2-2.7C72.7,13.8,72.1,13.8,72.1,13.8z"/>
	<path class="st0" d="M112.8,11.2v9.2h-1.2c-1-4.9-3.1-7.2-6.5-7.2c-4.2,0-6.7,4.5-6.7,12.5c0,7.8,2.2,11.8,6.5,11.8
		c3.5,0,5.5-2.5,6.2-7.4h2.3c-0.7,6-3.9,9.2-9,9.2c-6.5,0-10.9-5.5-10.9-13.7c0-8.3,4.5-14,11.1-14c2.4,0,3.9,0.6,5.7,2.4l1.5-2.9h1
		V11.2z"/>
	<path class="st0" d="M129.3,37.5c-5.1,0-7.3-3.9-7.4-12.6h16.7c-0.1-8.6-3.6-13.2-10.2-13.2c-6.7,0-10.9,5.4-10.9,14
		s4.2,13.7,11.4,13.7c5.5,0,9.1-3.4,9.8-9.2h-2.2C135.7,35,133.2,37.5,129.3,37.5 M122,22.9c0.6-6.4,2.7-9.7,6.3-9.7
		s5.5,3.1,5.8,9.7H122z"/>
	<path class="st0" d="M164.6,33.1V0.8c-2.8,0.7-5.3,1.2-8.4,1.5v1c3.5,0,4,0.4,4,3.3v9.8c-2.1-3.4-3.7-4.4-6.7-4.4
		c-6,0-10.2,5.6-10.2,13.7s4.3,13.7,10.4,13.7c3.2,0,5.4-1.5,6.9-4.6c0.2,2.1,0.2,2.3,0.8,4.5c2.3-0.7,3.2-0.9,6.5-1.3l0.8-0.1v-1
		C164.9,36.8,164.6,36.5,164.6,33.1 M154.1,37.9c-4,0-6.2-4.2-6.2-12.2c0-8.1,2-12.1,6-12.1c4.1,0,6.3,4.3,6.3,12.5
		C160.2,33.8,158.1,37.9,154.1,37.9"/>
	<path class="st0" d="M182.6,37.5c-5.1,0-7.3-3.9-7.4-12.6h16.7c-0.1-8.6-3.6-13.2-10.2-13.2c-6.7,0-10.9,5.4-10.9,14
		s4.2,13.7,11.4,13.7c5.5,0,9.1-3.4,9.8-9.2h-2.2C189.1,35,186.6,37.5,182.6,37.5 M175.4,22.9c0.6-6.4,2.7-9.7,6.3-9.7
		s5.5,3.1,5.8,9.7H175.4z"/>
	<path class="st0" d="M196.7,39.4v-9.3l1.2-0.1c1,5.1,3.4,7.6,7.3,7.6c3.3,0,5.8-2.2,5.8-5c0-1.9-1.1-3.2-3.8-4.4l-2.1-0.9l-2.6-1.2
		c-4.1-1.9-5.4-3.5-5.4-6.7c0-4.4,3.5-7.4,8.4-7.4c2.2,0,3.8,0.5,5.7,1.8l1-2.3h1v8.7h-1.3c-0.5-4.5-2.3-6.6-5.9-6.6
		c-3,0-5.3,2-5.3,4.6c0,2.2,0.8,3,5.9,5.2l2.3,1c4.3,1.8,5.8,3.6,5.8,6.9c0,4.7-3.7,8.1-9,8.1c-2.6,0-4.6-0.7-6.7-2.4l-1.3,2.5
		L196.7,39.4L196.7,39.4z"/>
	<path class="st0" d="M257.1,10.6c0-2.9-1.2-5.5-3.4-7.1c-1.9-1.4-4.1-2-7.7-2h-14.7v1.3c4,0.2,4.6,0.7,4.6,3.7v27.1
		c0,3-0.4,3.4-4.6,3.7v1.5h14.2c4.1,0,6.4-0.5,8.7-2c2.8-1.8,4.6-5.2,4.6-8.7c0-3-1.3-5.8-3.5-7.4c-1.2-0.9-2.4-1.4-4.4-1.8
		C254.9,17.3,257.1,14.5,257.1,10.6 M240.5,3.2h4.8c4.7,0,6.8,2.3,6.8,7.5c0,2.6-0.6,4.4-1.8,5.9c-1.2,1.4-2.7,1.8-5.9,1.8h-3.8V3.2
		H240.5z M245.9,20.1c3,0,4.6,0.5,5.9,1.8s2,3.7,2,6.4c0,5.6-2.8,8.7-7.8,8.7h-2c-3,0-3.5-0.4-3.5-2.9v-14H245.9z"/>
	<path class="st0" d="M275.2,37.5c-5.1,0-7.3-3.9-7.4-12.6h16.7c-0.1-8.6-3.6-13.2-10.2-13.2c-6.7,0-10.9,5.4-10.9,14
		s4.2,13.7,11.4,13.7c5.5,0,9.1-3.4,9.8-9.2h-2.2C281.6,35,279.2,37.5,275.2,37.5 M267.9,22.9c0.6-6.4,2.7-9.7,6.3-9.7
		c3.6,0,5.5,3.1,5.8,9.7H267.9z"/>
	<path class="st0" d="M287.4,14v-1c3.2-0.4,5.1-0.9,7.4-1.7c0.3,1.3,0.4,2.7,0.6,4.9c2-3,4.3-4.4,7.6-4.4c3.4,0,6.3,1.7,7.4,4.5
		c0.6,1.3,0.8,2.9,0.8,5v13.5c0,2.4,0.6,2.9,4,3v1.1c-3-0.3-4.1-0.3-6.1-0.3c-2.1,0-3.2,0.1-6.1,0.3v-1.1c3-0.1,3.8-0.7,3.8-2.9
		V21.2c0-4.9-1.5-6.8-5-6.8c-3.8,0-5.8,2.4-5.8,7v13.5c0,2.2,0.7,2.8,3.6,2.9v1.1c-2.9-0.3-4-0.3-6-0.3s-3.1,0.1-6,0.3v-1.1
		c3.4-0.2,4-0.6,4-3V17.5v-0.8c-0.1-2.3-0.4-2.6-3.2-2.6C288,14,287.7,14,287.4,14"/>
	<path class="st0" d="M317.3,38.8l15.2-25h-6.9c-3.6,0-4.5,0.8-6.5,5.8H318l1.3-7.3h19.2l-15.2,25h6.5c3.8,0,5.4-1.5,7-6.6h1.2
		l-1.4,8.1H317.3z"/>
	<polygon class="st0" points="359.1,31.3 353.9,36.7 353.9,38.8 359.1,38.8 	"/>
	<polygon class="st0" points="370.1,9 375.3,3.6 375.3,1.5 370.1,1.5 	"/>
	<polygon class="st0" points="370.1,38.7 370.1,38.8 375.3,38.8 375.3,38.7 375.3,10.6 370.1,16 	"/>
	<path class="st0" d="M416.2,8.9l-3.8,3.9c1.3,2.1,2.1,4.7,2.1,7.4c0,7.7-6.3,14-14,14s-14-6.3-14-14s6.3-14,14-14
		c2.6,0,5,0.7,7.1,2l3.8-3.9c-1.9-1.3-4.1-2.3-6.5-2.9c-1.4-0.3-2.9-0.5-4.4-0.5s-2.9,0.2-4.3,0.5c-8.5,2-14.9,9.6-14.9,18.8
		c0,8.9,6.1,16.4,14.3,18.6c1.6,0.4,3.2,0.7,5,0.7c1.7,0,3.4-0.2,5-0.7c8.2-2.2,14.3-9.7,14.3-18.6C419.8,15.9,418.5,12.1,416.2,8.9
		"/>
</g>
</svg>
