<?xml version="1.0" encoding="utf-8"?>
<!-- Generator: Adobe Illustrator 25.4.1, SVG Export Plug-In . SVG Version: 6.00 Build 0)  -->
<svg version="1.1" id="Layer_1" xmlns="http://www.w3.org/2000/svg" xmlns:xlink="http://www.w3.org/1999/xlink" x="0px" y="0px"
	 viewBox="0 0 7374.6 2077.3" style="enable-background:new 0 0 7374.6 2077.3;" xml:space="preserve">
<style type="text/css">
	.st0{fill:#FFFFFF;}
</style>
<g>
	<path class="st0" d="M16,17.4c8.5-0.5,14.4-1.1,20.2-1.2c309-2.8,2165-1.3,2186.4,1.9c0.8,2.8,2.2,5.9,2.5,9
		c0.5,5.3,0.2,10.6,0.2,16c0,661.9,0,1323.7-0.1,1985.6c0,8.5,1.4,17.3-2.5,26.3c-3.8,0.8-7.5,2.1-11.3,2.3
		c-6.6,0.4-13.3,0.2-20,0.2c-714,0-1427.9,0-2141.9-0.1c-10.5,0-21.2,1.7-32.3-2.9c-0.6-4-1.4-7.8-1.6-11.6
		c-0.3-6.6-0.1-13.3-0.1-20c0-657.9,0-1315.7,0-1973.6C15.5,39.5,15.8,29.6,16,17.4z M527.9,837.7c3.1,7.5,1.6,16.2,1.6,24.7
		c0.1,225,0.1,450,0.1,675c0,7.3-0.1,14.6,0.2,22c0.1,3.2,0.9,6.3,1.4,9.8c8.5,3.1,16.5,2.2,24.3,2.2c102,0.1,203.9,0,305.9,0
		c4.7,0,9.4,0.2,14-0.2c3.8-0.3,7.5-1.5,12.3-2.4c0.2-12.1,0.5-23.3,0.6-34.5c0.1-12,0-24,0-35.9c0-11.3,0-22.6,0-34
		c0-11.3,0-22.6,0-34c0-11.3,0-22.6,0-34c0-12,0-24,0-35.9c0-11.3,0-22.6,0-34c0-11.3,0-22.6,0-34c0-12-0.1-24,0-35.9
		c0.1-11.1-0.6-22.2,0.6-33.9c7.9,2.3,10,8.2,13.4,12.8c41.6,56.2,83,112.5,124.4,168.8c37.1,50.4,74.2,100.8,111.4,151.1
		c3.8,5.2,6.5,11.8,15.1,14c4-4.9,8.3-9.8,12.2-15c15.5-20.8,30.9-41.7,46.4-62.6c62.6-84.6,125.1-169.1,187.8-253.7
		c3.8-5.1,6.7-11.2,13.8-15.2c2.8,8,1.6,15.3,1.6,22.3c0.1,97.2,0.1,194.4,0.1,291.6c0,6.7-0.3,13.3,0.3,20
		c0.4,4.4,1.9,8.6,3.2,13.7c7.5,0.3,14.1,0.7,20.7,0.7c28,0.1,56,0,84,0c76,0,152,0,227.9,0c7.8,0,15.8,1,23.9-2.1
		c0.6-3,1.6-5.5,1.6-8c0-350.2-0.1-700.3-0.2-1050.5c0-1.8-1.3-3.7-2-5.6c-7.4-4.8-15.6-3.1-23.4-3.1c-104-0.1-207.9-0.1-311.9-0.1
		c-22.3,0-20.8-1.7-34.7,17.1c-40.7,55.2-81.6,110.3-122.4,165.4c-38.8,52.5-77.6,105-116.5,157.3c-4.2,5.6-7.3,12.7-15.7,16
		c-4.4-5.5-8.7-10.4-12.6-15.7c-78.6-106.7-157.1-213.4-235.6-320.1c-16.5-22.4-12.7-20-39.2-20c-142.6-0.1-285.2,0-427.9,0
		c-5.3,0-10.7-0.3-16,0.3c-3.8,0.4-7.5,1.8-11.6,2.9c-0.5,5.3-1.4,9.8-1.4,14.4c-0.1,99.2-0.1,198.4,0,297.6c0,4.5,1.1,8.9,1.6,12.7
		c7.8,4.6,15.2,3.7,22.5,3.7c26,0.1,52,0,78,0.1C514.3,833.9,521.2,832.6,527.9,837.7z"/>
	<path class="st0" d="M3523.7,508.2c3,18.6,3.1,628.7,0.3,647.7c-3.9,0.9-8.2,2.7-12.6,2.9c-10.6,0.5-21.3,0.3-32,0.3
		c-48.6,0-97.3,0.1-145.9-0.1c-7.8,0-16,1.2-24.5-4c-0.3-6.8-0.8-14-0.8-21.2c-0.1-57.2,0-114.5-0.1-171.7c0-6.4,1.5-13.2-2.3-19.7
		c-6.7,0.2-8.9,5.6-11.9,9.6c-24,31.9-47.9,64-71.8,96c-23.5,31.5-47,63-70.5,94.4c-3.1,4.2-6.6,8.2-9.7,12.2
		c-7.5-1.5-9.6-7.7-13-12.3c-44.2-59.2-88.2-118.6-132.2-177.9c-4.4-5.9-8.7-11.8-13.4-17.4c-1.5-1.8-3.9-2.8-7-5
		c-4.1,8.4-2.7,15.7-2.7,22.7c-0.1,56.6,0,113.2-0.1,169.7c0,7.2,1.3,14.6-2,20.7c-6,4.8-12.2,3.9-18.1,3.9
		c-58.6,0.1-117.3,0.1-175.9,0c-5.9,0-11.7-0.9-17.8-1.4c-1.2-4.3-2.5-7.4-2.7-10.5c-0.4-6-0.2-12-0.2-18c0-132.5,0-264.9,0-397.4
		c0-7.9-0.3-15.8-0.4-22.4c-5-6.1-10.6-5.7-15.7-5.8c-12.7-0.3-25.3-0.1-38-0.2c-6.6-0.1-13.3,0.8-20.6-3.2
		c-0.5-3.1-1.7-6.9-1.7-10.7c-0.1-55.9-0.1-111.8-0.1-167.7c0-3.9,0.7-7.7,1.1-11.7c7.6-4,15-2.9,22.2-2.9
		c41.3-0.1,82.6-0.1,124-0.1s82.6,0,124,0c5.3,0,10.7,0.2,16,0.2c5,0,8.9,2.2,11.9,6.1c4.8,6.4,9.7,12.7,14.5,19.1
		c44.1,59.3,88.1,118.7,132.2,177.9c4.2,5.7,7.1,13,16.5,15.5c4.3-5.3,8.9-10.9,13.2-16.7c45.4-60.8,90.8-121.6,136.2-182.5
		c2-2.7,4.3-5.2,5.9-8c5.2-9.1,12.9-11.9,23.3-11.9c51.3,0.4,102.6,0.2,153.9,0.2c10.7,0,21.3-0.1,32,0.1
		C3512.2,507.1,3517.5,507.7,3523.7,508.2z"/>
	<path class="st0" d="M4360.5,510.2c6.4-4.5,13.2-3.2,19.8-3.3c119.4-1.5,177.7-0.5,191.2,2.9c0.4,0.5,1,0.9,1.3,1.5
		c0.3,0.6,0.4,1.3,0.5,1.9c0.3,3.3,0.6,6.6,0.6,9.9c0,208.4-0.1,416.7-0.2,625.1c0,1.9-0.6,3.9-1.1,6.9c-3.3,1.1-6.8,2.8-10.5,3.5
		c-3.9,0.7-8,0.4-12,0.4c-56,0-112,0.1-167.9,0c-7.2,0-14.7,1.2-21.5-3c-5.2-7-3.7-15.3-3.9-23.1c-0.8-40.1-6.6-79.5-17.1-118.2
		c-6.6-24.5-15.9-48-28.1-70.2c-17.8-32.6-41.6-60.1-71.5-82.3c-26.2-19.4-55.5-31.3-87.7-35.8c-5.9-0.8-11.9-2-17.6,1.8
		c-4.9,8.5-3.2,18.1-3.2,27.2c-0.1,91.2-0.1,182.4-0.1,273.6c0,6.6-0.2,13.3-0.6,19.9c-0.3,5.3-3.3,8.7-8.7,9.3
		c-5.3,0.6-10.6,0.8-15.9,0.8c-55.3,0.1-110.6,0.1-165.9,0c-7.2,0-14.7,1.2-22.5-3.7c-0.5-3-1.4-6.7-1.7-10.6
		c-0.3-5.3-0.1-10.6-0.1-16c0-197.7,0-395.4,0-593.1c0-8.5-0.9-17.2,1.6-26.6c4.7-0.7,9.2-1.9,13.6-1.9c105.4,0.1,206,21.7,300.6,69
		c17.8,8.9,34.9,19.5,51.6,30.4c23.6,15.4,44.2,34.2,60.9,57.1c2.2,3,5.1,5.6,7.7,8.3c6.2-3.4,4.6-8.6,4.7-12.8
		c0.3-39.3,0.2-78.6,0.5-117.8C4357.2,530.8,4356.2,520,4360.5,510.2z"/>
	<path class="st0" d="M6704.4,508.1c5.4-0.4,11.3-1.1,17.1-1.1c134,0,268,0.1,402,0c72.9-0.1,133.4,27.7,182.2,81
		c35.2,38.3,52.9,83.6,53.5,136.1c0.6,58.5-19.8,108-60.7,149.2c-36.1,36.4-79.3,59.7-130.2,68.8c-17.3,3.1-34.4,3.6-51.7,3.6
		c-57.3,0.2-114.7,0-172,0.1c-7.9,0-15.9-1.1-23.9,2.4c-4.1,6.8-2.8,14.3-2.9,21.4c-0.1,47.3-0.1,94.5-0.1,141.8
		c0,10.7,0.1,21.3-0.1,32c-0.1,3.9-0.7,7.8-1,10.5c-5.7,6.2-12,5.1-17.9,5.2c-18,0.2-36,0.1-54,0.1c-39.3,0-78.7,0.1-118,0
		c-7.2,0-14.4-0.6-22.3-1c-1.4-4.7-3-8.3-3.4-12.1c-0.6-5.3-0.2-10.6-0.2-16c0-198.4,0-396.8,0.1-595.3
		C6701,526.3,6699.3,517.4,6704.4,508.1z M6920.6,777.6c6.1,0.6,11.3,1.4,16.5,1.4c45.9,0.1,91.7,0.3,137.6-0.1
		c9.9-0.1,19.9-1.5,29.5-3.9c31.4-7.8,40.6-31.4,37.9-56.8c-2.2-20.7-14.2-34.1-33.9-39.8c-9.5-2.7-19.5-4.5-29.4-4.6
		c-48.5-0.5-97.1-0.3-145.6-0.1c-4.4,0-8.8,1.4-12.8,2C6916.8,692.7,6916.7,758.9,6920.6,777.6z"/>
	<path class="st0" d="M5563.4,507.8c3.2,17.5,3.7,171.4,0.8,192.4c-3.9,0.9-8.2,2.5-12.6,2.8c-8,0.5-16,0.2-24,0.2
		c-58.6,0-117.3-0.1-175.9,0.1c-17.3,0.1-34.7,0.3-51.9,2.2c-61.2,6.5-104.1,51.6-114.7,92.1c-10.8,41.2-4.9,79.4,22.8,112.6
		c23.5,28.2,53.3,45.8,90.4,49.6c11.9,1.2,23.8,2.5,35.8,2.6c68.6,0.2,137.3,0.1,205.9,0.2c7.9,0,15.9-1,24.6,2.4
		c3.2,21.1,1.1,42.3,1.5,63.3c0.4,20.6,0.1,41.3,0.1,61.9c0,21.3,0,42.5,0,64.8c-5.1,1.5-9.3,3.2-13.6,3.8c-5.3,0.7-10.6,0.3-16,0.3
		c-68.6,0-137.3,0.2-205.9-0.1c-21.3-0.1-42.8-0.2-63.9-2.9c-37-4.7-73-14.4-107-30.5c-57.2-27.1-104.5-66.1-141.3-117.4
		c-35.1-49-52.4-104.1-54.3-164.2c-3-94.2,31.4-172.7,99.3-237.2c51.5-49,112.2-80.3,181.9-94c23-4.5,46.2-5.7,69.6-5.7
		c76.6-0.1,153.3-0.1,229.9,0C5550.6,506.9,5556.6,507.5,5563.4,507.8z"/>
	<path class="st0" d="M6309.2,1156c-4.3,1.1-7.4,2.4-10.5,2.7c-5.3,0.5-10.7,0.4-16,0.4c-200.6,0-401.2,0-601.9,0
		c-7.9,0-15.8-0.6-24.3-1c-1.4-4.7-3-8.3-3.4-12.1c-0.6-5.3-0.2-10.6-0.2-16c0-198.4,0-396.8,0.1-595.2c0-8.5-2-17.4,3.3-26
		c2.1-0.5,4.6-1.7,7.2-1.7c65.3-0.1,130.6-0.1,195.9,0c2.5,0,5.1,1.1,7.7,1.7c4,7.2,2.6,14.6,2.6,21.8c0.1,55.3,0.1,110.5,0.1,165.8
		c0,79.2,0,158.4,0,237.7c0,7.9,0.3,15.8,0.5,24.3c4.6,1.5,8.2,3.4,11.9,3.7c6.6,0.6,13.3,0.4,20,0.4c126.6,0,253.3,0,379.9,0.1
		c8.5,0,17.2-1.2,26.6,2.3c0.6,3.8,1.6,7.6,1.6,11.4c0.1,55.9,0.1,111.8,0,167.8C6310.2,1147.3,6309.7,1150.6,6309.2,1156z"/>
	<path class="st0" d="M3613.7,1157.3c-0.6-6-1.3-9.9-1.4-13.8c-2.3-83.6-1-613.6,1.7-633.3c6.1-4.8,13.6-3.2,20.7-3.2
		c50-0.2,99.9-0.1,149.9-0.1c13.3,0,26.5,0.1,40.6,0.2c1.5,4.6,3.3,8.2,3.6,11.9c0.6,5.9,0.3,12,0.3,18c0,197,0,394,0,591
		c0,7.3,0,14.6-0.6,21.9c-0.5,5.4-3.6,8.1-9.2,8.8c-3.3,0.4-6.6,0.5-10,0.5c-59.3,0-118.6,0.1-177.9-0.1
		C3626.1,1159,3620.9,1158,3613.7,1157.3z"/>
	<path class="st0" d="M4660.3,508.9c7.7-0.8,12.8-1.8,18-1.9c87.2-2.1,178.7-1.1,196.1,2.4c0.8,2.9,2.1,6,2.4,9.2
		c0.5,4.6,0.3,9.3,0.3,14c0,200.3,0,400.7-0.1,601c0,7.8,1.9,16.1-4.2,23.8c-3.3,0.5-7.2,1.7-11.1,1.7
		c-64.6-0.2-129.2-0.4-193.8-0.9c-1.8,0-3.5-1.6-6.4-3c-0.4-5.4-1.1-11.3-1.2-17.1c-0.1-34.6-0.1-69.2-0.1-103.8
		c0-166.4,0-332.8,0-499.2C4660.3,527.1,4660.3,519.1,4660.3,508.9z"/>
	<path class="st0" d="M6399.4,509.4c5.2-1.2,7.7-2.2,10.2-2.2c63.9-0.1,127.9-0.2,191.8-0.1c3.2,0,6.4,1,10.6,1.6
		c0.7,4.1,1.6,7.9,1.8,11.6c0.3,5.3,0.1,10.6,0.1,16c0,197.6,0,395.1,0,592.7c0,8.5-0.3,17.1-0.4,26.3c-4.7,1.4-8.3,2.8-12.1,3.4
		c-3.9,0.6-8,0.3-12,0.4c-55.3,0-110.6,0.1-165.8,0c-24.9,0-25.3-0.4-25.3-26c0-200.2,0-400.5,0-600.7
		C6398.4,525.2,6399.1,518,6399.4,509.4z"/>
	<path class="st0" d="M4163.4,1335.9c15.2,0,27.7,0,40.3,0c6.3,3.7,7.3,10.7,9.7,16.7c19,46.8,37.7,93.8,56.5,140.7
		c3.2,7.9,6.6,15.7,9.6,22.6c7.3,1.6,8.4-2.8,9.9-6.4c10.5-25.9,21-51.8,31.4-77.7c10.5-25.9,20.9-51.8,31.4-77.7
		c2.5-6.1,5.3-12.1,8-18.2c4.8-0.4,8.8-1,12.7-1.1c8.6-0.2,17.3,0,26.6,0c1.5,4.3,3.3,7.8,3.7,11.5c0.7,5.2,0.4,10.6,0.4,15.9
		c0,59.9,0.1,119.8-0.1,179.7c0,7.9,1.4,16-3,24.5c-9,3.4-18.7,2-28.1,1.1c-5.7-5.2-4-11.6-4-17.3c-0.2-39.3,0-78.5-0.1-117.8
		c0-6.4,1.1-13.1-1.7-19.1c-5.9-0.2-7.1,3.9-8.5,7.4c-9.2,22.8-18.4,45.6-27.5,68.5c-8.2,20.4-16.2,40.8-24.4,61.1
		c-2.2,5.5-4.9,10.8-7.5,16.5c-10.2,2.5-20,1.8-29.7,0.8c-5.8-5.6-7.5-12.9-10.2-19.6c-15.9-39.5-31.6-79-47.6-118.4
		c-2.4-5.9-3.1-13-9.5-16.7c-5.2,2-4.1,6.4-4.1,10c-0.2,25.3-0.1,50.6-0.1,75.9c0,17.3,0.1,34.6-0.1,51.9
		c-0.1,5.2-0.9,10.3-1.5,15.8c-10.7,2.8-20.4,2.4-30.1,0.7c-4.7-7.1-3.6-14.6-3.6-21.8c-0.1-31.3-0.1-62.6-0.1-93.8
		c0-30.6-0.1-61.2,0.1-91.8C4162.3,1352.6,4162.9,1345.4,4163.4,1335.9z"/>
	<path class="st0" d="M3812.1,1344.1c1.4,1.4,6.6,7.2,7,16.2c0.5,10.7-6.3,17.7-7.5,18.8c-5.8-1.7-10.7-3.2-15.5-4.7
		c-19.3-6-38.7-8.8-59-6.1c-37.3,4.9-66.2,33.4-70.7,70.7c-2.9,24,2,46.3,16.7,66.1c25.9,35,72.7,39,103.9,21.2
		c23.5-13.4,34.9-37,31-64.5c-8-0.8-14.5-0.9-18.8-0.9c-9.2,0.1-42.8,1.2-48.2-3.4c-0.8-0.7-1.4-1.5-1.4-1.5c-2-2.8-1.7-6.1-1.9-7.6
		c-0.8-6-2-14.5,1.3-19.1c3.3-4.6,9.8-2.6,35.1-2.4c4.7,0,9.4-0.1,14.1,0c11.8,0.1,29.8,0.2,56.3-0.1c3,10.7,8.6,35.9,0,65.7
		c-2.9,10-11.1,37.2-37.6,57.6c-16.5,12.7-38,21.1-64.9,22.1c-44.9,1.7-80.7-15.4-104.5-53.9c-17.4-28.3-22.6-59.3-15.7-92.1
		c8.9-42.3,33.1-71.9,73.7-87.4c23.5-9,47.9-10.6,72.7-5.7c8.5,1.7,16.9,3.6,25.2,5.9C3806.4,1340,3809,1342.3,3812.1,1344.1z"/>
	<path class="st0" d="M3207.6,1335.7c14.9,0,27.4,0,39.4,0c9.3,15.7,48.9,119.2,83.1,216.5c1.5,4.2,2.5,8.6,3.7,12.9
		c-14,4.3-16.4,4.4-37.2,1.7c-2.5-6.1-5.2-12.8-7.8-19.6c-2.9-7.4-6.1-14.8-8.1-22.5c-3.1-11.5-9.9-15.9-21.8-15.6
		c-21.3,0.7-42.6,0.4-64,0.2c-9.3-0.1-14.6,3.8-17.6,12.7c-5.1,15-11,29.8-16.8,45.1c-12.6,2.2-24.3,1.7-36.8,0.5
		c0.2-3.4-0.2-6.2,0.6-8.5C3151.9,1485,3179.6,1410.9,3207.6,1335.7z M3260.1,1473c-2-13.8-19.5-65.1-27.8-81.9
		c-0.7-1.4-2.6-2.2-4.5-3.8c-7.4,8.2-8.7,18.4-12.4,27.5c-4.1,9.8-7.6,19.9-10.9,30c-3,9.2-8.7,17.8-7.5,28.1
		C3213.4,1475.9,3241.2,1476,3260.1,1473z"/>
	<path class="st0" d="M4075.1,1567.4c-4.4-11.6-9-23.3-13.3-35c-8.6-23.3-6.4-23-32.3-23.1c-18.6,0-37.2,0.2-55.9,0
		c-9.1-0.1-15.1,3.2-17.9,12.3c-3.4,10.8-7.5,21.3-11.5,31.8c-1.8,4.9-4.2,9.5-6.4,14.3c-12.1,0-23.3,0-34.5,0
		c-3.3-7,0.7-12.2,2.6-17.4c18.6-50.4,37.5-100.8,56.3-151.1c5.8-15.5,11.5-31.1,17.5-46.6c2.1-5.5,4.6-10.8,7.2-16.8
		c13.1,0,25.6,0,39.5,0c2.3,4.8,5.2,9.9,7.2,15.4c25.1,67.1,50.2,134.3,75.2,201.5c1.6,4.2,2.4,8.7,3.9,14.2
		C4099.7,1569.7,4088.1,1568.7,4075.1,1567.4z M4038.1,1472.4c-1.6-13.7-14.6-53.1-26.8-80.6c-0.7-1.5-2.7-2.4-3.8-3.5
		c-1.7,0.8-3.6,1.1-3.9,2c-9.4,24.8-18.7,49.7-27.8,74.6c-0.9,2.3-0.5,5.1-0.7,7.5C3991.3,1476.2,4023.4,1476.2,4038.1,1472.4z"/>
	<path class="st0" d="M4572,1534.7c5.1,11.4,4.6,21,1.4,31.6c-3.6,0.7-7.4,2-11.2,2.1c-33.3,0.2-66.6,0.1-100,0.1
		c-3.3,0-6.5-0.7-9.3-1c-5.5-6.2-4-13.1-4.1-19.6c-0.1-37.3-0.1-74.5-0.1-111.8c0-26.6-0.1-53.2,0.1-79.9c0-6.5-1.5-13.4,3.1-19.2
		c14.6-2.7,98-3.1,119.3-0.7c5.9,12.8,5.9,13.7,1.1,30.9c-4.1,0.4-8.5,1.3-13,1.4c-18,0.2-36,0-54,0.2c-5.8,0.1-11.6,0.9-16.9,1.4
		c-4,15.7-4.3,41.6-1,61.6c4,0.8,8.3,2.4,12.7,2.5c15.3,0.3,30.6,0.1,46,0.2c6.6,0,13.2,0.3,19.8,0.4c6.1,11,3,21.2,2.6,32.5
		c-27.8,2.7-54.4-0.6-80.1,2c-4.1,16.5-4.3,44.7-0.7,63.1c13.2,4.5,27.2,1.7,40.9,2.1C4542.6,1535.1,4556.6,1534.7,4572,1534.7z"/>
	<path class="st0" d="M2759.1,1336.2c5.2-0.5,9.1-1.3,13-1.3c20.6-0.1,41.3-0.2,61.9,0.1c5.9,0.1,12,0.8,17.7,2.2
		c38.4,9.6,59.5,42.5,52.5,81.4c-6.5,36.1-30.8,57-67.6,58.1c-8.7,0.2-17.3,0-26,0.2c-4.5,0.1-9.1,0.9-14.6,1.6
		c-0.9,4.9-2.4,9.2-2.4,13.6c-0.3,18.6-0.1,37.2-0.2,55.9c0,5.9-0.7,11.7-1.1,18c-11.3,4.2-21.6,1.9-33.1,2
		c-0.8-6.4-2.1-11.5-2.1-16.6c-0.1-66.5-0.1-133,0-199.5C2757.1,1346.8,2758.4,1341.7,2759.1,1336.2z M2794.5,1442.7
		c15.8,0,29.1,0.8,42.2-0.2c13.6-1,23.6-8.2,28.8-21.3c9.8-24.9-5.3-50-31.9-52.1c-10.6-0.8-21.3-0.2-31.9,0.2
		c-2.4,0.1-4.7,1.9-7.8,3.3C2793.3,1395.2,2792.6,1417.6,2794.5,1442.7z"/>
	<path class="st0" d="M4744.9,1343.6c2,10.6,1.9,21.6,0.1,33.9c-6-2.2-10.9-3.8-15.7-5.8c-10.5-4.4-21.3-7.4-32.9-7
		c-2.7,0.1-5.4-0.1-8,0.5c-13,2.7-24.3,7.8-27.8,22.2c-3.4,13.7,3.7,23.3,13.9,30.5c12.5,8.8,25.8,16.4,38.6,24.9
		c7.8,5.1,15.7,10.1,22.6,16.3c18.3,16.4,25.2,36.9,19.9,61.2c-5.4,25.1-20.8,41.1-45.2,48.3c-29.4,8.6-57.5,3.8-85-8.7
		c-1.1-12.4-2-23.4,0.3-34.3c6.8-1.6,10.9,2.5,15.6,4.5c13.6,5.6,27.5,10,42.6,8.7c3.9-0.3,7.9-0.9,11.7-2
		c22.8-6.6,33.1-32.2,11-50.8c-5.6-4.7-11.8-8.6-18-12.5c-12.9-8.2-26.1-16-38.9-24.4c-16.5-10.9-25.9-26.3-28.4-46
		c-3.2-24.8,9.6-50.2,31.3-62.1C4675,1328.4,4719.1,1325.8,4744.9,1343.6z"/>
	<path class="st0" d="M3453,1567.8c-11.4,0-20.6,0-29.3,0c-5.3-4.5-4.3-10.2-4.3-15.3c-0.2-22.6-0.5-45.3,0.1-67.9
		c0.3-11.8-2.6-22-8.6-32.1c-19-32-37.6-64.3-56.3-96.6c-3.3-5.6-6.2-11.5-9.8-18.1c6.5-4,12.5-2.5,18.2-2.8
		c6-0.2,11.9-0.1,19.1-0.1c9,15.7,17.8,31.3,26.8,46.8c8.6,14.7,15.1,30.9,27.7,45.3c3.8-5.1,7.2-8.9,9.7-13.3
		c11.5-20.2,22.8-40.6,34.2-60.9c3.2-5.7,6.9-11.3,10.4-17.1c11.9,0,23.1,0,34.2,0c3.4,5.4-0.6,8.9-2.8,12.7
		c-18.8,32.9-37.3,66-56.9,98.5c-8.2,13.6-12.4,27.3-11.6,43.3c1,19.2,0.3,38.6,0.2,57.9C3454,1553.8,3453.5,1559.7,3453,1567.8z"/>
	<path class="st0" d="M2951.4,1335.8c10.8,0,20.6,0,29.7,0c5.8,7.2,4,14.8,4,22c0.1,50.5,0.1,101,0.1,151.6c0,7.2,0.4,14.5,0.6,22.7
		c5.3,1,9.7,2.4,14.1,2.5c17.3,0.3,34.6,0.1,51.9,0.2c6.6,0,13.1,0.4,20.1,0.6c5.8,10.6,4.9,20.6,1.1,31.6
		c-20.7,3.3-41.2,1.1-61.7,1.5c-19.8,0.3-39.6,0.4-60.1-0.2c-1-6.2-2.3-10.7-2.3-15.2c-0.1-67.8-0.1-135.6,0-203.4
		C2949,1345.2,2950.5,1340.8,2951.4,1335.8z"/>
</g>
</svg>
