<svg id="Layer_1" data-name="Layer 1" xmlns="http://www.w3.org/2000/svg" viewBox="0 0 359.75 48.44"><defs><style>.cls-1{fill:#fff;}</style></defs><path class="cls-1" d="M30.75,37.73c0-3.35-.15-6.71,0-10,.45-7.89,7.26-13.5,15.45-12.87,8.37.63,14.15,7.31,13.26,15.31A14,14,0,0,1,43.6,42.24c-.32,0-.63-.1-1-.15-4-.59-4-.59-4,3.66s0,4.35-4.39,4.35c-3.54,0-3.54,0-3.54-3.52V37.73ZM45.29,21.88a6.48,6.48,0,0,0-6.71,6.6,6.6,6.6,0,0,0,6.52,6.84,6.37,6.37,0,0,0,6.52-6.52A6.39,6.39,0,0,0,45.29,21.88Z" transform="translate(-0.63 -1.66)"/><path class="cls-1" d="M105.28,28.52c0,3.83-.06,7.65,0,11.48,0,1.5-.48,2-1.92,1.85-2-.28-4.1-.57-6.16-.79-.35,0-.74.27-1.11.4a14.53,14.53,0,0,1-16.31-4.73,14,14,0,0,1,0-16.32c3.52-4.8,10.47-6.71,16.35-4.83,1.42.45,3.19-.27,4.8-.29,4.35,0,4.35,0,4.35,4.38Zm-13.6-6.64a6.37,6.37,0,0,0-6.59,6.66,6.49,6.49,0,0,0,6.28,6.78c3.73.1,6.2-2.48,6.29-6.58S95.43,21.93,91.68,21.88Z" transform="translate(-0.63 -1.66)"/><path class="cls-1" d="M133.39,30.64c-.25,0-1,0-1.32.42s-.09.87.21,1.54c1.3,2.91,5.53,4,8.72,2.23,1.4-.78,7.05,0,7.88,1.22.22.33-.29,1.39-.74,1.87-3.87,4.19-11.49,5.4-17.12,2.78-5.25-2.43-8.09-7.83-7.4-14,.86-7.76,7-12.58,15.35-12,7.44.49,12.05,5.87,11.87,13.77,0,.82-.07,1.44-.5,1.83a2,2,0,0,1-1.62.35C140.74,30.65,135,30.69,133.39,30.64Zm4-5.19c1.2,0,2.4-.05,3.59,0,2,.11,1.94-.88,1.15-2.17a6.22,6.22,0,0,0-7-2.26c-2,.77-3.65,2.84-3.21,3.78a1.35,1.35,0,0,0,1.36.65C134.64,25.43,136,25.45,137.34,25.45Z" transform="translate(-0.63 -1.66)"/><path class="cls-1" d="M29.49,28.63c0,7.87-6.19,13.71-14.41,13.69S.63,36.38.63,28.62,6.9,14.75,15.2,14.79,29.53,20.78,29.49,28.63Zm-20.88-.2c0,4,2.64,6.84,6.4,6.89a6.56,6.56,0,0,0,6.63-6.71,6.48,6.48,0,0,0-6.33-6.73A6.34,6.34,0,0,0,8.61,28.43Z" transform="translate(-0.63 -1.66)"/><path class="cls-1" d="M61.7,21.8c0-3.35.07-6.7,0-10-.05-1.5.48-2,1.92-1.84a15.22,15.22,0,0,0,1.91,0c2,0,3,0,3.48.49.73.67.74,2.09.76,3.31,0,.73-.07,1,.16,1.33.42.56,1.31.47,2.69.45.89,0,2.13,0,3.63.13a41.74,41.74,0,0,1-1.54,6.21c-.2.5-2,.56-3,.51-1.52-.08-2.12.33-2,2,.14,2.54,0,5.1.06,7.65,0,2,1.17,3.33,3.16,3,2.4-.43,3.15.88,4,2.61,1.67,3.36,1.74,3.32-1.77,4.1-8.21,1.81-13.26-2.15-13.4-10.54C61.65,28,61.7,24.91,61.7,21.8Z" transform="translate(-0.63 -1.66)"/><path class="cls-1" d="M140.37,8.41c-.8.06-1.59.14-2.39.19-2,.12-3.56-.69-3.79-2.78a3.2,3.2,0,0,1,2.94-3.71C145.67.58,153,3,158.78,9.37c4,4.39,5.6,9.7,5.7,15.6A5.2,5.2,0,0,1,164,27.4a3.57,3.57,0,0,1-2.22,2,3.53,3.53,0,0,1-3.31-1.51c-1-1.31-.8-2.91-.82-3.94C157.45,14.59,149.81,7.88,140.37,8.41Z" transform="translate(-0.63 -1.66)"/><path class="cls-1" d="M206.55,42.12c-8,0-13.59-5.58-13.59-13.5s5.85-13.79,13.73-13.68a13.2,13.2,0,0,1,13.47,13.71C220.14,36.57,214.52,42.13,206.55,42.12Zm10.31-13.46c0-6.3-4.23-10.77-10.29-10.79s-10.3,4.41-10.31,10.75,4.08,10.51,10.16,10.58S216.84,35,216.86,28.66Z" transform="translate(-0.63 -1.66)"/><path class="cls-1" d="M295.77,42.12c-8,0-13.61-5.57-13.62-13.47s5.82-13.8,13.7-13.71,13.5,5.79,13.5,13.68S303.75,42.11,295.77,42.12ZM285.45,28.68c0,6.24,4.15,10.49,10.23,10.53S306.05,35,306.05,28.6s-4.29-10.75-10.34-10.73S285.43,22.33,285.45,28.68Z" transform="translate(-0.63 -1.66)"/><path class="cls-1" d="M124.72,15.68c-.54,1.5-1,2.74-1.44,4-.6,1.94-1.3,3.4-3.89,3.09-2-.24-2.93,1.17-2.92,3.2,0,4.54,0,9.08,0,13.61,0,1.58-.47,2-2,2-5.91,0-5.91.07-5.91-5.71,0-4,0-8,0-11.94,0-4.76,2.76-7.85,7.5-8.23C118.84,15.49,121.63,15.68,124.72,15.68Z" transform="translate(-0.63 -1.66)"/><path class="cls-1" d="M350.69,42.12c-4.29-.11-8.05-1.31-10.26-5.34a2,2,0,0,1,.29-1.94c.82-.55,1.79-1.22,2.71.34a8.37,8.37,0,0,0,10.34,3.56,4.31,4.31,0,0,0,3.17-4.28,3.77,3.77,0,0,0-3.07-4c-3.12-.93-6.35-1.57-9.38-2.72-3.53-1.34-4.85-4.12-3.9-7.43a6.79,6.79,0,0,1,1.32-2.49c4.39-5,14.72-3.22,17.18,3,.4,1,.74,1.82-.81,2.35-1.34.45-1.72.17-2.2-1.08a7.33,7.33,0,0,0-10.62-3.13A4.15,4.15,0,0,0,343.73,22,4.3,4.3,0,0,0,346,25a53.25,53.25,0,0,0,7.17,1.77c6,1.45,8.66,5.68,6.5,10.66C358,41.32,354.46,42.05,350.69,42.12Z" transform="translate(-0.63 -1.66)"/><path class="cls-1" d="M180.7,42.12c-4.3-.1-8-1.32-10.27-5.32a2.06,2.06,0,0,1,.27-1.95c.8-.49,1.74-1.31,2.69.34A8.5,8.5,0,0,0,184,38.68a4.23,4.23,0,0,0,2.89-4.23,3.61,3.61,0,0,0-2.81-3.92c-2.37-.68-4.79-1.18-7.15-1.89A15.7,15.7,0,0,1,173,27a6,6,0,0,1-1.24-9c2.79-3.15,6.52-3.4,10.36-2.77a8.72,8.72,0,0,1,7,5.78c.43,1.09.47,1.7-.87,2.09-1,.3-1.59.56-2.13-.8a7.24,7.24,0,0,0-10.48-3.5A4.22,4.22,0,0,0,173.82,22a4.4,4.4,0,0,0,2.35,3.08c2.66,1,5.57,1.32,8.31,2.13,4.74,1.4,6.74,5,5.43,9.57C188.93,40.16,185.5,42.15,180.7,42.12Z" transform="translate(-0.63 -1.66)"/><path class="cls-1" d="M317.16,19.87c2.76-3.6,6.08-5.31,10.33-4.84,5,.56,8.05,3.69,8.23,8.91.19,5.42.1,10.85,0,16.28,0,.45-.91,1.12-1.51,1.29-1,.28-1.78.05-1.76-1.4.09-4.63,0-9.26,0-13.89,0-5.88-1.81-8.33-6.15-8.34a9.16,9.16,0,0,0-9.23,8.8q-.11,6.59,0,13.17c0,1.32-.32,1.75-1.7,1.76s-1.66-.62-1.65-1.85c0-7.51,0-15,0-22.51,0-1-.05-2.16,1.39-1.76.61.17,1.15,1.07,1.47,1.75A12,12,0,0,1,317.16,19.87Z" transform="translate(-0.63 -1.66)"/><path class="cls-1" d="M251.77,37.08c-2.24,3.1-4.8,4.87-8.35,5-5.56.19-9.48-3-9.7-8.57s-.11-11.16,0-16.74c0-.46.93-1.14,1.54-1.31,1.08-.29,1.75.11,1.72,1.48-.07,4.87,0,9.73,0,14.59,0,4.43,1.12,6.55,3.86,7.4a8.36,8.36,0,0,0,9.32-3.72,13.32,13.32,0,0,0,1.66-5.61c.24-4.13.12-8.28.05-12.43,0-1.31.29-1.8,1.7-1.81s1.65.67,1.65,1.9c0,7.41,0,14.83,0,22.24,0,.93.45,2.06-1.35,2.12-1.63.05-1.55-.9-1.67-1.92C252.06,39,251.94,38.28,251.77,37.08Z" transform="translate(-0.63 -1.66)"/><path class="cls-1" d="M260.08,23.16c0-3.91.08-7.81,0-11.71-.05-1.51.62-1.61,1.83-1.66s1.53.51,1.55,1.67c.05,3.94.1,3.94,4,3.94a4.73,4.73,0,0,1,1.89.07,1.71,1.71,0,0,1,1,1.42,1.65,1.65,0,0,1-1,1.45l-.7,0c-2.16.11-3.85.09-4.56.82s-.65,2-.65,4.57c0,3.5,0,7,0,10.51,0,3.8,1.41,5,5.23,4.51.55-.07,1.16.37,1.74.58-.44.76-.73,2-1.34,2.2-4.84,1.38-8.83-1.64-8.93-6.68C260,31,260.08,27.06,260.08,23.16Z" transform="translate(-0.63 -1.66)"/><path class="cls-1" d="M227.91,25.74c0,4.7,0,9.4,0,14.11,0,1.31-.31,1.75-1.7,1.76s-1.66-.61-1.65-1.85q.06-14.1,0-28.21c0-1.37.39-1.73,1.73-1.76,1.51,0,1.63.63,1.62,1.84C227.88,16.33,227.91,21,227.91,25.74Z" transform="translate(-0.63 -1.66)"/><path class="cls-1" d="M274.6,28.63c0-3.82,0-7.65,0-11.47,0-1.34.38-1.81,1.76-1.81s1.58.5,1.57,1.69q-.06,11.48,0,22.94c0,1.21-.28,1.64-1.58,1.64s-1.78-.4-1.75-1.76C274.66,36.11,274.6,32.37,274.6,28.63Z" transform="translate(-0.63 -1.66)"/><path class="cls-1" d="M137.34,25.45c-1.35,0-2.7,0-4.06,0s-1.83-.76-.93-1.53a13.63,13.63,0,0,1,4.86-2.87,4.33,4.33,0,0,1,4.87,2.23c.79,1.29.86,2.28-1.15,2.17C139.74,25.4,138.54,25.45,137.34,25.45Z" transform="translate(-0.63 -1.66)"/></svg>