<?xml version="1.0" encoding="utf-8"?>
<!-- Generator: Adobe Illustrator 25.4.1, SVG Export Plug-In . SVG Version: 6.00 Build 0)  -->
<svg version="1.1" id="Layer_1" xmlns="http://www.w3.org/2000/svg" xmlns:xlink="http://www.w3.org/1999/xlink" x="0px" y="0px"
	 viewBox="0 0 359.8 48.4" style="enable-background:new 0 0 359.8 48.4;" xml:space="preserve">
<style type="text/css">
	.st0{fill:#FFFFFF;}
</style>
<g>
	<path class="st0" d="M30.1,36.1c0-3.3-0.1-6.7,0-10c0.5-7.9,7.3-13.5,15.4-12.9c8.4,0.6,14.1,7.3,13.3,15.3
		c-1,7.7-8,13.1-15.7,12.1c-0.1,0-0.1,0-0.2,0c-0.3,0-0.6-0.1-1-0.2c-4-0.6-4-0.6-4,3.7s0,4.3-4.4,4.3c-3.5,0-3.5,0-3.5-3.5
		L30.1,36.1L30.1,36.1z M44.7,20.2c-3.6-0.1-6.6,2.7-6.7,6.2c0,0.1,0,0.2,0,0.4c-0.1,3.6,2.7,6.7,6.4,6.8c0.1,0,0.1,0,0.2,0
		c3.5,0.1,6.4-2.7,6.5-6.2c0-0.1,0-0.2,0-0.3c0.3-3.5-2.3-6.6-5.8-6.9C45,20.2,44.8,20.2,44.7,20.2z"/>
	<path class="st0" d="M104.7,26.9c0,3.8-0.1,7.7,0,11.5c0,1.5-0.5,2-1.9,1.8c-2-0.3-4.1-0.6-6.2-0.8c-0.3,0-0.7,0.3-1.1,0.4
		C89.6,41.9,83,40,79.2,35.1c-3.5-4.9-3.5-11.4,0-16.3c3.5-4.8,10.5-6.7,16.3-4.8c1.4,0.5,3.2-0.3,4.8-0.3c4.3,0,4.3,0,4.3,4.4V26.9
		z M91.1,20.2c-3.5-0.1-6.5,2.6-6.6,6.1c0,0.2,0,0.3,0,0.5c-0.2,3.6,2.6,6.6,6.2,6.8c0,0,0.1,0,0.1,0c3.7,0.1,6.2-2.5,6.3-6.6
		S94.8,20.3,91.1,20.2z"/>
	<path class="st0" d="M132.8,29c-0.2,0-1,0-1.3,0.4s-0.1,0.9,0.2,1.5c1.3,2.9,5.5,4,8.7,2.2c1.4-0.8,7.1,0,7.9,1.2
		c0.2,0.3-0.3,1.4-0.7,1.9c-3.9,4.2-11.5,5.4-17.1,2.8c-5.2-2.4-8.1-7.8-7.4-14c0.9-7.8,7-12.6,15.3-12c7.4,0.5,12.1,5.9,11.9,13.8
		c0,0.8-0.1,1.4-0.5,1.8c-0.5,0.3-1.1,0.5-1.6,0.4C140.1,29,134.4,29,132.8,29z M136.8,23.8c1.2,0,2.4,0,3.6,0
		c2,0.1,1.9-0.9,1.1-2.2c-1.6-2.2-4.4-3.1-7-2.3c-2,0.8-3.6,2.8-3.2,3.8c0.3,0.5,0.8,0.7,1.4,0.6C134,23.8,135.4,23.8,136.8,23.8
		L136.8,23.8z"/>
	<path class="st0" d="M28.9,27c0,7.9-6.2,13.7-14.4,13.7S0,34.7,0,27s6.3-13.9,14.6-13.8S28.9,19.1,28.9,27z M8,26.8
		c0,4,2.6,6.8,6.4,6.9c3.6,0,6.6-2.9,6.6-6.5c0-0.1,0-0.1,0-0.2c0.1-3.6-2.6-6.6-6.2-6.7c0,0-0.1,0-0.1,0c-3.5-0.2-6.5,2.5-6.7,6
		C8,26.4,8,26.6,8,26.8z"/>
	<path class="st0" d="M61.1,20.1c0-3.4,0.1-6.7,0-10c0-1.5,0.5-2,1.9-1.8c0.6,0,1.3,0,1.9,0c2,0,3,0,3.5,0.5
		c0.7,0.7,0.7,2.1,0.8,3.3c0,0.7-0.1,1,0.2,1.3c0.4,0.6,1.3,0.5,2.7,0.4c0.9,0,2.1,0,3.6,0.1c-0.4,2.1-0.9,4.2-1.5,6.2
		c-0.2,0.5-2,0.6-3,0.5c-1.5-0.1-2.1,0.3-2,2c0.1,2.5,0,5.1,0.1,7.6c0,2,1.2,3.3,3.2,3c2.4-0.4,3.2,0.9,4,2.6
		c1.7,3.4,1.7,3.3-1.8,4.1c-8.2,1.8-13.3-2.2-13.4-10.5C61,26.3,61.1,23.2,61.1,20.1z"/>
	<path class="st0" d="M139.7,6.8c-0.8,0.1-1.6,0.1-2.4,0.2c-2,0.1-3.6-0.7-3.8-2.8c-0.3-1.7,0.9-3.4,2.6-3.7c0.1,0,0.2,0,0.3,0
		c8.5-1.5,15.9,0.9,21.6,7.3c4,4.4,5.6,9.7,5.7,15.6c0,0.8-0.1,1.7-0.5,2.4c-0.4,1-1.2,1.7-2.2,2c-1.3,0.1-2.6-0.4-3.3-1.5
		c-1-1.3-0.8-2.9-0.8-3.9C156.8,12.9,149.2,6.2,139.7,6.8z"/>
	<path class="st0" d="M205.9,40.5c-8,0-13.6-5.6-13.6-13.5s5.9-13.8,13.7-13.7c7.3-0.2,13.3,5.6,13.5,12.9c0,0.3,0,0.5,0,0.8
		C219.5,34.9,213.9,40.5,205.9,40.5z M216.2,27c0-6.3-4.2-10.8-10.3-10.8s-10.3,4.4-10.3,10.8s4.1,10.5,10.2,10.6
		S216.2,33.3,216.2,27z"/>
	<path class="st0" d="M295.1,40.5c-8,0-13.6-5.6-13.6-13.5s5.8-13.8,13.7-13.7s13.5,5.8,13.5,13.7S303.1,40.5,295.1,40.5z M284.8,27
		c0,6.2,4.1,10.5,10.2,10.5s10.4-4.2,10.4-10.6s-4.3-10.8-10.3-10.7S284.8,20.7,284.8,27z"/>
	<path class="st0" d="M124.1,14c-0.5,1.5-1,2.7-1.4,4c-0.6,1.9-1.3,3.4-3.9,3.1c-2-0.2-2.9,1.2-2.9,3.2c0,4.5,0,9.1,0,13.6
		c0,1.6-0.5,2-2,2c-5.9,0-5.9,0.1-5.9-5.7c0-4,0-8,0-11.9c0-4.8,2.8-7.9,7.5-8.2C118.2,13.8,121,14,124.1,14z"/>
	<path class="st0" d="M350.1,40.5c-4.3-0.1-8-1.3-10.3-5.3c-0.2-0.7-0.1-1.4,0.3-1.9c0.8-0.5,1.8-1.2,2.7,0.3
		c2.1,3.6,6.5,5.1,10.3,3.6c1.9-0.5,3.2-2.3,3.2-4.3c0.2-1.9-1.2-3.6-3.1-4c-3.1-0.9-6.4-1.6-9.4-2.7c-3.5-1.3-4.9-4.1-3.9-7.4
		c0.3-0.9,0.7-1.8,1.3-2.5c4.4-5,14.7-3.2,17.2,3c0.4,1,0.7,1.8-0.8,2.4c-1.3,0.5-1.7,0.2-2.2-1.1c-1.7-3.7-6-5.3-9.7-3.6
		c-0.3,0.1-0.6,0.3-0.9,0.5c-1,0.7-1.6,1.8-1.7,3c0.3,1.3,1.1,2.4,2.3,3c2.3,0.8,4.7,1.3,7.2,1.8c6,1.5,8.7,5.7,6.5,10.7
		C357.4,39.7,353.8,40.4,350.1,40.5z"/>
	<path class="st0" d="M180.1,40.5c-4.3-0.1-8-1.3-10.3-5.3c-0.2-0.7-0.1-1.4,0.3-2c0.8-0.5,1.7-1.3,2.7,0.3
		c2.2,3.6,6.7,5.1,10.6,3.5c1.8-0.6,3-2.3,2.9-4.2c0.2-1.8-1-3.5-2.8-3.9c-2.4-0.7-4.8-1.2-7.1-1.9c-1.4-0.4-2.7-0.9-3.9-1.6
		c-2.8-1.8-3.6-5.5-1.8-8.3c0.2-0.2,0.3-0.5,0.5-0.7c2.8-3.1,6.5-3.4,10.4-2.8c3.2,0.5,5.9,2.7,7,5.8c0.4,1.1,0.5,1.7-0.9,2.1
		c-1,0.3-1.6,0.6-2.1-0.8c-1.5-3.7-5.7-5.5-9.4-4c-0.4,0.1-0.7,0.3-1.1,0.5c-1.1,0.7-1.7,1.9-1.8,3.2c0.3,1.3,1.1,2.5,2.4,3.1
		c2.7,1,5.6,1.3,8.3,2.1c4.7,1.4,6.7,5,5.4,9.6C188.3,38.5,184.9,40.5,180.1,40.5z"/>
	<path class="st0" d="M316.5,18.2c2.8-3.6,6.1-5.3,10.3-4.8c5,0.6,8,3.7,8.2,8.9c0.2,5.4,0.1,10.9,0,16.3c0,0.5-0.9,1.1-1.5,1.3
		c-1,0.3-1.8,0-1.8-1.4c0.1-4.6,0-9.3,0-13.9c0-5.9-1.8-8.3-6.1-8.3c-4.9,0-9,3.9-9.2,8.8c-0.1,4.4-0.1,8.8,0,13.2
		c0,1.3-0.3,1.8-1.7,1.8s-1.7-0.6-1.6-1.8c0-7.5,0-15,0-22.5c0-1,0-2.2,1.4-1.8c0.6,0.2,1.1,1.1,1.5,1.8
		C316.2,16.4,316.4,17.3,316.5,18.2z"/>
	<path class="st0" d="M251.1,35.4c-2.2,3.1-4.8,4.9-8.4,5c-5.6,0.2-9.5-3-9.7-8.6s-0.1-11.2,0-16.7c0-0.5,0.9-1.1,1.5-1.3
		c1.1-0.3,1.8,0.1,1.7,1.5c-0.1,4.9,0,9.7,0,14.6c0,4.4,1.1,6.5,3.9,7.4c3.6,1,7.4-0.5,9.3-3.7c1-1.7,1.5-3.6,1.7-5.6
		c0.2-4.1,0.1-8.3,0.1-12.4c0-1.3,0.3-1.8,1.7-1.8s1.6,0.7,1.6,1.9c0,7.4,0,14.8,0,22.2c0,0.9,0.4,2.1-1.4,2.1
		c-1.6,0-1.6-0.9-1.7-1.9C251.4,37.3,251.3,36.6,251.1,35.4z"/>
	<path class="st0" d="M259.4,21.5c0-3.9,0.1-7.8,0-11.7c0-1.5,0.6-1.6,1.8-1.7s1.5,0.5,1.5,1.7c0,3.9,0.1,3.9,4,3.9
		c0.6-0.1,1.3-0.1,1.9,0.1c0.6,0.3,0.9,0.8,1,1.4c0,0.6-0.4,1.2-1,1.5H268c-2.2,0.1-3.9,0.1-4.6,0.8s-0.6,2-0.6,4.6
		c0,3.5,0,7,0,10.5c0,3.8,1.4,5,5.2,4.5c0.5-0.1,1.2,0.4,1.7,0.6c-0.4,0.8-0.7,2-1.3,2.2c-4.8,1.4-8.8-1.6-8.9-6.7
		C259.4,29.3,259.4,25.4,259.4,21.5z"/>
	<path class="st0" d="M227.3,24.1c0,4.7,0,9.4,0,14.1c0,1.3-0.3,1.8-1.7,1.8s-1.7-0.6-1.6-1.8c0-9.4,0-18.8,0-28.2
		c0-1.4,0.4-1.7,1.7-1.8c1.5,0,1.6,0.6,1.6,1.8C227.2,14.7,227.3,19.3,227.3,24.1z"/>
	<path class="st0" d="M274,27c0-3.8,0-7.6,0-11.5c0-1.3,0.4-1.8,1.8-1.8s1.6,0.5,1.6,1.7c0,7.7,0,15.3,0,22.9c0,1.2-0.3,1.6-1.6,1.6
		s-1.8-0.4-1.8-1.8C274,34.5,274,30.7,274,27z"/>
	<path class="st0" d="M136.7,23.8c-1.4,0-2.7,0-4.1,0s-1.8-0.8-0.9-1.5c1.4-1.3,3.1-2.3,4.9-2.9c1.9-0.5,4,0.5,4.9,2.2
		c0.8,1.3,0.9,2.3-1.1,2.2C139.1,23.7,137.9,23.8,136.7,23.8z"/>
</g>
</svg>
