<svg id="Layer_1" data-name="Layer 1" xmlns="http://www.w3.org/2000/svg" viewBox="0 0 2055.83 232.69"><defs><style>.cls-1{fill:#fff;}</style></defs><path class="cls-1" d="M9.27,242.49q0-115.72,0-231.45A7.6,7.6,0,0,1,9.59,9.8H481.27V242.49Zm124.49-74c0-7.84,0-15.67,0-23.5,0-6.16-2.55-9.46-7.12-9.51s-7.26,3.44-7.27,9.37q0,24,0,48c0,5.82,2.93,9.45,7.37,9.33,4.28-.12,7-3.57,7-9.19C133.8,184.83,133.76,176.66,133.76,168.5Zm-12.68-50.63c-.93-1-2.31-3.41-4.39-4.62C102.2,104.82,87.58,96.6,73,88.39c-4.65-2.62-8.44-1.72-10.65,2.21S61.26,98.09,66,100.86c7.76,4.49,15.58,8.88,23.38,13.3,6.79,3.85,13.52,7.79,20.39,11.48C115.37,128.64,121.32,125.23,121.08,117.87ZM138.56,128a52.86,52.86,0,0,0,5.61-2.31q21.57-12.47,43.07-25.07c4.67-2.74,5.81-6.4,3.52-10.33s-6-4.67-10.73-2c-8.94,5.11-17.82,10.32-26.73,15.49-5.74,3.34-11.54,6.6-17.2,10.08-2.94,1.81-4.71,4.72-3,8C134.34,124.29,136.76,126.06,138.56,128Zm-4.82-55.13c0-4.15.14-8.3,0-12.44-.2-4.43-3.22-7.51-7-7.56-4-.05-7.19,3.2-7.27,7.85q-.21,11.94,0,23.88c.08,4.63,3.32,7.87,7.31,7.79,3.83-.07,6.79-3.12,7-7.58C133.88,80.85,133.74,76.86,133.74,72.88Zm-64.57,95.4c2.17-.39,3.1-.33,3.79-.72,8.23-4.61,16.59-9,24.55-14.08,3.15-2,3-5.73,1-8.93s-5.41-4.31-8.65-2.62c-7.92,4.15-15.77,8.51-23.23,13.42-1.7,1.12-2.79,5.07-2.24,7.23C65,164.94,67.78,166.74,69.17,168.28Zm95.24-27.7c-1.73,1.88-4.11,3.64-5.32,6-1.71,3.32.11,6.15,3,8,6.91,4.29,13.84,8.53,20.87,12.61,4,2.34,7.7,1.36,9.93-2.22,2.34-3.78,1.44-7.52-2.78-10.16-6.6-4.14-13.3-8.14-20-12.09C168.77,141.89,167.11,141.56,164.41,140.58Z" transform="translate(-9.27 -9.8)"/><path class="cls-1" d="M485.27,242.49V121.19h31v43.56c9.44,0,18.55,1.22,27.21-.26,16.1-2.75,26.35-17.56,25.14-34-1.28-17.47-12.7-30-29.48-30.84-15.46-.78-31-.35-46.46-.45h-6.7l9.75-9.78c6-6,12-12.06,18.07-18,1.12-1.09,2.7-2.43,4.07-2.43,14.27-.07,28.61-1.14,42.38,4.43,28.65,11.58,44.11,40.87,38.11,72.84-5.3,28.26-31.62,49.49-61.41,49.52H516.27v46.74Z" transform="translate(-9.27 -9.8)"/><path class="cls-1" d="M1187.14,82.46V22.81H1225V209.92c0,6.46,0,6.46-6.59,6.46h-20c-9.89,0-9.89,0-9.89-9.66V200.2c-2.16,3.4-3.61,5.9-5.26,8.25-7.31,10.39-17.1,13.26-29.47,10.6-16.61-3.58-23-15.16-26.82-30s-5.24-30.14-5.37-45.44c-.15-18,1.27-36,6-53.37,5.63-20.76,27.34-31.61,46.51-20.43,5.36,3.12,8.3,7.76,11.31,12.65.44.54.89,1.08,1.33,1.63C1186.89,83.54,1187,83,1187.14,82.46Zm-28.42,59,.78.06c0,4.67-.43,9.38.09,14a174.57,174.57,0,0,0,3.73,23c1.6,6.26,5.84,8.64,10.91,9.1,6.87.62,7.9-5,10.24-9,1.12-1.93,1.43-4.42,1.77-6.7,2.74-18.22,2.2-36.52.69-54.78a36.57,36.57,0,0,0-3.39-11.91c-4.39-9.54-12.56-9.78-17.13-3.48-2.17,3-4.43,6.47-4.92,10C1160.09,121.53,1159.58,131.51,1158.72,141.43Z" transform="translate(-9.27 -9.8)"/><path class="cls-1" d="M1897.55,75h19.65v15c17.59-23.39,59-26.95,70.75-.34,3.55-3.09,7.31-6.39,11.1-9.64,12-10.33,36.43-10.43,47.81-4.64,13.1,6.67,17.73,17.8,17.94,30.82.56,35,.19,70,.17,105a22.31,22.31,0,0,1-.45,3.14h-22c0-2.26,0-4.21,0-6.16q0-48-.14-96a31.24,31.24,0,0,0-.59-5.94c-2.68-13.65-7-16.28-19.84-16.59-10.52-.26-19.77,2.91-25.57,12.3-2.07,3.35-3.89,7.54-3.93,11.36-.33,31.49-.21,63-.22,94.47v6.38h-21.81c0-1.86,0-3.79,0-5.71,0-31.82,0-63.64-.18-95.47a29.23,29.23,0,0,0-1.37-9.32c-3.12-9.06-6.78-13.8-19.56-14-10.65-.18-19.91,2.71-26.59,11.86-4,5.43-5.18,11.43-5.2,17.83q-.07,44.23,0,88.47v6.38h-19.93Z" transform="translate(-9.27 -9.8)"/><path class="cls-1" d="M1325.24,112.14H1290.9c-.72-4.24-1.07-8.37-2.17-12.29-1.43-5.13-5.57-6.65-10.51-6.59-4.72.06-9.43,1.16-11.48,5.57-3.84,8.24,1.21,18.33,9.9,21.67,8.94,3.44,17.92,6.83,26.63,10.8,12.81,5.84,19.51,16.57,21.68,30.09s.91,27.19-6.4,39c-6.38,10.35-16.14,16.86-28.75,18.12-5.73.57-11.57,2.21-17.18,1.62-12.32-1.28-24.94-2.79-33.64-13.33a41.36,41.36,0,0,1-5.7-9.67c-3.74-8.58-4.09-17.68-3.73-27.27h33.27c.83,4.57,1.47,9.3,2.58,13.91,1.34,5.53,5.19,8.56,10.6,8.89,6.31.39,10.58-2,12.85-7.35,3.9-9.09.43-18.55-8.44-22.84-10.86-5.26-21.88-10.21-32.57-15.78-10.24-5.35-14.54-14.82-16.54-25.76a56.65,56.65,0,0,1,3.41-32.79C1238,80.42,1244,74.71,1252.32,71a66,66,0,0,1,28.56-5.5c12.55.22,24,3.58,33.11,12.4a29.31,29.31,0,0,1,7,12.35C1323,97.14,1323.8,104.38,1325.24,112.14Z" transform="translate(-9.27 -9.8)"/><path class="cls-1" d="M1396.79,69.4V100H1380c-.12,2.11-.3,3.71-.3,5.3q0,33,0,65.95c0,1.49.11,3,.23,4.47.79,10.1,5.18,12.36,13,11.68,1.13-.1,2.29,0,3.77,0v28.92c-13.64,1.81-27.29,3.69-40.77-.94-8.58-2.95-11.81-10.28-13.27-18.43a84.77,84.77,0,0,1-1.21-14.41c-.12-25.47-.06-50.95-.06-76.43v-5.93h-14.89V69.83h14.84V27h38.22V69.4Z" transform="translate(-9.27 -9.8)"/><path class="cls-1" d="M888.11,145.16c2.61,9.89,7.38,17,15.83,21.17,2.71,1.33,3.46,2.87,3.4,5.69-.18,7.46-.06,14.94-.06,22.87-13.49-2.06-24.94-7.49-33.95-17-17.88-18.93-21.76-41.63-14.63-65.9,6.82-23.25,23.26-37,46.91-42.06,39.46-8.36,73.73,19.56,74.3,60.49.05,3.48-.47,7-.41,10.47s-1.48,4.39-4.83,4.37c-26.84-.12-53.67-.07-80.5-.07Zm60-24.62c-1.44-14-13.42-23.78-28.63-24-13.26-.18-28.33,7.2-31,24Z" transform="translate(-9.27 -9.8)"/><path class="cls-1" d="M734.75,82.28c4.81,8.33,9.73,16.59,14.28,25,.53,1-.62,3.26-1.54,4.56-13.16,18.65-5.85,44.77,14.86,51.76,12.64,4.27,24.6,2.28,34.2-7.3,10.17-10.14,12.2-22.75,7.54-36-4.44-12.62-13.9-19.5-27.29-20.84-1-.09-1.94-.32-3.2-.54V69.56c20.25-2.56,50.69,12.25,60.55,42.49,10.45,32.05-5.1,66.54-35.61,79-31.21,12.77-66.95,0-81.71-29.28S712.43,97.18,734.75,82.28Z" transform="translate(-9.27 -9.8)"/><path class="cls-1" d="M1653.76,145.54H1582c.53,8.36.82,16.4,1.62,24.39a84.49,84.49,0,0,0,2.84,15.15c2,6.93,6.37,13,13.18,15.16,8.48,2.67,17.37,3.22,24.62-4.3,6.37-6.61,7.75-14.86,8.09-23.34.17-4,1.38-5.26,5.26-5,5,.28,9.93.07,15.86.07-.38,4.21-.72,7.91-1.06,11.61-1,11.65-5,22.28-14.24,29.56-5.31,4.16-12,7.73-18.49,8.89a68.09,68.09,0,0,1-24.73-.36c-16.09-3.23-26.23-17.55-29.93-33.47-3.62-15.61-4.35-31.28-3.77-47.09.54-14.62,1.67-29.28,8.26-42.69,7.38-15,19.19-22.95,36.48-22.82,10,.07,19.77.47,28.08,6.48,7.67,5.55,13.93,13.06,15.64,22.33,2.44,13.16,3.09,26.65,4.42,40A35,35,0,0,1,1653.76,145.54Zm-21.52-16.22c0-4.27.55-8.18-.12-11.85-1.25-6.81-1.82-14.3-5.18-20-7.35-12.59-25.83-13.65-35.43-2.49-3.06,3.56-5,8.5-6.22,13.13-1.76,6.78-2.4,13.85-3.59,21.26Z" transform="translate(-9.27 -9.8)"/><path class="cls-1" d="M1507.94,145.56h-71.48c-.41,18.46-1.57,36.78,11.92,51.47,5.25,5.71,13,5.48,20.15,4.19,8.64-1.55,16.1-11.26,17.77-22.19.55-3.58.92-7.19,1.45-11.41H1507c1.39,8.87-1.19,16.69-3.56,24.61s-7.55,13.93-13.74,18.93c-3,2.43-7,3.7-10.63,5.32-15.21,6.76-40.27,1.49-50.4-11.68a60.77,60.77,0,0,1-12.26-31.24c-2-20.38-3.11-40.95,1.19-61.13,1.87-8.79,5.12-17.85,10-25.29,6-9.13,15.3-15.15,27-15.63,4.66-.19,9.37.3,14-.14,11.9-1.11,29.06,12.18,33.27,24,5.49,15.49,6.71,31.06,6.38,47.07C1508.26,143.28,1508.11,144.09,1507.94,145.56Zm-71.41-16.32H1488c-1.42-8.87-2-17.39-4.29-25.38-2.13-7.3-6.19-13.78-14.91-15.76-5.37-1.22-18.34.67-21.32,4.08C1438.27,102.72,1435.36,115.13,1436.53,129.24Z" transform="translate(-9.27 -9.8)"/><path class="cls-1" d="M1079.17,12.58v30H1036V68.72h43V99h-43.37V131.9h-31.09c-.1-1.21-.24-2.17-.24-3.14,0-27.48-.07-55,.11-82.44a9.49,9.49,0,0,1,2.66-5.91c9-9.14,18.19-18.06,27.32-27.06l.94-.84,0,0Z" transform="translate(-9.27 -9.8)"/><path class="cls-1" d="M1544.19,27.7v187c-6,0-11.8.12-17.56-.12-.9,0-2-1.63-2.52-2.72-.41-.79-.1-2-.1-3q0-87.66-.08-175.33c0-4.4.86-6.37,5.71-5.92S1539.18,27.7,1544.19,27.7Z" transform="translate(-9.27 -9.8)"/><path class="cls-1" d="M652.05,132.32H621c0-10.54-.08-20.82.09-31.09,0-1.25,1.19-2.68,2.17-3.67q13.16-13.32,26.48-26.48c1-1,2.44-2.13,3.69-2.14,14.28-.15,28.55-.1,43.15-.1V99.6H652.05Z" transform="translate(-9.27 -9.8)"/><path class="cls-1" d="M620.62,153.67h31.31v35.47H620.62Z" transform="translate(-9.27 -9.8)"/><path class="cls-1" d="M1004.42,189.17V153.82H1036v35.35Z" transform="translate(-9.27 -9.8)"/><path class="cls-1" d="M928.49,170.76l17.77-11.32L965,178.18c-9.57,10.68-22,15.78-36.46,17.51Z" transform="translate(-9.27 -9.8)"/><path class="cls-1" d="M1187.14,82.46c-.12.54-.25,1.08-.37,1.62-.44-.55-.89-1.09-1.33-1.63Z" transform="translate(-9.27 -9.8)"/><path class="cls-1" d="M1829.77,70.77h0A51.79,51.79,0,0,0,1778,122.56v45.2a51.79,51.79,0,0,0,51.79,51.79h0a51.79,51.79,0,0,0,51.79-51.79v-45.2A51.79,51.79,0,0,0,1829.77,70.77ZM1859.4,172a29.63,29.63,0,0,1-29.63,29.64h0A29.64,29.64,0,0,1,1800.13,172V118.33a29.64,29.64,0,0,1,29.64-29.63h0a29.63,29.63,0,0,1,29.63,29.63Z" transform="translate(-9.27 -9.8)"/><path class="cls-1" d="M1745.26,119.49a1.56,1.56,0,0,0,.55.07h15.6a1.43,1.43,0,0,0,1,0c1-.44,1.46-2.25,1.06-4.5a54.89,54.89,0,0,0-12.35-27.42l-.31-.35c-.52-.59-1.06-1.17-1.62-1.75l-.4-.41-.84-.83-.58-.54a46.94,46.94,0,0,0-29.46-12.44c-.54,0-1.09,0-1.64,0h0c-26.4,0-47.8,23.19-47.8,51.79v45.2c0,28.6,21.4,51.78,47.8,51.78h0c.55,0,1.1,0,1.64,0a46.91,46.91,0,0,0,29.46-12.43l.58-.55.84-.83c.14-.13.27-.27.4-.41.56-.58,1.1-1.16,1.62-1.75l.31-.35a54.89,54.89,0,0,0,12.35-27.42c.4-2.25-.09-4.06-1.06-4.49a1.36,1.36,0,0,0-1,0h-15.6a1.56,1.56,0,0,0-.55.07c-1.43.47-1.75,3.06-1.81,3.66v.12c0,.25-.06.58-.11.94a30.8,30.8,0,0,1-5.47,14.11l-.21.29c-.24.32-.48.63-.73.94l-.29.37c-.34.41-.68.81-1,1.2h0c-.44.47-.89.92-1.36,1.36l-.21.2a26.07,26.07,0,0,1-17,7.1l-.75,0h0c-9.44,0-17.76-5.19-22.68-13.07a30.67,30.67,0,0,1-3.44-7.76,31.84,31.84,0,0,1-1.23-8.81V118.81a31.84,31.84,0,0,1,1.23-8.81,30.83,30.83,0,0,1,3.44-7.76c4.92-7.88,13.24-13.06,22.68-13.06h0c.18,0,.45,0,.75,0a26.07,26.07,0,0,1,17,7.1l.21.19c.47.44.92.89,1.36,1.36h0c.36.38.7.78,1,1.19l.29.37c.25.31.49.62.73.95l.21.28a30.8,30.8,0,0,1,5.47,14.11c.05.36.09.69.11.94v.12C1743.51,116.43,1743.83,119,1745.26,119.49Z" transform="translate(-9.27 -9.8)"/></svg>