<svg id="Layer_1" data-name="Layer 1" xmlns="http://www.w3.org/2000/svg" viewBox="0 0 481.63 128.12"><defs><style>.cls-1{fill:#fff;}</style></defs><path class="cls-1" d="M62.14,95.07H44.89L43,60.34a49.57,49.57,0,0,1,.48-8.93h-.23a50.77,50.77,0,0,1-3.11,8.93L23.48,95.07h-17L2.18,31H20.26V67.83a63,63,0,0,1-.71,9.52h.23a52.63,52.63,0,0,1,3.45-9.52L40.6,31H55.83l1.55,36.88A64.86,64.86,0,0,1,57,77.35h.23a72.58,72.58,0,0,1,3.1-9.4L76.17,31H92.94Z" transform="translate(-2.18 -1.69)"/><path class="cls-1" d="M186.56,51.05l-9.16,44H159l9.15-44.85a10.48,10.48,0,0,0,.36-2.61c0-3.57-2.26-6.31-8.09-6.31a27.18,27.18,0,0,0-8.09,1.31l-11,52.46H122.79l12.62-60.55c6.9-2.86,16.65-4.76,27.59-4.76,17.25,0,24.16,6.54,24.16,16.18a25.65,25.65,0,0,1-.6,5.11" transform="translate(-2.18 -1.69)"/><path class="cls-1" d="M233.66,43h-9.87l-6.9,33.31a11.33,11.33,0,0,0-.36,2.73c0,2.74,1.54,4.52,4.76,4.52a9.88,9.88,0,0,0,4.05-.83l-2.26,11.54A24.52,24.52,0,0,1,213.56,96c-11.18,0-15.83-6.18-15.83-14.15a23.57,23.57,0,0,1,.6-4.88l6.89-34h-6.89l2.38-12h7.14l2.73-13.68,19.63-4.76L226.29,31h9.87Z" transform="translate(-2.18 -1.69)"/><path class="cls-1" d="M287.19,82c-5.95,8.8-15,14.27-27.12,14.27-15.23,0-23.08-9.75-23.08-23.67,0-9.39,3.45-21.06,8.68-28.68,6.07-8.91,15.23-14.15,27-14.15,15.24,0,23.21,9.64,23.21,23.56A56.25,56.25,0,0,1,287.19,82M271.13,41.3c-5,0-8.56,3.81-11.06,9.52A70.18,70.18,0,0,0,255,74.37c0,5.48,1.66,9.27,6.9,9.27s8.45-3.56,10.95-9.27C275.42,68.31,278,57.25,278,50.7c0-5.47-1.8-9.4-6.91-9.4" transform="translate(-2.18 -1.69)"/><path class="cls-1" d="M354.88,91.5c-6.07,2.86-15.83,4.76-26.89,4.76-15.82,0-23.68-5.24-23.68-16.41a31.29,31.29,0,0,1,.6-6.43L313.83,31h18.56l-9,43.78a15.74,15.74,0,0,0-.48,3.09c0,3.33,1.79,6,7.5,6a20.22,20.22,0,0,0,7.85-1.31L348.92,31h18.57Z" transform="translate(-2.18 -1.69)"/><path class="cls-1" d="M415.42,44.27a11.3,11.3,0,0,0-6.67-2.14c-4.87,0-9.27,2.74-12.6,8.57A44.47,44.47,0,0,0,391,70.58c0,7.84,3.21,12,8.33,12A16.29,16.29,0,0,0,408,80.08l1.55,11.42c-3.09,2.62-8.57,4.76-15.95,4.76-12.49,0-21.4-9.51-21.4-24.62a53.17,53.17,0,0,1,8.91-28.32c6.43-9,15.47-13.56,24.75-13.56,7.26,0,13.33,2.62,15.47,4.76Z" transform="translate(-2.18 -1.69)"/><path class="cls-1" d="M483.23,50.59l-9.29,44.48H455.39l9.27-44.85a8.62,8.62,0,0,0,.36-2.49c0-3.69-2-6.66-7.85-6.66a18.63,18.63,0,0,0-8.33,2L438,95.07H419.46L438.84,1.69h18.57L450.87,33.1a37.21,37.21,0,0,1,14.63-3.34c12.37,0,18.32,6.31,18.32,15.59a28,28,0,0,1-.59,5.24" transform="translate(-2.18 -1.69)"/><path class="cls-1" d="M126.77,109.78a3.89,3.89,0,0,0-2.47-.79,3.13,3.13,0,0,0-3.23,3c0,2.91,5,2,5,5.94,0,2.88-2.39,5.59-6.31,5.59a6.64,6.64,0,0,1-3.85-1.11l1-1.6a4.74,4.74,0,0,0,2.91.84,3.51,3.51,0,0,0,3.61-3.4c0-3-4.86-2-4.86-5.94a5.74,5.74,0,0,1,9.08-4Z" transform="translate(-2.18 -1.69)"/><path class="cls-1" d="M131.25,123.26h-2.56L132,107.57h2.53Zm2.56-18.69a1.13,1.13,0,0,1-1.22-1.13,1.83,1.83,0,0,1,1.8-1.69,1.18,1.18,0,0,1,1.25,1.13,1.84,1.84,0,0,1-1.83,1.69" transform="translate(-2.18 -1.69)"/><path class="cls-1" d="M157.94,112l-2.33,11.3h-2.56L155.4,112a5.13,5.13,0,0,0,.09-.93c0-1.16-.61-2.09-2.5-2.09a5.15,5.15,0,0,0-3.52,1.51l-2.65,12.81h-2.56l2.38-11.41a3.38,3.38,0,0,0,.06-.76c0-1.34-.87-2.15-2.88-2.15a7.7,7.7,0,0,0-2.91.52L138,123.26h-2.56l3.08-14.88a14,14,0,0,1,5.68-1.1c2.24,0,3.61.78,4.31,1.89a8.21,8.21,0,0,1,5.26-1.89c3.12,0,4.25,1.6,4.25,3.61a7.76,7.76,0,0,1-.11,1.07" transform="translate(-2.18 -1.69)"/><path class="cls-1" d="M171.26,120.05a7.8,7.8,0,0,1-8.87,3.06l-1.34,6.4h-2.54l4.4-21.13a11.23,11.23,0,0,1,5-1.1c3.64,0,5.59,2.12,5.59,5.56a13.45,13.45,0,0,1-2.27,7.21m-3.64-11.2a5.49,5.49,0,0,0-2.35.47l-2.56,12.28a4.48,4.48,0,0,0,1.77.29,5.5,5.5,0,0,0,4.86-2.94,13.67,13.67,0,0,0,1.69-6.43c0-2.3-1-3.67-3.41-3.67" transform="translate(-2.18 -1.69)"/><polygon class="cls-1" points="175.71 121.57 173.18 121.57 177.92 98.72 180.45 98.72 175.71 121.57"/><path class="cls-1" d="M185.23,129.51h-2.77l3.87-6.28-2-15.66H187l.9,11.29a11.68,11.68,0,0,1,0,2H188a11.56,11.56,0,0,1,.79-2l5.7-11.29H197Z" transform="translate(-2.18 -1.69)"/><path class="cls-1" d="M207.43,123.26h-2.56l3.26-15.69h2.53ZM210,104.57a1.13,1.13,0,0,1-1.22-1.13,1.83,1.83,0,0,1,1.8-1.69,1.18,1.18,0,0,1,1.25,1.13,1.84,1.84,0,0,1-1.83,1.69" transform="translate(-2.18 -1.69)"/><path class="cls-1" d="M225.33,112.11,223,123.25h-2.56L222.79,112a4.81,4.81,0,0,0,.09-.9c0-1.16-.73-2.12-2.76-2.12a8.77,8.77,0,0,0-3,.52l-2.88,13.79h-2.56l3.08-14.87a14.39,14.39,0,0,1,5.79-1.1c3.58,0,4.92,1.63,4.92,3.66a5.79,5.79,0,0,1-.11,1.17" transform="translate(-2.18 -1.69)"/><path class="cls-1" d="M240.86,112.11l-2.32,11.14H236L238.33,112a4.81,4.81,0,0,0,.09-.9c0-1.16-.73-2.12-2.76-2.12a8.77,8.77,0,0,0-3,.52l-2.88,13.79h-2.56l3.08-14.87a14.35,14.35,0,0,1,5.79-1.1c3.58,0,4.92,1.63,4.92,3.66a5.17,5.17,0,0,1-.12,1.17" transform="translate(-2.18 -1.69)"/><path class="cls-1" d="M254.37,120.05a6.87,6.87,0,0,1-6,3.5c-3.35,0-4.83-2.16-4.83-5.3a15.53,15.53,0,0,1,2.07-7.51,6.8,6.8,0,0,1,6-3.46c3.35,0,4.83,2.12,4.83,5.27a15.68,15.68,0,0,1-2.06,7.5m-2.94-11.14c-1.81,0-3.06,1.22-3.87,2.88a17.55,17.55,0,0,0-1.55,6.69c0,1.84.61,3.29,2.59,3.29s3-1.19,3.82-2.82a18.27,18.27,0,0,0,1.57-6.81c0-1.84-.61-3.23-2.56-3.23" transform="translate(-2.18 -1.69)"/><path class="cls-1" d="M264,123.26h-2.33l-1.95-15.69h2.65l1,11.26a15.55,15.55,0,0,1,0,1.89h.05a10.46,10.46,0,0,1,.73-1.89l5.68-11.26h2.47Z" transform="translate(-2.18 -1.69)"/><path class="cls-1" d="M283.17,122.44a10.48,10.48,0,0,1-5,1.11c-3.76,0-5.65-2.24-5.65-5.62a13.21,13.21,0,0,1,2.5-7.48,8,8,0,0,1,6.55-3.17,9,9,0,0,1,4.54,1.1Zm-1.89-13.62a5.2,5.2,0,0,0-4.45,2.71,13.14,13.14,0,0,0-1.78,6.46c0,2.36,1,3.87,3.38,3.87a5.36,5.36,0,0,0,2.44-.5l2.51-12.1a4.25,4.25,0,0,0-2.1-.44" transform="translate(-2.18 -1.69)"/><path class="cls-1" d="M296.27,109.14h-2.71l-2.1,10.24a4.6,4.6,0,0,0-.08.79,1.34,1.34,0,0,0,1.51,1.51,3.42,3.42,0,0,0,.82-.14l-.32,1.66a4.68,4.68,0,0,1-1.46.23c-2.3,0-3.14-1.37-3.14-3a5,5,0,0,1,.11-1.08l2.1-10.24h-1.78l.32-1.57h1.81l.73-3.61,2.76-.79-.93,4.4h2.71Z" transform="translate(-2.18 -1.69)"/><path class="cls-1" d="M299.26,123.26H296.7L300,107.57h2.53Zm2.56-18.69a1.14,1.14,0,0,1-1.22-1.13,1.84,1.84,0,0,1,1.81-1.69,1.19,1.19,0,0,1,1.25,1.13,1.85,1.85,0,0,1-1.84,1.69" transform="translate(-2.18 -1.69)"/><path class="cls-1" d="M317.16,112.11l-2.33,11.14h-2.56L314.63,112a4.77,4.77,0,0,0,.08-.9c0-1.16-.72-2.12-2.76-2.12a8.81,8.81,0,0,0-3,.52L306,123.25h-2.56l3.09-14.87a14.32,14.32,0,0,1,5.79-1.1c3.58,0,4.92,1.63,4.92,3.66a5.17,5.17,0,0,1-.12,1.17" transform="translate(-2.18 -1.69)"/><path class="cls-1" d="M330.19,123.58c-.81,4-3.43,6.22-7.24,6.22a9.76,9.76,0,0,1-4.72-1.1l1-1.57a7.76,7.76,0,0,0,3.58.81,4.7,4.7,0,0,0,4.77-4.07l.27-1.08a7.07,7.07,0,0,1-3.18.67c-3.08,0-4.94-2-4.94-5.38a13.74,13.74,0,0,1,2.32-7.34,8,8,0,0,1,6.73-3.46,9,9,0,0,1,4.51,1.07Zm-1.6-14.76a5.27,5.27,0,0,0-4.59,3,14.46,14.46,0,0,0-1.72,6.52c0,2.3,1,3.58,3.26,3.58a5.76,5.76,0,0,0,2.65-.64l2.5-12a4.15,4.15,0,0,0-2.1-.41" transform="translate(-2.18 -1.69)"/><path class="cls-1" d="M94.76,106.63C88.7,106.63,83,111.5,83,117.1c0,4,3.33,7.13,8.21,7.13,6.18,0,11.77-4.87,11.77-10.36,0-4-3.32-7.24-8.21-7.24" transform="translate(-2.18 -1.69)"/><polygon class="cls-1" points="99.98 29.27 86.77 93.39 105.21 93.39 118.53 29.27 99.98 29.27"/><path class="cls-1" d="M117.77,1.74C111.69,1.74,106,6.62,106,12.21c0,4.05,3.33,7.13,8.21,7.13C120.38,19.34,126,14.46,126,9c0-4.06-3.33-7.26-8.2-7.26" transform="translate(-2.18 -1.69)"/></svg>