<?xml version="1.0" encoding="utf-8"?>
<!-- Generator: Adobe Illustrator 25.4.1, SVG Export Plug-In . SVG Version: 6.00 Build 0)  -->
<svg version="1.1" id="Camada_1" xmlns="http://www.w3.org/2000/svg" xmlns:xlink="http://www.w3.org/1999/xlink" x="0px" y="0px"
	 viewBox="0 0 25.4 10.5" style="enable-background:new 0 0 25.4 10.5;" xml:space="preserve">
<style type="text/css">
	.st0{fill:#E73B2E;}
</style>
<g>
	<path class="st0" d="M20,0.3c0.2,0,0.3,0,0.5,0c0.1,0,0.2,0,0.3,0c0.6,0,1.1,0.1,1.6,0.3c0.5,0.2,1,0.5,1.4,0.9
		C24.2,2,24.4,2.5,24.6,3c0,0,0.1,0,0.1,0c0,0,0,0.1,0,0.2c0,0.1,0.1,0.1,0.1,0.2c0,0.3-0.1,0.7-0.1,1c-0.3,0-0.5-0.1-0.8-0.1
		C24,4,24,3.7,24,3.3c0-0.1,0.2-0.1,0.2-0.3c0,0,0-0.1,0.1-0.1c-0.2-0.5-0.4-1-0.8-1.4c-0.4-0.4-0.9-0.7-1.5-0.9
		c-0.5-0.1-1-0.2-1.5-0.2c-1,0-2,0.3-2.9,0.7c0,0.1,0,0.1,0,0.1c0,0-0.1,0.1-0.1,0.1c0,0.1,0,0.1-0.1,0.2c-0.3,0.1-0.5,0.2-0.8,0.4
		c-0.1-0.3-0.2-0.5-0.4-0.8c0.3-0.1,0.6-0.3,0.8-0.4c0.1,0,0.1,0,0.2,0c0.1,0,0.1,0,0.2,0c0.1,0,0.1,0,0.1,0.1
		C18.3,0.6,19.1,0.4,20,0.3z"/>
	<path class="st0" d="M15.6,1.5c0.2-0.1,0.3-0.2,0.5-0.2c0.1,0.2,0.2,0.5,0.3,0.7c-0.2,0.1-0.5,0.2-0.7,0.3c-0.1,0-0.1,0.1-0.2,0.1
		c-0.1,0-0.2-0.1-0.2-0.1c0,0-0.1,0-0.1,0c0,0-0.1-0.1-0.1-0.1c-0.3,0.2-0.6,0.3-0.9,0.5c-0.2,0.2-0.4,0.4-0.5,0.6
		c-0.1,0.2-0.2,0.5-0.2,0.7c0,0.1,0,0.2,0,0.4c0.1,0.1,0.1,0.2,0.2,0.4c0,0,0.1,0.1,0.1,0.1c0-0.2,0-0.5,0-0.7
		c0-0.2,0.1-0.5,0.3-0.6c0.3-0.3,0.7-0.4,1.1-0.2c0.2,0.1,0.4,0.2,0.5,0.4c0.1,0.2,0.1,0.3,0.1,0.5c0,1,0,2.1,0,3.1
		c0,0.2,0,0.3,0,0.5c0,0.3-0.2,0.5-0.4,0.7c-0.3,0.2-0.6,0.3-1,0.1c-0.4-0.1-0.7-0.5-0.7-0.9c0-0.2,0-0.5,0-0.7c0,0,0,0.1-0.1,0.2
		c-0.1,0.4-0.4,0.7-0.7,1c-0.3,0.3-0.8,0.5-1.2,0.5c-0.4,0-0.7,0-1.1,0c-0.3-0.1-0.6-0.2-0.8-0.4C9.8,8.3,9.7,8.2,9.5,8.1
		C9.2,8.4,8.9,8.7,8.5,9c-0.9,0.6-2,1-3.1,1.1c-0.2,0-0.4,0-0.6,0C4.4,10.1,4,10,3.5,9.8C2.9,9.6,2.3,9.2,1.8,8.6
		c-0.1,0-0.1,0-0.2,0c0,0-0.1-0.1-0.1-0.1c-0.1,0-0.1,0-0.2-0.1C1.2,8.1,1.1,7.9,1,7.6c0.2-0.1,0.5-0.3,0.7-0.4
		C1.8,7.5,1.9,7.8,2.1,8c0.1,0.1-0.1,0.2,0,0.3c0,0,0,0.1,0,0.1c0.1,0.1,0.2,0.2,0.3,0.3c0.4,0.4,0.9,0.7,1.5,0.9
		c0.7,0.2,1.5,0.2,2.2,0C6.7,9.5,7.3,9.3,7.9,9c0.5-0.3,0.9-0.6,1.3-0.9C9.2,8,9.3,7.9,9.4,7.9C9.2,7.6,9.1,7.3,9,7C9,7,9,7,9,7
		c0,0.3-0.2,0.6-0.3,0.8C8.5,8,8.4,8.2,8.2,8.3C7.8,8.6,7.3,8.8,6.9,8.8c-0.1,0-0.2,0-0.4,0c-0.5,0-1-0.2-1.4-0.5
		C4.7,7.9,4.4,7.4,4.4,6.8c0-0.1,0-0.2,0-0.4c0-0.2,0.1-0.5,0.3-0.6c0.2-0.2,0.4-0.3,0.7-0.3c0.2,0,0.3,0,0.5,0.1
		C5.6,5.1,5.3,4.7,5,4.3C4.8,4.1,4.6,3.9,4.3,3.7C3.8,3.3,3.2,3.1,2.6,3.1c-0.2,0-0.5,0-0.7,0.1C1.6,3.4,1.3,3.6,1,3.8
		C0.7,4.2,0.5,4.8,0.5,5.3c0,0.3,0.1,0.5,0.2,0.8c0.1,0,0.1,0,0.2,0c0,0.1,0.1,0.1,0.2,0.1c0.1,0,0.1,0,0.1,0.1
		c0.1,0.3,0.3,0.6,0.4,0.8C1.4,7.3,1.2,7.4,0.9,7.5C0.8,7.3,0.6,7,0.5,6.7c0-0.1,0-0.2,0-0.2c0,0,0-0.1,0-0.1c0,0,0-0.1,0-0.1
		C0.4,5.8,0.2,5.4,0.3,5c0-0.4,0.2-0.9,0.4-1.2c0.4-0.5,1-0.8,1.7-0.9c0.4,0,0.9,0,1.3,0.2c0.6,0.2,1.1,0.6,1.5,1
		C5.6,4.6,6,5.3,6.3,5.9c0,0.1,0.1,0.2,0.1,0.3c0,0.1,0,0.2,0.1,0.4c0,0.1,0,0.2,0.1,0.2c0.1,0,0.2,0,0.2,0c0.1,0,0.1-0.1,0.1-0.2
		c0-0.6,0-1.3,0-1.9c0-0.2,0-0.3,0-0.5c0.1-0.5,0.5-0.8,1-0.8c0.2,0,0.5,0.1,0.7,0.2C8.8,3.7,9,4,9,4.3c0,0.3,0,0.5,0,0.8
		C9,5.1,9,5,9.1,4.9c0.2-0.5,0.5-0.9,1-1.2c0.3-0.2,0.7-0.3,1.1-0.3c0.3,0,0.7,0,1,0.1c0.3,0.1,0.5,0.2,0.8,0.4
		c0.1,0.1,0.2,0.2,0.3,0.3c0-0.2,0.1-0.5,0.2-0.7c0.2-0.4,0.5-0.7,0.8-0.9c0.2-0.2,0.5-0.3,0.7-0.4c0-0.1,0-0.1,0-0.2
		c0.1-0.1,0.1-0.2,0.2-0.3C15.4,1.6,15.5,1.6,15.6,1.5z M7.9,3.7C7.5,3.7,7.2,4,7.2,4.4c0,0.7,0,1.5,0,2.2c0,0.2-0.1,0.3-0.2,0.4
		C6.9,7.1,6.7,7.1,6.6,7.1C6.5,7.1,6.3,7,6.3,6.9C6.2,6.8,6.1,6.7,6.1,6.5c0-0.3-0.2-0.5-0.4-0.6C5.6,5.8,5.4,5.8,5.3,5.8
		C5.1,5.8,4.9,6,4.8,6.2C4.7,6.3,4.7,6.5,4.7,6.7C4.7,7.2,5,7.6,5.3,8C5.5,8.2,5.7,8.3,6,8.4c0.2,0.1,0.4,0.1,0.6,0.1
		c0.4,0,0.7,0,1.1-0.2C7.9,8.2,8.1,8,8.2,7.8C8.4,7.5,8.6,7.3,8.6,7c0-0.2,0-0.3,0-0.5c0-0.7,0-1.4,0-2.1c0-0.2-0.1-0.4-0.3-0.6
		C8.2,3.7,8.1,3.7,7.9,3.7z M10.6,3.8c-0.3,0.1-0.5,0.2-0.7,0.4C9.5,4.6,9.3,5.1,9.2,5.6c0,0.2,0,0.4,0,0.6c0,0.2,0,0.4,0.1,0.7
		c0.1,0.2,0.2,0.5,0.3,0.7c0.3-0.3,0.6-0.6,1.1-0.7C11,6.8,11.4,6.8,11.7,7c0.3,0.1,0.5,0.4,0.5,0.7c0,0.2,0,0.4-0.1,0.5
		c-0.1,0.1-0.2,0.2-0.3,0.3c0.2,0,0.4-0.1,0.5-0.2c0.3-0.2,0.6-0.5,0.8-0.8c0.2-0.3,0.3-0.7,0.3-1c0-0.2,0-0.5,0-0.7
		c0-0.2,0-0.4-0.1-0.5c-0.1-0.3-0.2-0.5-0.4-0.8c-0.2-0.2-0.3-0.4-0.6-0.5c-0.2-0.1-0.5-0.2-0.8-0.3C11.4,3.7,10.9,3.7,10.6,3.8z
		 M15.1,5.5c-0.3,0.1-0.7,0.1-1,0c0,0.1,0,0.2,0,0.3c0,0.6,0,1.3,0,1.9c0,0.2,0.1,0.4,0.2,0.5c0.1,0.1,0.3,0.2,0.5,0.2
		c0.2,0,0.3-0.1,0.5-0.2c0.1-0.1,0.2-0.3,0.2-0.4c0-0.9,0-1.8,0-2.6C15.4,5.3,15.3,5.4,15.1,5.5z"/>
	<path class="st0" d="M16.4,3.5c0.3-0.2,0.6-0.2,0.9-0.1c0.2,0.1,0.4,0.2,0.5,0.3c0.2,0.3,0.5,0.6,0.7,0.9c0-0.2,0-0.4,0-0.6
		c0.1-0.3,0.2-0.5,0.5-0.6c0.2-0.1,0.5-0.2,0.7-0.1c0.3,0,0.5,0.2,0.7,0.4c0.1,0.1,0.2,0.3,0.2,0.4c0,0.1,0,0.2,0,0.2
		c0,1.1,0,2.2,0,3.2c0,0.1,0,0.2,0,0.3c-0.1,0.3-0.3,0.6-0.6,0.8c-0.2,0.1-0.4,0.1-0.6,0.1c0.4,0.4,0.9,0.7,1.4,0.9
		c0.3,0.1,0.6,0.2,1,0.2c0.5,0,1.1-0.1,1.5-0.5c0.1-0.1,0.2-0.2,0.3-0.3c0,0,0,0,0-0.1c0-0.1,0-0.1,0-0.1c0-0.1-0.1-0.1-0.1-0.2
		c0-0.3,0.1-0.6,0.1-0.9C23.8,7.9,24,8,24.3,8c0,0.3-0.1,0.6-0.1,0.9C24.2,9,24.1,9,24,9.1c0,0,0,0.1-0.1,0.1c0,0-0.1,0-0.1,0.1
		c-0.3,0.4-0.8,0.7-1.3,0.9c-0.6,0.1-1.2,0.1-1.7-0.1c-0.6-0.2-1.1-0.6-1.5-1C19.2,9,19.1,8.9,19,8.8c-0.1-0.1-0.2-0.2-0.3-0.3
		c-0.1-0.1-0.2-0.2-0.3-0.3c-0.2-0.2-0.3-0.4-0.5-0.7c0,0.2,0,0.3,0,0.5c-0.1,0.3-0.2,0.5-0.5,0.7c-0.3,0.2-0.6,0.2-0.9,0.1
		c-0.4-0.1-0.7-0.5-0.7-0.9c0-0.2,0-0.3,0-0.5c0-1,0-2,0-3.1C15.9,4,16.1,3.7,16.4,3.5z M16.5,3.9c-0.1,0.1-0.2,0.3-0.2,0.5
		c0,1.1,0,2.3,0,3.4c0,0.2,0.1,0.4,0.3,0.5c0.2,0.2,0.6,0.2,0.8,0.1c0.2-0.1,0.3-0.3,0.3-0.6c0-0.4,0-0.8,0-1.2
		c0.5,0.5,0.8,1,1.2,1.6c0,0.1,0.1,0.1,0.1,0.2c0.1,0.1,0.3,0.2,0.5,0.2c0.2,0,0.5-0.1,0.6-0.3c0.1-0.1,0.1-0.3,0.1-0.4
		c0-1.1,0-2.2,0-3.2c0-0.1,0-0.2,0-0.4c0-0.1-0.1-0.3-0.3-0.4c-0.2-0.1-0.5-0.2-0.7-0.1c-0.1,0-0.2,0.1-0.3,0.2
		c-0.1,0.1-0.1,0.3-0.1,0.4c0,0.4,0,0.8,0,1.2c-0.4-0.4-0.8-1-1.2-1.5c-0.1-0.1-0.1-0.2-0.2-0.3C17.1,3.6,16.7,3.6,16.5,3.9z"/>
	<path class="st0" d="M25.1,5.3c0-0.3-0.1-0.6-0.3-0.8c-0.3,0-0.7-0.1-1-0.1c-0.2,0.2-0.4,0.5-0.5,0.7c-0.2,0.5-0.3,1.1-0.3,1.7
		c0,0.3,0.1,0.7,0.3,1c0,0,0,0,0.1,0c0.3,0,0.6,0.1,0.9,0.1c0.2-0.2,0.4-0.5,0.5-0.7c0.1-0.3,0.2-0.6,0.3-0.9
		C25.1,6,25.1,5.6,25.1,5.3z"/>
</g>
</svg>
