<?xml version="1.0" encoding="utf-8"?>
<!-- Generator: Adobe Illustrator 23.1.0, SVG Export Plug-In . SVG Version: 6.00 Build 0)  -->
<svg version="1.1" id="Camada_1" xmlns="http://www.w3.org/2000/svg" xmlns:xlink="http://www.w3.org/1999/xlink" x="0px" y="0px"
	 viewBox="0 0 172 59" style="enable-background:new 0 0 172 59;" xml:space="preserve">
<style type="text/css">
	.st0{fill:#FFFFFF;}
</style>
<g>
	<g>
		<path class="st0" d="M81.8,26.6c0-1.5-1.3-2.4-2.8-2.4h-2.5c-1.5,0-2.8,1.2-2.8,2.8v6.5c0,1.5,1.2,2.8,2.8,2.8H79
			c1.5,0,2.8-0.7,2.8-2.4h2.4c0,2.1-1.5,4.7-5,4.7h-2.8c-2.8,0-5-2.3-5-5.1V27c0-2.8,2.3-5.2,5.2-5.2H79c2.8,0,5.2,2,5.2,4.7H81.8z"
			/>
		<path class="st0" d="M90.8,31.5v2.2c0,1.6,1.5,2.5,3,2.5h2.6c1.2,0,1.9-0.4,2.3-1.7h2.5c-0.6,2.2-2.3,4-4.7,4h-2.8
			c-2.8,0-5.1-2.1-5.1-4.9v-6.7c0-2.8,2.3-5.1,5.2-5.1h2.5c2.8,0,5.2,2.3,5.2,5.2v4.5H90.8z M98.9,26.9c0-1.5-1.3-2.7-2.8-2.7h-2.5
			c-1.5,0-2.8,1.2-2.8,2.7v2.4h8.1V26.9z"/>
		<path class="st0" d="M114.5,38.6h-5.2c-2.2,0-4-1.8-3.9-4h2.4c0,1,0.7,1.7,1.8,1.7h5c1,0,1.7-0.8,1.7-1.8V33c0-1-0.7-1.7-1.7-1.7
			h-4.7c-2.3,0-4-1.8-4-4.1v-1.3c0-2.4,1.9-4.1,4.1-4.1h3.9c2.3,0,4.1,1.9,4.1,4.1h-2.4c0-0.9-0.7-1.8-1.9-1.8h-3.8
			c-1,0-1.7,0.7-1.7,1.7v1.4c0,1,0.7,1.7,1.7,1.7h4.8c2.3,0,3.9,1.7,3.9,4v1.5C118.6,36.8,116.8,38.6,114.5,38.6z"/>
		<path class="st0" d="M123,18.1v-2.8h2.8v2.8H123z M123.2,38.4V22.1h2.4v16.2H123.2z"/>
		<path class="st0" d="M133.1,22.1v11.5c0,1.5,1.2,2.7,2.7,2.7h2.8c1.5,0,2.8-0.9,2.8-2.5V22.1h2.4v16.2h-2.4v-1.2
			c-0.8,0.8-1.6,1.4-3.2,1.4h-2.5c-2.8,0-5-2.2-5-5.1V22.1H133.1z"/>
		<path class="st0" d="M156.1,24.2h-2.5c-1.5,0-2.7,1-2.7,2.5v11.7h-2.4V22.1h2.4v1.2c0.8-0.8,1.6-1.5,3.1-1.5h2.2
			c0.8,0,2.4,0.6,3.6,1.9c1.3-1.4,2.2-1.9,4-1.9h1.9c2.8,0,5,2.2,5,5v11.5h-2.4V26.9c0-1.5-1-2.7-2.5-2.7h-2.1
			c-1.6,0-2.8,1.1-2.8,2.7v11.5h-2.4V26.9C158.6,25.4,157.5,24.3,156.1,24.2z"/>
	</g>
	<path class="st0" d="M17.4,33.6l-7.2-4.2V21L26,30.2v8.4L17.4,33.6z M19.4,5.1l7.2-4.2L51,14.9L26.7,29l-15.8-9.1l7.2-4.2l8.6,4.9
		l9.9-5.7L19.4,5.1z M18.1,5.8l15.8,9.1l-7.2,4.2l-8.6-4.9l-8.6,4.9l-7.2-4.2L18.1,5.8z M1.6,16.1l7.2,4.2v9.9l8.6,4.9l0,8.4
		L1.6,34.3V16.1z M1.6,35.9l17.1,9.9l0-9.9l7.2,4.2v18.2L1.6,44.2V35.9z M27.3,58.3V40.1l15.8-9.1v8.4l-8.6,4.9v9.9L27.3,58.3z
		 M51.7,44.2l-15.8,9.1V45l15.8-9.1V44.2z M44.5,38.5v-7.6l6.6,3.8L44.5,38.5z M51.7,24.5L27.3,38.5l0-8.4l24.4-14.1V24.5z"/>
</g>
</svg>
