<svg id="Layer_1" data-name="Layer 1" xmlns="http://www.w3.org/2000/svg" xmlns:xlink="http://www.w3.org/1999/xlink" viewBox="0 0 158.98 120.96"><defs><style>.cls-1{fill:none;}.cls-2{clip-path:url(#clip-path);}.cls-3{clip-path:url(#clip-path-2);}.cls-4{fill:#14130f;}.cls-5{clip-path:url(#clip-path-4);}.cls-6,.cls-7{fill:#fff;}.cls-6{fill-rule:evenodd;}</style><clipPath id="clip-path"><rect class="cls-1" x="-86.57" y="433.11" width="2000" height="2000"/></clipPath><clipPath id="clip-path-2"><rect class="cls-1" x="-459.69" y="59.98" width="2746.25" height="2746.25" transform="translate(-785.55 1473.38) rotate(-58.85)"/></clipPath><clipPath id="clip-path-4"><rect class="cls-1" x="1933.43" y="433.11" width="2000" height="2000"/></clipPath></defs><title>eeng-b</title><g class="cls-2"><path class="cls-4" d="M4410-188.7V3018.56H-126.85V-188.7Zm1-1H-127.85V3019.57H4411Z"/></g><g class="cls-5"><g class="cls-5"><path class="cls-4" d="M4430-188.7V3018.56H-106.85V-188.7Zm1-1H-107.85V3019.57H4431Z"/></g></g><polygon class="cls-6" points="0.42 108.08 5.92 108.08 5.92 108.79 1.22 108.79 1.22 112.59 4.65 112.59 4.65 113.3 1.22 113.3 1.22 117.75 6.14 117.75 6.14 118.46 0.42 118.46 0.42 108.08"/><path class="cls-6" d="M11.75,112.15l-.51.4a2.22,2.22,0,0,0-1.81-1,1.61,1.61,0,0,0-1.08.35,1.15,1.15,0,0,0-.42.89,1.17,1.17,0,0,0,.66,1,8.58,8.58,0,0,0,1.26.53,5.65,5.65,0,0,1,1.51.73,1.66,1.66,0,0,1,.6,1.34,2,2,0,0,1-.68,1.52,2.6,2.6,0,0,1-1.81.62A2.89,2.89,0,0,1,7,117.12l.57-.35a2.3,2.3,0,0,0,2,1.18,1.73,1.73,0,0,0,1.33-.52,1.31,1.31,0,0,0,.38-.91,1.14,1.14,0,0,0-.46-1A4.33,4.33,0,0,0,9.66,115a6,6,0,0,1-1.83-.86,1.55,1.55,0,0,1-.61-1.29,1.72,1.72,0,0,1,.67-1.39,2.42,2.42,0,0,1,1.59-.5,2.75,2.75,0,0,1,2.27,1.16"/><path class="cls-6" d="M18.14,112.87l-.65.2a2.53,2.53,0,0,0-.35-.74,1.55,1.55,0,0,0-1.32-.72,1.74,1.74,0,0,0-1.58,1,5.32,5.32,0,0,0-.09,4.16A1.7,1.7,0,0,0,15.78,118a1.83,1.83,0,0,0,1.55-.9,3.69,3.69,0,0,0,.35-.62l.59.3a3.14,3.14,0,0,1-.57.93,2.42,2.42,0,0,1-1.92.91,2.39,2.39,0,0,1-2.22-1.34,5.34,5.34,0,0,1,.08-5,2.64,2.64,0,0,1,.93-.92,2.42,2.42,0,0,1,1.24-.33,2.18,2.18,0,0,1,1.73.78,3.7,3.7,0,0,1,.6,1.1"/><path class="cls-6" d="M22.07,111.6a1.84,1.84,0,0,0-1.7,1.15,4.73,4.73,0,0,0-.38,2.06,4.15,4.15,0,0,0,.54,2.31,1.75,1.75,0,0,0,1.56.85,1.83,1.83,0,0,0,1.79-1.23,5.09,5.09,0,0,0,.35-2,4.06,4.06,0,0,0-.53-2.21,1.87,1.87,0,0,0-1.63-.89m.12-.62a2.42,2.42,0,0,1,2.21,1.34,4.76,4.76,0,0,1,.54,2.43,4.91,4.91,0,0,1-.63,2.64,2.43,2.43,0,0,1-2.2,1.2,2.49,2.49,0,0,1-2.27-1.3,4.74,4.74,0,0,1-.56-2.49,4.52,4.52,0,0,1,.79-2.82,2.53,2.53,0,0,1,2.12-1"/><rect class="cls-7" x="26.59" y="108.08" width="0.71" height="10.38"/><path class="cls-6" d="M33.41,114.18a14.19,14.19,0,0,0-2,.58,3.51,3.51,0,0,0-1.08.59,1.53,1.53,0,0,0-.56,1.23,1.3,1.3,0,0,0,.36.92,1.34,1.34,0,0,0,1,.45,3.18,3.18,0,0,0,2.24-1.23Zm-3.57-1.43-.53-.34A2.55,2.55,0,0,1,31.77,111a2.74,2.74,0,0,1,1.16.24,2,2,0,0,1,.81.67,2.3,2.3,0,0,1,.36,1.2c0,.23,0,.53,0,.9v1.79a14.62,14.62,0,0,0,.19,2.67h-.72a7.06,7.06,0,0,1-.15-1.14,8,8,0,0,1-.7.66,2.43,2.43,0,0,1-1.61.59A2,2,0,0,1,29.6,118a1.9,1.9,0,0,1-.54-1.38c0-1.11.72-1.92,2.16-2.41a17,17,0,0,1,1.66-.42l.53-.12a4.19,4.19,0,0,0-.13-1.09,1.24,1.24,0,0,0-.61-.72,1.89,1.89,0,0,0-.93-.23,2.11,2.11,0,0,0-1.38.48,1.91,1.91,0,0,0-.52.66"/><path class="cls-6" d="M44.36,112.64a2.61,2.61,0,0,0-1.87-1,1.85,1.85,0,0,0-1.69,1.16,4.23,4.23,0,0,0-.41,2,4.3,4.3,0,0,0,.57,2.35,1.69,1.69,0,0,0,1.46.86,2.24,2.24,0,0,0,1.34-.49,3,3,0,0,0,.6-.58v-4.24Zm.71-4.55v8.54a13.44,13.44,0,0,0,.1,1.84h-.66c0-.06,0-.21-.06-.46,0-.08,0-.26-.06-.55a2.62,2.62,0,0,1-2,1.11,2.32,2.32,0,0,1-1.27-.36,2.49,2.49,0,0,1-.91-1,5.39,5.39,0,0,1-.53-2.49,4.47,4.47,0,0,1,.57-2.37,2.79,2.79,0,0,1,1-1,2.22,2.22,0,0,1,1.21-.37,2.66,2.66,0,0,1,2,1v-3.92Z"/><path class="cls-6" d="M47.55,114.14h3.81a4.2,4.2,0,0,0-.3-1.42,2,2,0,0,0-.64-.81,1.47,1.47,0,0,0-.89-.3,1.79,1.79,0,0,0-1.67,1.23,3.76,3.76,0,0,0-.31,1.3m4.56.65H47.54a8.32,8.32,0,0,0,.21,1.47,2.54,2.54,0,0,0,.79,1.29,1.69,1.69,0,0,0,1.12.4,2.11,2.11,0,0,0,1.7-.94,5.13,5.13,0,0,0,.33-.49l.49.33a6.26,6.26,0,0,1-.46.71,2.52,2.52,0,0,1-2.07,1,2.45,2.45,0,0,1-2.38-1.6,5.1,5.1,0,0,1-.44-2.21,5.31,5.31,0,0,1,.4-2.2A2.42,2.42,0,0,1,49.52,111a2.34,2.34,0,0,1,2.3,1.8,6.13,6.13,0,0,1,.29,2"/><polygon class="cls-6" points="57.98 108.09 63.47 108.09 63.47 108.8 58.77 108.79 58.77 112.6 62.2 112.6 62.2 113.3 58.77 113.3 58.77 117.76 63.69 117.76 63.69 118.47 57.98 118.47 57.98 108.09"/><path class="cls-6" d="M65.91,111.1v1.28a3.48,3.48,0,0,1,2.52-1.46,1.73,1.73,0,0,1,1.16.44,1.76,1.76,0,0,1,.57,1.13,7.12,7.12,0,0,1,0,.79v5.19h-.72v-5.14a3.3,3.3,0,0,0-.15-1.11,1,1,0,0,0-.49-.54,1.27,1.27,0,0,0-.58-.14A3.28,3.28,0,0,0,65.91,113v5.49H65.2V111.1Z"/><path class="cls-6" d="M74.25,117.88a4.18,4.18,0,0,0-1,.39,1.18,1.18,0,0,0-.67,1,.93.93,0,0,0,.66.84,4.29,4.29,0,0,0,3.3-.22,1.12,1.12,0,0,0,.59-1,.74.74,0,0,0-.42-.67,4.92,4.92,0,0,0-1.48-.32,7.52,7.52,0,0,0-.93-.07m.26-6.3a1.65,1.65,0,0,0-1.31.58,2,2,0,0,0-.49,1.37,1.86,1.86,0,0,0,.59,1.41,1.81,1.81,0,0,0,1.26.49,1.7,1.7,0,0,0,1.51-.79,2,2,0,0,0,.32-1.14,1.87,1.87,0,0,0-.6-1.46,1.81,1.81,0,0,0-1.28-.46m3.19-.75v.71a2.65,2.65,0,0,0-1.27.25,2.56,2.56,0,0,1-.05,3.51,2.27,2.27,0,0,1-1.69.71,3.81,3.81,0,0,1-1.14-.2c-.52.19-.79.44-.79.76s.23.39.69.49c.13,0,.68.09,1.67.21.7.08,1.18.15,1.43.2a2.09,2.09,0,0,1,.64.25,1.26,1.26,0,0,1,.61,1.16,1.77,1.77,0,0,1-1.08,1.62,4.89,4.89,0,0,1-2.26.46,3.73,3.73,0,0,1-2-.43,1.29,1.29,0,0,1-.68-1.14c0-.83.56-1.39,1.67-1.69a3.77,3.77,0,0,1-.69-.18.86.86,0,0,1-.69-.82c0-.48.34-.86,1-1.14A2.5,2.5,0,0,1,74.59,111a2.62,2.62,0,0,1,1.45.42,2.94,2.94,0,0,1,1.66-.59"/><path class="cls-6" d="M78.88,114.14h3.81a3.77,3.77,0,0,0-.3-1.42,1.91,1.91,0,0,0-.63-.81,1.53,1.53,0,0,0-.89-.29,1.78,1.78,0,0,0-1.68,1.22,4.07,4.07,0,0,0-.31,1.3m4.56.65H78.88a9.51,9.51,0,0,0,.2,1.47,2.54,2.54,0,0,0,.79,1.29A1.66,1.66,0,0,0,81,118a2.07,2.07,0,0,0,1.69-.94,5.13,5.13,0,0,0,.33-.49l.5.33a4.85,4.85,0,0,1-.47.71A2.6,2.6,0,0,1,78.6,117a5.93,5.93,0,0,1,0-4.41A2.4,2.4,0,0,1,80.85,111a2.35,2.35,0,0,1,2.31,1.81,6.1,6.1,0,0,1,.28,2"/><path class="cls-6" d="M85.89,111.1v1.29a3.41,3.41,0,0,1,2.52-1.46,1.66,1.66,0,0,1,1.15.44,1.73,1.73,0,0,1,.57,1.12,5.28,5.28,0,0,1,0,.79v5.19h-.71v-5.14a2.94,2.94,0,0,0-.16-1.1,1,1,0,0,0-.49-.54,1.17,1.17,0,0,0-.58-.15A3.23,3.23,0,0,0,85.89,113v5.48h-.72V111.1Z"/><path class="cls-6" d="M93.08,108.09v4.29a3.25,3.25,0,0,1,2.45-1.45,1.8,1.8,0,0,1,1.24.45,2.13,2.13,0,0,1,.57,1.5c0,.17,0,.53,0,1.07v4.52h-.72v-4.68a8.86,8.86,0,0,0-.06-1.27,1.18,1.18,0,0,0-.42-.71,1.19,1.19,0,0,0-.77-.26,2.59,2.59,0,0,0-1.58.71,4.58,4.58,0,0,0-.73.73v5.48h-.71V108.09Z"/><path class="cls-6" d="M103.45,114.18a14.3,14.3,0,0,0-2,.59,3.73,3.73,0,0,0-1.09.58,1.59,1.59,0,0,0-.56,1.23,1.25,1.25,0,0,0,.37.92,1.34,1.34,0,0,0,1,.45,3.18,3.18,0,0,0,2.23-1.22Zm-3.57-1.43-.53-.33a2.56,2.56,0,0,1,2.46-1.42,2.78,2.78,0,0,1,1.17.24,1.86,1.86,0,0,1,.81.67,2.29,2.29,0,0,1,.36,1.19c0,.23,0,.54,0,.91v1.78a14.74,14.74,0,0,0,.19,2.68h-.72a8.37,8.37,0,0,1-.16-1.15,6,6,0,0,1-.69.67,2.48,2.48,0,0,1-1.61.59,2,2,0,0,1-1.53-.6,1.86,1.86,0,0,1-.54-1.37c0-1.12.72-1.92,2.16-2.41a13.65,13.65,0,0,1,1.66-.43l.52-.11a3.54,3.54,0,0,0-.13-1.1,1.2,1.2,0,0,0-.6-.71,1.8,1.8,0,0,0-.94-.23,2.15,2.15,0,0,0-1.37.47,2.06,2.06,0,0,0-.53.66"/><path class="cls-6" d="M109.45,111v.69a2.19,2.19,0,0,0-1,.23,3,3,0,0,0-1.42,2.64v4h-.71V111.1h.71V113a3.35,3.35,0,0,1,.64-1.25,2,2,0,0,1,1.57-.84Z"/><path class="cls-6" d="M111.34,108.53v1h-.8v-1.06Zm0,2.57v7.37h-.71V111.1Z"/><path class="cls-6" d="M117.4,114.18a13.9,13.9,0,0,0-2,.59,3.83,3.83,0,0,0-1.09.58,1.59,1.59,0,0,0-.56,1.23,1.28,1.28,0,0,0,.36.92,1.34,1.34,0,0,0,1,.45,3.16,3.16,0,0,0,2.24-1.22Zm-3.57-1.43-.53-.33a2.55,2.55,0,0,1,2.46-1.42,2.7,2.7,0,0,1,1.16.24,1.81,1.81,0,0,1,.81.67,2.39,2.39,0,0,1,.37,1.19c0,.24,0,.54,0,.91v1.78a14.66,14.66,0,0,0,.19,2.68h-.72a8.58,8.58,0,0,1-.15-1.15,6.93,6.93,0,0,1-.7.67,2.46,2.46,0,0,1-1.61.59,2,2,0,0,1-1.53-.6,1.86,1.86,0,0,1-.54-1.37c0-1.12.72-1.92,2.16-2.41a16.11,16.11,0,0,1,1.67-.43l.52-.11a4.28,4.28,0,0,0-.13-1.1,1.22,1.22,0,0,0-.61-.71,1.89,1.89,0,0,0-.93-.23,2.11,2.11,0,0,0-1.37.47,1.93,1.93,0,0,0-.53.66"/><path class="cls-6" d="M2.6,90.82v6.79c0,.46,0,.79,0,1a1.13,1.13,0,0,0,.42.75,1.23,1.23,0,0,0,.76.23,1.16,1.16,0,0,0,1-.51,2.63,2.63,0,0,0,.26-1.45v-6.8H7.7v6.8A6.79,6.79,0,0,1,7.59,99a2.71,2.71,0,0,1-.38.91,3.82,3.82,0,0,1-3.44,1.51,3.84,3.84,0,0,1-3-1.12,2.76,2.76,0,0,1-.69-1.51A11.78,11.78,0,0,1,0,97.32v-6.5Z"/><path class="cls-6" d="M11.74,93.87v.83a3.8,3.8,0,0,1,2.5-1.08,1.74,1.74,0,0,1,.88.24,1.58,1.58,0,0,1,.61.62,4.94,4.94,0,0,1,.31,2v4.71H13.68V96.49q0-1-.78-1a1.76,1.76,0,0,0-1.16.57v5.13H9.39V93.87Z"/><path class="cls-6" d="M20,90.82V92.9H17.61V90.82Zm0,3.06v7.32H17.61V93.88Z"/><path class="cls-6" d="M27.79,93.88l-2.18,7.32H23l-2.38-7.33h2.59l.74,2.91a22.22,22.22,0,0,1,.46,2.57,20.56,20.56,0,0,1,.4-2.7l.57-2.78Z"/><path class="cls-6" d="M30.52,96.75h2.16a2.09,2.09,0,0,0-.15-.85,1,1,0,0,0-.93-.6,1,1,0,0,0-1,.7,1.9,1.9,0,0,0-.13.75m2.16,2.13,2.19.17c-.37,1.57-1.47,2.35-3.3,2.35a3.31,3.31,0,0,1-2.74-1.11A4.13,4.13,0,0,1,28,97.64a4.57,4.57,0,0,1,.79-2.81,2.9,2.9,0,0,1,1.28-.94,4,4,0,0,1,1.47-.27,3.12,3.12,0,0,1,2.36.91,3.32,3.32,0,0,1,.87,1.8c0,.18.06.74.1,1.69H30.52a4.09,4.09,0,0,0,.1,1,1,1,0,0,0,.42.56,1,1,0,0,0,.58.16,1,1,0,0,0,1.06-.84"/><path class="cls-6" d="M41.29,93.69v2.22a1.91,1.91,0,0,0-.52-.07,2.44,2.44,0,0,0-1.5.48,2.39,2.39,0,0,0-.69.85v4H36.22V93.88h2.36v.65a1.54,1.54,0,0,0,0,.17.91.91,0,0,0,0,.17c0,.08,0,.26,0,.53a3.48,3.48,0,0,1,.7-1,2.34,2.34,0,0,1,1.63-.75l.38,0"/><path class="cls-6" d="M47.72,95.66l-2.16.17c-.05-.44-.27-.66-.67-.66a.74.74,0,0,0-.56.23.58.58,0,0,0-.14.39.67.67,0,0,0,.46.66c.08,0,.51.13,1.29.29,1.37.26,2.05,1,2.05,2.19a2.23,2.23,0,0,1-.83,1.81,3.56,3.56,0,0,1-2.35.67c-1.69,0-2.6-.75-2.74-2.24L44.26,99c.06.55.34.82.82.82a.68.68,0,0,0,.6-.29.6.6,0,0,0,.12-.36c0-.39-.3-.63-.89-.74s-1-.2-1.26-.27a2.44,2.44,0,0,1-.67-.31A2,2,0,0,1,42,96.05a2.29,2.29,0,0,1,.86-1.82A3.14,3.14,0,0,1,45,93.62a3.57,3.57,0,0,1,1.47.28,2,2,0,0,1,1,.77,2.51,2.51,0,0,1,.32,1"/><path class="cls-6" d="M51.59,90.82V92.9H49.24V90.82Zm0,3.06v7.32H49.24V93.88Z"/><path class="cls-6" d="M57.43,96.17a1.18,1.18,0,0,0-1-.66c-.44,0-.76.27-1,.82a4,4,0,0,0-.16,1.2,3.18,3.18,0,0,0,.39,1.74.86.86,0,0,0,.75.45,1.13,1.13,0,0,0,1-.67V96.17Zm2.35-5.35V101.2H57.73l-.11-.75a2.58,2.58,0,0,1-2,1,2.43,2.43,0,0,1-2.25-1.34,5.12,5.12,0,0,1-.57-2.53,4.8,4.8,0,0,1,.65-2.65,2.91,2.91,0,0,1,.95-.93,2.36,2.36,0,0,1,1.2-.33,2.28,2.28,0,0,1,1.79.94V90.82Z"/><path class="cls-6" d="M65.49,97.89a5.53,5.53,0,0,0-1.21.31c-.53.2-.79.5-.79.92a.55.55,0,0,0,.24.48.85.85,0,0,0,.45.13,2.24,2.24,0,0,0,1.31-.51Zm-1.88-1.72-2.28-.28a2.48,2.48,0,0,1,.59-1.36,3.59,3.59,0,0,1,2.74-.91,3.51,3.51,0,0,1,2.63.83,1.79,1.79,0,0,1,.51,1.11c0,.26,0,.63,0,1.09v1.87A18.6,18.6,0,0,0,68,101.2H65.68l-.09-.6a3.48,3.48,0,0,1-2.2.81,2.6,2.6,0,0,1-1.7-.53A1.87,1.87,0,0,1,61,99.37a2.16,2.16,0,0,1,1.06-1.88,10.58,10.58,0,0,1,3.25-1l.18,0v-.19a.93.93,0,0,0-.2-.71,1,1,0,0,0-.66-.21.94.94,0,0,0-1,.87"/><path class="cls-6" d="M73.67,96.17a1.18,1.18,0,0,0-1-.66c-.44,0-.76.27-1,.82a3.69,3.69,0,0,0-.16,1.21,3.26,3.26,0,0,0,.38,1.73.9.9,0,0,0,.76.46,1.15,1.15,0,0,0,1-.68V96.17ZM76,90.82V101.2H74l-.12-.75a2.59,2.59,0,0,1-2,1,2.43,2.43,0,0,1-2.24-1.35,5,5,0,0,1-.58-2.52,4.89,4.89,0,0,1,.65-2.66,3,3,0,0,1,1-.93,2.39,2.39,0,0,1,1.2-.33,2.31,2.31,0,0,1,1.8.94V90.82Z"/><path class="cls-6" d="M79.74,96.75H81.9a2.12,2.12,0,0,0-.15-.85,1,1,0,0,0-.93-.6,1,1,0,0,0-.95.7,1.9,1.9,0,0,0-.13.75m2.16,2.13,2.19.18c-.36,1.56-1.47,2.35-3.3,2.35a3.33,3.33,0,0,1-2.74-1.12,4,4,0,0,1-.8-2.65,4.54,4.54,0,0,1,.78-2.8,3,3,0,0,1,1.28-1,4,4,0,0,1,1.47-.27,3.16,3.16,0,0,1,2.36.91A3.32,3.32,0,0,1,84,96.34c0,.17.06.73.1,1.68H79.74a4,4,0,0,0,.1,1,1,1,0,0,0,.42.56,1,1,0,0,0,.58.17,1,1,0,0,0,1.06-.85"/><path class="cls-6" d="M93.63,96.17a1.16,1.16,0,0,0-1-.65q-.66,0-1,.81a4,4,0,0,0-.16,1.21,3.14,3.14,0,0,0,.39,1.73.85.85,0,0,0,.76.46,1.14,1.14,0,0,0,1-.68V96.17ZM96,90.82V101.2H93.93l-.11-.75a2.61,2.61,0,0,1-2,1,2.44,2.44,0,0,1-2.25-1.35A5.1,5.1,0,0,1,89,97.54a4.81,4.81,0,0,1,.65-2.66,2.78,2.78,0,0,1,1-.92,2.21,2.21,0,0,1,3,.61V90.82Z"/><path class="cls-6" d="M100.75,95.3c-.71,0-1.06.72-1.06,2.15a4.8,4.8,0,0,0,.2,1.61.93.93,0,0,0,.88.67c.49,0,.81-.32,1-1a6.45,6.45,0,0,0,.14-1.5c0-1.31-.38-2-1.13-2m.12-1.68a3.16,3.16,0,0,1,2.87,1.49,4.37,4.37,0,0,1,.61,2.34,4.17,4.17,0,0,1-1,2.93,3.4,3.4,0,0,1-2.65,1,3.18,3.18,0,0,1-2.84-1.33,4.52,4.52,0,0,1-.68-2.54,4.77,4.77,0,0,1,.31-1.77,3.22,3.22,0,0,1,.86-1.31,3.58,3.58,0,0,1,2.48-.84"/><path class="cls-6" d="M121,90.83v10.38h-2.6V94.32s0-.08,0-.21,0-.17,0-.2l0-.71v-.44c0,.14-.1.45-.22.93l-.09.39-1.71,7.12h-2l-1.68-6.88c-.14-.64-.25-1.16-.32-1.56v8.44h-2.6V90.83h4.12l1.28,5.24a12.5,12.5,0,0,1,.31,1.74c0-.36.14-.87.26-1.52l0-.22,1.08-5.24Z"/><path class="cls-6" d="M125.08,90.83v2.08h-2.36V90.83Zm0,3v7.33h-2.35V93.88Z"/><path class="cls-6" d="M129,93.88v.83a3.82,3.82,0,0,1,2.5-1.08,1.74,1.74,0,0,1,.88.24,1.58,1.58,0,0,1,.61.62,4.77,4.77,0,0,1,.31,2v4.71H131V96.5c0-.66-.26-1-.79-1a1.78,1.78,0,0,0-1.16.57v5.13h-2.35V93.88Z"/><path class="cls-6" d="M137.22,90.83v3.91a2.92,2.92,0,0,1,.8-.64,3.37,3.37,0,0,1,1.59-.47,1.89,1.89,0,0,1,.95.24,1.52,1.52,0,0,1,.64.64,4.27,4.27,0,0,1,.3,1.83v4.87h-2.35v-4.7a1.35,1.35,0,0,0-.11-.61.76.76,0,0,0-.7-.39,1.58,1.58,0,0,0-1.12.59v5.11h-2.35V90.83Z"/><path class="cls-6" d="M146.27,95.31c-.71,0-1.07.71-1.07,2.15a4.45,4.45,0,0,0,.21,1.6.93.93,0,0,0,.87.67c.49,0,.82-.32,1-1a6.35,6.35,0,0,0,.14-1.49c0-1.32-.38-2-1.13-2m.11-1.68a3.16,3.16,0,0,1,2.88,1.48,4.32,4.32,0,0,1,.6,2.35,4.19,4.19,0,0,1-1,2.93,3.41,3.41,0,0,1-2.65,1,3.15,3.15,0,0,1-2.83-1.33,4.41,4.41,0,0,1-.68-2.54,5,5,0,0,1,.3-1.77,3.42,3.42,0,0,1,.87-1.31,3.62,3.62,0,0,1,2.47-.83"/><path class="cls-7" d="M.64,78.6H79.85V0H.64ZM37.3,17.33a2.41,2.41,0,0,1,4.81,0V25.7a2.41,2.41,0,0,1-4.82,0Zm-8.72,31.5L21.25,53c-2.75,1.58-5.15-2.56-2.41-4.13l7.34-4.14c2.74-1.57,5.15,2.57,2.4,4.14M34.2,39.3,18.92,30.71c-2.74-1.58-.34-5.71,2.4-4.14L36.6,35.16c2.74,1.58.34,5.71-2.4,4.14m7.89,23a2.41,2.41,0,0,1-4.81,0V44.84a2.41,2.41,0,0,1,4.82,0ZM57.85,53.1l-7.14-4.28c-2.75-1.57-.33-5.7,2.41-4.13L60.26,49c2.74,1.57.34,5.7-2.41,4.13m2.52-22.45L45.26,39.38c-2.74,1.57-5.15-2.56-2.41-4.14L58,26.52c2.75-1.58,5.15,2.56,2.41,4.13"/><path class="cls-7" d="M79.84,78.61H159V.14H79.84ZM124.34,18l16.22,11.82c2.43,1.75-.25,5.43-2.69,3.67L121.66,21.64c-2.43-1.76.25-5.42,2.68-3.67M99.57,29.74,115.83,18c2.43-1.76,5.11,1.91,2.68,3.67L102.26,33.41c-2.44,1.76-5.12-1.92-2.69-3.67m3.68,26.89L96.94,37.71c-.93-2.84,3.4-4.25,4.33-1.41l6.32,18.93c.93,2.84-3.42,4.24-4.34,1.4M130,61.82H110.06a2.27,2.27,0,1,1,0-4.54H130a2.27,2.27,0,1,1,0,4.54m13.22-24-6.19,19c-.93,2.84-5.27,1.44-4.34-1.41l6.19-19c.93-2.85,5.27-1.44,4.34,1.4"/></svg>