<svg id="Camada_1" data-name="Camada 1" xmlns="http://www.w3.org/2000/svg" viewBox="0 0 169.01 181.23"><defs><style>.cls-1{fill:#fff;}</style></defs><title>necc</title><path class="cls-1" d="M46.68,30.64c30.55-11.26,52.84-19.41,57.65-21.2a30.63,30.63,0,0,1,6-1.6,30.94,30.94,0,0,1,7.14-.32,17.48,17.48,0,0,1,7.36,2.37,24,24,0,0,1,7.51,6.7c.34.46.61,1,1,1.57l-23.94,3.62,10.13,70.61,34.73,37.29-11.7-89c15.39,39.59,26,68.77,27.47,74.53a27.58,27.58,0,0,1,.7,9.14,18.91,18.91,0,0,1-1.59,5.93,21.69,21.69,0,0,1-8.2,9,27.36,27.36,0,0,1-9.33,4Z" transform="translate(-1.81 -1.68)"/><path class="cls-1" d="M125.76,1.74A24.82,24.82,0,0,1,140.9,5.5a27.19,27.19,0,0,1,8,8.51,29.47,29.47,0,0,1,2.66,5.4s1,2.35,1.73,4.9c1.18,4,5.73,26.48,11.46,57.37C151,45.79,140.2,19.8,137.22,15c-1.32-2.13-2.75-4.05-2.75-4.05a57.91,57.91,0,0,0-7-7.8h0A16.91,16.91,0,0,0,125.76,1.74Z" transform="translate(-1.81 -1.68)"/><path class="cls-1" d="M127.66,152.43c-30.34,11.83-52.47,20.4-57.24,22.28a30.89,30.89,0,0,1-6,1.72,31.47,31.47,0,0,1-7.14.45,17.31,17.31,0,0,1-7.4-2.23,23.9,23.9,0,0,1-7.63-6.55c-.36-.46-.63-1-1-1.56l23.86-4.06L53.67,92.06,18.25,55.43q6.69,44.4,13.37,88.79C15.49,104.92,4.35,76,2.75,70.22a27.32,27.32,0,0,1-.86-9.12,18.5,18.5,0,0,1,1.47-6,21.81,21.81,0,0,1,8-9.19,27.63,27.63,0,0,1,9.25-4.19Z" transform="translate(-1.81 -1.68)"/><path class="cls-1" d="M49.13,182.81a24.73,24.73,0,0,1-15.2-3.47A27,27,0,0,1,25.78,171,29.91,29.91,0,0,1,23,165.64s-1-2.33-1.83-4.87c-1.25-4-6.23-26.37-12.54-57.14C23.06,139.25,34.36,165,37.43,169.79c1.36,2.1,2.83,4,2.83,4a58.22,58.22,0,0,0,7.11,7.66h0A15.56,15.56,0,0,0,49.13,182.81Z" transform="translate(-1.81 -1.68)"/></svg>