<svg width="43" height="16" viewBox="0 0 43 16" fill="none" xmlns="http://www.w3.org/2000/svg">
<g clip-path="url(#clip0_475_14239)">
<path d="M4.83301 2.53543C7.4111 1.59915 9.28148 0.928014 9.69431 0.778872C9.75329 0.762301 9.93864 0.68773 10.1998 0.646302C10.3936 0.613159 10.5958 0.604874 10.798 0.621445C11.0171 0.638016 11.2277 0.712587 11.4215 0.820301C11.6742 0.961157 11.8849 1.14344 12.0534 1.37544C12.0786 1.41687 12.1039 1.4583 12.1376 1.50801C11.4636 1.60744 10.7896 1.70687 10.124 1.8063C10.4105 3.75343 10.6969 5.70884 10.9749 7.65598C11.9523 8.6834 12.9211 9.71911 13.8985 10.7465C13.5699 8.28569 13.2413 5.83313 12.9127 3.37229C14.2102 6.65341 15.1033 9.07282 15.2296 9.54511C15.3307 9.93453 15.2886 10.2991 15.2886 10.2991C15.2718 10.4814 15.2212 10.6388 15.1538 10.788C14.9685 11.194 14.6483 11.4094 14.4629 11.5337C14.3113 11.6331 14.0417 11.7822 13.6794 11.8651C10.7222 8.76626 7.77338 5.65084 4.83301 2.53543Z" fill="white"/>
<path d="M11.4971 0.140879C11.7161 0.124308 12.2553 0.124308 12.7693 0.455735C13.1652 0.71259 13.3759 1.06059 13.4433 1.16002C13.536 1.30087 13.6034 1.45002 13.6708 1.60744C13.6708 1.60744 13.755 1.8063 13.814 2.01344C13.9151 2.34487 14.2942 4.20914 14.7829 6.76942C13.6202 3.79486 12.7103 1.64059 12.4575 1.24287C12.348 1.06887 12.2216 0.903161 12.2216 0.903161C12.011 0.621448 11.7919 0.406021 11.6319 0.256879C11.5982 0.21545 11.5476 0.182308 11.4971 0.140879Z" fill="white"/>
<path d="M11.6571 12.6274C9.10425 13.6051 7.23387 14.3177 6.83788 14.4751C6.77891 14.4999 6.59355 14.5745 6.33238 14.6159C6.1386 14.6491 5.93639 14.6656 5.73419 14.6574C5.51514 14.6491 5.30451 14.5745 5.11073 14.4751C4.85798 14.3425 4.63892 14.1602 4.47042 13.9365C4.43672 13.8951 4.41987 13.8537 4.38617 13.8039C5.06018 13.6879 5.72577 13.5802 6.39978 13.4642C6.07962 11.5171 5.75947 9.57825 5.43089 7.63112C4.42829 6.62026 3.43413 5.60113 2.43154 4.59028C2.81067 7.04283 3.18137 9.49539 3.5605 11.9479C2.20406 8.69168 1.26887 6.29712 1.12564 5.81655C1.01611 5.42713 1.04981 5.06256 1.04981 5.06256C1.06666 4.88027 1.10879 4.71456 1.17619 4.56542C1.35312 4.15942 1.67327 3.92742 1.8502 3.80314C2.00185 3.69542 2.26303 3.54628 2.63374 3.45514C5.64151 6.52084 8.64929 9.56996 11.6571 12.6274Z" fill="white"/>
<path d="M5.03462 15.1462C4.81556 15.1628 4.27635 15.1794 3.75399 14.8562C3.35801 14.6077 3.13896 14.268 3.07156 14.1602C2.97888 14.0194 2.90306 13.8785 2.83565 13.7211C2.83565 13.7211 2.7514 13.5305 2.684 13.3151C2.57448 12.9837 2.16164 11.1277 1.63086 8.58398C2.84408 11.5337 3.79612 13.6714 4.0573 14.0691C4.17525 14.2431 4.2932 14.4005 4.2932 14.4005C4.51226 14.6822 4.73131 14.8894 4.89139 15.0385C4.93351 15.0717 4.98406 15.1131 5.03462 15.1462Z" fill="white"/>
<path d="M18.6751 10.5228C18.3128 10.5228 17.959 10.5228 17.5967 10.5228C17.5967 8.82427 17.5967 7.1257 17.5967 5.43542C17.959 5.91599 18.3128 6.39656 18.6751 6.87713C18.6751 8.08684 18.6751 9.30483 18.6751 10.5228Z" fill="white"/>
<path d="M17.5967 4.62341C18.0179 4.62341 18.4392 4.62341 18.852 4.62341C20.2759 6.56226 21.7081 8.49282 23.132 10.4317C22.7192 10.4317 22.2979 10.44 21.8851 10.44C20.4612 8.50111 19.029 6.56226 17.5967 4.62341Z" fill="white"/>
<path d="M22.0625 4.62341C22.4248 4.62341 22.7786 4.62341 23.1409 4.62341C23.1409 6.20598 23.1409 7.79682 23.1409 9.37939C22.7786 8.89882 22.4248 8.41825 22.0625 7.93768C22.0625 6.83569 22.0625 5.72541 22.0625 4.62341Z" fill="white"/>
<path d="M25.5001 4.62341H24.1689V10.44H25.5001V4.62341Z" fill="white"/>
<path d="M25.7383 4.62594V5.54565H29.1505V4.62594H25.7383Z" fill="white"/>
<path d="M25.7412 9.52005V10.4398H29.1534V9.52005H25.7412Z" fill="white"/>
<path d="M25.7363 6.86068V7.7804H28.8536V6.86068H25.7363Z" fill="white"/>
<path d="M32.8643 9.62794V10.6305C34.2544 10.5974 35.4171 9.67765 35.8046 8.42651H34.7178C34.3808 9.11422 33.6815 9.59479 32.8643 9.62794Z" fill="white"/>
<path d="M30.6396 7.52342C30.6396 6.44628 31.4652 5.55143 32.5268 5.43543V4.43286C30.9007 4.55715 29.6201 5.89114 29.6201 7.52342C29.6201 9.1557 30.9007 10.4897 32.5268 10.614V9.61141C31.4652 9.49541 30.6396 8.60056 30.6396 7.52342Z" fill="white"/>
<path d="M34.6753 6.55398H35.7706C35.3662 5.33598 34.2203 4.4577 32.8555 4.42456V5.42713C33.6559 5.45198 34.3299 5.89941 34.6753 6.55398Z" fill="white"/>
<path d="M39.2666 9.62794V10.6305C40.6567 10.5974 41.8194 9.67765 42.207 8.42651H41.1201C40.7831 9.11422 40.0838 9.59479 39.2666 9.62794Z" fill="white"/>
<path d="M37.0419 7.52342C37.0419 6.44628 37.8676 5.55143 38.9291 5.43543V4.43286C37.3031 4.55715 36.0225 5.89114 36.0225 7.52342C36.0225 9.1557 37.3031 10.4897 38.9291 10.614V9.61141C37.8676 9.49541 37.0419 8.60056 37.0419 7.52342Z" fill="white"/>
<path d="M41.0776 6.55398H42.1729C41.7685 5.33598 40.6227 4.4577 39.2578 4.42456V5.42713C40.0582 5.45198 40.7322 5.89941 41.0776 6.55398Z" fill="white"/>
</g>
<defs>
<clipPath id="clip0_475_14239">
<rect width="41.6033" height="15.2953" fill="white" transform="translate(0.898438)"/>
</clipPath>
</defs>
</svg>
