<?xml version="1.0" encoding="utf-8"?>
<!-- Generator: Adobe Illustrator 25.4.1, SVG Export Plug-In . SVG Version: 6.00 Build 0)  -->
<svg version="1.1" id="Camada_1" xmlns="http://www.w3.org/2000/svg" xmlns:xlink="http://www.w3.org/1999/xlink" x="0px" y="0px"
	 viewBox="0 0 172 59" style="enable-background:new 0 0 172 59;" xml:space="preserve">
<style type="text/css">
	.st0{fill:#FFFFFF;}
</style>
<g>
	<path class="st0" d="M57.11,17.47c-5.92-3.38-11.94-1.66-13.37-1.22c-4.57,1.39-7.42,4.27-8.63,5.66
		c-0.08,0.11-0.38,0.47-0.88,0.56c-0.33,0.06-0.59-0.02-0.64-0.04c-0.44-0.15-0.71-0.51-0.81-0.73c-0.93-2.09-2.12-3.29-2.84-3.9
		c0,0-4.93-4.21-12.8-1.5c-1.17,0.4-2.1,0.97-2.1,0.97c-1.61,0.98-2.7,2.25-2.79,2.36c-1.02,1.22-1.45,2.29-2.34,2.32
		c-0.27,0.01-0.46-0.08-0.52-0.11c-0.76-0.38-0.79-1.59-0.8-1.72v-2.37H0.83v21.29h7c0.25,0,0.5,0,0.75,0c0-1.85,0-3.7,0-5.55
		c-0.03-0.8-0.07-4.26,2.52-6.93c2.86-2.96,7.6-3.56,10.73-1.92c1.02,0.53,1.72,1.23,2.12,1.68c1.09,1.25,2.06,3.29,2.06,6.9
		c0,6.01,0,10.17,0,16.17c2.73-2.34,4.51-3.94,5.18-4.74c0.17-0.21,0.67-0.84,1.4-0.92c0.26-0.03,0.55,0.02,0.73,0.05
		c0.56,0.09,0.97,0.27,1.1,0.33c0.59,0.26,1.19,0.45,2.39,0.82c0.59,0.18,1.46,0.4,2.6,0.47c-0.19-0.6-0.31-1.1-0.39-1.42
		c-0.35-1.48-0.35-2.89-0.36-5.7c0-0.11,0-0.31,0.11-0.51c0.35-0.66,1.43-0.69,1.97-0.67c8.55,0,17.11,0,25.66,0
		c0.08-1.62,0.04-4.07-0.68-6.91C65.09,27.8,63.39,21.05,57.11,17.47z M59.33,32.81c-0.14,0.13-0.32,0.17-0.44,0.19
		c-10.05,0.08-17.42,0.09-18.15,0c-0.16-0.02-0.59-0.06-0.83-0.39c-0.17-0.22-0.19-0.46-0.19-0.56c-0.01-0.31-0.04-3.27,1.5-5.47
		c2.39-3.42,9.07-5.76,13.82-2.82c0,0,3.54,2.19,4.51,7.56C59.61,31.65,59.76,32.44,59.33,32.81z"/>
	<path class="st0" d="M97.65,47.44c-1.58-2.47-1.85-4.47-1.9-4.94c-0.05-0.42-0.07-0.78-0.07-1.03V22.78v-6.95h-8.48h-4.53
		c-0.09-0.01-0.16-0.03-0.21-0.06c-0.29-0.15-0.36-0.8-0.36-0.8c-0.09-0.85,0.02-2.19,0.04-2.38c0.02-0.39,0.12-2.2,1.35-3.42
		c0.3-0.3,1.02-1.01,2.02-1.08c0.14-0.01,0.25,0,0.3,0c1.36,0,2.72,0,4.08,0c0-1.94,0-3.87,0-5.81h-5.66
		c-0.56-0.03-6.12-0.22-9.53,4.17c-2.13,2.74-2.24,5.75-2.23,6.8v2.65v0.17c0,0.07-0.04,1.4-0.76,1.65
		c-0.07,0.02-0.15,0.04-0.24,0.04c-1.3,0-2.6,0-3.89,0c1.14,0.75,2.85,2.14,4.06,4.4c0.37,0.7,0.64,1.37,0.83,1.98v14.91h9.68V23.92
		c0-0.04,0-0.07,0.01-0.09c0.05-0.16,0.26-0.25,0.53-0.26c0.98,0,1.95,0,2.93,0c0.19,0.02,0.35,0.12,0.4,0.27
		C86,23.87,86.01,23.92,86,24v19.2c0,0,0.92,7.7,6.21,11.41c3.34,2.35,7.22,2.15,8.5,2.09c3.02-0.15,5.16-1.2,5.65-1.45
		c1.85-0.94,3.12-2.12,3.86-2.65h-6.11c-0.14-0.02-0.36-0.06-0.62-0.13C100.34,51.66,98.56,48.87,97.65,47.44z"/>
	<path class="st0" d="M166.22,19.16c-2.34-1.65-4.88-2.06-6.16-2.27c-3.9-0.63-6.95,0.25-7.85,0.54c-1.14,0.36-3.46,1.13-5.55,3.14
		c-0.73,0.7-1.24,1.38-1.58,1.88c-0.08,0.11-0.2,0.26-0.4,0.39c-0.36,0.24-0.88,0.37-1.32,0.25c-0.48-0.14-0.73-0.55-0.86-0.77
		c-0.55-0.88-1.1-1.78-1.86-2.51c-2.03-1.96-4.41-2.53-5.82-2.85c-1.53-0.35-5.26-0.94-8.99,0.64c-2.27,0.97-4.15,2.64-5.06,3.44
		c-0.49,0.43-0.88,0.81-1.15,1.07c-0.12,0.11-0.37,0.31-0.76,0.4c-0.14,0.03-0.47,0.11-0.83-0.03c-0.06-0.02-0.29-0.11-0.5-0.36
		c-0.23-0.26-0.35-0.59-0.41-2.18c-0.02-0.51-0.02-0.92-0.03-1.15c0-0.43,0-0.79,0-1.03c-3.2,0-1.01,0-4,0c0,7.1,0,14.19,0,21.29
		c3.21,0,9.68,0,9.68,0v-6.96c-0.02-0.27-0.27-5.08,3.44-7.66c3.39-2.35,8.29-1.61,10.21,0.79c1.2,1.49,1.61,4.08,1.68,4.5
		c0.14,0.86,0.16,1.59,0.15,2.11v5.3c3,0,5.99,0,8.99,0c0-1.74,0-3.48,0-5.22c-0.01-0.26-0.01-0.6,0-1c0,0,0.02-0.46,0.06-0.88
		c0.08-0.75,0.74-2.99,1.54-4.17c2.09-3.08,8.81-4.06,11.68-1.13c0.86,0.87,1.91,2.69,2.02,4.82c0.02,0.32,0.01,0.59,0,0.77
		c0,2.92,0,5.84,0,8.75c2.87,0,5.75,0,8.62,0c0-3.43,0-6.86,0-10.28C171.12,27.75,170.74,22.35,166.22,19.16z"/>
</g>
</svg>
