<svg width="516" height="394" viewBox="0 0 516 394" fill="none" xmlns="http://www.w3.org/2000/svg">
<g clip-path="url(#clip0_461_4314)">
<path d="M80.6201 391.519L71.1434 391.77C70.3289 359.701 77.9178 333.756 93.6964 314.651C112.265 292.164 136.353 286.112 164.248 279.105C184.783 273.944 208.063 268.096 233.719 254.617C264.054 238.675 291.231 215.265 314.507 185.039L322.037 190.805C297.929 222.121 269.693 246.415 238.135 263C211.474 277.012 187.612 283.005 166.561 288.299C139.216 295.171 117.613 300.596 101.03 320.674C86.7236 337.955 79.8699 361.801 80.6201 391.519Z" fill="white"/>
<path d="M364.268 161.487L333.86 137.372L316.497 159.146C314.52 161.596 313.037 163.51 312.145 164.772C310.881 166.552 310.167 167.905 309.809 169.571C309.124 172.764 310.475 173.75 309.689 176.831C308.985 179.568 307.596 180.044 307.648 182.163C307.694 183.988 308.774 185.439 309.617 186.324C311.48 187.97 313.476 189.642 315.606 191.342C317.736 193.042 319.82 194.605 321.857 196.03C322.927 196.652 324.591 197.373 326.387 197.008C328.473 196.582 328.622 195.125 331.138 193.828C333.97 192.369 335.237 193.459 338.206 192.074C339.753 191.353 340.913 190.346 342.379 188.72C343.407 187.572 344.946 185.696 346.894 183.226L364.268 161.487Z" fill="white"/>
<path d="M337.407 133.42L367.81 157.532L385.173 135.758C387.146 133.31 388.634 131.394 389.525 130.133C390.785 128.354 391.504 127 391.861 125.333C392.547 122.141 391.194 121.151 391.982 118.074C392.685 115.336 394.075 114.861 394.018 112.743C393.972 110.917 392.897 109.466 392.047 108.561C390.187 106.914 388.189 105.242 386.054 103.544C383.921 101.853 381.829 100.293 379.807 98.8549C378.737 98.2326 377.069 97.5128 375.273 97.8776C373.191 98.3026 373.042 99.7594 370.522 101.059C367.694 102.516 366.423 101.427 363.458 102.81C361.907 103.533 360.751 104.539 359.286 106.165C358.254 107.314 356.714 109.19 354.77 111.659L337.407 133.42Z" fill="white"/>
<path d="M385.392 111.201L378.293 104.912C382.439 100.255 387.026 96.0088 391.989 92.231C411.66 77.2951 431.807 74.1191 446.516 71.8056C450.422 71.1894 454.11 70.6121 457.16 69.8974C481.152 64.2848 502.784 41.4706 521.47 2.09355L530.056 6.13655C510.061 48.2517 486.272 72.7978 459.314 79.1158C455.919 79.9136 452.062 80.5186 447.976 81.1612C433.503 83.4347 415.49 86.2691 397.736 99.7623C393.262 103.169 389.127 107 385.392 111.201Z" fill="white"/>
</g>
<defs>
<clipPath id="clip0_461_4314">
<rect width="554" height="238" fill="white" transform="translate(0 167.404) rotate(-17.5882)"/>
</clipPath>
</defs>
</svg>
