<?xml version="1.0" encoding="utf-8"?>
<!-- Generator: Adobe Illustrator 23.1.0, SVG Export Plug-In . SVG Version: 6.00 Build 0)  -->
<svg version="1.1" id="Camada_1" xmlns="http://www.w3.org/2000/svg" xmlns:xlink="http://www.w3.org/1999/xlink" x="0px" y="0px"
	 viewBox="0 0 982 206" style="enable-background:new 0 0 982 206;" xml:space="preserve">
<style type="text/css">
	.st0{fill:#FFFFFF;}
</style>
<path class="st0" d="M289.6,62.2c0.2,0,0.3,0,0.4,0c1,0,1,0,1,0c2.2-0.2,2.9-3.1,5.2-3.4c0,0,0,0,0,0c0.1,0,0.4,0,0.8-0.2
	c0.1,0,0.2-0.1,0.4-0.2c0,0,0,0,0,0c0.6-0.3,1-0.8,1.2-1.2v0c0-0.1,0-0.2,0-0.3v0c0-0.3,0-0.6,0-0.9l308.5,0l0.1,0
	c12.3-0.6,21.6-4.4,27.7-11c4.5-4.9,5.9-10.1,7.3-15c1.3-4.7,2.6-9.2,6.5-13c5.4-5.3,13.9-7.6,25.4-6.9L974,10V6H674.3
	c-12.7-0.7-22.2,2-28.4,8.1c-4.7,4.6-6.2,9.8-7.6,14.8c-1.3,4.7-2.6,9.2-6.5,13.4c-5.3,5.8-13.7,9.1-24.9,9.7l-308.5,0
	c0-0.3,0-0.6,0-0.9v0c0-0.1,0-0.2,0-0.3v0c-0.2-0.4-0.6-0.9-1.2-1.2c0,0,0,0,0,0c-0.1-0.1-0.2-0.1-0.4-0.2c-0.4-0.1-0.7-0.2-0.8-0.2
	c0,0,0,0,0,0c-2.2-0.3-2.9-3.3-5.2-3.4c0,0,0,0-1,0c0,0-0.2,0-0.4,0v0h-17.1v16.3h15.3C287.9,62.2,289,62.2,289.6,62.2z"/>
<path class="st0" d="M597.9,178.4c-0.2,0-0.3,0-0.4,0c-1,0-1,0-1,0c-2.2,0.2-2.9,3.1-5.2,3.4c0,0,0,0,0,0c-0.1,0-0.4,0-0.8,0.2
	c-0.1,0-0.2,0.1-0.4,0.2c0,0,0,0,0,0c-0.6,0.3-1,0.8-1.2,1.2v0c0,0.1,0,0.2,0,0.3v0c0,0.3,0,0.6,0,0.9c-311.5,0.9-537,0.9-548.4,0
	c-9.1-0.7-15.8-5.1-15.8-5.1l-0.1-0.1c-5-3.7-11.8-8.7-11.8-26L13,86.7c0.1-4.7,1.2-13.6,7.9-21c4.6-5.1,10-7.4,11.5-7.9
	c4.6-1.7,8.6-1.7,9.9-1.7c8.3,0,88.1-0.1,197.3,0l0-2.2c0,1.1,0,2.1,0,3.2v0c0,0.1,0,0.2,0,0.3v0c0.2,0.4,0.6,0.9,1.2,1.2
	c0,0,0,0,0,0c0.1,0.1,0.2,0.1,0.4,0.2c0.4,0.1,0.7,0.2,0.8,0.2c0,0,0,0,0,0c2.2,0.3,2.9,3.3,5.2,3.4c0,0,0,0,1,0c0,0,0.2,0,0.4,0v0
	h17.1V45.9h-15.3c-0.1,0-1.2,0-1.8,0c-0.2,0-0.3,0-0.4,0c-1,0-1,0-1,0c-2.2,0.2-2.9,3.1-5.2,3.4c0,0,0,0,0,0c-0.1,0-0.4,0-0.8,0.2
	c-0.1,0-0.2,0.1-0.4,0.2c0,0,0,0,0,0c-0.6,0.3-1,0.8-1.2,1.2v0c0,0.1,0,0.2,0,0.3v0c0,0.3,0,0.5,0,0.8c-109.2-0.1-189.1,0-197.3,0
	c-1.5,0-6,0-11.3,2c-2.3,0.8-8,3.4-13.1,9c-7.6,8.4-8.9,18.4-9,23.6l-0.1,66.7c0,19.2,8.4,25.5,13.4,29.2l0.2,0.2
	c0.3,0.2,7.6,5,17.8,5.8c5.8,0.4,65.4,0.7,162.8,0.7c96.7,0,230.6-0.2,385.9-0.7c0,0.3,0,0.6,0,0.9v0c0,0.1,0,0.2,0,0.3v0
	c0.2,0.4,0.6,0.9,1.2,1.2c0,0,0,0,0,0c0.1,0.1,0.2,0.1,0.4,0.2c0.4,0.1,0.7,0.2,0.8,0.2c0,0,0,0,0,0c2.2,0.3,2.9,3.3,5.2,3.4
	c0,0,0,0,1,0c0,0,0.2,0,0.4,0v0H615v-16.3h-15.3C599.6,178.4,598.5,178.4,597.9,178.4z"/>
<path class="st0" d="M617.2,177.4c0,6.5,0,13,0,19.5c4.8,1.6,12.1,3.5,21.2,3.5c9,0,16.3-1.9,21.1-3.5c0-6.5,0-13,0-19.5
	c-4.8-1.6-12.2-3.5-21.4-3.5C629.2,174,622,175.8,617.2,177.4z"/>
<path class="st0" d="M974,188.5l0-4L687.7,185c0-0.2,0-0.4,0-0.6v0c0-0.1,0-0.2,0-0.3v0c-0.2-0.4-0.6-0.9-1.2-1.2c0,0,0,0,0,0
	c-0.1-0.1-0.2-0.1-0.4-0.2c-0.4-0.1-0.7-0.2-0.8-0.2c0,0,0,0,0,0c-2.2-0.3-2.9-3.3-5.2-3.4c0,0,0,0-1,0c0,0-0.2,0-0.4,0v0h-17.1
	v16.3H677c0.1,0,1.2,0,1.8,0c0.2,0,0.3,0,0.4,0c1,0,1,0,1,0c2.2-0.2,2.9-3.1,5.2-3.4c0,0,0,0,0,0c0.1,0,0.4,0,0.8-0.2
	c0.1,0,0.2-0.1,0.4-0.2c0,0,0,0,0,0c0.6-0.3,1-0.8,1.2-1.2v0c0-0.1,0-0.2,0-0.3v0c0-0.4,0-0.7,0-1.1L974,188.5z"/>
</svg>