<svg width="1199" height="661" viewBox="0 0 1199 661" fill="none" xmlns="http://www.w3.org/2000/svg">
<path d="M22.0505 520.65C22.0505 520.53 22.0505 519.45 22.0505 518.86C22.0505 518.67 22.0505 518.52 22.0505 518.49C22.0505 517.47 22.0505 517.47 22.0505 517.47C21.8905 515.23 18.9205 514.53 18.6005 512.29C18.5905 512.19 18.5705 511.87 18.4405 511.48C18.4005 511.37 18.3505 511.25 18.2905 511.12C18.2905 511.12 18.2905 511.11 18.2805 511.11C17.9505 510.49 17.4305 510.12 17.0605 509.9C16.9605 509.9 16.8705 509.9 16.7705 509.9C16.2505 509.9 15.7405 509.9 15.2205 509.9V498.28C15.2605 493.04 16.4705 482.9 24.1005 473.81C34.5205 461.39 49.1405 460.21 53.3405 460.15H92.8005C92.9305 460.18 93.0705 460.19 93.2205 460.19H1095.58C1118.81 460.19 1137.7 441.29 1137.7 418.07V397.42C1138.01 397.42 1138.31 397.42 1138.62 397.42C1138.72 397.42 1138.81 397.42 1138.91 397.42C1139.28 397.21 1139.8 396.84 1140.13 396.21C1140.13 396.21 1140.13 396.2 1140.14 396.2C1140.2 396.08 1140.25 395.96 1140.29 395.84C1140.43 395.45 1140.44 395.14 1140.45 395.03C1140.76 392.79 1143.73 392.09 1143.9 389.85C1143.9 389.85 1143.9 389.85 1143.9 388.83C1143.9 388.79 1143.9 388.65 1143.9 388.46V371.39H1127.59V386.67C1127.59 386.78 1127.59 387.87 1127.59 388.46C1127.59 388.65 1127.59 388.8 1127.59 388.83C1127.59 389.85 1127.59 389.85 1127.59 389.85C1127.75 392.09 1130.72 392.79 1131.04 395.03C1131.05 395.13 1131.06 395.45 1131.2 395.84C1131.24 395.95 1131.29 396.07 1131.35 396.2C1131.35 396.2 1131.35 396.21 1131.36 396.21C1131.69 396.83 1132.21 397.2 1132.58 397.42C1132.68 397.42 1132.77 397.42 1132.87 397.42C1133.15 397.42 1133.44 397.42 1133.72 397.42V418.07C1133.72 439.09 1116.62 456.19 1095.6 456.19H1056.14C1056.01 456.16 1055.87 456.15 1055.72 456.15H53.3205C48.6605 456.22 32.5505 457.53 21.0405 471.24C12.6105 481.29 11.2705 492.48 11.2305 498.27V509.91C11.1605 509.91 11.0905 509.91 11.0105 509.91C10.9105 509.91 10.8205 509.91 10.7205 509.91C10.3505 510.12 9.83047 510.49 9.50047 511.12C9.50047 511.12 9.50047 511.13 9.49047 511.13C9.43047 511.25 9.38047 511.37 9.34047 511.49C9.20047 511.88 9.19047 512.19 9.18047 512.3C8.87047 514.54 5.90047 515.24 5.73047 517.48C5.73047 517.48 5.73047 517.48 5.73047 518.5C5.73047 518.54 5.73047 518.68 5.73047 518.87V535.94H22.0405V520.65H22.0505Z" fill="white"/>
<path d="M26.4698 559.04C26.4398 550.12 24.5998 542.91 22.9898 538.16C16.4898 538.16 9.98981 538.16 3.48981 538.16C1.86981 542.93 -0.000194441 550.26 0.00980556 559.33C0.0198056 568.35 1.87981 575.63 3.48981 580.4C9.98981 580.4 16.4898 580.4 22.9898 580.4C24.6098 575.59 26.4998 568.2 26.4698 559.04Z" fill="white"/>
<path d="M162.829 260.12H162.919C162.989 260.13 163.049 260.14 163.119 260.14H1095.6C1116.59 260.14 1125.63 274.63 1126 275.24L1126.59 276.2H1126.72C1130.99 282.07 1133.35 289.51 1133.72 298.25V338.57C1133.41 338.57 1133.11 338.57 1132.8 338.57C1132.7 338.57 1132.61 338.57 1132.51 338.57C1132.14 338.78 1131.62 339.15 1131.29 339.78C1131.29 339.78 1131.29 339.79 1131.28 339.79C1131.22 339.91 1131.17 340.03 1131.13 340.15C1130.99 340.54 1130.98 340.85 1130.97 340.96C1130.66 343.2 1127.69 343.9 1127.52 346.14C1127.52 346.14 1127.52 346.14 1127.52 347.16C1127.52 347.2 1127.52 347.34 1127.52 347.53V364.6H1143.83V349.32C1143.83 349.21 1143.83 348.12 1143.83 347.53C1143.83 347.34 1143.83 347.19 1143.83 347.16C1143.83 346.14 1143.83 346.14 1143.83 346.14C1143.67 343.9 1140.7 343.2 1140.38 340.96C1140.37 340.86 1140.36 340.54 1140.22 340.15C1140.18 340.04 1140.13 339.92 1140.07 339.79C1140.07 339.79 1140.07 339.78 1140.06 339.78C1139.73 339.16 1139.21 338.79 1138.84 338.57C1138.74 338.57 1138.65 338.57 1138.55 338.57C1138.27 338.57 1137.98 338.57 1137.7 338.57V298.16C1137.27 288.13 1134.46 279.69 1129.34 273.05C1128.37 271.5 1118.11 256.12 1095.58 256.12H169.869H163.259C157.339 255.24 146.159 252.37 136.709 242.95C122.989 229.28 122.709 211.63 122.949 206.45L122.969 58.91C122.969 46.46 126.099 36.64 132.519 28.9C142.599 16.76 158.619 13.42 170.299 12.76H238.769C239.869 12.76 240.769 11.86 240.769 10.76C240.769 9.66004 239.869 8.76004 238.769 8.76004H170.239H170.129C157.649 9.46004 140.459 13.07 129.439 26.34C122.389 34.83 118.969 45.48 118.959 58.9L118.939 206.34C118.679 211.84 118.989 230.94 133.879 245.76C144.219 256.11 156.449 259.19 162.829 260.12Z" fill="white"/>
<path d="M1068.98 656.18H53.35C49.66 656.18 36.8 655.37 26.45 645.07C16.04 634.71 15.23 621.77 15.23 618.06V608.66C15.5 608.66 15.77 608.66 16.03 608.66C16.13 608.66 16.22 608.66 16.32 608.66C16.69 608.45 17.21 608.08 17.54 607.45C17.54 607.45 17.54 607.44 17.55 607.44C17.61 607.32 17.66 607.2 17.7 607.08C17.84 606.69 17.85 606.38 17.86 606.27C18.17 604.03 21.14 603.33 21.31 601.09C21.31 601.09 21.31 601.09 21.31 600.07C21.31 600.03 21.31 599.89 21.31 599.7V582.63H5V597.91C5 598.03 5 599.11 5 599.7C5 599.89 5 600.04 5 600.07C5 601.09 5 601.09 5 601.09C5.16 603.33 8.13 604.03 8.45 606.27C8.46 606.37 8.48 606.69 8.61 607.08C8.65 607.19 8.7 607.31 8.76 607.44C8.76 607.44 8.76 607.45 8.77 607.45C9.1 608.07 9.62 608.44 9.99 608.66C10.09 608.66 10.18 608.66 10.28 608.66C10.6 608.66 10.92 608.66 11.24 608.66V618.06C11.24 622.17 12.14 636.45 23.64 647.9C35.07 659.28 49.28 660.17 53.36 660.18H1068.99H1158.71H1198.71V656.18H1158.71H1068.98Z" fill="white"/>
<path d="M399.82 12.79H510.1C511.2 12.79 512.1 11.89 512.1 10.79C512.1 9.69004 511.2 8.79004 510.1 8.79004H399.82C398.72 8.79004 397.82 9.69004 397.82 10.79C397.82 11.89 398.72 12.79 399.82 12.79Z" fill="white"/>
<path d="M942.48 11.19H1041.17C1041.17 11.5 1041.17 11.8 1041.17 12.11C1041.17 12.21 1041.17 12.3 1041.17 12.4C1041.38 12.77 1041.75 13.29 1042.38 13.62C1042.38 13.62 1042.39 13.62 1042.39 13.63C1042.51 13.69 1042.63 13.74 1042.75 13.78C1043.14 13.92 1043.45 13.93 1043.56 13.94C1045.8 14.25 1046.5 17.22 1048.74 17.39C1048.74 17.39 1048.74 17.39 1049.76 17.39C1049.8 17.39 1049.94 17.39 1050.13 17.39H1067.2V1.07004H1051.92C1051.81 1.07004 1050.72 1.07004 1050.13 1.07004C1049.94 1.07004 1049.79 1.07004 1049.76 1.07004C1048.74 1.07004 1048.74 1.07004 1048.74 1.07004C1046.5 1.23004 1045.8 4.20004 1043.56 4.52004C1043.46 4.53004 1043.14 4.55004 1042.75 4.68004C1042.64 4.72004 1042.52 4.77004 1042.39 4.83004C1042.39 4.83004 1042.38 4.83004 1042.38 4.84004C1041.76 5.17004 1041.39 5.69004 1041.17 6.06004C1041.17 6.16004 1041.17 6.25004 1041.17 6.35004C1041.17 6.63004 1041.17 6.92004 1041.17 7.20004H942.48C941.38 7.20004 940.48 8.10004 940.48 9.20004C940.48 10.3 941.38 11.19 942.48 11.19Z" fill="white"/>
<path d="M1100.01 7.19005C1100.01 6.88005 1100.01 6.58005 1100.01 6.27005C1100.01 6.17005 1100.01 6.08005 1100.01 5.98005C1099.8 5.61005 1099.43 5.09005 1098.8 4.76005C1098.8 4.76005 1098.79 4.76005 1098.79 4.75005C1098.67 4.69005 1098.55 4.64005 1098.43 4.60005C1098.04 4.46005 1097.73 4.45005 1097.62 4.44005C1095.38 4.13005 1094.68 1.16005 1092.44 0.990051C1092.44 0.990051 1092.44 0.990051 1091.42 0.990051C1091.38 0.990051 1091.24 0.990051 1091.05 0.990051H1073.98V17.3001H1089.26C1089.37 17.3001 1090.46 17.3001 1091.05 17.3001C1091.24 17.3001 1091.39 17.3001 1091.42 17.3001C1092.44 17.3001 1092.44 17.3001 1092.44 17.3001C1094.68 17.1401 1095.38 14.1701 1097.62 13.8501C1097.72 13.8401 1098.04 13.8201 1098.43 13.6901C1098.54 13.6501 1098.66 13.6001 1098.79 13.5401C1098.79 13.5401 1098.8 13.5401 1098.8 13.5301C1099.42 13.2001 1099.79 12.6801 1100.01 12.3101C1100.01 12.2101 1100.01 12.1201 1100.01 12.0201C1100.01 11.7401 1100.01 11.4501 1100.01 11.1701H1198.7V7.17005H1100.01V7.19005Z" fill="white"/>
<path d="M671.15 12.79H781.48C782.58 12.79 783.48 11.89 783.48 10.79C783.48 9.69004 782.58 8.79004 781.48 8.79004H671.15C670.05 8.79004 669.15 9.69004 669.15 10.79C669.15 11.89 670.05 12.79 671.15 12.79Z" fill="white"/>
</svg>
