<svg width="228" height="226" viewBox="0 0 228 226" fill="none" xmlns="http://www.w3.org/2000/svg">
<g clip-path="url(#clip0_456_6660)">
<path d="M9.98407 147.553C10.4131 147.553 10.8247 147.565 11.2246 147.581V28.6645C11.2303 23.4304 13.309 18.4123 17.0047 14.7111C20.7004 11.0099 25.7113 8.92778 30.9381 8.9216H157.872C157.86 8.44723 157.853 7.96119 157.853 7.46349C157.853 6.96578 157.853 6.48169 157.872 6.00537H30.9381C24.9385 6.01103 19.1861 8.40008 14.9436 12.6482C10.701 16.8963 8.31476 22.6565 8.30859 28.6645V147.602H8.33578C8.86191 147.569 9.41134 147.553 9.98407 147.553Z" fill="white"/>
<path d="M205.376 6.00537H200.278C200.29 6.48169 200.298 6.96773 200.298 7.46349C200.298 7.95925 200.298 8.44723 200.278 8.9216H205.376C210.603 8.92778 215.614 11.0099 219.31 14.7111C223.006 18.4123 225.084 23.4304 225.09 28.6645V203.337C225.084 208.571 223.005 213.589 219.31 217.29C215.614 220.991 210.603 223.072 205.376 223.078H30.939C26.134 223.072 21.4962 221.311 17.8949 218.126C14.2936 214.94 11.9761 210.549 11.3769 205.775C10.8644 205.8 10.3285 205.816 9.76939 205.816C9.31121 205.816 8.87244 205.804 8.44727 205.785C9.05416 211.336 11.6843 216.468 15.8342 220.199C19.9841 223.929 25.3622 225.996 30.939 226.004H205.376C211.377 225.997 217.129 223.607 221.371 219.357C225.613 215.107 227.998 209.346 228.002 203.337V28.6645C227.996 22.6571 225.61 16.8976 221.368 12.6496C217.127 8.40157 211.375 6.01206 205.376 6.00537Z" fill="white"/>
<path d="M167.749 0C166.542 0 165.614 4.2731e-06 165.031 0.0408315C164.194 0.0874912 163.618 0.198307 163.03 0.48993C161.907 1.04985 161.933 1.69336 160.818 2.19495C159.828 2.64016 159.354 2.33687 158.729 2.86179C158.191 3.31284 158.013 3.98552 157.953 4.45795C157.925 4.95954 157.906 5.47668 157.892 6.00355C157.881 6.47986 157.873 6.9659 157.873 7.46166C157.873 7.95742 157.873 8.4454 157.892 8.91978C157.906 9.44858 157.925 9.96573 157.953 10.4751C158.023 10.9475 158.201 11.6202 158.729 12.0713C159.354 12.5962 159.828 12.2929 160.818 12.7381C161.933 13.2397 161.907 13.8832 163.03 14.4431C163.612 14.7347 164.194 14.8456 165.031 14.8922C165.614 14.9253 166.551 14.9389 167.749 14.933H178.427V0H167.749Z" fill="white"/>
<path d="M200.279 6.00559C200.265 5.47872 200.244 4.96158 200.219 4.45999C200.149 3.98756 199.97 3.31488 199.442 2.86384C198.817 2.33892 198.343 2.64221 197.351 2.197C196.239 1.6954 196.264 1.05189 195.14 0.491975C194.557 0.200352 193.975 0.0895301 193.14 0.0428704C192.558 0.00981978 191.618 -0.00378763 190.41 0.00204483H179.732V14.9293H190.41C191.618 14.9293 192.546 14.9293 193.14 14.8884C193.977 14.8418 194.553 14.731 195.14 14.4393C196.264 13.8794 196.239 13.2359 197.351 12.7343C198.343 12.2891 198.817 12.5924 199.442 12.0675C199.98 11.6164 200.158 10.9437 200.219 10.4713C200.244 9.96972 200.265 9.45257 200.279 8.91599C200.29 8.44161 200.298 7.95558 200.298 7.45787C200.298 6.96017 200.29 6.48191 200.279 6.00559Z" fill="white"/>
<path d="M14.0671 152.983C14.0671 152.322 14.0671 151.817 14.0457 151.487C14.0441 151.107 13.96 150.732 13.7992 150.388C13.4944 149.772 13.141 149.785 12.8673 149.175C12.6227 148.631 12.7896 148.372 12.5023 148.028C12.273 147.783 11.9625 147.629 11.6286 147.596L11.2248 147.581C10.8249 147.565 10.4133 147.553 9.98422 147.553C9.41149 147.553 8.86206 147.569 8.33981 147.596H8.31263C7.98861 147.632 7.6882 147.783 7.46616 148.022C7.17883 148.366 7.34579 148.625 7.10117 149.169C6.82742 149.78 6.47408 149.766 6.16733 150.382C6.00813 150.727 5.9247 151.101 5.9227 151.481C5.90329 151.805 5.89553 152.317 5.89941 152.978V158.843H14.069V152.983H14.0671Z" fill="white"/>
<path d="M13.8532 194.526H5.68359V200.392C5.68359 201.053 5.68359 201.558 5.70495 201.889C5.70695 202.268 5.79037 202.643 5.94957 202.987C6.25632 203.603 6.60966 203.59 6.88341 204.2C7.12803 204.745 6.96107 205.003 7.2484 205.347C7.47767 205.593 7.78818 205.746 8.12205 205.779C8.22689 205.779 8.33756 205.779 8.44434 205.791C8.86951 205.81 9.30828 205.822 9.76646 205.822C10.3256 205.822 10.8614 205.806 11.374 205.781H11.4148C11.7486 205.748 12.0591 205.594 12.2884 205.349C12.5757 205.005 12.4088 204.747 12.6534 204.202C12.9271 203.592 13.2805 203.605 13.5872 202.989C13.7464 202.645 13.8299 202.27 13.8319 201.891C13.8513 201.566 13.859 201.055 13.8552 200.394L13.8532 194.526Z" fill="white"/>
<path d="M18.7936 168.132C18.5402 166.805 18.1679 165.504 17.6811 164.244C17.0221 162.567 16.1574 160.978 15.1068 159.514H5.0753C3.95992 160.998 3.02531 162.61 2.29126 164.316C1.9651 165.074 1.30888 166.711 0.738098 169.565C0.516773 170.668 -0.801472 177.575 0.738098 185.196C0.991313 186.523 1.36364 187.825 1.85055 189.084C2.51091 190.76 3.37628 192.348 4.42685 193.811H14.4642C15.5801 192.327 16.5153 190.716 17.2501 189.011C17.5763 188.25 18.2325 186.615 18.8033 183.761C19.0246 182.663 20.3467 175.755 18.7936 168.132Z" fill="white"/>
</g>
<defs>
<clipPath id="clip0_456_6660">
<rect width="228" height="226" fill="white"/>
</clipPath>
</defs>
</svg>
