<svg id="Camada_1" data-name="Camada 1" xmlns="http://www.w3.org/2000/svg" viewBox="0 0 169.2 57.42"><defs><style>.cls-1{fill:#231f20;}</style></defs><title>cesiumpreto</title><path class="cls-1" d="M81.78,26.56A2.56,2.56,0,0,0,79,24.17H76.54a2.75,2.75,0,0,0-2.76,2.76v6.5a2.82,2.82,0,0,0,2.76,2.85H79c1.53,0,2.77-.68,2.77-2.4h2.39a4.69,4.69,0,0,1-5,4.72H76.39a5,5,0,0,1-5-5.13V27a5.16,5.16,0,0,1,5.15-5.16H79a4.92,4.92,0,0,1,5.16,4.71Z" transform="translate(-1.64 -0.88)"/><path class="cls-1" d="M90.82,31.49v2.25a2.74,2.74,0,0,0,3,2.54h2.58a2.08,2.08,0,0,0,2.28-1.72h2.51a5,5,0,0,1-4.75,4H93.55a5,5,0,0,1-5.12-4.94V26.93a5.1,5.1,0,0,1,5.16-5.08h2.54A5.2,5.2,0,0,1,101.32,27v4.48Zm8.11-4.63a2.75,2.75,0,0,0-2.8-2.69h-2.5a2.73,2.73,0,0,0-2.81,2.69v2.35h8.11Z" transform="translate(-1.64 -0.88)"/><path class="cls-1" d="M114.52,38.6h-5.16a3.94,3.94,0,0,1-3.93-4h2.36a1.74,1.74,0,0,0,1.79,1.72h5a1.69,1.69,0,0,0,1.68-1.76V33a1.62,1.62,0,0,0-1.68-1.68h-4.74a3.9,3.9,0,0,1-4-4.08V25.92A4,4,0,0,1,110,21.85h3.89A4.17,4.17,0,0,1,118,26H115.6a1.79,1.79,0,0,0-1.87-1.79h-3.81a1.63,1.63,0,0,0-1.68,1.68v1.42A1.66,1.66,0,0,0,109.92,29h4.82a3.81,3.81,0,0,1,3.89,4v1.49A4,4,0,0,1,114.52,38.6Z" transform="translate(-1.64 -0.88)"/><path class="cls-1" d="M123,18.11V15.35h2.76v2.76Zm.19,20.26V22.15h2.39V38.37Z" transform="translate(-1.64 -0.88)"/><path class="cls-1" d="M133.05,22.15V33.62a2.6,2.6,0,0,0,2.69,2.66h2.84a2.52,2.52,0,0,0,2.77-2.47V22.15h2.39V38.37h-2.39v-1.2a4,4,0,0,1-3.18,1.43h-2.46a5,5,0,0,1-5.05-5.09V22.15Z" transform="translate(-1.64 -0.88)"/><path class="cls-1" d="M156.11,24.17h-2.5a2.56,2.56,0,0,0-2.73,2.54V38.37h-2.39V22.15h2.39v1.2a4,4,0,0,1,3.14-1.5h2.21a5.69,5.69,0,0,1,3.62,1.91,4.76,4.76,0,0,1,4-1.91h1.94a5,5,0,0,1,5,5V38.37h-2.39V26.9a2.57,2.57,0,0,0-2.54-2.73h-2.13A2.65,2.65,0,0,0,161,26.82V38.37h-2.39V26.86A2.69,2.69,0,0,0,156.11,24.17Z" transform="translate(-1.64 -0.88)"/><path class="cls-1" d="M17.44,33.57,10.2,29.4V21L26,30.16v8.36Zm2-28.51L26.67.88,51,15,26.67,29l-15.8-9.12,7.23-4.18,8.57,4.95L36.56,15Zm-1.32.76L33.9,15l-7.23,4.17L18.1,14.18,9.54,19.12,2.3,15ZM1.64,16.09l7.23,4.18v9.89l8.57,4.95v8.35L1.64,34.34Zm0,19.79,17.12,9.89V35.88L26,40.05V58.29L1.64,44.23ZM27.33,58.29V40.05l15.8-9.12v8.35l-8.57,4.95v9.89ZM51.69,44.22l-15.8,9.13V45l15.8-9.12Zm-7.23-5.7V30.93L51,34.72Zm7.23-14.07L27.33,38.52V30.16L51.69,16.09Z" transform="translate(-1.64 -0.88)"/></svg>