<svg width="167" height="130" viewBox="0 0 167 130" fill="none" xmlns="http://www.w3.org/2000/svg">
<path fill-rule="evenodd" clip-rule="evenodd" d="M5.22803 115.631H10.9934V116.411H6.05863V120.408H9.6742V121.14H6.05863V125.82H11.2377V126.551H5.22803V115.631Z" fill="black"/>
<path fill-rule="evenodd" clip-rule="evenodd" d="M17.1497 119.921L16.6122 120.36C16.0748 119.677 15.4396 119.336 14.7067 119.336C14.2181 119.336 13.8761 119.482 13.583 119.726C13.2898 119.97 13.1432 120.311 13.1432 120.652C13.1432 121.091 13.3875 121.432 13.8273 121.725C14.0715 121.871 14.5113 122.066 15.1464 122.261C15.9282 122.553 16.4656 122.797 16.7588 123.041C17.1985 123.382 17.394 123.87 17.394 124.455C17.394 125.088 17.1497 125.625 16.6611 126.064C16.1725 126.502 15.5373 126.697 14.7556 126.697C13.6807 126.697 12.8012 126.161 12.1172 125.137L12.7035 124.796C13.2409 125.625 13.925 126.015 14.8044 126.015C15.3907 126.015 15.8793 125.82 16.2213 125.479C16.4656 125.186 16.6122 124.893 16.6122 124.503C16.6122 124.065 16.4656 123.723 16.1236 123.48C15.8305 123.285 15.4396 123.09 14.951 122.943C14.0715 122.651 13.4364 122.358 12.9967 122.017C12.5569 121.676 12.3615 121.237 12.3615 120.652C12.3615 120.067 12.6058 119.58 13.0455 119.19C13.4852 118.848 14.0227 118.653 14.7067 118.653C15.7328 118.702 16.5145 119.092 17.1497 119.921Z" fill="black"/>
<path fill-rule="evenodd" clip-rule="evenodd" d="M23.8921 120.701L23.208 120.896C23.1103 120.603 23.0126 120.36 22.8172 120.116C22.4752 119.628 21.9866 119.336 21.4003 119.336C20.6674 119.336 20.1299 119.677 19.7391 120.408C19.397 121.042 19.2505 121.773 19.2505 122.7C19.2505 123.528 19.397 124.211 19.6413 124.796C19.9833 125.576 20.5697 125.966 21.3514 125.966C21.9866 125.966 22.5729 125.674 23.0126 125.04C23.1103 124.894 23.2569 124.65 23.4035 124.406L24.0386 124.698C23.8921 125.089 23.6966 125.381 23.4523 125.674C22.9149 126.307 22.2309 126.649 21.4491 126.649C20.4231 126.649 19.6413 126.161 19.1039 125.235C18.713 124.503 18.5176 123.675 18.5176 122.7C18.5176 121.676 18.7619 120.75 19.2016 119.97C19.4459 119.531 19.7879 119.238 20.1788 118.995C20.5697 118.751 21.0094 118.653 21.498 118.653C22.2309 118.653 22.866 118.946 23.3058 119.482C23.5012 119.823 23.7455 120.213 23.8921 120.701Z" fill="black"/>
<path fill-rule="evenodd" clip-rule="evenodd" d="M28.0453 119.336C27.2636 119.336 26.6773 119.726 26.2375 120.555C25.9444 121.091 25.8467 121.822 25.8467 122.7C25.8467 123.723 26.0421 124.552 26.433 125.137C26.8238 125.722 27.3613 126.015 28.0942 126.015C28.9736 126.015 29.6088 125.576 29.9997 124.747C30.244 124.211 30.3417 123.48 30.3417 122.602C30.3417 121.627 30.1462 120.847 29.8042 120.262C29.3645 119.677 28.7782 119.336 28.0453 119.336ZM28.143 118.702C29.1691 118.702 29.9508 119.19 30.4883 120.116C30.8791 120.75 31.0746 121.627 31.0746 122.651C31.0746 123.821 30.8303 124.747 30.3905 125.43C29.8531 126.258 29.0714 126.697 28.0942 126.697C27.0681 126.697 26.2375 126.258 25.7001 125.332C25.3092 124.698 25.1138 123.821 25.1138 122.7C25.1138 121.432 25.4069 120.457 25.9444 119.726C26.4818 119.043 27.2147 118.702 28.143 118.702Z" fill="black"/>
<path d="M33.5176 115.631H32.7847V126.551H33.5176V115.631Z" fill="black"/>
<path fill-rule="evenodd" clip-rule="evenodd" d="M39.9663 122.066C39.1357 122.261 38.4517 122.456 37.8653 122.7C37.3279 122.895 36.9859 123.09 36.7416 123.333C36.3507 123.675 36.1553 124.113 36.1553 124.65C36.1553 125.04 36.3019 125.332 36.5462 125.625C36.8393 125.917 37.1813 126.112 37.621 126.112C38.4028 126.112 39.1845 125.673 39.9663 124.845V122.066ZM36.2041 120.555L35.6667 120.213C36.2041 119.238 37.0347 118.702 38.2562 118.702C38.6959 118.702 39.1357 118.8 39.4777 118.946C39.8686 119.141 40.1129 119.336 40.3572 119.628C40.6014 119.97 40.6992 120.408 40.748 120.896C40.748 121.14 40.748 121.481 40.748 121.871V123.772C40.748 125.088 40.8457 126.015 40.9435 126.6H40.1617C40.1129 126.307 40.0151 125.868 40.0151 125.381C39.722 125.673 39.4777 125.917 39.2823 126.063C38.7937 126.453 38.2074 126.697 37.5722 126.697C36.8882 126.697 36.3507 126.502 35.9598 126.063C35.569 125.673 35.3735 125.186 35.3735 124.601C35.3735 123.431 36.1553 122.602 37.6699 122.066C38.0608 121.92 38.6471 121.773 39.4288 121.627C39.722 121.578 39.8686 121.53 39.9663 121.53C39.9663 121.042 39.9174 120.652 39.8197 120.36C39.722 120.018 39.4777 119.775 39.1845 119.628C38.8914 119.482 38.5494 119.385 38.2074 119.385C37.6699 119.385 37.1813 119.531 36.7416 119.872C36.5462 120.018 36.3507 120.262 36.2041 120.555Z" fill="black"/>
<path fill-rule="evenodd" clip-rule="evenodd" d="M51.5461 120.457C50.9109 119.726 50.2269 119.385 49.5917 119.385C48.81 119.385 48.2236 119.775 47.7839 120.603C47.4908 121.14 47.3442 121.822 47.3442 122.651C47.3442 123.675 47.5396 124.503 47.9305 125.137C48.3214 125.722 48.81 126.063 49.494 126.063C49.9826 126.063 50.4223 125.917 50.9109 125.576C51.1552 125.43 51.3506 125.186 51.5461 124.991V124.747V124.162V123.967V120.457ZM52.2789 115.631V124.601C52.2789 125.381 52.3278 126.015 52.3767 126.551H51.6926C51.6926 126.502 51.6438 126.356 51.6438 126.063C51.6438 125.966 51.5949 125.771 51.5949 125.478C50.9598 126.258 50.2269 126.649 49.494 126.649C49.0054 126.649 48.5657 126.502 48.1748 126.258C47.7839 126.015 47.4419 125.673 47.1976 125.186C46.8067 124.455 46.6602 123.577 46.6602 122.553C46.6602 121.53 46.8556 120.701 47.2465 120.067C47.4908 119.628 47.8328 119.287 48.2725 119.043C48.6634 118.8 49.1031 118.653 49.5428 118.653C50.2757 118.653 50.9598 118.995 51.5949 119.726V115.582L52.2789 115.631Z" fill="black"/>
<path fill-rule="evenodd" clip-rule="evenodd" d="M54.9175 122.017H58.9239C58.8751 121.432 58.7774 120.945 58.6308 120.506C58.4842 120.165 58.2399 119.872 57.9467 119.677C57.6536 119.482 57.3604 119.385 57.0184 119.385C56.2367 119.385 55.6504 119.823 55.2595 120.652C55.0641 121.042 54.9175 121.481 54.9175 122.017ZM59.7057 122.7H54.8686C54.9175 123.333 54.9663 123.821 55.0641 124.26C55.2106 124.796 55.5038 125.283 55.8947 125.625C56.2367 125.917 56.6276 126.063 57.0673 126.063C57.7513 126.063 58.3376 125.722 58.8751 125.088C58.9728 124.942 59.1194 124.796 59.2171 124.552L59.7545 124.893C59.608 125.186 59.4125 125.43 59.2659 125.625C58.7285 126.356 57.9956 126.697 57.0673 126.697C55.8947 126.697 55.0641 126.161 54.5755 125.04C54.2823 124.357 54.1357 123.577 54.1357 122.7C54.1357 121.773 54.2823 120.993 54.5755 120.408C55.0641 119.287 55.8947 118.751 56.9696 118.751C58.1422 118.751 58.9239 119.385 59.4125 120.652C59.608 121.14 59.7057 121.822 59.7057 122.7Z" fill="black"/>
<path fill-rule="evenodd" clip-rule="evenodd" d="M65.9111 115.631H71.6765V116.411H66.7417V120.408H70.3573V121.14H66.7417V125.82H71.9208V126.551H65.9111V115.631Z" fill="black"/>
<path fill-rule="evenodd" clip-rule="evenodd" d="M74.2656 118.8V119.531V119.677V119.823V120.165C75.1451 119.141 76.0246 118.653 76.904 118.653C77.3438 118.653 77.7835 118.8 78.1255 119.141C78.4675 119.433 78.663 119.823 78.7118 120.311C78.7607 120.506 78.7607 120.798 78.7607 121.14V126.6H78.0278V121.188C78.0278 120.701 77.9789 120.311 77.8812 120.018C77.7835 119.775 77.5881 119.58 77.3438 119.433C77.1483 119.336 76.9529 119.287 76.7086 119.287C75.9268 119.287 75.0962 119.775 74.2168 120.798V126.551H73.4839V118.8H74.2656Z" fill="black"/>
<path fill-rule="evenodd" clip-rule="evenodd" d="M83.0602 125.966C82.5716 126.112 82.1808 126.258 81.9365 126.356C81.4479 126.648 81.2524 126.99 81.2524 127.428C81.2524 127.819 81.4967 128.111 81.9365 128.306C82.2785 128.452 82.7671 128.55 83.4022 128.55C84.2817 128.55 84.9657 128.404 85.4055 128.062C85.7963 127.77 86.0406 127.428 86.0406 127.038C86.0406 126.746 85.8941 126.502 85.6009 126.356C85.3566 126.21 84.868 126.112 84.0374 126.015C83.4511 125.966 83.1091 125.917 83.0602 125.966ZM83.3045 119.336C82.7182 119.336 82.2785 119.531 81.9365 119.97C81.5945 120.36 81.399 120.847 81.399 121.383C81.399 121.968 81.5945 122.505 82.0342 122.895C82.4251 123.236 82.8648 123.431 83.3534 123.431C84.0374 123.431 84.5749 123.138 84.9657 122.602C85.21 122.261 85.3077 121.871 85.3077 121.383C85.3077 120.75 85.1123 120.213 84.6726 119.823C84.3306 119.482 83.842 119.336 83.3045 119.336ZM86.6758 118.507V119.238C86.0895 119.238 85.6498 119.336 85.3077 119.482C85.7963 119.97 86.0406 120.603 86.0406 121.286C86.0406 122.066 85.7963 122.651 85.2589 123.187C84.7703 123.675 84.184 123.918 83.5 123.918C83.1091 123.918 82.7182 123.87 82.2785 123.723C81.741 123.918 81.4479 124.211 81.4479 124.552C81.4479 124.796 81.6922 124.942 82.1808 125.088C82.3273 125.137 82.9136 125.186 83.9397 125.283C84.6726 125.381 85.21 125.43 85.4543 125.478C85.7475 125.527 85.9429 125.625 86.1383 125.722C86.5781 126.015 86.7735 126.405 86.7735 126.941C86.7735 127.672 86.3826 128.257 85.6498 128.647C85.0146 128.989 84.2328 129.135 83.2557 129.135C82.3762 129.135 81.6922 128.989 81.2036 128.696C80.715 128.404 80.4707 128.014 80.4707 127.526C80.4707 126.648 81.057 126.063 82.2296 125.722C81.9365 125.673 81.6922 125.625 81.4967 125.527C81.0081 125.332 80.7639 125.04 80.7639 124.65C80.7639 124.162 81.1059 123.772 81.8388 123.48C81.1059 122.943 80.715 122.212 80.715 121.335C80.715 120.555 81.0082 119.872 81.5945 119.384C82.0831 118.946 82.6694 118.702 83.4022 118.702C83.9886 118.702 84.4771 118.848 84.9169 119.141C85.4055 118.799 85.9918 118.556 86.6758 118.507Z" fill="black"/>
<path fill-rule="evenodd" clip-rule="evenodd" d="M87.9463 122.017H91.9527C91.9039 121.432 91.8062 120.945 91.6596 120.506C91.513 120.165 91.2687 119.872 90.9756 119.677C90.6824 119.482 90.3893 119.385 90.0472 119.385C89.2655 119.385 88.6792 119.823 88.2883 120.652C88.0929 121.042 87.9952 121.481 87.9463 122.017ZM92.7345 122.7H87.8974C87.9463 123.333 87.9952 123.821 88.0929 124.26C88.2394 124.796 88.5326 125.283 88.9235 125.625C89.2655 125.917 89.6564 126.064 90.0961 126.064C90.7801 126.064 91.3664 125.722 91.9039 125.088C92.0016 124.942 92.1482 124.796 92.2459 124.601L92.7834 124.942C92.6368 125.235 92.4413 125.479 92.2948 125.674C91.7573 126.405 91.0244 126.746 90.0961 126.746C88.9235 126.746 88.0929 126.21 87.6043 125.088C87.3111 124.406 87.1646 123.626 87.1646 122.748C87.1646 121.822 87.3111 121.042 87.6043 120.457C88.0929 119.336 88.9235 118.8 89.9984 118.8C91.171 118.8 91.9527 119.433 92.4413 120.701C92.6368 121.14 92.7345 121.822 92.7345 122.7Z" fill="black"/>
<path fill-rule="evenodd" clip-rule="evenodd" d="M95.3242 118.8V119.531V119.677V119.823V120.165C96.2037 119.141 97.0832 118.653 97.9626 118.653C98.4023 118.653 98.8421 118.8 99.1841 119.141C99.5261 119.433 99.7215 119.823 99.7704 120.311C99.8193 120.506 99.8193 120.798 99.8193 121.14V126.6H99.0864V121.188C99.0864 120.701 99.0375 120.311 98.9398 120.018C98.8421 119.775 98.6466 119.58 98.4023 119.433C98.2069 119.336 98.0115 119.287 97.7672 119.287C96.9854 119.287 96.1548 119.775 95.2754 120.798V126.551H94.5425V118.8H95.3242Z" fill="black"/>
<path fill-rule="evenodd" clip-rule="evenodd" d="M102.897 115.631V120.165C103.728 119.141 104.607 118.653 105.486 118.653C105.975 118.653 106.415 118.799 106.806 119.141C107.148 119.433 107.343 119.969 107.392 120.701C107.392 120.896 107.392 121.237 107.392 121.822V126.6H106.659V121.676C106.659 121.042 106.659 120.555 106.61 120.311C106.561 120.018 106.415 119.774 106.17 119.579C105.926 119.384 105.682 119.287 105.34 119.287C104.851 119.287 104.265 119.531 103.679 120.018C103.386 120.262 103.141 120.506 102.897 120.798V126.551H102.164V115.631H102.897Z" fill="black"/>
<path fill-rule="evenodd" clip-rule="evenodd" d="M113.842 122.066C113.011 122.261 112.327 122.456 111.741 122.7C111.203 122.895 110.861 123.09 110.617 123.333C110.226 123.675 110.031 124.113 110.031 124.65C110.031 125.04 110.177 125.332 110.422 125.625C110.715 125.917 111.057 126.112 111.497 126.112C112.278 126.112 113.06 125.673 113.842 124.845V122.066ZM110.08 120.555L109.542 120.213C110.08 119.238 110.91 118.702 112.132 118.702C112.571 118.702 113.011 118.8 113.353 118.946C113.744 119.141 113.988 119.336 114.233 119.628C114.477 119.97 114.575 120.408 114.624 120.896C114.624 121.14 114.624 121.481 114.624 121.871V123.772C114.624 125.088 114.721 126.015 114.819 126.6H114.037C113.988 126.307 113.891 125.868 113.891 125.381C113.597 125.673 113.353 125.917 113.158 126.063C112.669 126.453 112.083 126.697 111.448 126.697C110.764 126.697 110.226 126.502 109.835 126.063C109.444 125.673 109.249 125.186 109.249 124.601C109.249 123.431 110.031 122.602 111.545 122.066C111.936 121.92 112.523 121.773 113.304 121.627C113.597 121.578 113.744 121.53 113.842 121.53C113.842 121.042 113.793 120.652 113.695 120.36C113.597 120.018 113.353 119.775 113.06 119.628C112.767 119.482 112.425 119.385 112.083 119.385C111.545 119.385 111.057 119.531 110.617 119.872C110.422 120.018 110.226 120.262 110.08 120.555Z" fill="black"/>
<path fill-rule="evenodd" clip-rule="evenodd" d="M120.145 118.653V119.385C119.754 119.385 119.412 119.482 119.119 119.628C118.19 120.165 117.702 121.091 117.604 122.407V126.551H116.871V118.8H117.604V120.847C117.751 120.311 117.995 119.872 118.288 119.531C118.777 118.946 119.314 118.653 119.949 118.653C120.047 118.653 120.096 118.653 120.145 118.653Z" fill="black"/>
<path fill-rule="evenodd" clip-rule="evenodd" d="M122.148 116.118V117.239H121.317V116.118H122.148ZM122.099 118.799V126.551H121.366V118.799H122.099Z" fill="black"/>
<path fill-rule="evenodd" clip-rule="evenodd" d="M128.548 122.066C127.717 122.261 127.033 122.456 126.447 122.7C125.909 122.895 125.567 123.09 125.323 123.333C124.932 123.675 124.737 124.113 124.737 124.65C124.737 125.04 124.883 125.332 125.128 125.625C125.421 125.917 125.763 126.112 126.203 126.112C126.984 126.112 127.766 125.673 128.548 124.845V122.066ZM124.786 120.555L124.248 120.213C124.786 119.238 125.616 118.702 126.838 118.702C127.278 118.702 127.717 118.8 128.059 118.946C128.45 119.141 128.694 119.336 128.939 119.628C129.183 119.97 129.281 120.408 129.33 120.896C129.33 121.14 129.33 121.481 129.33 121.871V123.772C129.33 125.088 129.427 126.015 129.525 126.6H128.743C128.694 126.307 128.597 125.868 128.597 125.381C128.304 125.673 128.059 125.917 127.864 126.063C127.375 126.453 126.789 126.697 126.154 126.697C125.47 126.697 124.932 126.502 124.541 126.063C124.151 125.673 123.955 125.186 123.955 124.601C123.955 123.431 124.737 122.602 126.251 122.066C126.642 121.92 127.229 121.773 128.01 121.627C128.304 121.578 128.45 121.53 128.548 121.53C128.548 121.042 128.499 120.652 128.401 120.36C128.304 120.018 128.059 119.775 127.766 119.628C127.473 119.482 127.131 119.385 126.789 119.385C126.251 119.385 125.763 119.531 125.323 119.872C125.128 120.067 124.932 120.262 124.786 120.555Z" fill="black"/>
<path fill-rule="evenodd" clip-rule="evenodd" d="M7.52419 97.4952V104.662C7.52419 105.149 7.52419 105.49 7.57305 105.685C7.62191 106.027 7.76849 106.27 8.01278 106.465C8.20822 106.612 8.50137 106.709 8.79453 106.709C9.28312 106.709 9.62513 106.514 9.86943 106.173C10.0649 105.929 10.1626 105.393 10.1626 104.613V97.4464H12.8987V104.613C12.8987 105.247 12.8498 105.685 12.801 106.075C12.7032 106.417 12.6055 106.758 12.4101 107.05C11.7261 108.123 10.5046 108.659 8.79453 108.659C7.37762 108.659 6.35158 108.269 5.61869 107.489C5.22782 107.05 4.98352 106.514 4.8858 105.929C4.83695 105.49 4.78809 105.003 4.78809 104.418V97.5927L7.52419 97.4952Z" fill="black"/>
<path fill-rule="evenodd" clip-rule="evenodd" d="M17.15 100.713V101.59C18.0295 100.81 18.9089 100.469 19.7884 100.469C20.1304 100.469 20.4236 100.566 20.7167 100.713C21.0099 100.908 21.2053 101.103 21.3519 101.347C21.5473 101.785 21.6939 102.468 21.6939 103.443V108.415H19.2021V103.443C19.2021 102.76 18.9089 102.419 18.3715 102.419C17.9806 102.419 17.5897 102.614 17.15 103.004V108.415H14.6582V100.713H17.15Z" fill="black"/>
<path fill-rule="evenodd" clip-rule="evenodd" d="M25.7975 97.4951V99.6889H23.3057V97.4951H25.7975ZM25.7975 100.713V108.415H23.3057V100.713H25.7975Z" fill="black"/>
<path fill-rule="evenodd" clip-rule="evenodd" d="M34.0551 100.713L31.7587 108.415H28.9737L26.4819 100.713H29.218L29.9998 103.784C30.2441 104.71 30.3907 105.637 30.4884 106.465C30.5372 105.685 30.6838 104.759 30.9281 103.638L31.5144 100.713H34.0551Z" fill="black"/>
<path fill-rule="evenodd" clip-rule="evenodd" d="M36.9377 103.735H39.234C39.234 103.394 39.1852 103.053 39.0875 102.858C38.892 102.419 38.55 102.224 38.1103 102.224C37.6217 102.224 37.2797 102.468 37.0843 102.955C36.9865 103.15 36.9377 103.394 36.9377 103.735ZM39.234 105.978L41.5304 106.173C41.1396 107.83 39.9669 108.659 38.0614 108.659C36.7911 108.659 35.8139 108.269 35.1787 107.489C34.5924 106.807 34.3481 105.88 34.3481 104.71C34.3481 103.492 34.6413 102.468 35.1787 101.737C35.5208 101.298 35.9605 100.957 36.4979 100.761C36.9865 100.566 37.524 100.469 38.0614 100.469C39.0875 100.469 39.9181 100.81 40.5532 101.444C41.0418 101.932 41.335 102.565 41.4816 103.345C41.5304 103.54 41.5304 104.125 41.5793 105.1H36.9865C36.9865 105.539 37.0354 105.88 37.0843 106.124C37.1331 106.368 37.2797 106.563 37.524 106.709C37.7194 106.807 37.9149 106.904 38.1591 106.904C38.6966 106.855 39.0875 106.563 39.234 105.978Z" fill="black"/>
<path fill-rule="evenodd" clip-rule="evenodd" d="M48.2729 100.518V102.858C48.0775 102.809 47.882 102.809 47.7355 102.809C47.1491 102.809 46.6117 103.004 46.172 103.297C45.8788 103.492 45.6345 103.784 45.4391 104.174V108.416H42.9473V100.713H45.4391V101.395C45.4391 101.395 45.4391 101.444 45.4391 101.59C45.4391 101.639 45.4391 101.688 45.4391 101.785C45.4391 101.883 45.4391 102.078 45.4391 102.322C45.6834 101.883 45.9277 101.542 46.172 101.298C46.7094 100.762 47.2957 100.518 47.882 100.518C47.9797 100.469 48.1263 100.469 48.2729 100.518Z" fill="black"/>
<path fill-rule="evenodd" clip-rule="evenodd" d="M55.0644 102.565L52.768 102.76C52.7191 102.273 52.4748 102.078 52.0839 102.078C51.8397 102.078 51.6442 102.175 51.4976 102.322C51.3999 102.419 51.3511 102.565 51.3511 102.76C51.3511 103.102 51.4976 103.297 51.8397 103.443C51.9374 103.492 52.3771 103.589 53.2077 103.735C54.6735 104.028 55.3575 104.808 55.3575 106.027C55.3575 106.807 55.0644 107.44 54.478 107.928C53.9406 108.416 53.11 108.611 51.9862 108.611C50.2273 108.611 49.2501 107.831 49.1035 106.27L51.3999 106.124C51.4488 106.709 51.7419 107.002 52.2794 107.002C52.5725 107.002 52.768 106.904 52.9146 106.709C53.0123 106.612 53.0123 106.465 53.0123 106.319C53.0123 105.929 52.7191 105.637 52.0839 105.539C51.4488 105.442 51.009 105.344 50.7648 105.247C50.4716 105.149 50.2762 105.052 50.0319 104.905C49.3967 104.467 49.0547 103.833 49.0547 102.955C49.0547 102.175 49.3478 101.542 49.983 101.054C50.5205 100.615 51.2045 100.42 52.1817 100.42C52.768 100.42 53.3054 100.518 53.7452 100.713C54.1849 100.908 54.5269 101.152 54.7712 101.542C54.9178 101.785 55.0155 102.127 55.0644 102.565Z" fill="black"/>
<path fill-rule="evenodd" clip-rule="evenodd" d="M59.1686 97.4951V99.6889H56.6768V97.4951H59.1686ZM59.1686 100.713V108.415H56.6768V100.713H59.1686Z" fill="black"/>
<path fill-rule="evenodd" clip-rule="evenodd" d="M65.3243 103.102C65.0311 102.663 64.6891 102.419 64.2494 102.419C63.8097 102.419 63.4676 102.712 63.2234 103.297C63.1256 103.638 63.0768 104.028 63.0768 104.564C63.0768 105.344 63.2234 105.978 63.4676 106.368C63.6631 106.709 63.9562 106.855 64.2494 106.855C64.6891 106.855 65.0311 106.612 65.2754 106.124V105.832V105.442V105.149L65.3243 103.102ZM67.8161 97.4951V108.415H65.6663L65.5686 107.635C64.9334 108.318 64.2494 108.659 63.5165 108.659C62.4905 108.659 61.7087 108.172 61.1713 107.245C60.7804 106.514 60.585 105.637 60.585 104.613C60.585 103.443 60.8293 102.517 61.269 101.834C61.5621 101.395 61.8553 101.103 62.2462 100.859C62.637 100.615 63.0768 100.518 63.5165 100.518C64.2005 100.518 64.8357 100.859 65.422 101.493V97.5439L67.8161 97.4951Z" fill="black"/>
<path fill-rule="evenodd" clip-rule="evenodd" d="M73.8262 104.905C73.4354 104.954 72.9956 105.052 72.5559 105.247C72.0185 105.442 71.7253 105.783 71.7253 106.222C71.7253 106.417 71.823 106.612 71.9696 106.709C72.1162 106.807 72.2628 106.855 72.4582 106.855C72.8979 106.855 73.3377 106.66 73.8262 106.319V104.905ZM71.823 103.102L69.4289 102.809C69.5266 102.175 69.7221 101.737 70.0641 101.395C70.6504 100.762 71.6276 100.42 72.9468 100.42C74.266 100.42 75.1943 100.713 75.7318 101.298C76.0249 101.639 76.2203 102.029 76.2692 102.468C76.3181 102.76 76.3181 103.15 76.3181 103.638V105.588C76.3181 107.05 76.3669 107.977 76.4158 108.416H74.0217L73.924 107.782C73.1911 108.367 72.4582 108.611 71.6276 108.611C70.8947 108.611 70.3084 108.416 69.8198 108.074C69.3312 107.684 69.0869 107.148 69.0869 106.465C69.0869 105.637 69.4778 104.954 70.2107 104.467C70.797 104.077 71.9207 103.735 73.6308 103.394L73.8262 103.345C73.8262 103.248 73.8262 103.199 73.8262 103.15C73.8262 102.76 73.7774 102.517 73.6308 102.419C73.4842 102.273 73.2399 102.224 72.9468 102.224C72.3116 102.175 71.9207 102.517 71.823 103.102Z" fill="black"/>
<path fill-rule="evenodd" clip-rule="evenodd" d="M82.4254 103.102C82.1322 102.663 81.7902 102.419 81.3505 102.419C80.9107 102.419 80.5687 102.712 80.3244 103.297C80.2267 103.638 80.1778 104.028 80.1778 104.564C80.1778 105.344 80.3244 105.978 80.5687 106.368C80.7642 106.709 81.0573 106.855 81.3505 106.855C81.7902 106.855 82.1322 106.612 82.3765 106.124V105.832V105.442V105.149L82.4254 103.102ZM84.9172 97.4951V108.415H82.7674L82.6697 107.635C82.0345 108.318 81.3505 108.659 80.6176 108.659C79.5915 108.659 78.8098 108.172 78.2723 107.245C77.8815 106.514 77.686 105.637 77.686 104.613C77.686 103.443 77.9303 102.517 78.3701 101.834C78.6632 101.395 78.9564 101.103 79.3472 100.859C79.7381 100.615 80.1778 100.518 80.6176 100.518C81.3016 100.518 81.9368 100.859 82.5231 101.493V97.5439L84.9172 97.4951Z" fill="black"/>
<path fill-rule="evenodd" clip-rule="evenodd" d="M88.8254 103.735H91.1218C91.1218 103.394 91.0729 103.053 90.9752 102.858C90.7797 102.419 90.4377 102.224 89.998 102.224C89.5094 102.224 89.1674 102.468 88.9719 102.955C88.8742 103.15 88.8254 103.394 88.8254 103.735ZM91.1218 105.978L93.4181 106.173C93.0273 107.83 91.8546 108.659 89.9491 108.659C88.6788 108.659 87.7016 108.269 87.0664 107.489C86.4801 106.807 86.2358 105.88 86.2358 104.71C86.2358 103.492 86.529 102.468 87.0664 101.737C87.4085 101.298 87.8482 100.957 88.3856 100.761C88.8742 100.566 89.4117 100.469 89.9491 100.469C90.9752 100.469 91.8058 100.81 92.441 101.444C92.9295 101.932 93.2227 102.565 93.3693 103.345C93.4181 103.54 93.4181 104.125 93.467 105.1H88.8742C88.8742 105.539 88.9231 105.88 88.9719 106.124C89.0208 106.368 89.1674 106.563 89.4117 106.709C89.6071 106.807 89.8026 106.904 90.0468 106.904C90.5843 106.855 90.9752 106.563 91.1218 105.978Z" fill="black"/>
<path fill-rule="evenodd" clip-rule="evenodd" d="M103.483 103.102C103.19 102.663 102.848 102.419 102.409 102.419C101.969 102.419 101.627 102.712 101.383 103.297C101.285 103.638 101.236 104.028 101.236 104.564C101.236 105.344 101.383 105.978 101.627 106.368C101.822 106.709 102.115 106.855 102.409 106.855C102.848 106.855 103.19 106.612 103.435 106.124V105.832V105.442V105.149L103.483 103.102ZM105.975 97.4951V108.415H103.825L103.728 107.635C103.093 108.318 102.409 108.659 101.676 108.659C100.65 108.659 99.8679 108.172 99.3304 107.245C98.9396 106.514 98.7441 105.637 98.7441 104.613C98.7441 103.443 98.9884 102.517 99.4282 101.834C99.7213 101.395 100.014 101.103 100.405 100.859C100.796 100.615 101.236 100.518 101.676 100.518C102.36 100.518 102.995 100.859 103.581 101.493V97.5439L105.975 97.4951Z" fill="black"/>
<path fill-rule="evenodd" clip-rule="evenodd" d="M111.008 102.224C110.275 102.224 109.884 102.955 109.884 104.467C109.884 105.247 109.933 105.783 110.079 106.173C110.275 106.66 110.568 106.855 111.008 106.855C111.545 106.855 111.887 106.514 112.034 105.832C112.131 105.442 112.18 104.905 112.18 104.272C112.18 102.907 111.789 102.224 111.008 102.224ZM111.105 100.42C112.474 100.42 113.5 100.957 114.135 101.98C114.574 102.663 114.77 103.492 114.77 104.467C114.77 105.783 114.428 106.807 113.744 107.538C113.06 108.269 112.131 108.611 110.959 108.611C109.591 108.611 108.614 108.123 107.978 107.197C107.49 106.465 107.246 105.588 107.246 104.515C107.246 103.833 107.343 103.199 107.588 102.663C107.783 102.078 108.125 101.639 108.516 101.298C109.151 100.713 110.031 100.42 111.105 100.42Z" fill="black"/>
<path fill-rule="evenodd" clip-rule="evenodd" d="M132.31 97.4951V108.415H129.574V101.2C129.574 101.2 129.574 101.103 129.574 100.956C129.574 100.859 129.574 100.761 129.574 100.761V100.03C129.574 99.9814 129.574 99.8352 129.574 99.5427C129.525 99.6889 129.476 100.03 129.33 100.518L129.232 100.956L127.424 108.464H125.275L123.516 101.249C123.369 100.566 123.271 100.03 123.174 99.5914V99.9814V100.81V101.249V108.464H120.438V97.5439H124.786L126.154 103.053C126.349 103.833 126.447 104.418 126.496 104.905C126.545 104.515 126.643 103.979 126.789 103.297L126.838 103.053L127.962 97.5439L132.31 97.4951Z" fill="black"/>
<path fill-rule="evenodd" clip-rule="evenodd" d="M136.658 97.4951V99.6889H134.167V97.4951H136.658ZM136.658 100.713V108.415H134.167V100.713H136.658Z" fill="black"/>
<path fill-rule="evenodd" clip-rule="evenodd" d="M140.763 100.713V101.59C141.643 100.81 142.522 100.469 143.402 100.469C143.744 100.469 144.037 100.566 144.33 100.713C144.623 100.908 144.819 101.103 144.965 101.347C145.161 101.785 145.307 102.468 145.307 103.443V108.415H142.815V103.443C142.815 102.76 142.522 102.419 141.985 102.419C141.594 102.419 141.203 102.614 140.763 103.004V108.415H138.271V100.713H140.763Z" fill="black"/>
<path fill-rule="evenodd" clip-rule="evenodd" d="M149.46 97.4951V101.59C149.655 101.346 149.949 101.103 150.291 100.908C150.877 100.566 151.463 100.42 151.952 100.42C152.343 100.42 152.636 100.518 152.978 100.664C153.271 100.81 153.515 101.054 153.662 101.346C153.857 101.785 154.004 102.419 154.004 103.297V108.415H151.512V103.492C151.512 103.199 151.463 103.004 151.414 102.858C151.268 102.565 151.024 102.468 150.682 102.468C150.291 102.468 149.9 102.663 149.509 103.102V108.464H147.017V97.5439L149.46 97.4951Z" fill="black"/>
<path fill-rule="evenodd" clip-rule="evenodd" d="M158.987 102.224C158.254 102.224 157.863 102.955 157.863 104.467C157.863 105.247 157.912 105.783 158.059 106.173C158.254 106.66 158.548 106.855 158.987 106.855C159.525 106.855 159.867 106.514 160.013 105.832C160.111 105.442 160.16 104.905 160.16 104.272C160.16 102.907 159.769 102.224 158.987 102.224ZM159.085 100.42C160.453 100.42 161.479 100.957 162.114 101.98C162.554 102.663 162.749 103.492 162.749 104.467C162.749 105.783 162.407 106.807 161.723 107.538C161.039 108.269 160.111 108.611 158.938 108.611C157.57 108.611 156.593 108.123 155.958 107.197C155.469 106.465 155.225 105.588 155.225 104.515C155.225 103.833 155.323 103.199 155.567 102.663C155.763 102.078 156.105 101.639 156.495 101.298C157.131 100.713 158.01 100.42 159.085 100.42Z" fill="black"/>
<path d="M0 0V82.6824H83.5001V0H0ZM38.6475 18.233C38.6475 16.868 39.7713 15.698 41.1882 15.698C42.6051 15.698 43.7288 16.8192 43.7288 18.233V27.057C43.7288 28.4221 42.6051 29.5921 41.1882 29.5921C39.7713 29.5921 38.6475 28.4708 38.6475 27.057V18.233ZM29.462 51.3353L21.7423 55.6741C18.8596 57.3317 16.3189 52.9928 19.2016 51.3353L26.9213 46.9964C29.8529 45.3388 32.3935 49.6777 29.462 51.3353ZM35.4228 41.3412L19.2993 32.3222C16.4166 30.6647 18.9573 26.3258 21.84 27.9833L37.9635 37.0023C40.8462 38.6111 38.3055 42.9988 35.4228 41.3412ZM43.7288 65.5219C43.7288 66.887 42.6051 68.057 41.1882 68.057C39.7713 68.057 38.6475 66.9357 38.6475 65.5219V47.1914C38.6475 45.8264 39.7713 44.6563 41.1882 44.6563C42.6051 44.6563 43.7288 45.7776 43.7288 47.1914V65.5219ZM60.3409 55.8204L52.8166 51.3353C49.9339 49.6777 52.4746 45.3388 55.3573 46.9964L62.8816 51.4815C65.7643 53.1391 63.2236 57.4779 60.3409 55.8204ZM62.9793 32.2247L47.0513 41.39C44.1686 43.0475 41.6279 38.7086 44.5106 37.0511L60.4386 27.8858C63.3702 26.2283 65.9108 30.5671 62.9793 32.2247Z" fill="black"/>
<path d="M83.5483 0.14624V82.6824H167V0.14624H83.5483ZM130.453 18.8668L147.554 31.2984C150.094 33.151 147.309 37.0023 144.72 35.1498L127.619 22.7182C125.03 20.9144 127.864 17.063 130.453 18.8668ZM104.313 31.2497L121.463 18.8668C124.004 17.0142 126.837 20.8656 124.297 22.7182L107.147 35.101C104.607 37.0023 101.773 33.1022 104.313 31.2497ZM108.222 59.5742L101.577 39.6837C100.6 36.7098 105.193 35.1985 106.17 38.2211L112.815 58.1117C113.743 61.0855 109.199 62.5481 108.222 59.5742ZM136.414 65.0344H115.404C114.085 65.0344 113.01 63.9619 113.01 62.6456C113.01 61.3293 114.085 60.2568 115.404 60.2568H136.414C137.733 60.2568 138.808 61.3293 138.808 62.6456C138.808 63.9619 137.733 65.0344 136.414 65.0344ZM150.339 39.7324L143.84 59.7205C142.863 62.6943 138.27 61.2318 139.248 58.258L145.795 38.2699C146.772 35.296 151.316 36.7586 150.339 39.7324Z" fill="black"/>
</svg>
