<?xml version="1.0" encoding="utf-8"?>
<!-- Generator: Adobe Illustrator 25.4.1, SVG Export Plug-In . SVG Version: 6.00 Build 0)  -->
<svg version="1.1" id="Layer_1" xmlns="http://www.w3.org/2000/svg" xmlns:xlink="http://www.w3.org/1999/xlink" x="0px" y="0px"
	 viewBox="0 0 348.1 258.4" style="enable-background:new 0 0 348.1 258.4;" xml:space="preserve">
<style type="text/css">
	.st0{fill-rule:evenodd;clip-rule:evenodd;fill:#000000;}
	.st1{fill:#000000;}
</style>
<g>
	<g>
		<g>
			<polygon class="st0" points="14.7,233 26.6,233 26.6,234.5 16.5,234.5 16.5,242.7 23.9,242.7 23.9,244.3 16.5,244.3 16.5,253.9 
				27.1,253.9 27.1,255.4 14.7,255.4 			"/>
		</g>
		<g>
			<path class="st0" d="M39.2,241.8l-1.1,0.9c-1.1-1.4-2.4-2.1-3.9-2.1c-1,0-1.7,0.3-2.3,0.8c-0.6,0.5-0.9,1.2-0.9,1.9
				c0,0.9,0.5,1.6,1.4,2.2c0.5,0.3,1.4,0.7,2.7,1.1c1.6,0.6,2.7,1.1,3.3,1.6c0.9,0.7,1.3,1.7,1.3,2.9c0,1.3-0.5,2.4-1.5,3.3
				c-1,0.9-2.3,1.3-3.9,1.3c-2.2,0-4-1.1-5.4-3.2l1.2-0.7c1.1,1.7,2.5,2.5,4.3,2.5c1.2,0,2.2-0.4,2.9-1.1c0.5-0.6,0.8-1.2,0.8-2
				c0-0.9-0.3-1.6-1-2.1c-0.6-0.4-1.4-0.8-2.4-1.1c-1.8-0.6-3.1-1.2-4-1.9c-0.9-0.7-1.3-1.6-1.3-2.8c0-1.2,0.5-2.2,1.4-3
				c0.9-0.7,2-1.1,3.4-1.1C36.3,239.3,37.9,240.1,39.2,241.8z"/>
		</g>
		<g>
			<path class="st0" d="M53,243.3l-1.4,0.4c-0.2-0.6-0.4-1.1-0.8-1.6c-0.7-1-1.7-1.6-2.9-1.6c-1.5,0-2.6,0.7-3.4,2.2
				c-0.7,1.3-1,2.8-1,4.7c0,1.7,0.3,3.1,0.8,4.3c0.7,1.6,1.9,2.4,3.5,2.4c1.3,0,2.5-0.6,3.4-1.9c0.2-0.3,0.5-0.8,0.8-1.3l1.3,0.6
				c-0.3,0.8-0.7,1.4-1.2,2c-1.1,1.3-2.5,2-4.1,2c-2.1,0-3.7-1-4.8-2.9c-0.8-1.5-1.2-3.2-1.2-5.2c0-2.1,0.5-4,1.4-5.6
				c0.5-0.9,1.2-1.5,2-2c0.8-0.5,1.7-0.7,2.7-0.7c1.5,0,2.8,0.6,3.7,1.7C52.2,241.6,52.6,242.4,53,243.3z"/>
		</g>
		<g>
			<path class="st0" d="M61.4,240.6c-1.6,0-2.8,0.8-3.7,2.5c-0.6,1.1-0.8,2.6-0.8,4.4c0,2.1,0.4,3.8,1.2,5c0.8,1.2,1.9,1.8,3.4,1.8
				c1.8,0,3.1-0.9,3.9-2.6c0.5-1.1,0.7-2.6,0.7-4.4c0-2-0.4-3.6-1.1-4.8C64.1,241.3,63,240.6,61.4,240.6z M61.7,239.3
				c2.1,0,3.7,1,4.8,2.9c0.8,1.3,1.2,3.1,1.2,5.2c0,2.4-0.5,4.3-1.4,5.7c-1.1,1.7-2.7,2.6-4.7,2.6c-2.1,0-3.8-0.9-4.9-2.8
				c-0.8-1.3-1.2-3.1-1.2-5.4c0-2.6,0.6-4.6,1.7-6.1C58.2,240,59.7,239.3,61.7,239.3z"/>
		</g>
		<g>
			<rect x="71.2" y="233" class="st0" width="1.5" height="22.4"/>
		</g>
		<g>
			<path class="st0" d="M85.9,246.2c-1.7,0.4-3.1,0.8-4.3,1.3c-1.1,0.4-1.8,0.8-2.3,1.3c-0.8,0.7-1.2,1.6-1.2,2.7
				c0,0.8,0.3,1.4,0.8,2c0.6,0.6,1.3,1,2.2,1c1.6,0,3.2-0.9,4.8-2.6L85.9,246.2z M78.2,243.1l-1.1-0.7c1.1-2,2.8-3.1,5.3-3.1
				c0.9,0,1.8,0.2,2.5,0.5c0.8,0.4,1.3,0.8,1.8,1.4c0.5,0.7,0.7,1.6,0.8,2.6c0,0.5,0,1.2,0,2v3.9c0,2.7,0.2,4.6,0.4,5.8l-1.6,0
				c-0.1-0.6-0.3-1.5-0.3-2.5c-0.6,0.6-1.1,1.1-1.5,1.4c-1,0.8-2.2,1.3-3.5,1.3c-1.4,0-2.5-0.4-3.3-1.3c-0.8-0.8-1.2-1.8-1.2-3
				c0-2.4,1.6-4.1,4.7-5.2c0.8-0.3,2-0.6,3.6-0.9c0.6-0.1,0.9-0.2,1.1-0.2c0-1-0.1-1.8-0.3-2.4c-0.2-0.7-0.7-1.2-1.3-1.5
				c-0.6-0.3-1.3-0.5-2-0.5c-1.1,0-2.1,0.3-3,1C78.9,242,78.5,242.5,78.2,243.1z"/>
		</g>
		<g>
			<path class="st0" d="M109.5,242.9c-1.3-1.5-2.7-2.2-4-2.2c-1.6,0-2.8,0.8-3.7,2.5c-0.6,1.1-0.9,2.5-0.9,4.2
				c0,2.1,0.4,3.8,1.2,5.1c0.8,1.2,1.8,1.9,3.2,1.9c1,0,1.9-0.3,2.9-1c0.5-0.3,0.9-0.8,1.3-1.2l0-0.5v-1.2v-0.4L109.5,242.9z
				 M111.1,233l0,18.4c0,1.6,0.1,2.9,0.2,4l-1.4,0c0-0.1-0.1-0.4-0.1-1c0-0.2-0.1-0.6-0.1-1.2c-1.3,1.6-2.8,2.4-4.3,2.4
				c-1,0-1.9-0.3-2.7-0.8c-0.8-0.5-1.5-1.2-2-2.2c-0.8-1.5-1.1-3.3-1.1-5.4c0-2.1,0.4-3.8,1.2-5.1c0.5-0.9,1.2-1.6,2.1-2.1
				c0.8-0.5,1.7-0.8,2.6-0.8c1.5,0,2.9,0.7,4.2,2.2l0-8.5L111.1,233z"/>
		</g>
		<g>
			<path class="st0" d="M116.4,246.1l8.2,0c-0.1-1.2-0.3-2.2-0.6-3.1c-0.3-0.7-0.8-1.3-1.4-1.7c-0.6-0.4-1.2-0.6-1.9-0.6
				c-1.6,0-2.8,0.9-3.6,2.6C116.7,244.1,116.5,245,116.4,246.1z M126.3,247.5l-9.9,0c0.1,1.3,0.2,2.3,0.4,3.2
				c0.3,1.1,0.9,2.1,1.7,2.8c0.7,0.6,1.5,0.9,2.4,0.9c1.4,0,2.6-0.7,3.7-2c0.2-0.3,0.5-0.6,0.7-1.1l1.1,0.7c-0.3,0.6-0.7,1.1-1,1.5
				c-1.1,1.5-2.6,2.2-4.5,2.2c-2.4,0-4.1-1.1-5.1-3.4c-0.6-1.4-0.9-3-0.9-4.8c0-1.9,0.3-3.5,0.9-4.7c1-2.3,2.7-3.4,4.9-3.4
				c2.4,0,4,1.3,5,3.9C126,244.3,126.2,245.7,126.3,247.5z"/>
		</g>
		<g>
			<path class="st0" d="M19.4,195.8l0,14.7c0,1,0,1.7,0.1,2.1c0.1,0.7,0.4,1.2,0.9,1.6c0.4,0.3,1,0.5,1.6,0.5c1,0,1.7-0.4,2.2-1.1
				c0.4-0.5,0.6-1.6,0.6-3.2l0-14.7l5.6,0l0,14.7c0,1.3-0.1,2.2-0.2,3c-0.2,0.7-0.4,1.4-0.8,2c-1.4,2.2-3.9,3.3-7.4,3.3
				c-2.9,0-5-0.8-6.5-2.4c-0.8-0.9-1.3-2-1.5-3.2c-0.1-0.9-0.2-1.9-0.2-3.1l0-14L19.4,195.8z"/>
		</g>
		<g>
			<path class="st0" d="M39.1,202.4l0,1.8c1.8-1.6,3.6-2.3,5.4-2.3c0.7,0,1.3,0.2,1.9,0.5c0.6,0.4,1,0.8,1.3,1.3
				c0.4,0.9,0.7,2.3,0.7,4.3l0,10.2l-5.1,0l0-10.2c0-1.4-0.6-2.1-1.7-2.1c-0.8,0-1.6,0.4-2.5,1.2l0,11.1l-5.1,0l0-15.8L39.1,202.4z"
				/>
		</g>
		<g>
			<path class="st0" d="M56.9,195.8l0,4.5l-5.1,0l0-4.5L56.9,195.8z M56.9,202.4l0,15.8l-5.1,0l0-15.8L56.9,202.4z"/>
		</g>
		<g>
			<path class="st0" d="M73.8,202.4l-4.7,15.8l-5.7,0l-5.1-15.8l5.6,0l1.6,6.3c0.5,1.9,0.8,3.8,1,5.5c0.1-1.6,0.4-3.5,0.9-5.8l1.2-6
				L73.8,202.4z"/>
		</g>
		<g>
			<path class="st0" d="M79.7,208.6l4.7,0c0-0.7-0.1-1.4-0.3-1.8c-0.4-0.9-1.1-1.3-2-1.3c-1,0-1.7,0.5-2.1,1.5
				C79.8,207.4,79.7,207.9,79.7,208.6z M84.3,213.2l4.7,0.4c-0.8,3.4-3.2,5.1-7.1,5.1c-2.6,0-4.6-0.8-5.9-2.4
				c-1.2-1.4-1.7-3.3-1.7-5.7c0-2.5,0.6-4.6,1.7-6.1c0.7-0.9,1.6-1.6,2.7-2c1-0.4,2.1-0.6,3.2-0.6c2.1,0,3.8,0.7,5.1,2
				c1,1,1.6,2.3,1.9,3.9c0.1,0.4,0.1,1.6,0.2,3.6l-9.4,0c0,0.9,0.1,1.6,0.2,2.1c0.1,0.5,0.4,0.9,0.9,1.2c0.4,0.2,0.8,0.4,1.3,0.4
				C83.3,215,84,214.4,84.3,213.2z"/>
		</g>
		<g>
			<path class="st0" d="M102.9,202v4.8c-0.4-0.1-0.8-0.1-1.1-0.1c-1.2,0-2.3,0.4-3.2,1c-0.6,0.4-1.1,1-1.5,1.8l0,8.7l-5.1,0l0-15.8
				l5.1,0l0,1.4c0,0,0,0.1,0,0.4c0,0.1,0,0.2,0,0.4c0,0.2,0,0.6,0,1.1c0.5-0.9,1-1.6,1.5-2.1c1.1-1.1,2.3-1.6,3.5-1.6
				C102.3,201.9,102.6,201.9,102.9,202z"/>
		</g>
		<g>
			<path class="st0" d="M116.8,206.2l-4.7,0.4c-0.1-1-0.6-1.4-1.4-1.4c-0.5,0-0.9,0.2-1.2,0.5c-0.2,0.2-0.3,0.5-0.3,0.9
				c0,0.7,0.3,1.1,1,1.4c0.2,0.1,1.1,0.3,2.8,0.6c3,0.6,4.4,2.2,4.4,4.7c0,1.6-0.6,2.9-1.8,3.9c-1.1,1-2.8,1.4-5.1,1.4
				c-3.6,0-5.6-1.6-5.9-4.8l4.7-0.3c0.1,1.2,0.7,1.8,1.8,1.8c0.6,0,1-0.2,1.3-0.6c0.2-0.2,0.2-0.5,0.2-0.8c0-0.8-0.6-1.4-1.9-1.6
				c-1.3-0.2-2.2-0.4-2.7-0.6c-0.6-0.2-1-0.4-1.5-0.7c-1.3-0.9-2-2.2-2-4c0-1.6,0.6-2.9,1.9-3.9c1.1-0.9,2.5-1.3,4.5-1.3
				c1.2,0,2.3,0.2,3.2,0.6c0.9,0.4,1.6,0.9,2.1,1.7C116.4,204.6,116.7,205.3,116.8,206.2z"/>
		</g>
		<g>
			<path class="st0" d="M125.2,195.8l0,4.5l-5.1,0v-4.5L125.2,195.8z M125.2,202.4l0,15.8l-5.1,0l0-15.8L125.2,202.4z"/>
		</g>
		<g>
			<path class="st0" d="M137.8,207.3c-0.6-0.9-1.3-1.4-2.2-1.4c-0.9,0-1.6,0.6-2.1,1.8c-0.2,0.7-0.3,1.5-0.3,2.6
				c0,1.6,0.3,2.9,0.8,3.7c0.4,0.7,1,1,1.6,1c0.9,0,1.6-0.5,2.1-1.5v-0.6V212v-0.6L137.8,207.3z M142.8,195.8l0,22.4l-4.4,0
				l-0.2-1.6c-1.3,1.4-2.7,2.1-4.2,2.1c-2.1,0-3.7-1-4.8-2.9c-0.8-1.5-1.2-3.3-1.2-5.4c0-2.4,0.5-4.3,1.4-5.7c0.6-0.9,1.2-1.5,2-2
				c0.8-0.5,1.7-0.7,2.6-0.7c1.4,0,2.7,0.7,3.9,2l0-8.1L142.8,195.8z"/>
		</g>
		<g>
			<path class="st0" d="M155.1,211c-0.8,0.1-1.7,0.3-2.6,0.7c-1.1,0.4-1.7,1.1-1.7,2c0,0.4,0.2,0.8,0.5,1c0.3,0.2,0.6,0.3,1,0.3
				c0.9,0,1.8-0.4,2.8-1.1V211z M151.1,207.3l-4.9-0.6c0.2-1.3,0.6-2.2,1.3-2.9c1.2-1.3,3.2-2,5.9-2c2.7,0,4.6,0.6,5.7,1.8
				c0.6,0.7,1,1.5,1.1,2.4c0.1,0.6,0.1,1.4,0.1,2.4l0,4c0,3,0.1,4.9,0.2,5.8l-4.9,0l-0.2-1.3c-1.5,1.2-3,1.7-4.7,1.7
				c-1.5,0-2.7-0.4-3.7-1.1c-1-0.8-1.5-1.9-1.5-3.3c0-1.7,0.8-3.1,2.3-4.1c1.2-0.8,3.5-1.5,7-2.2l0.4-0.1c0-0.2,0-0.3,0-0.4
				c0-0.8-0.1-1.3-0.4-1.5c-0.3-0.3-0.8-0.4-1.4-0.4C152,205.4,151.3,206.1,151.1,207.3z"/>
		</g>
		<g>
			<path class="st0" d="M172.8,207.3c-0.6-0.9-1.3-1.4-2.2-1.4c-0.9,0-1.6,0.6-2.1,1.8c-0.2,0.7-0.3,1.5-0.3,2.6
				c0,1.6,0.3,2.9,0.8,3.7c0.4,0.7,1,1,1.6,1c0.9,0,1.6-0.5,2.1-1.5v-0.6V212v-0.6L172.8,207.3z M177.9,195.8l0,22.4l-4.4,0
				l-0.2-1.6c-1.3,1.4-2.7,2.1-4.2,2.1c-2.1,0-3.7-1-4.8-2.9c-0.8-1.5-1.2-3.3-1.2-5.4c0-2.4,0.5-4.3,1.4-5.7c0.6-0.9,1.2-1.5,2-2
				c0.8-0.5,1.7-0.7,2.6-0.7c1.4,0,2.7,0.7,3.9,2l0-8.1L177.9,195.8z"/>
		</g>
		<g>
			<path class="st0" d="M185.9,208.6l4.7,0c0-0.7-0.1-1.4-0.3-1.8c-0.4-0.9-1.1-1.3-2-1.3c-1,0-1.7,0.5-2.1,1.5
				C186,207.4,185.9,207.9,185.9,208.6z M190.6,213.2l4.7,0.4c-0.8,3.4-3.2,5.1-7.1,5.1c-2.6,0-4.6-0.8-5.9-2.4
				c-1.2-1.4-1.7-3.3-1.7-5.7c0-2.5,0.6-4.6,1.7-6.1c0.7-0.9,1.6-1.6,2.7-2c1-0.4,2.1-0.6,3.2-0.6c2.1,0,3.8,0.7,5.1,2
				c1,1,1.6,2.3,1.9,3.9c0.1,0.4,0.1,1.6,0.2,3.6l-9.4,0c0,0.9,0.1,1.6,0.2,2.1c0.1,0.5,0.4,0.9,0.9,1.2c0.4,0.2,0.8,0.4,1.3,0.4
				C189.5,215,190.2,214.4,190.6,213.2z"/>
		</g>
		<g>
			<path class="st0" d="M215.9,207.3c-0.6-0.9-1.3-1.4-2.2-1.4c-0.9,0-1.6,0.6-2.1,1.8c-0.2,0.7-0.3,1.5-0.3,2.6
				c0,1.6,0.3,2.9,0.8,3.7c0.4,0.7,1,1,1.6,1c0.9,0,1.6-0.5,2.1-1.5v-0.6v-0.9v-0.6L215.9,207.3z M220.9,195.8l0,22.4l-4.4,0
				l-0.2-1.6c-1.3,1.4-2.7,2.1-4.2,2.1c-2.1,0-3.7-1-4.8-2.9c-0.8-1.5-1.2-3.3-1.2-5.4c0-2.4,0.5-4.3,1.4-5.7c0.6-0.9,1.2-1.5,2-2
				c0.8-0.5,1.7-0.7,2.6-0.7c1.4,0,2.7,0.7,3.9,2l0-8.1L220.9,195.8z"/>
		</g>
		<g>
			<path class="st0" d="M231.2,205.4c-1.5,0-2.3,1.5-2.3,4.6c0,1.6,0.1,2.7,0.4,3.5c0.4,1,1,1.4,1.9,1.4c1.1,0,1.8-0.7,2.1-2.1
				c0.2-0.8,0.3-1.9,0.3-3.2C233.7,206.9,232.8,205.4,231.2,205.4z M231.5,201.8c2.8,0,4.9,1.1,6.2,3.2c0.9,1.4,1.3,3.1,1.3,5.1
				c0,2.7-0.7,4.8-2.1,6.3c-1.4,1.5-3.3,2.2-5.7,2.2c-2.8,0-4.8-1-6.1-2.9c-1-1.5-1.5-3.3-1.5-5.5c0-1.4,0.2-2.7,0.7-3.8
				c0.4-1.2,1.1-2.1,1.9-2.8C227.5,202.4,229.3,201.8,231.5,201.8z"/>
		</g>
		<g>
			<path class="st0" d="M274.8,195.8l0,22.4l-5.6,0l0-14.8c0,0,0-0.2,0-0.5c0-0.2,0-0.4,0-0.4l0-1.5c0-0.1,0-0.4,0-1
				c-0.1,0.3-0.2,1-0.5,2l-0.2,0.9l-3.7,15.4l-4.4,0l-3.6-14.8c-0.3-1.4-0.5-2.5-0.7-3.4l0,0.8v1.7v0.9l0,14.8l-5.6,0l0-22.4l8.9,0
				l2.8,11.3c0.4,1.6,0.6,2.8,0.7,3.8c0.1-0.8,0.3-1.9,0.6-3.3l0.1-0.5l2.3-11.3L274.8,195.8z"/>
		</g>
		<g>
			<path class="st0" d="M283.7,195.8v4.5l-5.1,0v-4.5L283.7,195.8z M283.7,202.4l0,15.8l-5.1,0l0-15.8L283.7,202.4z"/>
		</g>
		<g>
			<path class="st0" d="M292.2,202.4v1.8c1.8-1.6,3.6-2.3,5.4-2.3c0.7,0,1.3,0.2,1.9,0.5c0.6,0.4,1,0.8,1.3,1.3
				c0.4,0.9,0.7,2.3,0.7,4.3l0,10.2l-5.1,0l0-10.2c0-1.4-0.6-2.1-1.7-2.1c-0.8,0-1.6,0.4-2.5,1.2l0,11.1l-5.1,0l0-15.8L292.2,202.4z
				"/>
		</g>
		<g>
			<path class="st0" d="M309.9,195.8l0,8.4c0.4-0.5,1-1,1.7-1.4c1.2-0.7,2.4-1,3.4-1c0.8,0,1.4,0.2,2.1,0.5c0.6,0.3,1.1,0.8,1.4,1.4
				c0.4,0.9,0.7,2.2,0.7,4l0,10.5l-5.1,0l0-10.1c0-0.6-0.1-1-0.2-1.3c-0.3-0.6-0.8-0.8-1.5-0.8c-0.8,0-1.6,0.4-2.4,1.3l0,11l-5.1,0
				l0-22.4L309.9,195.8z"/>
		</g>
		<g>
			<path class="st0" d="M329.4,205.4c-1.5,0-2.3,1.5-2.3,4.6c0,1.6,0.1,2.7,0.4,3.5c0.4,1,1,1.4,1.9,1.4c1.1,0,1.8-0.7,2.1-2.1
				c0.2-0.8,0.3-1.9,0.3-3.2C331.9,206.9,331.1,205.4,329.4,205.4z M329.7,201.8c2.8,0,4.9,1.1,6.2,3.2c0.9,1.4,1.3,3.1,1.3,5.1
				c0,2.7-0.7,4.8-2.1,6.3c-1.4,1.5-3.3,2.2-5.7,2.2c-2.8,0-4.8-1-6.1-2.9c-1-1.5-1.5-3.3-1.5-5.5c0-1.4,0.2-2.7,0.7-3.8
				c0.4-1.2,1.1-2.1,1.9-2.8C325.7,202.4,327.5,201.8,329.7,201.8z"/>
		</g>
		<g>
			<path class="st1" d="M152.2,248.8c-0.5,2.3-1.3,4-2.5,5.1s-2.8,1.7-4.8,1.7c-2.6,0-4.6-1-6-2.9c-1.4-2-2.1-4.7-2.1-8.3
				c0-3.5,0.7-6.2,2.1-8.1s3.4-2.8,6-2.8c1.8,0,3.3,0.5,4.5,1.5c1.2,1,2,2.5,2.6,4.6l-1.8,0.4c-0.5-1.7-1.2-2.9-2.1-3.7
				c-0.9-0.8-2-1.2-3.2-1.2c-1.9,0-3.3,0.8-4.4,2.4c-1,1.6-1.5,3.9-1.5,6.9c0,3,0.5,5.3,1.6,6.9c1.1,1.7,2.6,2.5,4.5,2.5
				c1.4,0,2.6-0.5,3.5-1.4s1.6-2.3,2-4.1L152.2,248.8z"/>
			<path class="st1" d="M155.6,236.5v-2.6h2.2v2.6H155.6z M155.8,255.3v-15.5h1.8v15.5H155.8z"/>
			<path class="st1" d="M172.2,250.8l1.4,0.7c-0.7,1.4-1.5,2.4-2.4,3s-2.1,0.9-3.4,0.9c-1.9,0-3.5-0.7-4.6-2.1
				c-1.1-1.4-1.7-3.3-1.7-5.8c0-2.5,0.6-4.5,1.7-6s2.7-2.2,4.6-2.2c1.9,0,3.3,0.6,4.3,1.9c1,1.3,1.5,3.1,1.5,5.6v0.5l-10.2,0
				c0,2.1,0.4,3.7,1.2,4.9s1.9,1.7,3.4,1.7c1,0,1.8-0.3,2.5-0.8C171,252.8,171.6,251.9,172.2,250.8z M171.7,246.1
				c0-1.6-0.4-2.9-1.1-3.8s-1.7-1.4-2.9-1.4s-2.3,0.5-3,1.4c-0.8,0.9-1.3,2.2-1.4,3.8H171.7z M163.9,237.9l2.9-5.1h2.2l2.9,5.1h-1.3
				l-2.7-3.8l-2.7,3.8H163.9z"/>
			<path class="st1" d="M176.9,255.3v-15.5h1.8v2.4c0.9-0.9,1.8-1.6,2.7-2c0.9-0.5,1.8-0.7,2.7-0.7c1.4,0,2.4,0.4,3.1,1.2
				c0.7,0.8,1,2.1,1,3.7v10.8h-1.8v-10.1c0-1.5-0.2-2.6-0.6-3.2c-0.4-0.6-1.2-0.9-2.2-0.9c-0.8,0-1.6,0.2-2.4,0.7
				c-0.8,0.5-1.6,1.2-2.4,2.2v11.3H176.9z"/>
			<path class="st1" d="M202.1,250.8l1.4,0.8c-0.7,1.4-1.4,2.4-2.3,3s-1.9,0.9-3.2,0.9c-1.9,0-3.5-0.7-4.6-2.1
				c-1.1-1.4-1.7-3.3-1.7-5.8c0-2.5,0.6-4.5,1.7-6s2.6-2.2,4.5-2.2c1.3,0,2.5,0.3,3.4,1c0.9,0.7,1.7,1.7,2.2,3.1l-1.6,0.6
				c-0.4-1.1-0.9-1.9-1.6-2.5c-0.6-0.5-1.4-0.8-2.4-0.8c-1.4,0-2.4,0.6-3.2,1.7s-1.1,2.7-1.1,4.8c0,2.1,0.4,3.7,1.2,4.9
				c0.8,1.1,1.9,1.7,3.3,1.7c0.9,0,1.7-0.3,2.4-0.8C200.9,252.8,201.5,252,202.1,250.8z"/>
			<path class="st1" d="M206.7,236.5v-2.6h2.2v2.6H206.7z M207,255.3v-15.5h1.8v15.5H207z"/>
			<path class="st1" d="M222.4,255.3c-0.1-0.4-0.2-0.8-0.2-1.1s-0.1-0.6-0.1-0.9c-0.9,0.8-1.7,1.4-2.6,1.8c-0.9,0.4-1.8,0.6-2.7,0.6
				c-1.2,0-2.2-0.4-3-1.2c-0.8-0.8-1.2-1.8-1.2-3c0-1.7,0.7-3,2.1-4s3.9-1.8,7.3-2.4v-1.5c0-0.8-0.3-1.4-0.9-1.9
				c-0.6-0.5-1.4-0.7-2.5-0.7c-0.8,0-1.6,0.2-2.2,0.6c-0.6,0.4-1.2,1-1.6,1.9l-1.4-0.8c0.6-1.1,1.4-1.9,2.3-2.4
				c0.9-0.5,2-0.8,3.2-0.8c1.4,0,2.6,0.4,3.6,1.2c0.9,0.8,1.4,1.7,1.4,2.9v9.6c0,0.2,0,0.5,0.1,0.8c0,0.4,0.1,0.8,0.2,1.2H222.4z
				 M222,251.3v-4.8c-3,0.7-5,1.3-6.1,2c-1,0.7-1.5,1.6-1.5,2.8c0,0.9,0.2,1.5,0.7,2c0.5,0.5,1.1,0.7,1.9,0.7c0.8,0,1.6-0.2,2.4-0.7
				C220.2,253,221.1,252.3,222,251.3z"/>
			<path class="st1" d="M228.2,251.4c0.7,0.9,1.4,1.6,2.2,2c0.8,0.4,1.6,0.7,2.5,0.7c0.9,0,1.7-0.3,2.3-0.8c0.6-0.5,0.9-1.2,0.9-2.1
				c0-1.2-1.2-2.2-3.5-3.1c-0.2-0.1-0.4-0.1-0.4-0.2c-1.9-0.7-3.2-1.4-3.8-2c-0.6-0.6-0.9-1.4-0.9-2.4c0-1.2,0.5-2.2,1.4-3
				c0.9-0.8,2.1-1.2,3.6-1.2c1,0,2,0.2,2.8,0.7s1.6,1.2,2.3,2.1l-1.3,1c-0.6-0.8-1.2-1.4-1.9-1.8c-0.7-0.4-1.4-0.6-2.3-0.6
				c-0.8,0-1.5,0.2-2,0.7c-0.5,0.5-0.8,1.1-0.8,1.8c0,1,1.1,1.9,3.4,2.8c0.3,0.1,0.6,0.2,0.7,0.3c1.9,0.7,3.1,1.4,3.7,2
				s0.9,1.5,0.9,2.5c0,1.3-0.5,2.4-1.5,3.2c-1,0.8-2.2,1.2-3.8,1.2c-1.2,0-2.3-0.2-3.3-0.7c-1-0.5-1.8-1.3-2.6-2.3L228.2,251.4z"/>
		</g>
	</g>
	<g>
		<path class="st1" d="M4.1,4.6v169.6H175V4.6H4.1z M83.2,42c0-2.8,2.3-5.2,5.2-5.2c2.9,0,5.2,2.3,5.2,5.2l0,18.1
			c0,2.8-2.3,5.2-5.2,5.2c-2.9,0-5.2-2.3-5.2-5.2L83.2,42z M64.4,109.9l-15.8,8.9c-5.9,3.4-11.1-5.5-5.2-8.9l15.8-8.9
			C65.1,97.6,70.3,106.5,64.4,109.9z M76.5,89.4l-33-18.5c-5.9-3.4-0.7-12.3,5.2-8.9l33,18.5C87.6,83.8,82.4,92.8,76.5,89.4z
			 M93.6,138.9c0,2.8-2.3,5.2-5.2,5.2c-2.9,0-5.2-2.3-5.2-5.2l0-37.6c0-2.8,2.3-5.2,5.2-5.2c2.9,0,5.2,2.3,5.2,5.2L93.6,138.9z
			 M127.6,119.1l-15.4-9.2c-5.9-3.4-0.7-12.3,5.2-8.9l15.4,9.2C138.7,113.6,133.5,122.5,127.6,119.1z M133,70.7l-32.6,18.8
			c-5.9,3.4-11.1-5.5-5.2-8.9l32.6-18.8C133.7,58.4,138.9,67.3,133,70.7z"/>
	</g>
	<g>
		<path class="st1" d="M175.1,4.6v169.6H346V4.6H175.1z M213.7,60.7c2.6-1.3,5.7-0.2,7,2.3l8.8,17.7c1.3,2.6,0.2,5.7-2.3,7
			c-2.6,1.3-5.7,0.2-7-2.3l-8.8-17.7C210.1,65.1,211.1,62,213.7,60.7z M237.6,121h-19.7c-2.9,0-5.2-2.3-5.2-5.2
			c0-2.9,2.3-5.2,5.2-5.2h19.7c2.9,0,5.2,2.3,5.2,5.2C242.8,118.7,240.4,121,237.6,121z M246.3,60.4L246.3,60.4
			c-2.5-1.4-3.3-4.6-1.9-7.1l9.9-17.1c1.4-2.5,4.6-3.3,7.1-1.9c2.5,1.4,3.3,4.6,1.9,7.1l-9.9,17.1C251.9,60.9,248.7,61.8,246.3,60.4
			z M276.2,125.7l-9.9,17.1c-1.4,2.5-4.6,3.3-7.1,1.9c-2.5-1.4-3.3-4.6-1.9-7.1l9.9-17.1c1.4-2.5,4.6-3.3,7.1-1.9
			C276.8,120.1,277.7,123.3,276.2,125.7z M277.6,63.1c0-2.9,2.3-5.2,5.2-5.2h19.7c2.9,0,5.2,2.3,5.2,5.2c0,2.9-2.3,5.2-5.2,5.2
			h-19.7C279.9,68.3,277.6,65.9,277.6,63.1z M307.2,119.3c-2.6,1.3-5.7,0.2-7-2.3l-8.8-17.7c-1.3-2.6-0.2-5.7,2.3-7
			c2.6-1.3,5.7-0.2,7,2.3l8.8,17.7C310.8,114.9,309.7,118,307.2,119.3z"/>
	</g>
</g>
</svg>
