<svg id="Layer_1" data-name="Layer 1" xmlns="http://www.w3.org/2000/svg" viewBox="0 0 170.33 54.47"><defs><style>.cls-1{fill:#231f20;}</style></defs><title>nefumpreto</title><path class="cls-1" d="M57.11,17.47a17.19,17.19,0,0,0-13.37-1.22,18.86,18.86,0,0,0-8.64,5.66,1.42,1.42,0,0,1-.88.56,1.29,1.29,0,0,1-.64,0,1.42,1.42,0,0,1-.8-.73,10.62,10.62,0,0,0-2.85-3.9S25,13.59,17.13,16.3a11.8,11.8,0,0,0-2.1,1,12.52,12.52,0,0,0-2.8,2.36c-1,1.22-1.45,2.29-2.34,2.32a1.07,1.07,0,0,1-.52-.11c-.76-.37-.79-1.59-.79-1.71V17.76H.83V39.05H8.58V33.5a9.63,9.63,0,0,1,2.51-6.93,9.49,9.49,0,0,1,10.73-1.92,7.32,7.32,0,0,1,2.12,1.68C25,27.58,26,29.61,26,33.22V49.4a59.79,59.79,0,0,0,5.18-4.74,2.26,2.26,0,0,1,1.39-.92,3.17,3.17,0,0,1,.73,0,4.18,4.18,0,0,1,1.1.34,24.37,24.37,0,0,0,2.39.82,11.08,11.08,0,0,0,2.6.47c-.18-.61-.31-1.1-.39-1.42a25,25,0,0,1-.36-5.7,1,1,0,0,1,.11-.52c.35-.65,1.43-.68,2-.66H66.38a23.42,23.42,0,0,0-.68-6.91c-.61-2.41-2.31-9.16-8.59-12.74m2.22,15.34a.74.74,0,0,1-.44.19c-10,.09-17.42.09-18.15,0a1.17,1.17,0,0,1-.83-.39.91.91,0,0,1-.19-.55,10.07,10.07,0,0,1,1.5-5.48c2.39-3.41,9.07-5.76,13.82-2.82a11.48,11.48,0,0,1,4.51,7.56c.06.33.21,1.12-.22,1.49" transform="translate(-0.83 -2.27)"/><path class="cls-1" d="M97.65,47.44a11.78,11.78,0,0,1-1.9-4.94,9.12,9.12,0,0,1-.07-1V15.83h-13a.47.47,0,0,1-.2-.06c-.29-.15-.37-.8-.37-.8a15.13,15.13,0,0,1,0-2.39,5.3,5.3,0,0,1,1.34-3.42,3.33,3.33,0,0,1,2-1.08h4.38V2.28H84.21c-.57,0-6.12-.22-9.53,4.17a11,11,0,0,0-2.23,6.8v2.81c0,.08,0,1.4-.76,1.66a.75.75,0,0,1-.24,0H67.56a12.3,12.3,0,0,1,4.06,4.4,11.7,11.7,0,0,1,.83,2V39.05h9.68V23.92a.28.28,0,0,1,0-.09c0-.15.26-.25.53-.26h2.92a.43.43,0,0,1,.4.27A.36.36,0,0,1,86,24V43.2s.92,7.7,6.21,11.41a13.52,13.52,0,0,0,8.5,2.09,14.27,14.27,0,0,0,5.65-1.45,24.39,24.39,0,0,0,3.86-2.65h-6.1a5.38,5.38,0,0,1-.62-.13c-3.16-.81-4.94-3.6-5.85-5" transform="translate(-0.83 -2.27)"/><path class="cls-1" d="M166.22,19.16a14.18,14.18,0,0,0-6.16-2.26,17.38,17.38,0,0,0-7.85.53,13.67,13.67,0,0,0-5.55,3.14,11.69,11.69,0,0,0-1.58,1.89,1.85,1.85,0,0,1-.4.39,1.66,1.66,0,0,1-1.32.24,1.54,1.54,0,0,1-.86-.77,12.66,12.66,0,0,0-1.86-2.51A11.64,11.64,0,0,0,134.82,17a15.09,15.09,0,0,0-9,.64A19.67,19.67,0,0,0,120.77,21c-.49.43-.88.8-1.15,1.07a1.63,1.63,0,0,1-.75.4,1.39,1.39,0,0,1-.83,0,1.18,1.18,0,0,1-.5-.36c-.23-.26-.35-.59-.41-2.18,0-.5,0-.92,0-1.15v-1h-4V39.05h9.68v-7c0-.27-.28-5.09,3.44-7.67,3.39-2.35,8.29-1.6,10.21.79a10.84,10.84,0,0,1,1.68,4.5,11.73,11.73,0,0,1,.15,2.11v5.3h9V31.9c0-.26,0-.6,0-1,0,0,0-.46.06-.88a12.2,12.2,0,0,1,1.53-4.17c2.09-3.08,8.82-4.06,11.68-1.14a7.89,7.89,0,0,1,2,4.82c0,.32,0,.59,0,.77v8.75h8.62V28.77c0-1-.43-6.42-4.95-9.61" transform="translate(-0.83 -2.27)"/></svg>