<svg width="56" height="79" viewBox="0 0 56 79" fill="none" xmlns="http://www.w3.org/2000/svg">
<path d="M28 79C43.464 79 56 66.225 56 50.4662C56 34.7074 43.464 21.9324 28 21.9324C12.536 21.9324 0 34.7074 0 50.4662C0 66.225 12.536 79 28 79Z" fill="#DC2727"/>
<path d="M26.3392 21.9324C19.5752 22.4215 13.2115 25.381 8.41656 30.2673C3.62165 35.1536 0.717546 41.6387 0.237548 48.5317C0.222998 48.8156 0.280933 49.0985 0.405699 49.3528C0.530465 49.6071 0.717799 49.8241 0.949413 49.9826C1.16129 50.2149 1.41853 50.3995 1.7046 50.5244C1.99067 50.6493 2.29922 50.7119 2.61043 50.708C2.66669 47.0253 3.45234 43.392 4.92024 40.0263C6.38815 36.6605 8.50806 33.6316 11.1528 31.1212C15.8806 26.8727 21.9353 24.4732 28.2375 24.3505C28.2534 23.934 28.1721 23.5197 28.0003 23.1414C27.586 22.5696 27.0044 22.1463 26.3392 21.9324Z" fill="#E94546"/>
<path d="M28.0005 72.7854C39.795 72.7854 49.3564 63.0418 49.3564 51.0224C49.3564 39.0029 39.795 29.2593 28.0005 29.2593C16.2059 29.2593 6.64453 39.0029 6.64453 51.0224C6.64453 63.0418 16.2059 72.7854 28.0005 72.7854Z" fill="#C12625"/>
<path d="M13.7622 34.821C11.6228 36.7863 9.89076 39.168 8.66821 41.8258C7.44566 44.4837 6.75728 47.3639 6.64359 50.2969C6.63429 55.718 8.38647 60.9898 11.6266 65.2893C8.93606 61.3112 7.52632 56.5788 7.59275 51.7478C7.70637 47.8335 8.84411 44.0211 10.8883 40.7051C12.9324 37.3891 15.8088 34.6898 19.2199 32.8865C22.6824 31.11 26.5406 30.287 30.4116 30.4991C34.2826 30.7112 38.032 31.951 41.2877 34.0955C38.762 32.065 35.8547 30.5837 32.7453 29.7429C29.4132 28.981 25.9504 29.0445 22.6474 29.9281C19.3444 30.8116 16.2975 32.4895 13.7622 34.821Z" fill="#9A1A1C"/>
<path d="M33.22 43.2118C33.22 41.8009 32.67 40.4478 31.691 39.4501C30.712 38.4525 29.3842 37.892 27.9996 37.892C26.6151 37.892 25.2873 38.4525 24.3083 39.4501C23.3293 40.4478 22.7793 41.8009 22.7793 43.2118C22.8095 44.0507 23.0158 44.8732 23.3842 45.624C23.7525 46.3748 24.2745 47.0365 24.9149 47.5645C24.6776 51.9171 24.4403 56.0279 24.203 60.3805V60.8641C24.203 61.8261 24.578 62.7487 25.2455 63.4289C25.913 64.1092 26.8184 64.4913 27.7623 64.4913C28.7063 64.4913 29.6117 64.1092 30.2792 63.4289C30.9467 62.7487 31.3217 61.8261 31.3217 60.8641V60.3805C31.0844 56.0279 30.8471 51.9171 30.6098 47.5645C31.3814 47.1361 32.0288 46.5084 32.487 45.7444C32.9451 44.9804 33.1979 44.1069 33.22 43.2118Z" fill="#9A1A1C"/>
<path d="M46.2233 19.4175C46.847 19.2211 47.3724 18.7874 47.6906 18.2065C48.0087 17.6256 48.0951 16.9422 47.9318 16.2981C46.8953 11.6913 44.3634 7.57581 40.746 4.61793C37.1286 1.66005 32.6374 0.0329287 27.9996 0C22.6618 0.0379958 17.5533 2.2157 13.7788 6.06212C10.0043 9.90855 7.86736 15.1145 7.83008 20.554V31.1938C8.56053 30.3283 9.35372 29.52 10.203 28.7756C10.9361 28.1316 11.7311 27.5645 12.5758 27.083V20.554C12.5827 16.6703 14.0004 12.9266 16.5554 10.0449C19.1105 7.16321 22.622 5.34755 26.4129 4.94802C30.2038 4.54848 34.0056 5.59337 37.0853 7.8812C40.1649 10.169 42.3044 13.5378 43.0911 17.3379C43.1524 17.6894 43.2838 18.0244 43.4772 18.3221C43.6705 18.6199 43.9218 18.874 44.2153 19.0689C44.5088 19.2638 44.8385 19.3953 45.1838 19.4552C45.5292 19.5152 45.883 19.5024 46.2233 19.4175Z" fill="#B91E1D"/>
<path d="M10.2036 20.7958C10.2099 15.9878 12.0869 11.3786 15.423 7.97886C18.7592 4.5791 23.2822 2.66631 28.0002 2.65991C28.0965 2.67158 28.194 2.66084 28.2856 2.62851C28.3772 2.59617 28.4604 2.54309 28.5289 2.47325C28.5974 2.40341 28.6495 2.31864 28.6813 2.22532C28.713 2.13199 28.7235 2.03255 28.7121 1.93447C28.7235 1.8364 28.713 1.73696 28.6813 1.64363C28.6495 1.55031 28.5974 1.46553 28.5289 1.3957C28.4604 1.32586 28.3772 1.27277 28.2856 1.24044C28.194 1.20811 28.0965 1.19737 28.0002 1.20904C22.7503 1.34288 17.7462 3.50368 14.0002 7.25434C10.5973 10.904 8.72462 15.7617 8.77988 20.7958C8.76843 20.8939 8.77897 20.9933 8.81069 21.0867C8.84242 21.18 8.89451 21.2648 8.96304 21.3346C9.03157 21.4044 9.11476 21.4575 9.20634 21.4898C9.29792 21.5222 9.3955 21.5329 9.49174 21.5213C9.67686 21.5098 9.85146 21.4297 9.9826 21.296C10.1137 21.1624 10.1924 20.9845 10.2036 20.7958Z" fill="#DC2727"/>
</svg>
